<svg width="230" height="69" fill="none" xmlns="http://www.w3.org/2000/svg"><mask id="b" maskUnits="userSpaceOnUse" x="-8" y="-8" width="247" height="85" fill="#000"><path fill="#fff" d="M-8-8h247v85H-8z"/><path d="M30.182 35.79c0 4.742-.352 8.842-1.056 12.3-.673 3.427-1.575 6.35-2.708 8.766-1.132 2.418-2.417 4.376-3.855 5.875-1.408 1.5-2.846 2.663-4.314 3.489-1.47.826-2.892 1.377-4.269 1.652-1.377.306-2.586.46-3.626.46l-9.41-.781a634.95 634.95 0 0 0 .919-18.819c.214-6.334.321-12.713.321-19.14A559.727 559.727 0 0 0 1.45.815 54.481 54.481 0 0 1 3.607.677C4.31.647 4.999.63 5.672.63c5.08 0 9.21.872 12.393 2.616 3.182 1.714 5.66 4.13 7.435 7.252 1.806 3.09 3.03 6.793 3.672 11.107.674 4.284 1.01 9.012 1.01 14.183zm-9.363-1.24c0-1.5-.03-3.09-.092-4.774a56.227 56.227 0 0 0-.413-5.094 36.585 36.585 0 0 0-.872-4.912c-.398-1.59-.918-3.044-1.56-4.36-.643-1.346-1.439-2.494-2.387-3.442-.918-.949-2.035-1.622-3.351-2.02-.184 3.366-.352 6.655-.505 9.868-.122 3.183-.23 6.334-.321 9.456a973.7 973.7 0 0 0-.23 9.317c-.03 3.06-.045 6.135-.045 9.226v6.15c0 2.05.03 4.146.091 6.288 1.408-.153 2.632-.688 3.672-1.606 1.04-.919 1.913-2.066 2.616-3.443.735-1.407 1.316-2.983 1.744-4.727a45.75 45.75 0 0 0 1.056-5.416c.245-1.867.398-3.703.46-5.508.09-1.806.137-3.473.137-5.003zm42.49-12.852a477.797 477.797 0 0 0-.504 14.642 759.165 759.165 0 0 0-.138 14.504v8.537c.03 2.815.092 5.66.184 8.537l-9.134.23V62.41c-.918 1.5-1.943 2.647-3.075 3.443-1.132.795-2.219 1.361-3.259 1.698-1.01.367-1.882.566-2.616.596a27.67 27.67 0 0 1-1.285.092c-1.928-.398-3.535-1.239-4.82-2.524-1.254-1.316-2.264-2.938-3.029-4.865-.734-1.959-1.255-4.162-1.56-6.61a62.184 62.184 0 0 1-.46-7.71c0-2.326.092-4.698.276-7.115.183-2.417.413-4.789.688-7.114.276-2.356.582-4.62.918-6.793.337-2.203.674-4.253 1.01-6.15l10.006.183a801.821 801.821 0 0 0-.872 5.875 342.355 342.355 0 0 0-.78 6.472 234.025 234.025 0 0 0-.551 6.655c-.123 2.203-.184 4.3-.184 6.288 0 1.836.077 3.55.23 5.14.153 1.592.398 2.984.734 4.177.337 1.163.765 2.081 1.285 2.754.551.643 1.224.964 2.02.964 1.04 0 1.897-.627 2.57-1.882.673-1.254 1.193-2.891 1.56-4.91.398-2.05.658-4.346.78-6.886.154-2.54.23-5.094.23-7.665 0-1.927-.03-3.763-.091-5.507a506.744 506.744 0 0 0-.184-4.682 500.896 500.896 0 0 0-.275-4.452l10.327-.184zm32.165 17.029c-.98.153-2.005.336-3.076.55-.918.184-1.958.429-3.12.735a50.39 50.39 0 0 0-3.489 1.055c.306-1.53.505-2.86.597-3.993.122-1.163.183-2.218.183-3.167 0-1.652-.153-2.937-.459-3.855-.275-.949-.596-1.653-.964-2.112-.367-.459-.734-.734-1.101-.826-.337-.091-.566-.137-.689-.137-.979 0-1.774.413-2.386 1.239-.612.795-1.087 1.866-1.423 3.213-.337 1.316-.566 2.83-.689 4.544a74.088 74.088 0 0 0-.183 5.278 161.959 161.959 0 0 0 .183 7.71L79.501 67l-10.603.734c0-7.374-.076-14.014-.23-19.92-.122-5.936-.26-11-.412-15.192a717.438 717.438 0 0 0-.597-13.081l9.042-.597.46 5.187c.795-1.959 1.728-3.504 2.799-4.636 1.101-1.163 2.188-2.02 3.259-2.57 1.101-.582 2.096-.949 2.983-1.102.918-.153 1.606-.23 2.066-.23 1.56 0 2.83.506 3.81 1.515.978.98 1.743 2.25 2.294 3.81.55 1.56.918 3.274 1.102 5.14.214 1.867.32 3.672.32 5.417 0 1.377-.045 2.692-.137 3.947a268.193 268.193 0 0 1-.183 3.305zm30.19-.964c0 4.834-.031 9.669-.092 14.504a662.448 662.448 0 0 1-.275 15.1l-7.987-.459v-6.196c-.918 1.652-1.958 2.922-3.121 3.81-1.163.856-2.264 1.499-3.305 1.927-1.224.49-2.432.765-3.626.826a9.108 9.108 0 0 1-4.13-.964 11.303 11.303 0 0 1-3.351-2.662 12.944 12.944 0 0 1-2.249-3.763 12.991 12.991 0 0 1-.78-4.452c0-1.744.367-3.458 1.101-5.141.765-1.714 2.05-3.259 3.856-4.636 2.417-1.866 4.513-3.427 6.288-4.681 1.775-1.255 3.243-2.387 4.406-3.397 1.193-1.04 2.065-2.02 2.616-2.937.582-.949.872-2.035.872-3.26 0-2.019-.336-3.518-1.009-4.497-.674-1.01-1.561-1.515-2.663-1.515-.673 0-1.254.184-1.744.55-.459.337-.841.796-1.147 1.378a7.965 7.965 0 0 0-.643 1.882 11.303 11.303 0 0 0-.183 2.02c0 .458.015.963.046 1.514.061.55.168 1.132.321 1.744l-10.557.184c-.061-.52-.107-1.01-.138-1.47-.03-.489-.045-.963-.045-1.422 0-1.897.32-3.764.963-5.6.643-1.866 1.576-3.518 2.8-4.957a14.35 14.35 0 0 1 4.544-3.534c1.775-.887 3.81-1.33 6.105-1.33 2.968 0 5.309.626 7.022 1.881 1.744 1.224 3.06 2.846 3.947 4.865.918 2.02 1.5 4.315 1.745 6.885.275 2.54.413 5.14.413 7.803zm-10.327 12.989c.153-.765.29-1.637.413-2.616.122-.826.229-1.82.321-2.984.092-1.193.168-2.524.229-3.993-.489.673-.963 1.27-1.422 1.79-.459.52-.888.98-1.286 1.377-.459.46-.887.872-1.285 1.24a54.86 54.86 0 0 0-2.249 1.973 21.84 21.84 0 0 0-2.203 2.25 15.914 15.914 0 0 0-1.652 2.478c-.429.826-.643 1.637-.643 2.432 0 .857.291 1.653.872 2.387.582.704 1.301 1.056 2.157 1.056.643 0 1.301-.184 1.974-.551.704-.367 1.362-.888 1.974-1.56a11.247 11.247 0 0 0 2.8-5.279zm42.261-31.12a765.664 765.664 0 0 1-4.406 10.925 375.806 375.806 0 0 1-3.259 7.665 185.527 185.527 0 0 1-2.203 5.003c-.582 1.254-1.056 2.218-1.423 2.891.796 1.744 2.05 4.33 3.764 7.757 1.713 3.427 4.008 7.742 6.884 12.943l-11.015.735-6.839-16.432v4.59l.092 5.049c.03 1.622.076 3.106.137 4.452.062 1.346.138 2.326.23 2.938h-5.554a95.87 95.87 0 0 0-3.763.183c.244-3.427.443-6.778.596-10.052.153-3.274.26-6.211.321-8.812.092-3.03.138-5.89.138-8.583-.03-2.999-.107-6.457-.229-10.373a871.514 871.514 0 0 0-1.561-28.64c3.764.183 6.671.275 8.721.275h1.285c.398 0 .734-.016 1.01-.046.336 0 .612-.016.826-.046a1559.974 1559.974 0 0 0-.964 25.06l-.229 7.757a349.43 349.43 0 0 0-.046 4.957 411.279 411.279 0 0 0 3.58-10.373c1.163-3.55 2.264-7.359 3.304-11.429l10.603 1.607zm12.749 46.129c-.796.03-1.699.092-2.708.183-.857.061-1.867.138-3.03.23-1.132.092-2.386.214-3.763.367a2355.357 2355.357 0 0 0-.872-27.493c-.306-7.987-.582-14.734-.826-20.241-.306-6.426-.612-12.01-.918-16.753l11.933-.551v33.414c.031 4.284.046 8.032.046 11.245.031 3.182.046 5.921.046 8.216.031 5.355.061 9.149.092 11.383zm32.485-27.998c0 4.834-.031 9.669-.092 14.504a662.448 662.448 0 0 1-.275 15.1l-7.987-.459v-6.196c-.918 1.652-1.958 2.922-3.121 3.81-1.163.856-2.264 1.499-3.304 1.927-1.224.49-2.433.765-3.626.826a9.11 9.11 0 0 1-4.131-.964 11.316 11.316 0 0 1-3.351-2.662 12.964 12.964 0 0 1-2.249-3.763 12.995 12.995 0 0 1-.78-4.452c0-1.744.367-3.458 1.101-5.141.765-1.714 2.05-3.259 3.856-4.636 2.417-1.866 4.513-3.427 6.288-4.681 1.775-1.255 3.243-2.387 4.406-3.397 1.194-1.04 2.066-2.02 2.616-2.937.582-.949.872-2.035.872-3.26 0-2.019-.336-3.518-1.009-4.497-.673-1.01-1.561-1.515-2.662-1.515-.674 0-1.255.184-1.745.55-.459.337-.841.796-1.147 1.378a8.01 8.01 0 0 0-.643 1.882 11.303 11.303 0 0 0-.183 2.02c0 .458.015.963.046 1.514.061.55.168 1.132.321 1.744l-10.557.184c-.061-.52-.107-1.01-.137-1.47-.031-.489-.046-.963-.046-1.422 0-1.897.321-3.764.964-5.6.642-1.866 1.575-3.518 2.799-4.957a14.35 14.35 0 0 1 4.544-3.534c1.775-.887 3.81-1.33 6.105-1.33 2.968 0 5.309.626 7.022 1.881 1.744 1.224 3.06 2.846 3.948 4.865.918 2.02 1.499 4.315 1.744 6.885.275 2.54.413 5.14.413 7.803zm-10.327 12.989c.153-.765.29-1.637.413-2.616.122-.826.229-1.82.321-2.984.092-1.193.168-2.524.23-3.993a24.53 24.53 0 0 1-1.423 1.79c-.459.52-.888.98-1.285 1.377-.459.46-.888.872-1.286 1.24a55.534 55.534 0 0 0-2.249 1.973 21.84 21.84 0 0 0-2.203 2.25 15.914 15.914 0 0 0-1.652 2.478c-.429.826-.643 1.637-.643 2.432 0 .857.291 1.653.872 2.387.582.704 1.301 1.056 2.158 1.056.642 0 1.3-.184 1.973-.551.704-.367 1.362-.888 1.974-1.56a11.211 11.211 0 0 0 1.698-2.341c.49-.888.857-1.867 1.102-2.938zm31.383-45.715a346.587 346.587 0 0 0-.642 7.252 527.474 527.474 0 0 0-.505 6.977 134.83 134.83 0 0 1 3.442-.138 71.378 71.378 0 0 0 3.534-.276l-.321 9.318a68.135 68.135 0 0 0-3.58-.092h-3.534c-.245 4.406-.429 8.72-.551 12.944-.092 4.192-.138 8.43-.138 12.713 0 2.203.016 4.422.046 6.656.061 2.203.123 4.437.184 6.7l-10.098.184c.214-6.578.398-13.08.551-19.506.153-6.457.229-12.96.229-19.507l-3.534.183c-1.193.03-2.371.092-3.534.184l.367-10.052c1.071.153 2.173.275 3.305.367 1.132.092 2.234.169 3.305.23 0-2.387-.031-4.728-.092-7.023a280.812 280.812 0 0 0-.184-7.022l11.75-.092z"/></mask><path d="M30.182 35.79c0 4.742-.352 8.842-1.056 12.3-.673 3.427-1.575 6.35-2.708 8.766-1.132 2.418-2.417 4.376-3.855 5.875-1.408 1.5-2.846 2.663-4.314 3.489-1.47.826-2.892 1.377-4.269 1.652-1.377.306-2.586.46-3.626.46l-9.41-.781a634.95 634.95 0 0 0 .919-18.819c.214-6.334.321-12.713.321-19.14A559.727 559.727 0 0 0 1.45.815 54.481 54.481 0 0 1 3.607.677C4.31.647 4.999.63 5.672.63c5.08 0 9.21.872 12.393 2.616 3.182 1.714 5.66 4.13 7.435 7.252 1.806 3.09 3.03 6.793 3.672 11.107.674 4.284 1.01 9.012 1.01 14.183zm-9.363-1.24c0-1.5-.03-3.09-.092-4.774a56.227 56.227 0 0 0-.413-5.094 36.585 36.585 0 0 0-.872-4.912c-.398-1.59-.918-3.044-1.56-4.36-.643-1.346-1.439-2.494-2.387-3.442-.918-.949-2.035-1.622-3.351-2.02-.184 3.366-.352 6.655-.505 9.868-.122 3.183-.23 6.334-.321 9.456a973.7 973.7 0 0 0-.23 9.317c-.03 3.06-.045 6.135-.045 9.226v6.15c0 2.05.03 4.146.091 6.288 1.408-.153 2.632-.688 3.672-1.606 1.04-.919 1.913-2.066 2.616-3.443.735-1.407 1.316-2.983 1.744-4.727a45.75 45.75 0 0 0 1.056-5.416c.245-1.867.398-3.703.46-5.508.09-1.806.137-3.473.137-5.003zm42.49-12.852a477.797 477.797 0 0 0-.504 14.642 759.165 759.165 0 0 0-.138 14.504v8.537c.03 2.815.092 5.66.184 8.537l-9.134.23V62.41c-.918 1.5-1.943 2.647-3.075 3.443-1.132.795-2.219 1.361-3.259 1.698-1.01.367-1.882.566-2.616.596a27.67 27.67 0 0 1-1.285.092c-1.928-.398-3.535-1.239-4.82-2.524-1.254-1.316-2.264-2.938-3.029-4.865-.734-1.959-1.255-4.162-1.56-6.61a62.184 62.184 0 0 1-.46-7.71c0-2.326.092-4.698.276-7.115.183-2.417.413-4.789.688-7.114.276-2.356.582-4.62.918-6.793.337-2.203.674-4.253 1.01-6.15l10.006.183a801.821 801.821 0 0 0-.872 5.875 342.355 342.355 0 0 0-.78 6.472 234.025 234.025 0 0 0-.551 6.655c-.123 2.203-.184 4.3-.184 6.288 0 1.836.077 3.55.23 5.14.153 1.592.398 2.984.734 4.177.337 1.163.765 2.081 1.285 2.754.551.643 1.224.964 2.02.964 1.04 0 1.897-.627 2.57-1.882.673-1.254 1.193-2.891 1.56-4.91.398-2.05.658-4.346.78-6.886.154-2.54.23-5.094.23-7.665 0-1.927-.03-3.763-.091-5.507a506.744 506.744 0 0 0-.184-4.682 500.896 500.896 0 0 0-.275-4.452l10.327-.184zm32.165 17.029c-.98.153-2.005.336-3.076.55-.918.184-1.958.429-3.12.735a50.39 50.39 0 0 0-3.489 1.055c.306-1.53.505-2.86.597-3.993.122-1.163.183-2.218.183-3.167 0-1.652-.153-2.937-.459-3.855-.275-.949-.596-1.653-.964-2.112-.367-.459-.734-.734-1.101-.826-.337-.091-.566-.137-.689-.137-.979 0-1.774.413-2.386 1.239-.612.795-1.087 1.866-1.423 3.213-.337 1.316-.566 2.83-.689 4.544a74.088 74.088 0 0 0-.183 5.278 161.959 161.959 0 0 0 .183 7.71L79.501 67l-10.603.734c0-7.374-.076-14.014-.23-19.92-.122-5.936-.26-11-.412-15.192a717.438 717.438 0 0 0-.597-13.081l9.042-.597.46 5.187c.795-1.959 1.728-3.504 2.799-4.636 1.101-1.163 2.188-2.02 3.259-2.57 1.101-.582 2.096-.949 2.983-1.102.918-.153 1.606-.23 2.066-.23 1.56 0 2.83.506 3.81 1.515.978.98 1.743 2.25 2.294 3.81.55 1.56.918 3.274 1.102 5.14.214 1.867.32 3.672.32 5.417 0 1.377-.045 2.692-.137 3.947a268.193 268.193 0 0 1-.183 3.305zm30.19-.964c0 4.834-.031 9.669-.092 14.504a662.448 662.448 0 0 1-.275 15.1l-7.987-.459v-6.196c-.918 1.652-1.958 2.922-3.121 3.81-1.163.856-2.264 1.499-3.305 1.927-1.224.49-2.432.765-3.626.826a9.108 9.108 0 0 1-4.13-.964 11.303 11.303 0 0 1-3.351-2.662 12.944 12.944 0 0 1-2.249-3.763 12.991 12.991 0 0 1-.78-4.452c0-1.744.367-3.458 1.101-5.141.765-1.714 2.05-3.259 3.856-4.636 2.417-1.866 4.513-3.427 6.288-4.681 1.775-1.255 3.243-2.387 4.406-3.397 1.193-1.04 2.065-2.02 2.616-2.937.582-.949.872-2.035.872-3.26 0-2.019-.336-3.518-1.009-4.497-.674-1.01-1.561-1.515-2.663-1.515-.673 0-1.254.184-1.744.55-.459.337-.841.796-1.147 1.378a7.965 7.965 0 0 0-.643 1.882 11.303 11.303 0 0 0-.183 2.02c0 .458.015.963.046 1.514.061.55.168 1.132.321 1.744l-10.557.184c-.061-.52-.107-1.01-.138-1.47-.03-.489-.045-.963-.045-1.422 0-1.897.32-3.764.963-5.6.643-1.866 1.576-3.518 2.8-4.957a14.35 14.35 0 0 1 4.544-3.534c1.775-.887 3.81-1.33 6.105-1.33 2.968 0 5.309.626 7.022 1.881 1.744 1.224 3.06 2.846 3.947 4.865.918 2.02 1.5 4.315 1.745 6.885.275 2.54.413 5.14.413 7.803zm-10.327 12.989c.153-.765.29-1.637.413-2.616.122-.826.229-1.82.321-2.984.092-1.193.168-2.524.229-3.993-.489.673-.963 1.27-1.422 1.79-.459.52-.888.98-1.286 1.377-.459.46-.887.872-1.285 1.24a54.86 54.86 0 0 0-2.249 1.973 21.84 21.84 0 0 0-2.203 2.25 15.914 15.914 0 0 0-1.652 2.478c-.429.826-.643 1.637-.643 2.432 0 .857.291 1.653.872 2.387.582.704 1.301 1.056 2.157 1.056.643 0 1.301-.184 1.974-.551.704-.367 1.362-.888 1.974-1.56a11.247 11.247 0 0 0 2.8-5.279zm42.261-31.12a765.664 765.664 0 0 1-4.406 10.925 375.806 375.806 0 0 1-3.259 7.665 185.527 185.527 0 0 1-2.203 5.003c-.582 1.254-1.056 2.218-1.423 2.891.796 1.744 2.05 4.33 3.764 7.757 1.713 3.427 4.008 7.742 6.884 12.943l-11.015.735-6.839-16.432v4.59l.092 5.049c.03 1.622.076 3.106.137 4.452.062 1.346.138 2.326.23 2.938h-5.554a95.87 95.87 0 0 0-3.763.183c.244-3.427.443-6.778.596-10.052.153-3.274.26-6.211.321-8.812.092-3.03.138-5.89.138-8.583-.03-2.999-.107-6.457-.229-10.373a871.514 871.514 0 0 0-1.561-28.64c3.764.183 6.671.275 8.721.275h1.285c.398 0 .734-.016 1.01-.046.336 0 .612-.016.826-.046a1559.974 1559.974 0 0 0-.964 25.06l-.229 7.757a349.43 349.43 0 0 0-.046 4.957 411.279 411.279 0 0 0 3.58-10.373c1.163-3.55 2.264-7.359 3.304-11.429l10.603 1.607zm12.749 46.129c-.796.03-1.699.092-2.708.183-.857.061-1.867.138-3.03.23-1.132.092-2.386.214-3.763.367a2355.357 2355.357 0 0 0-.872-27.493c-.306-7.987-.582-14.734-.826-20.241-.306-6.426-.612-12.01-.918-16.753l11.933-.551v33.414c.031 4.284.046 8.032.046 11.245.031 3.182.046 5.921.046 8.216.031 5.355.061 9.149.092 11.383zm32.485-27.998c0 4.834-.031 9.669-.092 14.504a662.448 662.448 0 0 1-.275 15.1l-7.987-.459v-6.196c-.918 1.652-1.958 2.922-3.121 3.81-1.163.856-2.264 1.499-3.304 1.927-1.224.49-2.433.765-3.626.826a9.11 9.11 0 0 1-4.131-.964 11.316 11.316 0 0 1-3.351-2.662 12.964 12.964 0 0 1-2.249-3.763 12.995 12.995 0 0 1-.78-4.452c0-1.744.367-3.458 1.101-5.141.765-1.714 2.05-3.259 3.856-4.636 2.417-1.866 4.513-3.427 6.288-4.681 1.775-1.255 3.243-2.387 4.406-3.397 1.194-1.04 2.066-2.02 2.616-2.937.582-.949.872-2.035.872-3.26 0-2.019-.336-3.518-1.009-4.497-.673-1.01-1.561-1.515-2.662-1.515-.674 0-1.255.184-1.745.55-.459.337-.841.796-1.147 1.378a8.01 8.01 0 0 0-.643 1.882 11.303 11.303 0 0 0-.183 2.02c0 .458.015.963.046 1.514.061.55.168 1.132.321 1.744l-10.557.184c-.061-.52-.107-1.01-.137-1.47-.031-.489-.046-.963-.046-1.422 0-1.897.321-3.764.964-5.6.642-1.866 1.575-3.518 2.799-4.957a14.35 14.35 0 0 1 4.544-3.534c1.775-.887 3.81-1.33 6.105-1.33 2.968 0 5.309.626 7.022 1.881 1.744 1.224 3.06 2.846 3.948 4.865.918 2.02 1.499 4.315 1.744 6.885.275 2.54.413 5.14.413 7.803zm-10.327 12.989c.153-.765.29-1.637.413-2.616.122-.826.229-1.82.321-2.984.092-1.193.168-2.524.23-3.993a24.53 24.53 0 0 1-1.423 1.79c-.459.52-.888.98-1.285 1.377-.459.46-.888.872-1.286 1.24a55.534 55.534 0 0 0-2.249 1.973 21.84 21.84 0 0 0-2.203 2.25 15.914 15.914 0 0 0-1.652 2.478c-.429.826-.643 1.637-.643 2.432 0 .857.291 1.653.872 2.387.582.704 1.301 1.056 2.158 1.056.642 0 1.3-.184 1.973-.551.704-.367 1.362-.888 1.974-1.56a11.211 11.211 0 0 0 1.698-2.341c.49-.888.857-1.867 1.102-2.938zm31.383-45.715a346.587 346.587 0 0 0-.642 7.252 527.474 527.474 0 0 0-.505 6.977 134.83 134.83 0 0 1 3.442-.138 71.378 71.378 0 0 0 3.534-.276l-.321 9.318a68.135 68.135 0 0 0-3.58-.092h-3.534c-.245 4.406-.429 8.72-.551 12.944-.092 4.192-.138 8.43-.138 12.713 0 2.203.016 4.422.046 6.656.061 2.203.123 4.437.184 6.7l-10.098.184c.214-6.578.398-13.08.551-19.506.153-6.457.229-12.96.229-19.507l-3.534.183c-1.193.03-2.371.092-3.534.184l.367-10.052c1.071.153 2.173.275 3.305.367 1.132.092 2.234.169 3.305.23 0-2.387-.031-4.728-.092-7.023a280.812 280.812 0 0 0-.184-7.022l11.75-.092z" fill="url(#a)"/><path d="m29.126 48.09-7.839-1.596-.005.027-.006.027 7.85 1.542zM22.563 62.73l-5.773-5.537-.03.03-.03.032 5.833 5.475zm-8.583 5.141-1.569-7.845-.083.017-.083.019 1.735 7.81zm-3.626.46-.661 7.972.33.027h.331v-8zm-9.41-.781-7.983-.509-.5 7.833 7.823.648.66-7.972zm.919-18.819 7.995.272v-.001l-7.995-.27zM1.45.814.785-7.158l-7.722.644.397 7.738 7.99-.41zM3.607.677l-.348-7.993.348 7.993zm14.458 2.57-3.845 7.015.026.015.026.014 3.793-7.044zM25.5 10.5l-6.954 3.954.023.041.024.04L25.5 10.5zm3.672 11.107-7.912 1.179.004.032.005.031 7.903-1.242zm-8.445 8.17-7.995.286v.005l7.995-.29zm-.413-5.094-7.953.867.008.072.009.07 7.936-1.01zm-.872-4.912-7.761 1.94 7.76-1.94zm-1.56-4.36-7.22 3.446.015.032.016.033 7.188-3.51zm-2.387-3.442-5.75 5.563.046.047.047.047 5.657-5.657zm-3.351-2.02 2.315-7.657L4.711-.657l-.555 10.17 7.988.435zm-.505 9.868-7.99-.38-.003.036-.001.037 7.994.307zm-.55 18.773-8-.158v.078l8 .08zm.045 21.664-7.996.228.247 8.661 8.614-.936-.865-7.953zm3.672-1.606-5.293-6 5.293 6zm2.616-3.443-7.092-3.7-.016.03-.015.03 7.123 3.64zm1.744-4.727-7.745-2.003-.012.047-.012.047 7.77 1.909zm1.056-5.416 7.93 1.057.001-.009.001-.008-7.932-1.04zm.46-5.508-7.99-.406-.004.067-.002.068 7.995.27zm1.5-3.764c0 4.377-.327 7.917-.895 10.705l15.679 3.191c.84-4.126 1.216-8.787 1.216-13.896h-16zm-.905 10.759c-.584 2.972-1.317 5.237-2.103 6.915l14.49 6.787c1.477-3.157 2.55-6.736 3.312-10.618l-15.7-3.084zm-2.103 6.915c-.862 1.84-1.695 3.011-2.384 3.73L28.335 68.27c2.187-2.28 3.925-5.025 5.327-8.02l-14.49-6.786zm-2.444 3.793c-.968 1.032-1.78 1.64-2.404 1.991l7.845 13.945c2.314-1.301 4.378-3.018 6.224-4.985L16.73 57.256zm-2.404 1.991c-.877.494-1.51.7-1.915.78l3.138 15.69c2.348-.47 4.561-1.366 6.622-2.525l-7.845-13.945zm-2.082.816c-.993.22-1.598.268-1.89.268v16c1.789 0 3.601-.258 5.361-.65l-3.47-15.618zm-1.229.295-9.41-.78L.285 75.523l9.409.78 1.322-15.945zM8.93 68.06c.402-6.322.712-12.674.93-19.056l-15.992-.543a626.948 626.948 0 0 1-.906 18.581L8.929 68.06zm.93-19.057a574.24 574.24 0 0 0 .325-19.41h-16c0 6.337-.106 12.626-.317 18.869l15.991.54zm.325-19.41c0-4.933-.062-9.82-.186-14.663l-15.995.41c.12 4.704.181 9.455.181 14.253h16zM9.998 14.93c-.124-4.842-.31-9.684-.559-14.525l-15.979.82c.241 4.704.422 9.41.543 14.115l15.995-.41zM2.114 8.787a46.469 46.469 0 0 1 1.84-.118L3.26-7.316c-.814.036-1.639.088-2.474.158L2.114 8.787zm1.84-.118a39.562 39.562 0 0 1 1.718-.038v-16c-.794 0-1.598.018-2.413.053L3.954 8.67zm1.718-.038c4.244 0 6.922.74 8.548 1.631l7.69-14.03C17.172-6.365 11.588-7.37 5.672-7.37v16zm8.6 1.66c1.869 1.006 3.247 2.357 4.274 4.162l13.909-7.908c-2.523-4.437-6.101-7.92-10.597-10.342l-7.586 14.088zm4.32 4.243c1.193 2.042 2.143 4.73 2.668 8.25l15.825-2.356c-.76-5.108-2.259-9.825-4.677-13.964l-13.815 8.07zm2.677 8.314c.598 3.804.913 8.11.913 12.941h16c0-5.51-.358-10.66-1.107-15.425L21.27 22.849zm7.55 11.702c0-1.607-.033-3.296-.097-5.064l-15.99.581c.058 1.598.087 3.091.087 4.483h16zm-.097-5.06a64.216 64.216 0 0 0-.472-5.818l-15.872 2.02c.183 1.44.302 2.896.354 4.37l15.99-.571zm-.455-5.676a44.583 44.583 0 0 0-1.064-5.984l-15.522 3.88c.307 1.228.535 2.506.68 3.84l15.906-1.736zm-1.064-5.984c-.517-2.07-1.218-4.057-2.133-5.93l-14.377 7.02c.37.759.71 1.678.988 2.79l15.522-3.88zm-2.102-5.866c-.99-2.075-2.29-3.994-3.95-5.653L9.838 17.625c.238.238.529.614.824 1.231l14.44-6.892zm-3.858-5.56c-1.905-1.969-4.22-3.338-6.784-4.113L9.83 17.606l.041.014a.525.525 0 0 1-.124-.089L21.243 6.404zM4.156 9.513a1438.46 1438.46 0 0 0-.508 9.923l15.982.76c.152-3.193.32-6.464.502-9.812L4.156 9.513zm-.51 9.996a1054.43 1054.43 0 0 0-.325 9.527l15.993.47c.091-3.096.198-6.223.32-9.382l-15.989-.615zm-.325 9.527c-.092 3.147-.17 6.278-.231 9.395l15.997.316c.06-3.064.136-6.145.227-9.24l-15.993-.47zM3.09 38.51c-.031 3.087-.047 6.189-.047 9.306h16c0-3.065.016-6.113.046-9.146l-16-.16zm-.047 9.306V53.964h16V47.815h-16zm0 6.15c0 2.13.032 4.302.096 6.516l15.993-.456a212.32 212.32 0 0 1-.088-6.06h-16zM12 68.206c3.014-.328 5.794-1.526 8.1-3.56L9.513 52.647c.078-.069.211-.163.388-.24.176-.078.313-.102.369-.108l1.729 15.906zm8.1-3.56c1.875-1.655 3.338-3.632 4.447-5.801l-14.247-7.282c-.3.585-.58.903-.786 1.085L20.1 64.645zm4.416-5.741c1.067-2.045 1.859-4.234 2.42-6.52l-15.538-3.817c-.295 1.202-.665 2.165-1.067 2.936l14.185 7.4zm2.397-6.425c.54-2.09.953-4.21 1.24-6.362l-15.86-2.115a37.753 37.753 0 0 1-.87 4.47l15.49 4.007zm1.242-6.38c.277-2.11.452-4.203.523-6.276l-15.991-.542a49.274 49.274 0 0 1-.396 4.738l15.864 2.08zm.517-6.141c.097-1.917.148-3.722.148-5.41h-16c0 1.374-.041 2.904-.128 4.598l15.98.812zm34.639-18.26 7.99.396.425-8.548-8.557.152.142 8zm-.505 14.64 7.998.154v-.001l-7.998-.152zm-.138 23.042h-8v.087l8-.087zm.184 8.537.2 7.997 8.053-.202-.257-8.05-7.996.255zm-9.134.23h-8v8.203l8.2-.206-.2-7.998zm0-5.738h8V34.022l-14.823 24.21 6.823 4.178zm-6.334 5.14-2.463-7.61-.136.043-.135.05 2.734 7.518zm-2.616.597-.333-7.993-.166.007-.166.014.665 7.972zm-1.285.092-1.617 7.835.8.165h.817v-8zm-4.82-2.524-5.79 5.52.066.07.067.067 5.657-5.657zm-3.029-4.865-7.49 2.809.026.07.028.071 7.436-2.95zM34.577 32.3l7.945.942.001-.012-7.946-.93zm.918-6.792 7.906 1.225.001-.009.002-.008-7.909-1.208zm1.01-6.15.147-8-6.83-.125-1.194 6.727 7.877 1.397zm10.006.183 7.908 1.206 1.379-9.037-9.14-.168-.147 7.999zm-.872 5.875-7.917-1.147-.009.056-.007.056 7.933 1.035zm-.78 6.472-7.952-.884-.005.055-.006.055 7.963.774zm-.551 6.655-7.981-.547-.004.052-.003.051 7.988.444zm.046 11.429-7.964.765 7.964-.765zm.734 4.176-7.7 2.172.008.026.008.027 7.684-2.225zm1.285 2.754-6.33 4.892.124.16.132.155 6.074-5.207zm4.59-.918-7.05-3.782 7.05 3.782zm1.56-4.91-7.853-1.525-.009.047-.008.046 7.87 1.431zm.78-6.886-7.985-.48-.002.047-.003.048 7.99.386zm-.045-17.854 7.992-.355-.002-.053-.003-.053-7.987.461zm-.275-4.452-.143-7.999-8.398.15.558 8.381 7.983-.532zm2.337-.58c-.25 5.006-.42 9.968-.514 14.886l15.997.304c.09-4.751.256-9.55.497-14.397l-15.98-.794zm-.514 14.885a767.86 767.86 0 0 0-.139 14.657h16c0-4.815.046-9.599.136-14.351l-15.997-.306zm-.139 14.657V59.38h16V50.844h-16zm0 8.624c.032 2.872.094 5.774.188 8.705l15.992-.51a398.47 398.47 0 0 1-.18-8.37l-16 .175zm7.983.452-9.134.23.402 15.995 9.134-.23-.402-15.995zm-.933 8.227V62.41h-16v5.737h16zm-14.823-9.914c-.495.81-.822 1.053-.852 1.074l9.2 13.091c2.234-1.57 3.957-3.621 5.298-5.81l-13.646-8.355zm-.852 1.074c-.642.451-1.014.597-1.122.632l4.926 15.223c1.973-.638 3.774-1.624 5.395-2.764l-9.199-13.091zm-1.393.725c-.252.092-.4.131-.456.144l.019-.003c.037-.005.112-.014.222-.019L45.1 76.14c1.838-.076 3.558-.54 5.017-1.07l-5.468-15.038zm-.547.143a70.754 70.754 0 0 1-.915.07l.047-.001c.023-.001.117-.005.248-.005v16c.548 0 1.423-.075 1.95-.12l-1.33-15.944zm.996.23c-.53-.11-.69-.259-.779-.347L33.005 71.372c2.483 2.482 5.534 4.016 8.86 4.702l3.233-15.67zm-.646-.21c-.453-.476-.944-1.19-1.383-2.296L28.197 63.8c1.09 2.75 2.62 5.28 4.675 7.435l11.58-11.04zm-1.328-2.154c-.48-1.28-.872-2.858-1.113-4.793l-15.877 1.985c.37 2.96 1.02 5.788 2.008 8.426l14.982-5.618zm-1.113-4.793a54.204 54.204 0 0 1-.398-6.719h-16c0 2.995.17 5.898.521 8.703l15.877-1.984zm-.398-6.719c0-2.115.084-4.284.253-6.508l-15.954-1.212c-.198 2.61-.299 5.184-.299 7.72h16zm.253-6.508c.175-2.31.394-4.57.656-6.78l-15.89-1.881c-.288 2.44-.528 4.924-.72 7.45l15.954 1.21zm.657-6.791c.265-2.265.558-4.43.878-6.497l-15.811-2.45a191.732 191.732 0 0 0-.959 7.089l15.892 1.858zm.88-6.514c.329-2.15.655-4.136.98-5.961L28.627 17.96c-.35 1.969-.696 4.083-1.04 6.34l15.816 2.416zm-7.045.64 10.006.184.294-15.998-10.006-.183-.294 15.997zm2.244-9.021a811.959 811.959 0 0 0-.88 5.934l15.834 2.294c.304-2.094.592-4.033.863-5.816l-15.817-2.412zm-.896 6.046a349.989 349.989 0 0 0-.799 6.623l15.903 1.767c.24-2.155.493-4.261.762-6.32l-15.866-2.07zm-.81 6.733a242.06 242.06 0 0 0-.57 6.882L52.29 39.09c.148-2.16.325-4.302.532-6.428l-15.925-1.548zm-.576 6.985a121.59 121.59 0 0 0-.196 6.732h16c0-1.826.056-3.773.171-5.844l-15.975-.888zm-.196 6.732c0 2.055.086 4.027.266 5.906l15.927-1.531a45.88 45.88 0 0 1-.193-4.375h-16zm.266 5.906c.187 1.939.501 3.82.998 5.583l15.4-4.343c-.176-.624-.351-1.527-.471-2.771L36.39 50.737zm1.014 5.636c.507 1.753 1.302 3.691 2.639 5.42l12.66-9.782c.083.107.137.191.169.244.031.053.043.079.04.07a4.298 4.298 0 0 1-.139-.402l-15.37 4.45zm2.895 5.736c1.96 2.287 4.798 3.757 8.094 3.757v-16c.713 0 1.534.153 2.344.54.797.38 1.357.878 1.71 1.29L40.3 62.109zm8.094 3.757c5.05 0 8.14-3.341 9.62-6.1l-14.1-7.564c.046-.085.37-.67 1.177-1.261a5.65 5.65 0 0 1 3.303-1.075v16zm9.62-6.1c1.2-2.236 1.925-4.75 2.382-7.262l-15.742-2.862c-.278 1.528-.593 2.288-.74 2.56l14.1 7.565zm2.364-7.169c.484-2.496.78-5.18.918-8.023l-15.982-.77c-.108 2.236-.332 4.142-.643 5.745l15.707 3.048zm.912-7.928c.163-2.701.244-5.416.244-8.146h-16c0 2.412-.071 4.806-.215 7.184l15.971.962zm.244-8.146c0-2.011-.032-3.941-.096-5.788l-15.99.561c.057 1.642.086 3.384.086 5.227h16zm-.096-5.788a514.41 514.41 0 0 0-.187-4.756l-15.984.71c.06 1.347.12 2.882.18 4.607l15.99-.56zm-.192-4.862c-.093-1.611-.186-3.12-.28-4.523L45 22.414c.09 1.35.18 2.81.271 4.38l15.974-.92zm-8.12 4.008 10.327-.184-.284-15.997-10.328.183.285 15.998zm42.349 8.846 1.235 7.904 6.348-.992.401-6.413-7.984-.5zm-3.076.55-1.569-7.844 1.57 7.844zm-3.12.735-2.037-7.737 2.036 7.737zm-3.489 1.055-7.845-1.569-2.728 13.642 13.163-4.503-2.59-7.57zm.597-3.993-7.956-.837-.01.095-.008.096 7.974.646zm-.276-7.022-7.683 2.23.044.15.05.15 7.59-2.53zm-2.065-2.938-2.105 7.718.082.023.083.02 1.94-7.76zm-3.075 1.102 6.34 4.877.045-.057.043-.058-6.428-4.762zm-1.423 3.213 7.75 1.982.006-.02.005-.022-7.761-1.94zm-.689 17.533 7.995-.285-.001-.048-.003-.048-7.99.38zM79.501 67l.553 7.98 7.717-.534-.275-7.73L79.5 67zm-10.603.734h-8v8.574l8.553-.593-.553-7.98zm-.23-19.92-7.997.165V48.021l7.998-.206zm-.412-15.192 7.995-.292v-.008l-7.995.3zm-.597-13.081-.527-7.983-7.903.522.443 7.908 7.987-.447zm9.042-.597 7.969-.705-.69-7.792-7.806.515.527 7.982zm.46 5.187-7.97.705 15.38 2.306-7.41-3.011zm2.799-4.636-5.808-5.502-.004.005 5.812 5.497zm3.259-2.57 3.659 7.114.037-.02.038-.02-3.734-7.074zm2.983-1.102-1.315-7.89-.022.003-.022.004 1.36 7.883zm5.875 1.285-5.743 5.57.043.044.043.043 5.657-5.657zm3.397 8.95-7.962.784.006.064.008.065 7.948-.912zm.183 9.364-7.978-.584-.007.092-.005.092 7.99.4zm-1.418-4.6a81.744 81.744 0 0 0-3.41.61l3.138 15.69a65.71 65.71 0 0 1 2.742-.491l-2.47-15.808zm-3.41.61a62.073 62.073 0 0 0-3.588.843l4.072 15.473c1.05-.276 1.93-.481 2.654-.626l-3.138-15.69zm-3.588.843c-1.353.356-2.7.764-4.041 1.223l5.178 15.139a42.404 42.404 0 0 1 2.935-.889l-4.072-15.473zm6.393 10.361c.346-1.73.601-3.383.725-4.915l-15.947-1.293c-.06.732-.202 1.742-.468 3.07l15.69 3.138zm.708-4.724c.145-1.38.227-2.721.227-4.005h-16c0 .614-.04 1.384-.14 2.33l15.913 1.675zm.227-4.005c0-1.994-.166-4.274-.87-6.385l-15.178 5.06c-.065-.195-.043-.204-.01.068.03.257.058.665.058 1.257h16zm-.776-6.086c-.396-1.363-1.078-3.226-2.4-4.878L78.9 32.938a3.967 3.967 0 0 1-.514-.803c-.038-.083-.015-.05.042.147l15.366-4.46zm-2.4-4.878c-.893-1.117-2.631-2.896-5.408-3.59l-3.88 15.522c-2.043-.51-3.047-1.739-3.206-1.937l12.494-9.995zm-5.243-3.547c-.196-.053-1.435-.42-2.794-.42v16c-.43 0-.761-.037-.922-.058a5.742 5.742 0 0 1-.383-.062c-.129-.026-.179-.042-.111-.024l4.21-15.436zm-2.794-.42c-3.659 0-6.782 1.734-8.815 4.478l12.857 9.524c-.312.42-.856.977-1.686 1.408a5.163 5.163 0 0 1-2.356.59v-16zm-8.727 4.362c-1.487 1.932-2.336 4.12-2.843 6.15l15.522 3.881c.077-.307.14-.466.162-.514.02-.047-.018.055-.16.239L74.63 23.337zm-2.833 6.108c-.48 1.881-.77 3.885-.917 5.957l15.959 1.14c.097-1.356.267-2.382.46-3.132l-15.502-3.965zm-.917 5.957a82.094 82.094 0 0 0-.204 5.848h16c0-1.625.055-3.194.163-4.708l-15.96-1.14zm-.204 5.848c0 1.349.016 2.697.048 4.046l15.995-.381c-.029-1.222-.043-2.443-.043-3.665h-16zm.048 4.046c.032 1.349.08 2.697.144 4.045l15.982-.76a153.706 153.706 0 0 1-.13-3.666l-15.996.38zm.14 3.95.643 18.038 15.99-.57-.643-18.038-15.99.57zm8.085 9.772-10.602.735 1.105 15.961 10.603-.734-1.106-15.962zm-2.05 8.715c0-7.427-.077-14.138-.232-20.127l-15.994.415c.15 5.822.226 12.391.226 19.712h16zm-.23-20.084a988.69 988.69 0 0 0-.418-15.32l-15.989.584c.151 4.136.288 9.156.41 15.065l15.996-.33zm-.418-15.328a725.501 725.501 0 0 0-.603-13.228l-15.975.894c.21 3.765.407 8.074.59 12.934l15.988-.6zm-8.064-4.798 9.042-.597-1.054-15.965-9.042.596 1.054 15.966zm.546-7.875.46 5.187 15.937-1.41-.46-5.187-15.937 1.41zm15.84 7.493c.546-1.345 1.008-1.947 1.2-2.15L74.148 13.998c-1.95 2.062-3.355 4.55-4.4 7.123l14.824 6.022zm1.195-2.145c.674-.71 1.057-.93 1.11-.958L79.56 9.81c-2.089 1.075-3.878 2.569-5.408 4.183l11.615 11.004zM86.953 24c.291-.154.493-.239.609-.282.117-.043.112-.03 0-.011L84.841 7.94c-1.966.339-3.775 1.075-5.357 1.91L86.953 24zm.564-.286a14.91 14.91 0 0 1 .895-.124c.009 0-.044.004-.145.004v-16c-1.149 0-2.374.17-3.38.338l2.63 15.782zm.75-.12c-.089 0-.403-.017-.832-.188a3.204 3.204 0 0 1-1.101-.728L97.82 11.539c-2.658-2.741-6.088-3.945-9.552-3.945v16zm-1.847-.829a1.262 1.262 0 0 1 .112.158c.074.121.18.33.296.657l15.088-5.325c-.872-2.47-2.21-4.83-4.182-6.803L86.42 22.764zm.408.816c.31.878.555 1.952.684 3.26l15.923-1.566c-.238-2.423-.728-4.777-1.519-7.02l-15.088 5.326zm.698 3.39a39.53 39.53 0 0 1 .269 4.504h16a55.36 55.36 0 0 0-.374-6.329l-15.895 1.825zm.269 4.504c0 1.2-.04 2.32-.117 3.363l15.958 1.168c.107-1.466.159-2.978.159-4.531h-16zm-.128 3.547c-.06 1.199-.12 2.267-.178 3.206l15.969.998c.064-1.02.127-2.155.189-3.405l-15.98-.799zm37.905 17.245-7.999-.102-.001.026v.025l8 .05zm-.275 15.1-.459 7.987 8.215.472.24-8.225-7.996-.234zm-7.987-.459h-8v7.554l7.541.433.459-7.987zm0-6.196h8V29.839l-14.993 26.988 6.993 3.885zm-3.121 3.81 4.746 6.44.054-.04.053-.04-4.853-6.36zm-3.305 1.927 2.972 7.428.037-.015.037-.015-3.046-7.398zm-3.626.826v8h.205l.205-.01-.41-7.99zm-4.13-.964-3.713 7.087.067.035.068.034 3.578-7.156zm-5.6-6.425-7.523 2.72.035.098.038.097 7.45-2.915zm.321-9.593-7.305-3.261-.014.03-.013.031 7.332 3.2zm3.856-4.636 4.851 6.361.019-.014.019-.015-4.889-6.332zm6.288-4.681-4.618-6.533 4.618 6.533zm4.406-3.397 5.246 6.04.005-.005.006-.005-5.257-6.03zm2.616-2.937-6.821-4.18-.019.031-.02.033 6.86 4.116zm-.137-7.757-6.657 4.437.032.048.032.047 6.593-4.532zm-4.407-.964 4.731 6.451.035-.025.034-.026-4.8-6.4zm-1.147 1.377-7.079-3.726-.039.074-.038.074 7.156 3.578zm-.643 1.882-7.817-1.7-.029.134-.025.135 7.871 1.43zm-.137 3.534-7.988.444.012.22.025.22 7.951-.884zm.321 1.744.139 7.999 10.063-.175-2.441-9.764-7.761 1.94zm-10.557.184-7.945.934.846 7.19 7.238-.126-.139-7.998zm-.138-1.47-7.984.5.001.016.001.017 7.983-.532zm.918-7.022 7.551 2.643.007-.02.007-.018-7.565-2.605zm2.8-4.957-6.083-5.196-.004.006-.005.005 6.092 5.185zm4.544-3.534-3.577-7.155 3.577 7.155zm13.127.551-4.726 6.455.065.047.066.046 4.595-6.548zm3.947 4.865-7.324 3.218.021.047.021.046 7.282-3.31zm1.745 6.885-7.964.758.005.052.005.052 7.954-.862zm-9.914 20.792 7.798 1.783.025-.107.021-.107-7.844-1.569zm.413-2.616-7.914-1.173-.013.09-.012.09 7.939.993zm.321-2.984 7.975.63.001-.008v-.008l-7.976-.614zm.229-3.993 7.993.333 1.102-26.44-15.564 21.402 6.469 4.705zm-3.993 4.406 5.095 6.168.17-.14.161-.15-5.426-5.878zm-2.249 1.974 5.301 5.992.063-.056.062-.058-5.426-5.878zm-2.203 2.25-6.107-5.169-.059.07-.057.071 6.223 5.027zm-1.652 2.478-7.052-3.778-.025.047-.025.048 7.102 3.683zm.229 4.819-6.272 4.966.052.065.053.064 6.167-5.095zm4.131.505-3.7-7.093-.066.034-.065.036 3.831 7.023zm1.974-1.56-5.787-5.524-.067.07-.066.072 5.92 5.381zm5.127-18.268c0 4.8-.031 9.602-.091 14.402l15.998.203c.062-4.869.093-9.737.093-14.605h-16zm-.092 14.453c-.03 4.769-.121 9.741-.272 14.917l15.993.468c.155-5.288.248-10.383.279-15.284l-16-.101zm8.184 7.164-7.987-.459-.918 15.974 7.987.459.918-15.974zm-.446 7.528v-6.196h-16v6.196h16zm-14.993-10.081c-.533.959-.911 1.28-.981 1.335l9.706 12.72c2.255-1.722 3.958-3.939 5.261-6.285l-13.986-7.77zm-.873 1.254c-.778.573-1.311.85-1.606.97l6.092 14.796c1.786-.736 3.457-1.744 5.005-2.885l-9.491-12.881zm-1.531.94c-.49.197-.836.253-1.064.265l.819 15.979c2.158-.11 4.23-.605 6.188-1.388l-5.943-14.856zm-.655.254c-.255 0-.404-.044-.553-.119l-7.155 14.31a17.106 17.106 0 0 0 7.708 1.81v-16zm-.418-.05a3.299 3.299 0 0 1-1.001-.796L93.715 68.87a19.309 19.309 0 0 0 5.7 4.53l7.425-14.174zm-1.001-.796a4.955 4.955 0 0 1-.861-1.459l-14.9 5.83a20.947 20.947 0 0 0 3.637 6.07l12.124-10.44zm-.788-1.264a5.004 5.004 0 0 1-.303-1.731h-16c0 2.457.421 4.862 1.257 7.173l15.046-5.442zm-.303-1.731c0-.586.116-1.213.434-1.941l-14.665-6.4c-1.151 2.638-1.77 5.438-1.77 8.34h16.001zm.406-1.88c.116-.26.439-.801 1.402-1.536l-9.703-12.722c-2.647 2.02-4.895 4.568-6.309 7.736l14.61 6.522zm1.44-1.565c2.361-1.823 4.362-3.311 6.017-4.48l-9.236-13.066c-1.895 1.34-4.086 2.972-6.56 4.882l9.779 12.664zm6.017-4.48c1.911-1.352 3.607-2.65 5.034-3.89l-10.491-12.08c-.9.78-2.141 1.746-3.779 2.904l9.236 13.065zm5.045-3.9c1.552-1.353 3.084-2.96 4.219-4.851l-13.72-8.232c.032-.052-.006.021-.181.218a9.405 9.405 0 0 1-.832.805l10.514 12.06zm4.18-4.787c1.429-2.33 2.051-4.892 2.051-7.44h-16c0-.024.004-.147.054-.335.052-.192.137-.396.253-.586l13.642 8.361zm2.051-7.44c0-2.625-.385-6.074-2.417-9.03l-13.185 9.065a3.653 3.653 0 0 1-.374-.682c-.064-.155-.083-.244-.082-.239.001.004.017.076.032.231.014.154.026.37.026.656h16zm-2.353-8.935c-1.979-2.968-5.237-5.077-9.319-5.077v16c-.723 0-1.608-.18-2.464-.668-.826-.47-1.304-1.041-1.53-1.38l13.313-8.875zm-9.319-5.077c-2.221 0-4.53.64-6.544 2.15l9.6 12.8c-1.034.777-2.18 1.05-3.056 1.05v-16zm-6.475 2.1c-1.579 1.158-2.711 2.611-3.495 4.102l14.158 7.452c-.172.328-.54.863-1.201 1.348L105.74 19.47zm-3.572 4.25a15.993 15.993 0 0 0-1.304 3.76l15.635 3.4c.008-.04.015-.068.02-.086l.008-.027s-.013.04-.048.109l-14.311-7.156zm-1.358 4.029a19.252 19.252 0 0 0-.312 3.45h16c0-.185.016-.38.054-.588l-15.742-2.862zm-.312 3.45c0 .633.021 1.288.058 1.959l15.975-.888a19.433 19.433 0 0 1-.033-1.07h-16zm.095 2.398c.105.952.282 1.888.511 2.801l15.522-3.88a5.136 5.136 0 0 1-.131-.688l-15.902 1.767zm8.133-7.138-10.557.184.278 15.997 10.557-.183-.278-15.998zm-2.473 7.248c-.047-.404-.08-.759-.1-1.066l-15.965 1.064c.04.61.1 1.235.175 1.871l15.89-1.87zm-.098-1.033c-.021-.335-.03-.642-.03-.924h-16c0 .636.02 1.277.061 1.922l15.969-.998zm-.03-.924c0-.974.161-1.948.514-2.957l-15.101-5.285a24.84 24.84 0 0 0-1.413 8.242h16zm.528-2.995c.332-.966.78-1.734 1.328-2.377l-12.185-10.37c-1.9 2.234-3.319 4.77-4.272 7.538l15.129 5.209zm1.318-2.366a6.341 6.341 0 0 1 2.039-1.574l-7.155-14.311a22.337 22.337 0 0 0-7.05 5.494l12.166 10.391zm2.039-1.574c.502-.251 1.279-.487 2.527-.487v-16c-3.342 0-6.635.652-9.682 2.176l7.155 14.31zm2.527-.487c1.926 0 2.404.415 2.296.337l9.452-12.91c-3.534-2.588-7.739-3.427-11.748-3.427v16zm2.427.43c.504.354.897.805 1.218 1.535l14.649-6.436c-1.454-3.309-3.692-6.101-6.676-8.195l-9.191 13.096zm1.26 1.628c.496 1.092.888 2.503 1.063 4.332l15.928-1.517c-.316-3.31-1.086-6.49-2.426-9.436l-14.565 6.62zm1.073 4.436c.243 2.242.367 4.555.367 6.94h16c0-2.938-.152-5.827-.46-8.665l-15.907 1.725zm5.884 21.499c.2-.998.366-2.068.507-3.193l-15.877-1.984a28.877 28.877 0 0 1-.319 2.039l15.689 3.138zm.482-3.013c.157-1.06.282-2.247.383-3.526l-15.95-1.26a37.06 37.06 0 0 1-.26 2.441l15.827 2.345zm.384-3.542c.101-1.305.182-2.732.246-4.274l-15.986-.666a104.57 104.57 0 0 1-.213 3.713l15.953 1.227zm-14.216-9.312c-.37.508-.688.903-.952 1.202l11.997 10.586a32.367 32.367 0 0 0 1.894-2.377l-12.939-9.411zm-.952 1.202c-.373.423-.687.757-.943 1.013l11.313 11.314a38.34 38.34 0 0 0 1.627-1.74l-11.997-10.587zm-.943 1.013c-.398.398-.749.736-1.055 1.018l10.852 11.757c.49-.452.996-.94 1.516-1.461l-11.313-11.314zm-.724.729a62.789 62.789 0 0 0-2.58 2.263l10.852 11.756a47.012 47.012 0 0 1 1.918-1.684l-10.19-12.335zm-2.454 2.15a29.793 29.793 0 0 0-3.01 3.072l12.214 10.336c.42-.497.884-.971 1.397-1.425l-10.601-11.984zm-3.126 3.213a23.873 23.873 0 0 0-2.481 3.728l14.104 7.555c.21-.393.479-.803.824-1.23l-12.447-10.053zm-2.531 3.823c-.918 1.77-1.54 3.837-1.54 6.115h15.999c0 .688-.194 1.132-.255 1.25l-14.204-7.365zM97.56 54.7c0 2.83 1.01 5.345 2.599 7.353l12.545-9.932c.183.232.411.59.587 1.073.18.492.268 1.009.268 1.506h-16zm2.704 7.482c1.987 2.406 4.908 3.96 8.324 3.96v-16a5.35 5.35 0 0 1 2.335.551c.797.39 1.343.896 1.676 1.299l-12.335 10.19zm8.324 3.96c2.218 0 4.183-.642 5.805-1.527l-7.662-14.046c.276-.15.925-.426 1.857-.426v16zm5.675-1.458c1.65-.86 3.038-2.002 4.192-3.271l-11.839-10.763c-.07.077.002-.024.246-.15l7.401 14.184zm4.06-3.129a19.217 19.217 0 0 0 2.916-4l-14.01-7.73a3.236 3.236 0 0 1-.48.683l11.574 11.047zm2.916-4a19.208 19.208 0 0 0 1.895-5.02l-15.597-3.565a3.278 3.278 0 0 1-.308.856l14.01 7.73zm36.358-37.921 7.439 2.943 3.698-9.347-9.939-1.506-1.198 7.91zm-7.665 18.589-7.319-3.23-.02.046-.02.045 7.359 3.139zm-2.203 5.003 7.258 3.363-7.258-3.363zm-1.423 2.891-7.023-3.83-1.916 3.511 1.66 3.64 7.279-3.32zm3.764 7.757-7.156 3.578 7.156-3.578zm6.884 12.943.533 7.983 12.56-.838-6.092-11.016-7.001 3.871zm-11.015.735-7.386 3.074 2.201 5.29 5.717-.382-.532-7.982zm-6.839-16.432 7.386-3.074-15.386 3.074h8zm0 4.59h-8v.071l.001.072 7.999-.143zm.092 5.049-7.999.148v.003l7.999-.151zm.367 7.39v8h9.289l-1.378-9.187-7.911 1.186zm-5.554 0v-8h-.108l-.108.002.216 7.997zm-3.763.183-7.98-.57-.655 9.163 9.167-.61-.532-7.983zm.917-18.864-7.996-.242-.001.026v.028l7.997.188zm.138-8.583h8v-.081l-8 .08zm-.229-10.373 7.996-.25-.001-.02-.001-.021-7.994.29zm-1.561-28.64.39-7.991-8.999-.44.629 8.989 7.98-.559zm11.016.229v-8h-.443l-.441.049.884 7.95zm.826-.046 7.992.367.443-9.654-9.566 1.367 1.131 7.92zm-.597 14.228 7.995.296v-.002l-7.995-.294zm-.596 18.59-7.997-.236-.002.059-.001.059 8 .117zm-.046 4.956h-8l15.526 2.712-7.526-2.712zm3.58-10.373 7.596 2.51.003-.01.003-.01-7.602-2.49zm3.304-11.429 1.199-7.91-7.157-1.084-1.792 7.013 7.75 1.981zm3.164-1.337a757.553 757.553 0 0 1-4.358 10.807l14.782 6.122a762.226 762.226 0 0 0 4.454-11.042l-14.878-5.887zm-4.358 10.807a370.834 370.834 0 0 1-3.187 7.497l14.638 6.458c.951-2.155 2.062-4.77 3.331-7.833l-14.782-6.122zm-3.227 7.587a176.508 176.508 0 0 1-2.103 4.778l14.517 6.727c.631-1.36 1.402-3.113 2.304-5.228l-14.718-6.277zm-2.103 4.778c-.556 1.2-.945 1.98-1.187 2.424l14.046 7.662c.492-.902 1.052-2.05 1.658-3.359l-14.517-6.727zm-1.443 9.575c.857 1.88 2.164 4.569 3.887 8.015l14.311-7.156c-1.704-3.408-2.906-5.89-3.64-7.499l-14.558 6.64zm3.887 8.015c1.782 3.564 4.135 7.984 7.039 13.237l14.002-7.743c-2.848-5.151-5.085-9.36-6.73-12.65l-14.311 7.156zm13.508 1.383-11.015.734 1.064 15.965 11.016-.734-1.065-15.965zm-3.097 5.643-6.839-16.432-14.772 6.148 6.839 16.432 14.772-6.148zm-22.225-13.358V55.71h16V51.119h-16zm.001 4.733.092 5.054 15.997-.296-.091-5.044-15.998.286zm.092 5.057c.032 1.679.08 3.235.145 4.664l15.983-.726a164.774 164.774 0 0 1-.131-4.24l-15.997.302zm.145 4.664c.062 1.38.152 2.711.309 3.761l15.823-2.373c-.026-.174-.089-.8-.149-2.114l-15.983.726zm8.221-5.425h-2.616v16h2.616v-16zm-2.616 0H134.006v16H136.944v-16zm-3.154.002c-1.257.034-2.619.101-4.08.199l1.065 15.964a88.198 88.198 0 0 1 3.447-.169l-.432-15.994zm4.432 8.751c.249-3.49.452-6.906.608-10.248l-15.982-.747c-.15 3.205-.345 6.49-.585 9.855l15.959 1.14zm.608-10.248c.156-3.321.265-6.322.328-8.998l-15.995-.376c-.06 2.525-.164 5.4-.315 8.627l15.982.747zm.327-8.944c.094-3.1.141-6.043.141-8.825h-16c0 2.602-.044 5.382-.134 8.34l15.993.485zm.141-8.907a517.28 517.28 0 0 0-.233-10.541l-15.992.5c.121 3.876.196 7.276.226 10.204l15.999-.163zm-.235-10.582a865.209 865.209 0 0 0-.555-12.371l-15.98.814c.244 4.78.425 8.824.546 12.139l15.989-.582zm-.555-12.371a883.336 883.336 0 0 0-1.019-16.538L121.528 2.43c.425 6.082.759 11.492 1 16.234l15.98-.814zm-9.39-7.988c3.806.185 6.865.284 9.111.284v-16c-1.855 0-4.609-.084-8.331-.265l-.78 15.98zm9.111.284H139.514v-16H138.229v16zm1.285 0c.578 0 1.229-.02 1.893-.094L139.64-5.851c.068-.008.092-.008.062-.007a4.378 4.378 0 0 1-.188.004v16zm1.01-.045c.532 0 1.223-.022 1.957-.127l-2.262-15.839c.172-.025.287-.032.32-.034.038-.002.036 0-.015 0v16zm-7.166-8.414c-.245 5.343-.445 10.11-.599 14.302l15.989.588c.152-4.131.35-8.849.594-14.155l-15.984-.735zm-.599 14.3a1452.51 1452.51 0 0 0-.369 10.89l15.993.476c.091-3.066.212-6.656.365-10.774l-15.989-.592zm-.369 10.89-.23 7.76 15.993.47.23-7.754-15.993-.475zm-.233 7.878c-.03 2.096-.046 3.793-.046 5.074h16c0-1.167.014-2.775.045-4.84l-15.999-.234zm15.48 7.786a419.35 419.35 0 0 0 3.65-10.575l-15.192-5.02a399.397 399.397 0 0 1-3.511 10.171l15.053 5.424zm3.656-10.595a188.032 188.032 0 0 0 3.453-11.937l-15.501-3.963a171.639 171.639 0 0 1-3.157 10.92l15.205 4.98zm-5.496-6.009 10.603 1.607 2.396-15.82-10.602-1.606-2.397 15.82zm24.55 39.825.307 7.994 7.799-.3-.107-7.804-7.999.11zm-2.708.183.57 7.98.077-.006.077-.007-.724-7.967zm-3.03.23-.629-7.975h-.009l-.008.001.646 7.974zm-3.763.367-7.997.212.231 8.7 8.649-.96-.883-7.952zm-.872-27.493-7.994.306v.001l7.994-.307zm-.826-20.241 7.992-.356-.001-.012-.001-.013-7.99.38zm-.918-16.753-.369-7.992-8.139.376.524 8.13 7.984-.514zm11.933-.551h8v-8.378l-8.369.386.369 7.992zm0 33.414h-8v.057l8-.057zm.046 11.245h-8v.077l8-.077zm.046 8.216h-8v.046l8-.046zm-.216 3.389c-.966.037-2.011.109-3.125.21l1.449 15.935a44.702 44.702 0 0 1 2.291-.157l-.615-15.988zm-2.97.198c-.882.063-1.913.14-3.089.234l1.259 15.95c1.149-.09 2.138-.166 2.97-.225l-1.14-15.96zm-3.106.235c-1.226.1-2.561.23-4.001.39l1.767 15.902c1.315-.146 2.489-.26 3.527-.344L163.963 58.2zm4.88 8.129a2361.464 2361.464 0 0 0-.875-27.589l-15.988.615c.304 7.917.594 17.048.869 27.398l15.994-.424zm-.875-27.587c-.307-7.996-.583-14.761-.828-20.29l-15.985.71c.244 5.486.519 12.216.825 20.192l15.988-.612zm-.83-20.316c-.307-6.456-.615-12.087-.925-16.887l-15.967 1.03c.302 4.685.606 10.223.911 16.618l15.981-.76zm-8.54-8.38 11.934-.552-.738-15.983-11.933.551.737 15.983zm3.565-8.543V20.184h16V1.503h-16zm0 18.68V34.918h16V20.184h-16zm0 14.791c.031 4.27.046 8 .046 11.188h16c0-3.237-.015-7.005-.046-11.302l-16 .114zm.046 11.265c.031 3.166.046 5.877.046 8.139h16c0-2.328-.016-5.094-.046-8.293l-16 .154zm.046 8.185c.031 5.355.061 9.177.092 11.446l15.999-.219c-.03-2.198-.061-5.964-.091-11.319l-16 .092zm40.485-2.157-7.999-.102-.001.026v.025l8 .05zm-.275 15.1-.459 7.987 8.215.472.24-8.225-7.996-.234zm-7.987-.459h-8v7.554l7.541.433.459-7.987zm0-6.196h8V29.839l-14.993 26.988 6.993 3.885zm-3.121 3.81 4.746 6.44.054-.04.054-.04-4.854-6.36zm-3.304 1.927 2.971 7.428.037-.015.038-.015-3.046-7.398zm-3.626.826v8h.205l.204-.01-.409-7.99zm-4.131-.964-3.712 7.087.066.035.068.034 3.578-7.156zm-5.6-6.425-7.523 2.72.035.098.038.097 7.45-2.915zm.321-9.593-7.305-3.261-.013.03-.014.031 7.332 3.2zm3.856-4.636 4.851 6.361.019-.014.019-.015-4.889-6.332zm6.288-4.681-4.618-6.533 4.618 6.533zm4.406-3.397 5.246 6.04.005-.005.006-.005-5.257-6.03zm2.616-2.937-6.82-4.18-.02.031-.02.033 6.86 4.116zm-.137-7.757-6.657 4.437.032.048.032.047 6.593-4.532zm-4.407-.964 4.731 6.451.035-.025.034-.026-4.8-6.4zm-1.147 1.377-7.079-3.726-.039.074-.037.074 7.155 3.578zm-.643 1.882-7.817-1.7-.029.134-.025.135 7.871 1.43zm-.137 3.534-7.988.444.012.22.025.22 7.951-.884zm.321 1.744.139 7.999 10.063-.175-2.441-9.764-7.761 1.94zm-10.557.184-7.945.934.846 7.19 7.238-.126-.139-7.998zm-.137-1.47-7.985.5.001.016.001.017 7.983-.532zm.918-7.022 7.55 2.643.007-.02.007-.018-7.564-2.605zm2.799-4.957-6.083-5.196-.004.006-.005.005 6.092 5.185zm4.544-3.534-3.577-7.155 3.577 7.155zm13.127.551-4.726 6.455.065.047.066.046 4.595-6.548zm3.948 4.865-7.325 3.218.021.047.021.046 7.283-3.31zm1.744 6.885-7.964.758.005.052.005.052 7.954-.862zm-9.914 20.792 7.799 1.783.024-.107.021-.107-7.844-1.569zm.413-2.616-7.914-1.173-.013.09-.011.09 7.938.993zm.321-2.984 7.975.63.001-.008v-.008l-7.976-.614zm.23-3.993 7.993.333 1.101-26.44-15.564 21.402 6.47 4.705zm-3.994 4.406 5.095 6.168.17-.14.162-.15-5.427-5.878zm-2.249 1.974 5.301 5.992.063-.056.063-.058-5.427-5.878zm-2.203 2.25-6.107-5.169-.059.07-.057.071 6.223 5.027zm-1.652 2.478-7.052-3.778-.025.047-.025.048 7.102 3.683zm.229 4.819-6.272 4.966.052.065.053.064 6.167-5.095zm4.131.505-3.7-7.093-.066.034-.065.036 3.831 7.023zm1.974-1.56-5.787-5.524-.067.07-.066.072 5.92 5.381zm5.127-18.268c0 4.8-.031 9.602-.091 14.402l15.998.203c.062-4.869.093-9.737.093-14.605h-16zm-.092 14.453c-.03 4.769-.121 9.741-.272 14.917l15.993.468c.155-5.288.248-10.383.279-15.284l-16-.101zm8.184 7.164-7.987-.459-.918 15.974 7.987.459.918-15.974zm-.446 7.528v-6.196h-16v6.196h16zm-14.993-10.081c-.533.959-.91 1.28-.981 1.335l9.707 12.72c2.254-1.722 3.957-3.939 5.261-6.285l-13.987-7.77zm-.873 1.254c-.778.573-1.311.85-1.605.97l6.092 14.796c1.786-.736 3.456-1.744 5.004-2.885l-9.491-12.881zm-1.531.94c-.49.197-.836.253-1.064.265l.819 15.979c2.158-.11 4.23-.605 6.188-1.388l-5.943-14.856zm-.654.254c-.256 0-.405-.044-.554-.119l-7.155 14.31a17.107 17.107 0 0 0 7.709 1.81v-16zm-.419-.05a3.323 3.323 0 0 1-1.001-.796l-12.124 10.44a19.312 19.312 0 0 0 5.701 4.53l7.424-14.174zm-1.001-.796a4.955 4.955 0 0 1-.861-1.459l-14.9 5.83a20.958 20.958 0 0 0 3.637 6.07l12.124-10.44zm-.788-1.264a5.004 5.004 0 0 1-.303-1.731h-16c0 2.457.421 4.862 1.257 7.173l15.046-5.442zm-.303-1.731c0-.586.116-1.213.434-1.941l-14.665-6.4c-1.151 2.638-1.769 5.438-1.769 8.34h16zm.406-1.88c.116-.26.439-.801 1.402-1.536l-9.703-12.722c-2.647 2.02-4.895 4.568-6.309 7.736l14.61 6.522zm1.44-1.565c2.361-1.823 4.362-3.311 6.017-4.48l-9.236-13.066c-1.895 1.34-4.086 2.972-6.559 4.882l9.778 12.664zm6.017-4.48c1.911-1.352 3.607-2.65 5.034-3.89l-10.491-12.08c-.899.78-2.141 1.746-3.779 2.904l9.236 13.065zm5.045-3.9c1.552-1.353 3.085-2.96 4.219-4.851l-13.72-8.232c.032-.052-.006.021-.181.218a9.405 9.405 0 0 1-.832.805l10.514 12.06zm4.18-4.787c1.429-2.33 2.051-4.892 2.051-7.44h-16c0-.024.004-.147.054-.335.052-.192.137-.396.254-.586l13.641 8.361zm2.051-7.44c0-2.625-.385-6.074-2.417-9.03l-13.185 9.065a3.653 3.653 0 0 1-.374-.682c-.064-.155-.083-.244-.082-.239.001.004.017.076.032.231.014.154.026.37.026.656h16zm-2.353-8.935c-1.979-2.968-5.236-5.077-9.318-5.077v16c-.724 0-1.608-.18-2.465-.668-.826-.47-1.304-1.041-1.53-1.38l13.313-8.875zm-9.318-5.077c-2.222 0-4.531.64-6.545 2.15l9.6 12.8c-1.034.777-2.18 1.05-3.055 1.05v-16zm-6.475 2.1c-1.58 1.158-2.712 2.611-3.496 4.102l14.158 7.452c-.172.328-.539.863-1.201 1.348l-9.461-12.902zm-3.572 4.25a15.952 15.952 0 0 0-1.305 3.76l15.635 3.4a.912.912 0 0 1 .029-.113c-.001 0-.014.04-.049.109l-14.31-7.156zm-1.359 4.029a19.345 19.345 0 0 0-.312 3.45h16c0-.185.016-.38.054-.588l-15.742-2.862zm-.312 3.45c0 .633.021 1.288.058 1.959l15.975-.888a19.433 19.433 0 0 1-.033-1.07h-16zm.095 2.398c.105.952.283 1.888.511 2.801l15.522-3.88a5.136 5.136 0 0 1-.131-.688l-15.902 1.767zm8.133-7.138-10.557.184.278 15.997 10.557-.183-.278-15.998zm-2.472 7.248a20.29 20.29 0 0 1-.101-1.066l-15.965 1.064c.041.61.1 1.235.175 1.871l15.891-1.87zm-.099-1.033c-.021-.335-.03-.642-.03-.924h-16c0 .636.021 1.277.061 1.922l15.969-.998zm-.03-.924c0-.974.162-1.948.514-2.957l-15.101-5.285a24.844 24.844 0 0 0-1.413 8.242h16zm.528-2.995c.332-.966.78-1.734 1.328-2.377l-12.185-10.37c-1.9 2.234-3.319 4.77-4.272 7.538l15.129 5.209zm1.318-2.366a6.341 6.341 0 0 1 2.039-1.574l-7.155-14.311a22.347 22.347 0 0 0-7.05 5.494l12.166 10.391zm2.039-1.574c.502-.251 1.279-.487 2.527-.487v-16c-3.342 0-6.635.652-9.682 2.176l7.155 14.31zm2.527-.487c1.926 0 2.404.415 2.296.337l9.452-12.91c-3.534-2.588-7.739-3.427-11.748-3.427v16zm2.427.43c.504.354.897.805 1.218 1.535l14.649-6.436c-1.454-3.309-3.692-6.101-6.676-8.195l-9.191 13.096zm1.26 1.628c.496 1.092.889 2.503 1.063 4.332l15.928-1.517c-.316-3.31-1.086-6.49-2.425-9.436l-14.566 6.62zm1.073 4.436c.243 2.242.367 4.555.367 6.94h16c0-2.938-.152-5.827-.46-8.665l-15.907 1.725zm5.884 21.499c.2-.998.366-2.068.507-3.193l-15.876-1.984a29.391 29.391 0 0 1-.32 2.039l15.689 3.138zm.482-3.013c.158-1.06.282-2.247.383-3.526l-15.95-1.26a37.06 37.06 0 0 1-.26 2.441l15.827 2.345zm.384-3.542c.101-1.305.182-2.732.247-4.274l-15.987-.666c-.058 1.395-.129 2.631-.212 3.713l15.952 1.227zm-14.216-9.312c-.37.508-.688.903-.952 1.202l11.997 10.586a32.367 32.367 0 0 0 1.894-2.377l-12.939-9.411zm-.952 1.202c-.373.423-.687.757-.943 1.013l11.313 11.314a38.34 38.34 0 0 0 1.627-1.74l-11.997-10.587zm-.943 1.013c-.398.398-.749.736-1.055 1.018l10.853 11.757c.489-.452.995-.94 1.515-1.461l-11.313-11.314zm-.724.729a62.789 62.789 0 0 0-2.58 2.263l10.853 11.756a47.042 47.042 0 0 1 1.917-1.684l-10.19-12.335zm-2.454 2.15a29.793 29.793 0 0 0-3.01 3.072l12.214 10.336c.42-.497.884-.971 1.397-1.425l-10.601-11.984zM178.8 44.76a23.844 23.844 0 0 0-2.481 3.728l14.104 7.555c.21-.393.479-.803.824-1.23L178.8 44.762zm-2.531 3.823c-.918 1.77-1.541 3.837-1.541 6.115h16c0 .688-.194 1.132-.255 1.25l-14.204-7.365zm-1.541 6.115c0 2.83 1.011 5.345 2.6 7.353l12.545-9.932c.183.232.411.59.587 1.073.18.492.268 1.009.268 1.506h-16zm2.705 7.482c1.987 2.406 4.908 3.96 8.325 3.96v-16a5.35 5.35 0 0 1 2.334.551c.797.39 1.343.896 1.676 1.299l-12.335 10.19zm8.325 3.96c2.217 0 4.182-.642 5.804-1.527L183.9 50.568c.276-.15.925-.426 1.858-.426v16zm5.674-1.458c1.65-.86 3.038-2.002 4.192-3.271l-11.839-10.763c-.07.077.003-.024.246-.15l7.401 14.184zm4.06-3.129a19.217 19.217 0 0 0 2.916-4l-14.01-7.73a3.236 3.236 0 0 1-.48.683l11.574 11.047zm2.916-4a19.246 19.246 0 0 0 1.896-5.02l-15.598-3.565a3.242 3.242 0 0 1-.308.856l14.01 7.73zm25.48-52.517 7.961.786.875-8.855-8.898.07.062 8zm-.642 7.252 7.975.63v-.008l-7.975-.622zm-.505 6.977-7.983-.526-.591 8.988 8.994-.473-.42-7.99zm3.442-.138.216 7.997.102-.003.103-.005-.421-7.99zm3.534-.276 7.996.276.316-9.17-9.128.936.816 7.958zm-.321 9.318-.42 7.989 8.135.428.28-8.141-7.995-.276zm-7.114-.092v-8h-7.568l-.42 7.556 7.988.444zm-.551 12.944-7.997-.232v.028l-.001.028 7.998.176zm-.092 19.369-7.999.11.001.056.001.056 7.997-.222zm.184 6.7.145 8 8.07-.147-.218-8.068-7.997.216zm-10.098.184-7.996-.26-.274 8.412 8.416-.153-.146-7.999zm.551-19.506 7.998.19-7.998-.19zm.229-19.507h8V19.83l-8.42.443.42 7.989zm-3.534.183.205 7.998.103-.003.102-.005-.41-7.99zm-3.534.184-7.995-.292-.327 8.974 8.952-.707-.63-7.975zm.367-10.052 1.132-7.92-8.802-1.257-.324 8.885 7.994.292zm6.61.597-.457 7.987 8.457.483v-8.47h-8zm-.092-7.023-7.999.107v.053l.002.054 7.997-.214zm-.184-7.022-.062-8-8.249.065.317 8.242 7.994-.307zm3.789-.878c-.25 2.53-.469 5.003-.657 7.417l15.951 1.243c.18-2.299.389-4.661.628-7.088l-15.922-1.572zm-.657 7.408c-.186 2.36-.357 4.721-.512 7.081l15.965 1.05c.151-2.29.317-4.58.498-6.871l-15.951-1.26zm7.891 15.596c1.097-.058 2.176-.101 3.238-.13l-.432-15.994a142.81 142.81 0 0 0-3.647.146l.841 15.978zm3.443-.138a79.654 79.654 0 0 0 3.93-.306l-1.633-15.917a63.48 63.48 0 0 1-3.138.245l.841 15.978zm-4.882-8.54-.321 9.317 15.99.552.322-9.318-15.991-.551zm8.094 1.604a76.019 76.019 0 0 0-4-.103v16c1.091 0 2.144.027 3.16.08l.84-15.977zm-4-.103H222.282v16H225.816v-16zm-11.522 7.556a500.988 500.988 0 0 0-.56 13.156l15.994.463c.12-4.149.3-8.392.541-12.731l-15.975-.888zm-.561 13.212c-.093 4.252-.14 8.548-.14 12.89h16c0-4.227.046-8.407.136-12.54l-15.996-.35zm-.14 12.89c0 2.24.016 4.495.047 6.764l15.998-.219c-.03-2.198-.045-4.38-.045-6.546h-16zm.049 6.877c.061 2.2.123 4.433.184 6.695l15.994-.432c-.061-2.267-.123-4.502-.184-6.708l-15.994.445zm8.035-1.52-10.097.184.291 15.997 10.097-.183-.291-15.998zm-1.956 8.443c.215-6.602.399-13.127.553-19.577l-15.996-.38c-.152 6.401-.335 12.88-.549 19.436l15.992.52zm.553-19.578c.154-6.52.231-13.086.231-19.696h-16c0 6.486-.075 12.925-.227 19.317l15.996.38zm-8.189-27.685-3.523.183.819 15.979 3.545-.184-.841-15.978zm-3.319.175a74.687 74.687 0 0 0-3.959.206l1.26 15.95a58.483 58.483 0 0 1 3.109-.161l-.41-15.995zm4.666 8.473.367-10.052-15.989-.584-.368 10.052 15.99.584zm-8.759-2.424c1.24.177 2.503.317 3.789.421l1.293-15.947a46.564 46.564 0 0 1-2.819-.313l-2.263 15.839zm3.789.421c1.192.097 2.357.178 3.495.243l.913-15.974c-1.004-.057-2.042-.13-3.115-.216l-1.293 15.947zm11.952-7.744c0-2.455-.032-4.867-.095-7.236l-15.994.427c.059 2.22.089 4.49.089 6.809h16zm-.093-7.13a281.979 281.979 0 0 0-.189-7.223l-15.988.615c.089 2.323.149 4.597.179 6.822l15.998-.213zm-8.12 1.085 11.75-.092-.125-16-11.75.092.125 16z" fill="#243041" mask="url(#b)"/><defs><linearGradient id="a" x1="114" y1="-5.448" x2="114" y2="89" gradientUnits="userSpaceOnUse"><stop stop-color="#67B6FF"/><stop offset="1" stop-color="#fff"/></linearGradient></defs></svg>