<svg width="183" height="44" fill="none" xmlns="http://www.w3.org/2000/svg"><mask id="b" maskUnits="userSpaceOnUse" x="-4" y="-4" width="191" height="52" fill="#000"><path fill="#fff" d="M-4-4h191v52H-4z"/><path d="M7.055 1.344c-.157 3.093-.29 6.164-.399 9.21-.11 3.032-.187 6.079-.234 9.141.39.032.781.047 1.172.047h1.195a54.417 54.417 0 0 0 3.117-.094c.031-.687.047-1.359.047-2.015V15.57c0-2.375-.023-4.742-.07-7.101-.047-2.36-.125-4.735-.235-7.125h5.766c-.281 3.765-.5 7.508-.656 11.226-.14 3.703-.211 7.438-.211 11.203 0 1.844.023 3.68.07 5.508.047 1.828.11 3.672.188 5.532H11.46c.078-1.86.148-3.711.21-5.555l.188-5.531c-.89-.047-1.78-.086-2.671-.118-.876-.047-1.75-.07-2.626-.07h-.187v8.063c0 1.062.016 2.132.047 3.21H1.055c.078-2.25.125-4.468.14-6.656A483.564 483.564 0 0 0 .82 1.344h6.235zM36.103 21.57c0 1.907-.086 3.578-.258 5.016-.172 1.437-.422 2.687-.75 3.75-.312 1.047-.695 1.922-1.148 2.625-.438.687-.93 1.242-1.477 1.664a4.825 4.825 0 0 1-1.734.89 7.214 7.214 0 0 1-1.922.258c-.656 0-1.289-.07-1.898-.21a4.617 4.617 0 0 1-1.664-.774c-.516-.375-.993-.883-1.43-1.523-.422-.641-.781-1.461-1.078-2.461-.297-1-.532-2.196-.703-3.586-.157-1.39-.235-3.024-.235-4.899 0-2.812.203-5.117.61-6.914.421-1.797.968-3.21 1.64-4.242.672-1.047 1.438-1.766 2.297-2.156a6.133 6.133 0 0 1 2.649-.61c.578 0 1.156.063 1.734.188.594.11 1.148.336 1.664.68.531.343 1.023.82 1.477 1.43.453.609.843 1.406 1.171 2.39.329.969.586 2.148.774 3.539.187 1.39.281 3.04.281 4.945zm-5.039.188c0-1.5-.055-2.727-.164-3.68-.11-.969-.258-1.734-.445-2.297-.188-.562-.414-.945-.68-1.148a1.336 1.336 0 0 0-.867-.328c-.36 0-.672.156-.938.468-.265.297-.492.782-.68 1.454-.171.671-.304 1.539-.398 2.601-.094 1.047-.14 2.328-.14 3.844 0 1.531.054 2.805.164 3.82.125 1 .289 1.805.492 2.414.219.594.469 1.016.75 1.266.297.25.61.375.937.375.688 0 1.188-.711 1.5-2.133.313-1.422.47-3.64.47-6.656zm21.642-7.547c.313 1.375.61 2.82.89 4.336.25 1.297.517 2.75.798 4.36.281 1.593.539 3.195.773 4.804.11-.922.211-1.875.305-2.86.094-.984.18-1.96.258-2.93.093-.983.172-1.944.234-2.882.078-.937.148-1.828.211-2.672.14-1.969.266-3.898.375-5.789l5.578.188c-.594 3.062-1.164 6.07-1.71 9.023a408.747 408.747 0 0 1-.75 3.938l-.75 4.03-.727 3.868a634.32 634.32 0 0 0-.633 3.422l-5.367.047a196.36 196.36 0 0 0-.446-3.375c-.14-1.11-.28-2.18-.422-3.211-.125-1.031-.25-2.008-.375-2.93-.125-.922-.242-1.765-.351-2.531-.172 1.515-.406 3.32-.703 5.414a145.591 145.591 0 0 1-1.055 6.586l-5.39.047a114.59 114.59 0 0 0-.47-3.399c-.171-1.25-.359-2.539-.562-3.867a193.916 193.916 0 0 0-.656-4.008l-.633-3.914c-.5-2.937-1.023-5.937-1.57-9l5.625-.047c.14 1.829.297 3.696.469 5.602.062.812.132 1.68.21 2.602.079.906.157 1.835.235 2.789.094.953.172 1.914.234 2.882.078.97.156 1.914.235 2.836l.375-2.39c.14-.813.265-1.602.375-2.367.125-.782.234-1.532.328-2.25.11-.735.21-1.422.304-2.063.204-1.5.399-2.93.586-4.29h4.172zM84.014 3.359a180.21 180.21 0 0 0-.328 3.704 273.32 273.32 0 0 0-.258 3.562c.594-.031 1.18-.055 1.758-.07a36.54 36.54 0 0 0 1.805-.14l-.164 4.757a34.742 34.742 0 0 0-1.829-.047h-1.804c-.125 2.25-.219 4.453-.282 6.61-.046 2.14-.07 4.304-.07 6.492 0 1.125.008 2.257.024 3.398l.093 3.422-5.156.094c.11-3.36.203-6.68.281-9.961.078-3.297.118-6.617.118-9.961l-1.805.094c-.61.015-1.211.046-1.805.093l.188-5.133c.547.079 1.11.141 1.687.188.578.047 1.14.086 1.688.117 0-1.219-.016-2.414-.047-3.586a143.133 143.133 0 0 0-.094-3.586l6-.047zm20.47 18.211c0 1.907-.086 3.578-.257 5.016-.172 1.437-.422 2.687-.75 3.75-.313 1.047-.696 1.922-1.149 2.625-.437.687-.93 1.242-1.476 1.664a4.833 4.833 0 0 1-1.735.89 7.214 7.214 0 0 1-1.922.258c-.656 0-1.289-.07-1.898-.21a4.617 4.617 0 0 1-1.664-.774c-.516-.375-.992-.883-1.43-1.523-.422-.641-.781-1.461-1.078-2.461-.297-1-.531-2.196-.703-3.586-.156-1.39-.234-3.024-.234-4.899 0-2.812.203-5.117.609-6.914.422-1.797.969-3.21 1.64-4.242.672-1.047 1.438-1.766 2.297-2.156a6.133 6.133 0 0 1 2.649-.61c.578 0 1.156.063 1.734.188a4.41 4.41 0 0 1 1.664.68c.531.343 1.024.82 1.477 1.43.453.609.844 1.406 1.172 2.39.328.969.586 2.148.773 3.539.188 1.39.281 3.04.281 4.945zm-5.039.188c0-1.5-.054-2.727-.164-3.68-.11-.969-.258-1.734-.445-2.297-.188-.562-.414-.945-.68-1.148a1.336 1.336 0 0 0-.867-.328c-.36 0-.672.156-.937.468-.266.297-.493.782-.68 1.454-.172.671-.305 1.539-.399 2.601-.093 1.047-.14 2.328-.14 3.844 0 1.531.055 2.805.164 3.82.125 1 .289 1.805.492 2.414.219.594.469 1.016.75 1.266.297.25.61.375.938.375.687 0 1.187-.711 1.5-2.133.312-1.422.468-3.64.468-6.656zm34.144-10.031c0 1.343-.18 2.664-.539 3.96a11.874 11.874 0 0 1-1.617 3.563 11.77 11.77 0 0 1-2.742 2.906c-1.11.828-2.422 1.461-3.938 1.899.031 1.89.07 3.765.117 5.625.063 1.843.133 3.68.211 5.508h-5.718c.25-3.547.429-7.094.539-10.641.125-3.547.187-7.117.187-10.711 0-2.078-.016-4.149-.047-6.211a215.645 215.645 0 0 0-.187-6.281 12.71 12.71 0 0 1 2.508-.492 24.686 24.686 0 0 1 2.179-.118c.422 0 .938.047 1.547.141a7.831 7.831 0 0 1 1.922.563 8.38 8.38 0 0 1 1.992 1.148c.672.484 1.274 1.14 1.805 1.969.531.812.961 1.804 1.289 2.976.328 1.172.492 2.57.492 4.196zm-8.836 8.343a4.425 4.425 0 0 0 1.336-.75 5.687 5.687 0 0 0 1.008-1.03 5.84 5.84 0 0 0 .726-1.243c.204-.438.368-.867.493-1.29.297-.984.468-2.054.515-3.21l-.023-.54c0-.343-.039-.773-.117-1.288a14.025 14.025 0 0 0-.328-1.735 9.09 9.09 0 0 0-.657-1.828 5.535 5.535 0 0 0-1.054-1.547 3.375 3.375 0 0 0-1.571-.984 225.891 225.891 0 0 0-.258 7.29c-.046 2.42-.07 4.866-.07 7.335v.82zm18.478 14.297c-.406.016-.867.047-1.383.094-.437.031-.953.07-1.546.117-.579.047-1.219.11-1.922.188-.141-5.297-.289-9.977-.446-14.04-.156-4.078-.297-7.523-.422-10.335a518.284 518.284 0 0 0-.468-8.555l6.093-.281V18.617c.016 2.188.024 4.102.024 5.742.016 1.625.023 3.024.023 4.196.016 2.734.032 4.672.047 5.812zm19.228-14.297c0 2.47-.015 4.938-.046 7.407a340.093 340.093 0 0 1-.141 7.71l-4.078-.234V31.79c-.469.844-1 1.492-1.594 1.945-.594.438-1.156.766-1.687.985-.625.25-1.243.39-1.852.422-.75 0-1.453-.164-2.109-.493a5.759 5.759 0 0 1-1.711-1.359 6.595 6.595 0 0 1-1.149-1.922 6.649 6.649 0 0 1-.398-2.273c0-.89.187-1.766.562-2.625.391-.875 1.047-1.664 1.969-2.367a96.84 96.84 0 0 1 3.211-2.391 29.212 29.212 0 0 0 2.25-1.734c.609-.532 1.055-1.032 1.336-1.5.297-.485.445-1.04.445-1.665 0-1.03-.172-1.796-.515-2.296-.344-.516-.797-.774-1.36-.774-.344 0-.64.094-.89.281-.235.172-.43.407-.586.704-.141.28-.25.601-.328.96a5.709 5.709 0 0 0-.094 1.032c0 .234.008.492.023.773.031.281.086.578.164.89l-5.39.095a12.15 12.15 0 0 1-.094-1.477c0-.969.164-1.922.492-2.86a7.762 7.762 0 0 1 1.43-2.53 7.316 7.316 0 0 1 2.32-1.805c.906-.453 1.945-.68 3.117-.68 1.516 0 2.711.32 3.586.96a5.836 5.836 0 0 1 2.016 2.485c.469 1.032.765 2.203.89 3.516.141 1.297.211 2.625.211 3.984zm-5.273 6.633c.078-.39.148-.836.211-1.336.062-.422.117-.93.164-1.523.047-.61.086-1.29.117-2.04-.25.344-.492.65-.726.915-.235.265-.454.5-.657.703-.234.234-.453.445-.656.633a28.05 28.05 0 0 0-1.148 1.008c-.407.359-.782.742-1.125 1.148-.328.406-.61.828-.844 1.266-.219.421-.328.835-.328 1.242 0 .437.148.843.445 1.218.297.36.664.54 1.102.54.328 0 .664-.094 1.007-.282.36-.187.696-.453 1.008-.797a5.727 5.727 0 0 0 1.43-2.695zm24.666-15.984c.14 3.375.25 6.773.328 10.195.093 3.406.14 6.883.14 10.43 0 2.25-.093 4.133-.281 5.648-.187 1.516-.562 2.735-1.125 3.656-.562.938-1.367 1.602-2.414 1.993-1.047.406-2.43.609-4.148.609-.875 0-1.883-.04-3.024-.117a66.006 66.006 0 0 1-3.89-.399l.187-5.132c1.141.078 2.156.14 3.047.187l2.226.117c.704.047 1.313.07 1.829.07a2.9 2.9 0 0 0 .961-.14 1.12 1.12 0 0 0 .632-.469c.172-.219.297-.531.375-.937.078-.407.117-.93.117-1.57v-.61c0-.219-.015-.46-.046-.727-.25.375-.539.672-.868.891-.312.219-.625.39-.937.516a3.433 3.433 0 0 1-.914.234 4.43 4.43 0 0 1-.703.07c-1.266 0-2.289-.257-3.071-.773-.781-.516-1.39-1.219-1.828-2.11-.422-.89-.711-1.93-.867-3.117a29.929 29.929 0 0 1-.234-3.843c0-.61-.008-1.016-.024-1.22 0-.218-.008-.35-.023-.398v-.046l.023-.235c.016-.172.039-.484.071-.937.031-.453.078-1.164.14-2.133.063-.969.133-2.242.211-3.82.094-1.594.203-3.618.328-6.07l5.414.468c.047 0 .016.305-.093.914a90.922 90.922 0 0 0-.352 2.555c-.125 1.094-.25 2.414-.375 3.96a64.465 64.465 0 0 0-.187 5.157c0 1.125.054 2.086.164 2.883.125.781.289 1.422.492 1.922s.445.867.726 1.101c.297.219.625.328.985.328.625 0 1.14-.484 1.547-1.453.406-.984.609-2.547.609-4.687 0-.14-.008-.297-.023-.47 0-.187-.008-.452-.024-.796 0-.36-.015-.82-.047-1.383-.031-.562-.078-1.304-.14-2.226-.047-.938-.11-2.07-.188-3.399a395.24 395.24 0 0 0-.258-4.828l5.532.14z"/></mask><path d="M7.055 1.344c-.157 3.093-.29 6.164-.399 9.21-.11 3.032-.187 6.079-.234 9.141.39.032.781.047 1.172.047h1.195a54.417 54.417 0 0 0 3.117-.094c.031-.687.047-1.359.047-2.015V15.57c0-2.375-.023-4.742-.07-7.101-.047-2.36-.125-4.735-.235-7.125h5.766c-.281 3.765-.5 7.508-.656 11.226-.14 3.703-.211 7.438-.211 11.203 0 1.844.023 3.68.07 5.508.047 1.828.11 3.672.188 5.532H11.46c.078-1.86.148-3.711.21-5.555l.188-5.531c-.89-.047-1.78-.086-2.671-.118-.876-.047-1.75-.07-2.626-.07h-.187v8.063c0 1.062.016 2.132.047 3.21H1.055c.078-2.25.125-4.468.14-6.656A483.564 483.564 0 0 0 .82 1.344h6.235zM36.103 21.57c0 1.907-.086 3.578-.258 5.016-.172 1.437-.422 2.687-.75 3.75-.312 1.047-.695 1.922-1.148 2.625-.438.687-.93 1.242-1.477 1.664a4.825 4.825 0 0 1-1.734.89 7.214 7.214 0 0 1-1.922.258c-.656 0-1.289-.07-1.898-.21a4.617 4.617 0 0 1-1.664-.774c-.516-.375-.993-.883-1.43-1.523-.422-.641-.781-1.461-1.078-2.461-.297-1-.532-2.196-.703-3.586-.157-1.39-.235-3.024-.235-4.899 0-2.812.203-5.117.61-6.914.421-1.797.968-3.21 1.64-4.242.672-1.047 1.438-1.766 2.297-2.156a6.133 6.133 0 0 1 2.649-.61c.578 0 1.156.063 1.734.188.594.11 1.148.336 1.664.68.531.343 1.023.82 1.477 1.43.453.609.843 1.406 1.171 2.39.329.969.586 2.148.774 3.539.187 1.39.281 3.04.281 4.945zm-5.039.188c0-1.5-.055-2.727-.164-3.68-.11-.969-.258-1.734-.445-2.297-.188-.562-.414-.945-.68-1.148a1.336 1.336 0 0 0-.867-.328c-.36 0-.672.156-.938.468-.265.297-.492.782-.68 1.454-.171.671-.304 1.539-.398 2.601-.094 1.047-.14 2.328-.14 3.844 0 1.531.054 2.805.164 3.82.125 1 .289 1.805.492 2.414.219.594.469 1.016.75 1.266.297.25.61.375.937.375.688 0 1.188-.711 1.5-2.133.313-1.422.47-3.64.47-6.656zm21.642-7.547c.313 1.375.61 2.82.89 4.336.25 1.297.517 2.75.798 4.36.281 1.593.539 3.195.773 4.804.11-.922.211-1.875.305-2.86.094-.984.18-1.96.258-2.93.093-.983.172-1.944.234-2.882.078-.937.148-1.828.211-2.672.14-1.969.266-3.898.375-5.789l5.578.188c-.594 3.062-1.164 6.07-1.71 9.023a408.747 408.747 0 0 1-.75 3.938l-.75 4.03-.727 3.868a634.32 634.32 0 0 0-.633 3.422l-5.367.047a196.36 196.36 0 0 0-.446-3.375c-.14-1.11-.28-2.18-.422-3.211-.125-1.031-.25-2.008-.375-2.93-.125-.922-.242-1.765-.351-2.531-.172 1.515-.406 3.32-.703 5.414a145.591 145.591 0 0 1-1.055 6.586l-5.39.047a114.59 114.59 0 0 0-.47-3.399c-.171-1.25-.359-2.539-.562-3.867a193.916 193.916 0 0 0-.656-4.008l-.633-3.914c-.5-2.937-1.023-5.937-1.57-9l5.625-.047c.14 1.829.297 3.696.469 5.602.062.812.132 1.68.21 2.602.079.906.157 1.835.235 2.789.094.953.172 1.914.234 2.882.078.97.156 1.914.235 2.836l.375-2.39c.14-.813.265-1.602.375-2.367.125-.782.234-1.532.328-2.25.11-.735.21-1.422.304-2.063.204-1.5.399-2.93.586-4.29h4.172zM84.014 3.359a180.21 180.21 0 0 0-.328 3.704 273.32 273.32 0 0 0-.258 3.562c.594-.031 1.18-.055 1.758-.07a36.54 36.54 0 0 0 1.805-.14l-.164 4.757a34.742 34.742 0 0 0-1.829-.047h-1.804c-.125 2.25-.219 4.453-.282 6.61-.046 2.14-.07 4.304-.07 6.492 0 1.125.008 2.257.024 3.398l.093 3.422-5.156.094c.11-3.36.203-6.68.281-9.961.078-3.297.118-6.617.118-9.961l-1.805.094c-.61.015-1.211.046-1.805.093l.188-5.133c.547.079 1.11.141 1.687.188.578.047 1.14.086 1.688.117 0-1.219-.016-2.414-.047-3.586a143.133 143.133 0 0 0-.094-3.586l6-.047zm20.47 18.211c0 1.907-.086 3.578-.257 5.016-.172 1.437-.422 2.687-.75 3.75-.313 1.047-.696 1.922-1.149 2.625-.437.687-.93 1.242-1.476 1.664a4.833 4.833 0 0 1-1.735.89 7.214 7.214 0 0 1-1.922.258c-.656 0-1.289-.07-1.898-.21a4.617 4.617 0 0 1-1.664-.774c-.516-.375-.992-.883-1.43-1.523-.422-.641-.781-1.461-1.078-2.461-.297-1-.531-2.196-.703-3.586-.156-1.39-.234-3.024-.234-4.899 0-2.812.203-5.117.609-6.914.422-1.797.969-3.21 1.64-4.242.672-1.047 1.438-1.766 2.297-2.156a6.133 6.133 0 0 1 2.649-.61c.578 0 1.156.063 1.734.188a4.41 4.41 0 0 1 1.664.68c.531.343 1.024.82 1.477 1.43.453.609.844 1.406 1.172 2.39.328.969.586 2.148.773 3.539.188 1.39.281 3.04.281 4.945zm-5.039.188c0-1.5-.054-2.727-.164-3.68-.11-.969-.258-1.734-.445-2.297-.188-.562-.414-.945-.68-1.148a1.336 1.336 0 0 0-.867-.328c-.36 0-.672.156-.937.468-.266.297-.493.782-.68 1.454-.172.671-.305 1.539-.399 2.601-.093 1.047-.14 2.328-.14 3.844 0 1.531.055 2.805.164 3.82.125 1 .289 1.805.492 2.414.219.594.469 1.016.75 1.266.297.25.61.375.938.375.687 0 1.187-.711 1.5-2.133.312-1.422.468-3.64.468-6.656zm34.144-10.031c0 1.343-.18 2.664-.539 3.96a11.874 11.874 0 0 1-1.617 3.563 11.77 11.77 0 0 1-2.742 2.906c-1.11.828-2.422 1.461-3.938 1.899.031 1.89.07 3.765.117 5.625.063 1.843.133 3.68.211 5.508h-5.718c.25-3.547.429-7.094.539-10.641.125-3.547.187-7.117.187-10.711 0-2.078-.016-4.149-.047-6.211a215.645 215.645 0 0 0-.187-6.281 12.71 12.71 0 0 1 2.508-.492 24.686 24.686 0 0 1 2.179-.118c.422 0 .938.047 1.547.141a7.831 7.831 0 0 1 1.922.563 8.38 8.38 0 0 1 1.992 1.148c.672.484 1.274 1.14 1.805 1.969.531.812.961 1.804 1.289 2.976.328 1.172.492 2.57.492 4.196zm-8.836 8.343a4.425 4.425 0 0 0 1.336-.75 5.687 5.687 0 0 0 1.008-1.03 5.84 5.84 0 0 0 .726-1.243c.204-.438.368-.867.493-1.29.297-.984.468-2.054.515-3.21l-.023-.54c0-.343-.039-.773-.117-1.288a14.025 14.025 0 0 0-.328-1.735 9.09 9.09 0 0 0-.657-1.828 5.535 5.535 0 0 0-1.054-1.547 3.375 3.375 0 0 0-1.571-.984 225.891 225.891 0 0 0-.258 7.29c-.046 2.42-.07 4.866-.07 7.335v.82zm18.478 14.297c-.406.016-.867.047-1.383.094-.437.031-.953.07-1.546.117-.579.047-1.219.11-1.922.188-.141-5.297-.289-9.977-.446-14.04-.156-4.078-.297-7.523-.422-10.335a518.284 518.284 0 0 0-.468-8.555l6.093-.281V18.617c.016 2.188.024 4.102.024 5.742.016 1.625.023 3.024.023 4.196.016 2.734.032 4.672.047 5.812zm19.228-14.297c0 2.47-.015 4.938-.046 7.407a340.093 340.093 0 0 1-.141 7.71l-4.078-.234V31.79c-.469.844-1 1.492-1.594 1.945-.594.438-1.156.766-1.687.985-.625.25-1.243.39-1.852.422-.75 0-1.453-.164-2.109-.493a5.759 5.759 0 0 1-1.711-1.359 6.595 6.595 0 0 1-1.149-1.922 6.649 6.649 0 0 1-.398-2.273c0-.89.187-1.766.562-2.625.391-.875 1.047-1.664 1.969-2.367a96.84 96.84 0 0 1 3.211-2.391 29.212 29.212 0 0 0 2.25-1.734c.609-.532 1.055-1.032 1.336-1.5.297-.485.445-1.04.445-1.665 0-1.03-.172-1.796-.515-2.296-.344-.516-.797-.774-1.36-.774-.344 0-.64.094-.89.281-.235.172-.43.407-.586.704-.141.28-.25.601-.328.96a5.709 5.709 0 0 0-.094 1.032c0 .234.008.492.023.773.031.281.086.578.164.89l-5.39.095a12.15 12.15 0 0 1-.094-1.477c0-.969.164-1.922.492-2.86a7.762 7.762 0 0 1 1.43-2.53 7.316 7.316 0 0 1 2.32-1.805c.906-.453 1.945-.68 3.117-.68 1.516 0 2.711.32 3.586.96a5.836 5.836 0 0 1 2.016 2.485c.469 1.032.765 2.203.89 3.516.141 1.297.211 2.625.211 3.984zm-5.273 6.633c.078-.39.148-.836.211-1.336.062-.422.117-.93.164-1.523.047-.61.086-1.29.117-2.04-.25.344-.492.65-.726.915-.235.265-.454.5-.657.703-.234.234-.453.445-.656.633a28.05 28.05 0 0 0-1.148 1.008c-.407.359-.782.742-1.125 1.148-.328.406-.61.828-.844 1.266-.219.421-.328.835-.328 1.242 0 .437.148.843.445 1.218.297.36.664.54 1.102.54.328 0 .664-.094 1.007-.282.36-.187.696-.453 1.008-.797a5.727 5.727 0 0 0 1.43-2.695zm24.666-15.984c.14 3.375.25 6.773.328 10.195.093 3.406.14 6.883.14 10.43 0 2.25-.093 4.133-.281 5.648-.187 1.516-.562 2.735-1.125 3.656-.562.938-1.367 1.602-2.414 1.993-1.047.406-2.43.609-4.148.609-.875 0-1.883-.04-3.024-.117a66.006 66.006 0 0 1-3.89-.399l.187-5.132c1.141.078 2.156.14 3.047.187l2.226.117c.704.047 1.313.07 1.829.07a2.9 2.9 0 0 0 .961-.14 1.12 1.12 0 0 0 .632-.469c.172-.219.297-.531.375-.937.078-.407.117-.93.117-1.57v-.61c0-.219-.015-.46-.046-.727-.25.375-.539.672-.868.891-.312.219-.625.39-.937.516a3.433 3.433 0 0 1-.914.234 4.43 4.43 0 0 1-.703.07c-1.266 0-2.289-.257-3.071-.773-.781-.516-1.39-1.219-1.828-2.11-.422-.89-.711-1.93-.867-3.117a29.929 29.929 0 0 1-.234-3.843c0-.61-.008-1.016-.024-1.22 0-.218-.008-.35-.023-.398v-.046l.023-.235c.016-.172.039-.484.071-.937.031-.453.078-1.164.14-2.133.063-.969.133-2.242.211-3.82.094-1.594.203-3.618.328-6.07l5.414.468c.047 0 .016.305-.093.914a90.922 90.922 0 0 0-.352 2.555c-.125 1.094-.25 2.414-.375 3.96a64.465 64.465 0 0 0-.187 5.157c0 1.125.054 2.086.164 2.883.125.781.289 1.422.492 1.922s.445.867.726 1.101c.297.219.625.328.985.328.625 0 1.14-.484 1.547-1.453.406-.984.609-2.547.609-4.687 0-.14-.008-.297-.023-.47 0-.187-.008-.452-.024-.796 0-.36-.015-.82-.047-1.383-.031-.562-.078-1.304-.14-2.226-.047-.938-.11-2.07-.188-3.399a395.24 395.24 0 0 0-.258-4.828l5.532.14z" fill="url(#a)"/><path d="m7.055 1.344 3.995.202.212-4.202H7.055v4zm-.399 9.21 3.998.145-3.998-.144zm-.234 9.141-4-.06-.057 3.748 3.738.3.319-3.988zm3.89.024-.117-3.999h-.004l.121 3.999zm1.594-.07.235 3.992 3.598-.211.163-3.6-3.996-.182zm-.258-18.305v-4H7.461l.192 4.183 3.995-.183zm5.766 0 3.989.298.321-4.298h-4.31v4zm-.656 11.226-3.997-.168v.017l3.997.151zm.047 22.242v4h4.171l-.175-4.167-3.996.167zm-5.344 0-3.997-.167-.175 4.167h4.172v-4zm.398-11.085 3.998.135.133-3.924-3.92-.206-.21 3.995zm-2.671-.118-.214 3.995.036.002h.037l.14-3.997zm-2.813-.07v-4h-4v4h4zm.047 11.273v4h4.118l-.12-4.115-3.998.115zm-5.367 0-3.998-.138-.144 4.139h4.142v-4zm.14-6.656-4-.056v.028l4 .028zM.82 1.344v-4h-4.17l.174 4.167L.82 1.344zm2.24-.202c-.157 3.113-.291 6.203-.401 9.27l7.995.286c.108-3.027.24-6.078.396-9.152l-7.99-.404zm-.401 9.269c-.11 3.059-.19 6.133-.237 9.223l8 .122c.046-3.035.123-6.054.232-9.057l-7.995-.288zm3.444 13.272c.496.04.993.06 1.49.06v-8c-.283 0-.567-.012-.852-.035l-.638 7.975zm1.49.06H8.79v-8H7.594v8zm1.196 0c.542 0 1.09-.01 1.645-.026l-.243-7.996a46.43 46.43 0 0 1-1.402.021v8zm1.641-.026c.57-.017 1.14-.042 1.711-.075l-.47-7.987c-.492.03-.984.051-1.476.066l.235 7.996zm5.472-3.887c.034-.745.051-1.477.051-2.197h-8c0 .593-.014 1.204-.043 1.834l7.992.363zm.051-2.197V15.57h-8V17.633h8zm0-2.063c0-2.401-.024-4.795-.071-7.18l-7.998.158c.046 2.333.07 4.674.07 7.022h8zm-.071-7.18a279.548 279.548 0 0 0-.238-7.23l-7.991.367c.107 2.356.184 4.697.23 7.021l7.999-.159zm-4.234-3.046h5.766v-8h-5.766v8zm1.777-4.298a349.235 349.235 0 0 0-.664 11.356l7.993.336c.155-3.675.37-7.373.649-11.096l-7.978-.596zm-.664 11.372c-.143 3.755-.214 7.54-.214 11.355h8c0-3.715.07-7.4.208-11.05l-7.994-.305zm-.214 11.355c0 1.878.024 3.748.071 5.61l7.998-.204a210.831 210.831 0 0 1-.07-5.406h-8zm.071 5.61c.048 1.851.111 3.717.19 5.597l7.993-.335a333.47 333.47 0 0 1-.185-5.466l-7.998.205zm4.187 1.43H11.46v8h5.344v-8zm-1.348 4.167c.079-1.87.15-3.732.213-5.587l-7.996-.27a681.595 681.595 0 0 1-.21 5.522l7.993.335zm.213-5.587v-.032l.001-.01a.39.39 0 0 0 0-.012v-.01l.001-.011a.39.39 0 0 0 0-.011v-.01l.001-.012v-.01l.001-.011V29.243a.39.39 0 0 1 .001-.012v-.01a.39.39 0 0 0 .002-.044V29.156l.001-.011v-.01a14.405 14.405 0 0 1 .002-.033v-.011a.39.39 0 0 0 0-.011v-.022a.39.39 0 0 0 .001-.01v-.011l.001-.011v-.01a.39.39 0 0 1 0-.012l.001-.01a.39.39 0 0 0 0-.022l.001-.01v-.012l.001-.01v-.022l.001-.01v-.022l.001-.011V28.854a.39.39 0 0 1 .001-.012v-.01l.001-.011V28.8l.001-.012V28.767l.001-.011v-.022l.001-.01a.39.39 0 0 1 0-.011l.001-.011v-.022a.39.39 0 0 0 .001-.01v-.022l.001-.01v-.022l.001-.011v-.011l.001-.01a.39.39 0 0 0 0-.012v-.01l.001-.011a.39.39 0 0 0 0-.011v-.01l.001-.012v-.01l.001-.011v-.011a.39.39 0 0 0 0-.01l.001-.012v-.01a.39.39 0 0 0 0-.011l.001-.011V28.41l.001-.012v-.01a.39.39 0 0 0 .002-.044.39.39 0 0 1 0-.01v-.011l.001-.011v-.022l.001-.01v-.011l.001-.011v-.022l.001-.01a.39.39 0 0 0 .002-.044.39.39 0 0 1 0-.01v-.022l.001-.01v-.022a.39.39 0 0 1 .001-.011V28.087l.001-.012v-.01l.001-.011V28.033l.001-.012V28l.001-.011a.39.39 0 0 1 0-.022l.001-.01v-.011l.001-.011v-.022l.001-.01v-.022l.001-.01v-.022a.39.39 0 0 0 .001-.011v-.011l.001-.01a.39.39 0 0 0 0-.012v-.01l.001-.011v-.022l.001-.01a.39.39 0 0 0 0-.012l.001-.01v-.011a.39.39 0 0 0 0-.011l.001-.01v-.012a.39.39 0 0 0 0-.01l.001-.011V27.644a.39.39 0 0 1 .001-.012v-.01a.39.39 0 0 0 .001-.022v-.01a.39.39 0 0 0 .001-.012V27.557a.39.39 0 0 0 .001-.011v-.022l.001-.01v-.011l.001-.011v-.01a.39.39 0 0 1 0-.012l.001-.01v-.022l.001-.01v-.012l.001-.01v-.022a.39.39 0 0 1 .001-.022v-.01a.39.39 0 0 1 .001-.011V27.32l.001-.012v-.01l.001-.011V27.266l.001-.012a.39.39 0 0 1 0-.021l.001-.011a.39.39 0 0 1 0-.01V27.2l.001-.01v-.011l.001-.011v-.022l.001-.01v-.022a.39.39 0 0 0 .001-.011v-.022a.39.39 0 0 0 .001-.01v-.011l.001-.011v-.022l.001-.01a.39.39 0 0 0 0-.011v-.011l.001-.01a.39.39 0 0 0 0-.012l.001-.01v-.022l.001-.01v-.022l.001-.011V26.877l.001-.012v-.01a.39.39 0 0 0 .002-.044.39.39 0 0 1 0-.01v-.011l.001-.011v-.022a.39.39 0 0 0 .002-.021v-.011a.39.39 0 0 0 0-.01v-.012l.001-.01a.39.39 0 0 0 0-.011v-.011l.001-.01v-.012l.001-.01v-.011a.39.39 0 0 0 .001-.033v-.01l.001-.011V26.553l.001-.012v-.01l.001-.011a.39.39 0 0 1 0-.011v-.01l.001-.012a.39.39 0 0 1 0-.01v-.011l.001-.011V26.434l.001-.012v-.01l.001-.011v-.011a.39.39 0 0 1 0-.01l.001-.012v-.01a.39.39 0 0 1 0-.011l.001-.011v-.022a.39.39 0 0 0 .001-.01v-.011l.001-.011v-.022l.001-.01a.39.39 0 0 0 0-.011v-.011l.001-.01a.39.39 0 0 0 0-.012l.001-.01v-.011a.39.39 0 0 0 0-.011l.001-.01v-.022l.001-.011V26.11l.001-.012v-.01a.39.39 0 0 0 .001-.011V26.056l.001-.012V26.023l.001-.011a.39.39 0 0 1 .002-.043v-.011a.39.39 0 0 0 0-.01v-.012l.001-.01v-.022l.001-.01a.39.39 0 0 0 .002-.044.39.39 0 0 1 0-.01v-.022l.001-.011V25.786l.001-.012v-.01l.001-.011v-.022l.001-.01v-.022l.001-.011a.39.39 0 0 1 0-.011v-.01l.001-.012v-.01l.001-.011v-.011a.39.39 0 0 1 0-.01l.001-.012V25.58l.001-.011v-.022l.001-.01v-.011l.001-.011a.39.39 0 0 0 0-.01v-.012l.001-.01a.39.39 0 0 0 0-.011v-.011l.001-.01v-.012l.001-.01v-.022l.001-.01v-.012a.39.39 0 0 0 0-.01l.001-.011v-.011a.39.39 0 0 0 0-.01l.001-.012v-.01a.39.39 0 0 0 .001-.011V25.289l.001-.012V25.256a.39.39 0 0 0 .002-.022v-.01a.39.39 0 0 0 0-.012v-.01l.001-.011a.39.39 0 0 0 0-.01v-.012l.001-.01v-.011a.39.39 0 0 1 0-.011l.001-.01a.39.39 0 0 0 0-.012l.001-.01v-.011a.39.39 0 0 0 0-.011l.001-.011v-.01a.39.39 0 0 0 0-.012l.001-.01v-.022a.39.39 0 0 1 .001-.01v-.012l.001-.01a.39.39 0 0 1 0-.011v-.011l.001-.01v-.022l.001-.011V24.9l.001-.012a.39.39 0 0 1 .001-.021v-.011a.39.39 0 0 1 0-.01l.001-.012V24.813l.001-.011v-.01l.001-.012V24.76l.001-.011v-.022l.001-.01a.39.39 0 0 0 0-.011v-.011l.001-.01v-.012l.001-.01v-.011a.39.39 0 0 0 0-.011l.001-.01v-.012a.39.39 0 0 0 0-.01l.001-.011v-.011a.39.39 0 0 0 0-.01l.001-.012v-.01l.001-.011V24.522a.39.39 0 0 0 .001-.012v-.01a20759698088.435 20759698088.435 0 0 1 .002-.033v-.032l.001-.011V24.403l.001-.012a.39.39 0 0 0 0-.01v-.011l.001-.011a.39.39 0 0 0 0-.01l.001-.012v-.01a.39.39 0 0 0 .001-.022v-.01a.39.39 0 0 0 0-.012l.001-.01v-.011a.39.39 0 0 0 .001-.022v-.01l.001-.011v-.022l.001-.01v-.022l.001-.011V24.133l.001-.012a.39.39 0 0 1 0-.01l.001-.011V24.079l.001-.012V24.046l.001-.011v-.01a.39.39 0 0 1 .001-.012V23.992a.39.39 0 0 1 .001-.011v-.022l.001-.01v-.022l.001-.01v-.012l.001-.01v-.011a.39.39 0 0 0 0-.011l.001-.01-7.995-.272v.01l-.001.012V23.634l-.001.011a3.895 3.895 0 0 1 0 .022l-.001.01v.011l-.001.011v.022l-.001.01v.022l-.001.01v.012a3.895 3.895 0 0 0-.002.043v.022l-.001.01V23.871l-.001.012v.01l-.001.011a3.895 3.895 0 0 1 0 .022l-.001.01v.022l-.001.011V23.99l-.001.012v.01l-.001.011v.011a3.895 3.895 0 0 0-.001.022V24.077l-.001.011v.022l-.001.01v.011l-.001.011v.022l-.001.01a3.895 3.895 0 0 0-.001.033V24.228l-.001.011v.011l-.001.01a2.962 2.962 0 0 0 0 .022l-.001.011V24.314l-.001.012v.01l-.001.011V24.368l-.001.012V24.4l-.001.011v.01a43847789363.385 43847789363.385 0 0 1-.002.044v.022l-.001.01v.022l-.001.01a3.895 3.895 0 0 1 0 .022l-.001.011v.011l-.001.01v.022l-.001.011v.022l-.001.01v.012a3.895 3.895 0 0 0-.002.032v.032l-.001.011V24.757l-.001.012v.01l-.001.011V24.811l-.001.012V24.844l-.001.011v.022l-.001.01v.011a3.895 3.895 0 0 1-.001.022v.01l-.001.011v.022l-.001.01v.022l-.001.011v.011l-.001.01v.022l-.001.011V25.081l-.001.012v.01l-.001.011V25.135l-.001.012V25.168l-.001.011v.022l-.001.01v.011l-.001.011v.022l-.001.01v.022l-.001.011v.022l-.001.01v.011l-.001.011v.022l-.001.01a3.895 3.895 0 0 1 0 .022l-.001.01a43847789363.385 43847789363.385 0 0 1-.002.055V25.492l-.001.011v.011a3.895 3.895 0 0 0-.002.043V25.578l-.001.012V25.61l-.001.011v.022a3.895 3.895 0 0 1-.002.021v.033l-.001.01v.022l-.001.01v.022l-.001.011a3.895 3.895 0 0 0-.001.022v.022l-.001.01V25.848l-.001.012v.01l-.001.011V25.902l-.001.012a3.895 3.895 0 0 0-.001.032V25.967l-.001.012v.01L7.78 26a3.895 3.895 0 0 0 0 .022l-.001.01v.022l-.001.011v.022l-.001.01v.011l-.001.011v.022l-.001.01v.022l-.001.01v.012l-.001.01v.022l-.001.01v.022l-.001.011V26.291l-.001.012v.01a3.895 3.895 0 0 0-.001.022v.01l-.001.012V26.378l-.001.011v.01a3.895 3.895 0 0 0-.002.033v.033l-.001.01v.022l-.001.01v.022l-.001.011v.011l-.001.01v.022l-.001.011V26.615a12.01 12.01 0 0 1-.002.044v.011l-.001.01v.022l-.001.011V26.734l-.001.012v.01l-.001.011V26.788l-.001.012V26.82l-.001.011v.022l-.001.01v.011l-.001.011a3.895 3.895 0 0 0 0 .022l-.001.01v.011a328848740801.359 328848740801.359 0 0 0-.002.033v.032l-.001.01v.022l-.001.011V27.058l-.001.012v.01l-.001.011V27.112l-.001.012V27.145l-.001.011v.022l-.001.01v.011a3.895 3.895 0 0 0-.001.022v.01l-.001.011v.022a3.895 3.895 0 0 1-.002.022v.032l-.001.011v.022l-.001.01v.022a3.895 3.895 0 0 1-.002.022v.032l-.001.01v.022l-.001.011V27.501l-.001.012a3.895 3.895 0 0 0-.001.021V27.555l-.001.012V27.588l-.001.011v.022l-.001.01v.011l-.001.011v.022l-.001.01v.022l-.001.01v.012l-.001.01v.011a3.895 3.895 0 0 1-.001.022v.022l-.001.01V27.825l-.001.012v.01l-.001.011V27.88a3.895 3.895 0 0 0-.001.022v.011l-.001.011v.022l-.001.01v.011l-.001.011V27.998l-.001.012V28.03l-.001.011v.022l-.001.01v.011l-.001.011v.022l-.001.01v.022l-.001.01v.012l-.001.01v.011a3.895 3.895 0 0 0-.001.022V28.236l-.001.011V28.268l-.001.012a3.895 3.895 0 0 0-.002.043v.032l-.001.011a3.895 3.895 0 0 0-.001.032v.011l-.001.011v.022l-.001.01v.022l-.001.01v.022l-.001.011v.011l-.001.01v.022l-.001.011V28.592l-.001.012v.01l-.001.011v.022l-.001.01v.022l-.001.011V28.711l-.001.012v.01l-.001.011V28.765a3.895 3.895 0 0 0-.002.033v.033l-.001.01v.011l-.001.011v.022l-.001.01v.022l-.001.01v.012l-.001.01v.022l-.001.01v.022l-.001.011V29.035a3.895 3.895 0 0 1-.002.023v.031l-.001.012V29.122l7.995.271zm-3.6-9.66c-.914-.049-1.828-.09-2.742-.121l-.28 7.995c.867.03 1.734.068 2.601.114l.42-7.989zM9.4 19.614a53.048 53.048 0 0 0-2.838-.076v8c.803 0 1.607.022 2.41.065l.428-7.989zm-2.838-.076h-.188v8h.188v-8zm-4.188 4v4.828h8V23.54h-8zm0 4.828V31.602h8V28.367h-8zm0 3.235c0 1.101.016 2.21.049 3.326l7.996-.231c-.03-1.04-.045-2.072-.045-3.095h-8zm4.047-.79H1.055v8h5.367v-8zm-1.37 4.14c.08-2.286.127-4.542.143-6.767l-8-.057a237.56 237.56 0 0 1-.138 6.546l7.995.277zm.143-6.739c.031-2.222.047-4.452.047-6.69h-8c0 2.2-.015 4.392-.046 6.576l7.999.114zm.047-6.69c0-6.774-.142-13.556-.425-20.346l-7.993.334c.279 6.679.418 13.35.418 20.012h8zM.82 5.343h6.235v-8H.82v8zm34.275 24.993-3.822-1.18-.005.018-.006.018 3.833 1.144zm-1.148 2.625-3.362-2.167-.007.01-.006.01 3.375 2.147zm-1.477 1.664-2.443-3.167-.022.017-.022.018 2.487 3.132zm-5.554.938-.922 3.892.011.003.011.002.9-3.898zm-3.094-2.297-3.34 2.2.018.028.019.028 3.303-2.256zm-1.781-6.047-3.975.446.002.022.003.022 3.97-.49zm.375-11.813-3.895-.914-.003.016-.004.016 3.902.882zm1.64-4.242 3.352 2.184.007-.012.008-.011-3.367-2.16zm2.297-2.156 1.655 3.641.028-.012.027-.013-1.71-3.616zm4.383-.422-.845 3.91.06.013.06.01.725-3.933zm1.664.68-2.219 3.328.023.015.023.015L32.4 9.266zm2.648 3.82-3.794 1.265.003.009.003.01 3.788-1.284zM30.9 18.078l-3.975.449.001.007 3.974-.456zm-1.125-3.445-2.543 3.088.056.045.057.044 2.43-3.177zm-1.805.14 2.981 2.668.034-.038.033-.039-3.048-2.59zm-.68 1.454-3.852-1.076-.012.042-.01.042 3.875.992zm-.398 2.601 3.984.357v-.005l-3.984-.352zm.024 7.664-3.977.428.003.034.005.034 3.969-.496zm.492 2.414-3.795 1.265.02.06.021.058 3.754-1.383zm.75 1.266-2.658 2.99.04.035.041.034 2.577-3.06zm3.945-8.602c0 1.794-.081 3.301-.23 4.541l7.944.95c.196-1.636.286-3.472.286-5.49h-8zm-.23 4.541c-.15 1.266-.36 2.269-.6 3.045l7.644 2.36c.417-1.35.708-2.846.9-4.455l-7.943-.95zm-.61 3.08c-.236.79-.481 1.297-.678 1.603l6.724 4.334c.709-1.1 1.23-2.343 1.62-3.648l-7.667-2.288zm-.69 1.622c-.233.365-.426.552-.546.645l4.886 6.334c.974-.75 1.766-1.674 2.409-2.684l-6.75-4.295zm-.59.68a.837.837 0 0 1-.308.166l2.122 7.713a8.824 8.824 0 0 0 3.16-1.615l-4.974-6.264zm-.308.166a3.214 3.214 0 0 1-.86.114v8c1.01 0 2.007-.133 2.982-.4l-2.122-7.714zm-.86.114c-.37 0-.7-.039-1-.108l-1.799 7.795a12.42 12.42 0 0 0 2.798.313v-8zm-.978-.103a.629.629 0 0 1-.233-.116l-4.705 6.47a8.617 8.617 0 0 0 3.095 1.43l1.843-7.784zm-.233-.116c-.074-.054-.246-.203-.479-.544l-6.606 4.512c.641.94 1.423 1.806 2.38 2.502l4.705-6.47zm-.441-.488c-.145-.22-.362-.65-.585-1.4l-7.669 2.277c.372 1.25.873 2.46 1.572 3.523l6.682-4.4zm-.585-1.4c-.216-.73-.414-1.697-.568-2.938l-7.94.981c.191 1.541.462 2.965.84 4.234l7.668-2.277zm-.562-2.894c-.135-1.202-.21-2.68-.21-4.452h-8c0 1.978.082 3.766.26 5.345l7.95-.893zm-.21-4.452c0-2.653.195-4.633.511-6.032l-7.803-1.764c-.496 2.196-.708 4.825-.708 7.796h8zm.504-6c.363-1.548.772-2.473 1.098-2.972L20.705 8.98c-1.018 1.562-1.703 3.466-2.183 5.511l7.788 1.828zm1.113-2.995c.385-.601.618-.69.585-.676l-3.31-7.283c-1.751.796-3.05 2.145-4.008 3.638l6.733 4.32zm.64-.7a2.14 2.14 0 0 1 .939-.227v-8c-1.527 0-2.991.347-4.358.994l3.419 7.232zm.939-.227c.287 0 .582.031.889.098l1.69-7.82c-.85-.183-1.71-.278-2.58-.278v8zm1.01.122a.42.42 0 0 1 .17.074l4.437-6.657a8.415 8.415 0 0 0-3.158-1.285l-1.45 7.868zm.215.104c.06.038.216.157.44.458l6.42-4.774c-.683-.917-1.51-1.751-2.514-2.4l-4.346 6.716zm.44.458c.126.17.347.55.587 1.269l7.59-2.53c-.418-1.25-.977-2.463-1.758-3.512l-6.42 4.773zm.593 1.287c.222.655.433 1.568.598 2.79l7.928-1.069c-.21-1.558-.514-3.004-.949-4.287l-7.577 2.566zm.598 2.79c.157 1.164.245 2.625.245 4.411h8c0-2.026-.099-3.862-.317-5.48l-7.928 1.07zm3.206 4.599c0-1.578-.056-2.972-.19-4.136l-7.948.912c.085.742.138 1.802.138 3.224h8zm-.19-4.129c-.123-1.093-.31-2.17-.625-3.113l-7.589 2.53c.061.183.17.637.265 1.48l7.95-.897zm-.625-3.113c-.269-.807-.817-2.122-2.044-3.06l-4.86 6.354a2.524 2.524 0 0 1-.643-.7c-.07-.119-.074-.159-.042-.064l7.59-2.53zm-1.931-2.97a5.333 5.333 0 0 0-3.41-1.241v8c-.322 0-.652-.059-.965-.177a2.527 2.527 0 0 1-.71-.407l5.085-6.176zm-3.41-1.241c-1.706 0-3.08.812-3.985 1.878l6.095 5.181a2.624 2.624 0 0 1-.825.636 2.89 2.89 0 0 1-1.285.305v-8zm-3.919 1.801c-.874.978-1.305 2.164-1.551 3.045l7.705 2.15c.025-.087.046-.151.061-.195.016-.043.024-.059.02-.052a1.051 1.051 0 0 1-.061.11c-.04.062-.108.16-.212.277l-5.962-5.335zm-1.574 3.13c-.246.961-.403 2.064-.507 3.24l7.969.704c.083-.949.191-1.58.289-1.962l-7.75-1.983zm-.507 3.235c-.108 1.205-.156 2.613-.156 4.2h8c0-1.443.045-2.597.124-3.486l-7.968-.714zm-.156 4.2c0 1.612.056 3.04.187 4.25l7.954-.857c-.089-.822-.141-1.941-.141-3.392h-8zm.195 4.317c.141 1.132.347 2.225.666 3.183l7.59-2.53c-.087-.26-.21-.777-.318-1.645l-7.939.992zm.707 3.301c.31.842.845 1.983 1.846 2.872l5.315-5.979c.246.218.36.404.386.447.028.048.008.025-.04-.106l-7.507 2.766zm1.927 2.942c.88.741 2.077 1.316 3.514 1.316v-8c.781 0 1.353.324 1.64.565l-5.154 6.12zm3.514 1.316c1.989 0 3.385-1.126 4.163-2.232.694-.987 1.04-2.116 1.244-3.042l-7.813-1.718c-.11.496-.169.433.025.158.117-.167.369-.469.807-.731a3.081 3.081 0 0 1 1.574-.435v8zm5.407-5.274c.41-1.868.562-4.45.562-7.515h-8c0 2.965-.16 4.821-.375 5.797l7.813 1.718zM52.706 14.21l3.9-.886-.707-3.114h-3.193v4zm.89 4.336-3.932.73.003.013.002.014 3.928-.757zm.798 4.36-3.94.688v.006l3.94-.695zm.773 4.804-3.958.576 7.93-.105-3.972-.471zm.563-5.79-3.982-.378-.003.029-.002.028 3.987.322zm.234-2.882-3.986-.332-.003.033-.002.033 3.991.266zm.211-2.672 3.99.296v-.01l-3.99-.286zm.375-5.789.134-3.998-3.902-.13-.225 3.897 3.993.231zm5.578.188 3.927.761.892-4.602-4.684-.157-.135 3.998zm-2.46 12.96-3.927-.767-.003.018-.003.018 3.932.732zm-.75 4.032 3.93.74.002-.009-3.933-.731zm-1.36 7.289.035 4 3.308-.03.592-3.255-3.935-.715zm-5.367.047-3.97.49.436 3.54 3.569-.03-.035-4zm-.446-3.375-3.968.503.004.027.003.028 3.961-.558zm-.422-3.211-3.97.481.003.03.004.03 3.963-.541zm-.726-5.461 3.96-.566-7.935.115 3.975.45zm-.703 5.414-3.96-.562-.002.013-.002.012 3.964.537zm-1.055 6.586.035 4 3.307-.029.593-3.253-3.935-.718zm-5.39.047-3.971.481.43 3.55 3.575-.031-.035-4zm-.47-3.399-3.962.545.004.028.004.028 3.955-.6zm-1.218-7.875-3.95.636.005.026.004.026 3.94-.688zm-.633-3.914 3.948-.641-.002-.015-.003-.015-3.943.671zm-1.57-9-.033-4-4.738.04.833 4.663 3.938-.703zm5.625-.047 3.988-.306-.286-3.725-3.735.032.033 4zm.469 5.602 3.988-.307-.002-.026-.003-.026-3.983.359zm.21 2.602-3.985.337v.006l3.985-.343zm.235 2.789-3.987.326.003.033.003.032 3.98-.391zm.234 2.882-3.992.258.003.032.002.032 3.987-.322zm.235 2.836-3.986.338 7.937.282-3.951-.62zm.375-2.39-3.942-.683-.005.032-.005.03 3.952.62zm.375-2.367-3.95-.633-.005.034-.005.033 3.96.566zm.328-2.25-3.957-.59-.005.036-.005.036 3.967.517zm.304-2.063 3.958.58.003-.022.003-.021-3.964-.537zm.586-4.29v-4h-3.486l-.476 3.454 3.962.547zm.272.887c.3 1.319.586 2.712.858 4.18l7.866-1.46a114.91 114.91 0 0 0-.923-4.492l-7.801 1.772zm.863 4.207c.245 1.27.506 2.7.785 4.29l7.88-1.376a260.726 260.726 0 0 0-.81-4.428l-7.855 1.514zm.786 4.297c.274 1.555.525 3.117.754 4.686l7.916-1.152c-.24-1.65-.504-3.29-.792-4.924l-7.878 1.39zm8.684 4.581c.114-.954.218-1.938.315-2.951l-7.964-.759c-.091.956-.19 1.878-.295 2.768l7.944.942zm.315-2.951c.095-1.004.183-2 .263-2.988l-7.974-.643c-.077.95-.161 1.907-.253 2.872l7.964.759zm.258-2.93c.097-1.02.178-2.019.243-2.996l-7.982-.532c-.06.898-.135 1.821-.225 2.77l7.964.758zm.238-2.93c.08-.948.15-1.851.214-2.708l-7.978-.591c-.062.83-.13 1.708-.208 2.635l7.972.664zm.215-2.719c.142-1.986.268-3.934.378-5.843l-7.986-.462a425.217 425.217 0 0 1-.372 5.735l7.98.57zm-3.75-2.076 5.579.187.269-7.995-5.579-.188-.268 7.996zm1.786-4.572c-.596 3.073-1.168 6.092-1.717 9.057l7.866 1.456c.545-2.941 1.113-5.938 1.705-8.99l-7.854-1.523zm-1.717 9.057c-.232 1.252-.48 2.551-.743 3.898l7.852 1.535c.268-1.372.52-2.697.757-3.977l-7.866-1.456zm-.75 3.934v.008l-.002.008-.002.008-.001.007-.002.008-.001.008-.002.008-.001.008a.218.218 0 0 1-.004.023l-.002.008-.001.008-.002.008-.001.008-.002.008-.001.008-.002.008-.001.008-.002.007-.001.008-.002.008-.001.008-.002.008-.001.008-.001.008-.002.008a.218.218 0 0 0-.003.015l-.001.008-.002.008-.001.008-.002.008-.001.008-.002.007-.001.008-.002.008-.001.008-.002.008v.008l-.002.008-.002.008a.218.218 0 0 1-.003.015l-.001.008-.002.008-.001.008-.002.008-.001.008a1.155 1.155 0 0 1-.003.015l-.002.008-.001.008-.001.008-.002.008-.001.008-.002.008-.001.008-.002.007a.213.213 0 0 1-.003.016l-.001.008-.002.008-.001.008-.002.008-.001.008-.002.008v.007l-.002.008-.002.008-.001.008-.002.008-.001.008-.002.008-.001.007a1.155 1.155 0 0 1-.003.016l-.002.008-.001.008-.002.008-.001.008-.002.008v.007l-.002.008a.218.218 0 0 0-.003.016l-.002.008-.001.008-.002.008-.001.007-.002.008-.001.008-.002.008-.001.008-.002.008-.001.008-.001.008-.002.008-.001.007a.218.218 0 0 1-.005.024l-.001.008-.002.008-.001.008-.002.008-.001.007-.002.008-.001.008-.002.008v.008l-.002.008-.002.008-.001.007-.002.008-.001.008-.002.008-.001.008a.218.218 0 0 0-.002.008l-.001.008-.002.008-.001.008-.002.007-.001.008-.001.008-.002.008-.001.008-.002.008-.001.008-.002.008-.001.007-.002.008a1.155 1.155 0 0 1-.003.016l-.001.008-.002.008-.001.008-.002.007a.185.185 0 0 0-.002.016l-.002.008-.001.008a2749557488.75 2749557488.75 0 0 1-.003.016l-.002.008a1.155 1.155 0 0 0-.003.015l-.001.008-.002.008-.001.008a.213.213 0 0 1-.003.016l-.002.008v.008l-.002.007-.002.008-.001.008-.002.008-.001.008-.002.008-.001.008-.002.007-.001.008-.002.008-.001.008-.002.008-.001.008-.001.008-.002.008-.001.007-.002.008-.001.008-.002.008-.001.008-.002.008-.001.008-.002.008a1.155 1.155 0 0 1-.003.015l-.001.008-.002.008v.008l-.002.008-.002.008-.001.008-.002.007-.001.008-.002.008-.001.008a1.155 1.155 0 0 1-.003.016l-.002.008-.001.008-.002.007-.001.008-.001.008-.002.008-.001.008-.002.008-.001.008-.002.008-.001.007-.002.008-.001.008-.002.008-.001.008-.002.008a.213.213 0 0 1-.004.023l-.001.008-.002.008a.218.218 0 0 0-.003.016l-.001.008-.002.008-.001.007-.002.008-.001.008-.002.008-.001.008-.002.008-.001.008-.002.008v.008l-.002.007-.002.008a.218.218 0 0 1-.004.024l-.002.008-.001.008-.002.008-.001.007-.002.008-.001.008-.002.008-.001.008-.001.008-.002.008-.001.007-.002.008-.001.008-.002.008-.001.008a1.155 1.155 0 0 1-.003.016l-.002.008-.001.007-.002.008-.001.008-.002.008v.008l-.002.008-.002.008-.001.008-.002.007-.001.008-.002.008-.001.008a1.155 1.155 0 0 1-.003.016l-.002.008-.001.008-.002.007-.001.008a.185.185 0 0 0-.003.016l-.001.008a.218.218 0 0 0-.002.008l-.001.008-.002.008-.001.007-.002.008-.001.008-.002.008-.001.008-.002.008a.213.213 0 0 1-.002.015l-.002.008-.001.008-.002.008-.001.008-.002.008a1.155 1.155 0 0 0-.003.016l-.001.008-.002.007-.001.008-.002.008-.001.008-.002.008-.001.008-.002.008v.008l-.002.007-.002.008-.001.008-.002.008-.001.008-.002.008-.001.008a.218.218 0 0 0-.003.015l-.002.008-.001.008-.002.008-.001.008-.001.008a1.155 1.155 0 0 1-.003.015l-.002.008-.001.008-.002.008-.001.008-.002.008a1.155 1.155 0 0 1-.003.016l-.001.008a.213.213 0 0 0-.002.007l-.001.008-.002.008v.008l-.002.008-.002.008-.001.008-.002.008-.001.007-.002.008-.001.008-.002.008-.001.008-.002.008-.001.008a.213.213 0 0 1-.003.015l-.002.008v.008l-.002.008-.002.008-.001.008a1.155 1.155 0 0 0-.003.015l-.002.008-.001.008-.002.008-.001.008-.002.008-.001.008-.002.008-.001.007-.001.008-.002.008-.001.008-.002.008-.001.008a.185.185 0 0 0-.002.008l-.001.008-.002.007a.218.218 0 0 0-.003.016l-.001.008-.002.008-.001.008-.002.008v.008l-.002.007-.002.008-.001.008-.002.008-.001.008-.002.008-.001.008-.002.008-.001.007-.002.008-.001.008-.002.008-.001.008-.001.008-.002.008-.001.008-.002.007-.001.008-.002.008-.001.008-.002.008-.001.008-.002.008-.001.008-.002.007a.213.213 0 0 1-.004.024l-.001.008-.002.008a.218.218 0 0 0-.001.008l-.002.008-.001.007-.002.008-.001.008-.002.008-.001.008-.002.008-.001.008-.002.008-.001.007a1.155 1.155 0 0 1-.003.016l-.001.008-.002.008a1.155 1.155 0 0 1-.004.023l-.002.008-.001.008-.002.008-.001.008-.002.008-.001.008-.002.008-.001.007-.001.008-.002.008-.001.008-.002.008-.001.008-.002.008-.001.008-.002.007a.218.218 0 0 0-.003.016l-.001.008-.002.008-.001.008-.002.008v.008l-.002.007-.002.008-.001.008-.002.008-.001.008a.218.218 0 0 1-.003.016l-.002.008-.001.007-.002.008a.213.213 0 0 0-.001.008l-.002.008-.001.008-.001.008-.002.008-.001.008-.002.007-.001.008-.002.008-.001.008-.002.008-.001.008-.002.008-.001.008-.002.007-.001.008-.002.008-.001.008-.001.008-.002.008-.001.008-.002.008a1.155 1.155 0 0 0-.003.015l-.001.008-.002.008-.001.008a2749557488.75 2749557488.75 0 0 1-.003.016l-.002.008a1.155 1.155 0 0 0-.002.015l-.002.008-.001.008-.002.008-.001.008-.002.008a.185.185 0 0 0-.001.008l-.002.007-.001.008a.218.218 0 0 0-.003.016l-.002.008-.001.008-.002.008-.001.008-.001.007-.002.008-.001.008-.002.008-.001.008-.002.008-.001.008-.002.007-.001.008-.002.008-.001.008-.002.008-.001.008-.002.008v.008l-.002.007-.002.008-.001.008 7.865 1.463.001-.007.002-.008.001-.008.002-.008.001-.008.002-.008a1.155 1.155 0 0 0 .004-.023l.001-.008.002-.008.001-.008.002-.008.001-.008.002-.008.001-.008.002-.007.001-.008.002-.008.001-.008.002-.008v-.008l.002-.008.002-.008.001-.007.002-.008.001-.008.002-.008.001-.008.002-.008a.213.213 0 0 1 .004-.023l.002-.008.001-.008.001-.008.002-.008.001-.008.002-.008.001-.008.002-.007.001-.008.002-.008.001-.008.002-.008.001-.008.002-.008.001-.008.002-.007v-.008l.002-.008.002-.008.001-.008.002-.008.001-.008.002-.008.001-.007.002-.008.001-.008.002-.008.001-.008.002-.008.001-.008.002-.008v-.007l.002-.008.002-.008.001-.008.002-.008.001-.008.002-.008.001-.008.002-.007.001-.008.002-.008.001-.008.002-.008.001-.008.001-.008.002-.007a1.155 1.155 0 0 1 .004-.024l.002-.008.001-.008.002-.008.001-.008.002-.007a1.155 1.155 0 0 1 .002-.016l.002-.008.002-.008v-.008l.002-.008.002-.008.001-.007.002-.008.001-.008a.213.213 0 0 1 .003-.016l.002-.008.001-.008.002-.008.001-.007.002-.008.001-.008.001-.008.002-.008a1.155 1.155 0 0 0 .004-.023l.002-.008.001-.008.002-.008.001-.008.002-.008.001-.008.002-.008.001-.008.002-.007.001-.008.001-.008.002-.008.001-.008.002-.008.001-.008.002-.008.001-.007.002-.008.001-.008.002-.008.001-.008.002-.008.001-.008.002-.008v-.007l.002-.008.002-.008a.218.218 0 0 1 .004-.024l.002-.008.001-.008a.213.213 0 0 0 .003-.015l.002-.008.001-.008.002-.008.001-.008.001-.008.002-.008.001-.007.002-.008.001-.008.002-.008.001-.008.002-.008.001-.008a.213.213 0 0 1 .005-.023l.001-.008.002-.008v-.008l.002-.008.002-.008.001-.007.002-.008.001-.008.002-.008.001-.008a1.155 1.155 0 0 1 .003-.016l.002-.008.001-.007.002-.008.001-.008.001-.008.002-.008.001-.008.002-.008.001-.008.002-.007.001-.008.002-.008.001-.008.002-.008.001-.008.002-.008.001-.008.002-.007.001-.008.001-.008.002-.008.001-.008.002-.008.001-.008.002-.008.001-.007.002-.008.001-.008.002-.008.001-.008.002-.008.001-.008.002-.008v-.007l.002-.008.002-.008a.218.218 0 0 1 .003-.016l.001-.008.002-.008.001-.008.002-.007.001-.008a1.155 1.155 0 0 1 .003-.016l.002-.008.001-.008.001-.008.002-.008.001-.007.002-.008.001-.008.002-.008.001-.008.002-.008.001-.008.002-.008.001-.007.002-.008.001-.008.002-.008v-.008l.002-.008.002-.008a.185.185 0 0 0 .003-.015l.001-.008.002-.008.001-.008.002-.008.001-.008.002-.008.001-.007.002-.008.001-.008.002-.008v-.008l.002-.008.002-.008.001-.008.002-.007.001-.008.002-.008.001-.008.002-.008.001-.008.002-.008.001-.008.002-.007.001-.008.001-.008.002-.008.001-.008a.218.218 0 0 1 .005-.023l.001-.008.002-.008.001-.008.002-.008a1.155 1.155 0 0 1 .002-.016l.002-.008.002-.008v-.007l.002-.008.002-.008.001-.008.002-.008.001-.008.002-.008.001-.008.002-.007.001-.008.002-.008.001-.008.002-.008.001-.008.001-.008.002-.008.001-.007.002-.008.001-.008.002-.008.001-.008.002-.008a1.155 1.155 0 0 1 .006-.031l.001-.008.002-.008v-.008l.002-.008.002-.008.001-.008.002-.007.001-.008.002-.008.001-.008.002-.008.001-.008.002-.008.001-.008.002-.007.001-.008.002-.008v-.008l.002-.008.002-.008a.218.218 0 0 1 .004-.023l.002-.008.001-.008.002-.008.001-.008.002-.008.001-.008.002-.007.001-.008.001-.008.002-.008.001-.008.002-.008.001-.008.002-.008.001-.007a1.155 1.155 0 0 1 .005-.024l.001-.008.002-.008.001-.008.002-.008v-.007l.002-.008.002-.008.001-.008.002-.008.001-.008.002-.008.001-.008.002-.007.001-.008.002-.008.001-.008.002-.008.001-.008.001-.008.002-.008.001-.007a.185.185 0 0 0 .003-.016l.002-.008.001-.008.002-.008.001-.008.002-.008.001-.007.002-.008a.213.213 0 0 1 .002-.016l.002-.008.001-.008.002-.008.001-.008.002-.007.001-.008.002-.008.001-.008.002-.008.001-.008.002-.008.001-.008.002-.007.001-.008a1.155 1.155 0 0 1 .003-.016l.001-.008.002-.008.001-.008.002-.008.001-.007.002-.008.001-.008.002-.008.001-.008a1.155 1.155 0 0 1 .003-.016l.002-.008.001-.007.001-.008.002-.008.001-.008.002-.008.001-.008.002-.008.001-.008.002-.007.001-.008.002-.008.001-.008.002-.008.001-.008.002-.008v-.007l.002-.008.002-.008.001-.008.002-.008.001-.008.002-.008.001-.008.002-.007.001-.008.002-.008.001-.008.002-.008.001-.008.001-.008.002-.008.001-.007.002-.008.001-.008.002-.008.001-.008.002-.008.001-.008.002-.008.001-.007.002-.008.001-.008.002-.008.001-.008.001-.008.002-.008.001-.008a.218.218 0 0 1 .005-.023l.001-.008.002-.008.001-.008.002-.008.001-.008.002-.007.001-.008.002-.008v-.008l.002-.008.002-.008.001-.008.002-.008a1.155 1.155 0 0 0 .007-.039l.002-.008.001-.008.002-.008.001-.007.001-.008.002-.008.001-.008.002-.008.001-.008.002-.008.001-.008.002-.007.001-.008.002-.008.001-.008.002-.008.001-.008.002-.008v-.008l.002-.007a1.155 1.155 0 0 1 .003-.016l.002-.008.001-.008.002-.008.001-.008.002-.007.001-.008.002-.008a1.155 1.155 0 0 0 .004-.024l.002-.008v-.008l.002-.007.002-.008.001-.008.002-.008.001-.008.002-.008-7.865-1.463zm-.748 4.023-.727 3.87 7.863 1.474.726-3.864-7.862-1.48zm-.727 3.87a654.525 654.525 0 0 0-.637 3.443l7.871 1.431c.186-1.022.396-2.156.63-3.4l-7.864-1.474zm3.264.159-5.367.047.07 8 5.367-.047-.07-8zm-1.362 3.557c-.144-1.163-.295-2.31-.455-3.443l-7.922 1.116c.153 1.086.299 2.188.437 3.306l7.94-.979zm-.447-3.388c-.142-1.121-.285-2.204-.427-3.249l-7.927 1.081c.139 1.018.278 2.076.417 3.174l7.937-1.006zm-.42-3.19a212.918 212.918 0 0 0-.382-2.985l-7.927 1.075c.122.9.245 1.858.367 2.873l7.942-.963zm-.382-2.985c-.126-.93-.244-1.783-.355-2.56l-7.92 1.132c.108.754.224 1.588.348 2.503l7.927-1.075zm-8.29-2.445a195.647 195.647 0 0 1-.689 5.303l7.921 1.123c.3-2.117.54-3.96.717-5.524l-7.949-.902zm-.692 5.328a141.51 141.51 0 0 1-1.026 6.405l7.87 1.436c.432-2.366.793-4.622 1.084-6.768l-7.928-1.073zm2.874 3.123-5.39.047.07 8 5.39-.047-.07-8zm-1.385 3.565c-.13-1.078-.292-2.25-.485-3.517l-7.909 1.201c.183 1.202.333 2.295.453 3.28l7.941-.964zm-.477-3.462c-.174-1.27-.365-2.58-.57-3.927l-7.909 1.21c.2 1.31.385 2.578.554 3.807l7.925-1.09zm-.57-3.927c-.208-1.356-.431-2.72-.67-4.09l-7.882 1.375c.23 1.316.444 2.625.643 3.925l7.908-1.21zm-.662-4.038c-.219-1.361-.43-2.668-.634-3.92l-7.896 1.283c.203 1.248.413 2.55.632 3.908l7.898-1.271zm-.639-3.95c-.502-2.949-1.027-5.96-1.575-9.032L35.62 11.61c.545 3.053 1.067 6.042 1.565 8.968l7.886-1.342zm-5.48-4.329 5.625-.047-.066-8-5.625.047.066 8zm1.604-3.74c.142 1.846.3 3.731.473 5.654l7.967-.718c-.17-1.89-.325-3.74-.464-5.55l-7.976.614zm.468 5.602c.064.824.135 1.701.214 2.632l7.971-.675c-.077-.913-.147-1.77-.208-2.57l-7.977.613zm.214 2.638c.078.9.156 1.825.233 2.772l7.974-.653c-.08-.959-.158-1.894-.236-2.806l-7.97.687zm.24 2.837c.088.908.163 1.824.223 2.749l7.983-.515a90.174 90.174 0 0 0-.245-3.017l-7.962.783zm.227 2.813c.079.974.157 1.924.236 2.852l7.971-.675c-.077-.917-.155-1.857-.233-2.82l-7.974.643zm8.173 3.134.001-.005v-.004l.002-.005v-.004l.001-.005v-.005l.001-.005.001-.004v-.005l.002-.005v-.004l.001-.005v-.005l.002-.004v-.005l.001-.005v-.004l.002-.005v-.005l.001-.004v-.005l.001-.005.001-.004v-.005l.002-.005v-.004l.001-.005v-.005l.002-.004v-.005l.001-.005v-.004l.002-.005V28.027l.002-.005v-.005l.001-.004v-.005l.002-.005V28l.001-.005v-.005l.002-.004v-.005l.001-.005v-.004l.002-.005V27.957l.002-.005v-.005l.001-.004v-.005l.002-.005v-.004l.001-.005v-.005l.002-.004v-.005l.001-.005v-.004l.001-.005.001-.005v-.004l.002-.005v-.005l.001-.004v-.005l.002-.005v-.004l.001-.005v-.005l.002-.004v-.005l.001-.005v-.004l.001-.005.001-.005v-.004l.002-.005v-.005l.001-.004v-.005l.002-.005v-.004l.001-.005v-.005l.002-.004v-.005l.001-.005v-.004l.001-.005.001-.005v-.004l.002-.005v-.005l.001-.004v-.005l.002-.005v-.004l.001-.005v-.005l.002-.004v-.01l.002-.004v-.005l.001-.005v-.004l.002-.005v-.005l.001-.004v-.005l.002-.005v-.004l.001-.005v-.005l.002-.004v-.01l.002-.005v-.004l.001-.005v-.005l.002-.004v-.005l.001-.005v-.004l.002-.005v-.005l.001-.004v-.005l.001-.005.001-.004v-.005l.002-.005v-.004l.001-.005v-.005l.002-.004v-.005l.001-.005v-.004l.002-.005v-.005l.001-.004v-.005l.001-.005.001-.004v-.005l.002-.005v-.004l.001-.005v-.005l.002-.004v-.005l.001-.005v-.004l.002-.005v-.005l.001-.004v-.005l.001-.005.001-.004v-.005l.002-.005v-.004l.001-.005v-.005l.002-.004v-.005l.001-.005v-.004l.002-.005V27.364l.002-.005v-.005l.001-.004v-.005l.002-.005v-.004l.001-.005v-.005l.002-.004v-.005l.001-.005v-.004l.002-.005V27.294l.002-.005v-.005l.001-.004v-.005l.002-.005v-.004l.001-.005v-.005l.002-.004v-.005l.001-.005v-.004l.001-.005.001-.005v-.004l.002-.005v-.005l.001-.004v-.005l.002-.005v-.004l.001-.005v-.005l.002-.004v-.005l.001-.005v-.004l.001-.005.001-.005v-.004l.002-.005v-.005l.001-.004v-.005l.002-.005v-.004l.001-.005v-.005l.002-.004v-.005l.001-.005v-.004l.001-.005.001-.005v-.004l.002-.005v-.005l.001-.004v-.005l.002-.005v-.004l.001-.005v-.005l.002-.004v-.01l.002-.004v-.005l.001-.005v-.005l.002-.004v-.005l.001-.005v-.004l.002-.005v-.005l.001-.004v-.005l.002-.005V26.962l.002-.005v-.004l.001-.005v-.005l.002-.004v-.005l.001-.005v-.004l.002-.005v-.005l.001-.004v-.005l.001-.005.001-.004v-.005l.002-.005v-.004l.001-.005v-.005l.002-.004v-.005l.001-.005v-.004l.002-.005v-.005l.001-.004v-.005l.001-.005.001-.004v-.005l.002-.005v-.004l.001-.005v-.005l.002-.004v-.005l.001-.005v-.004l.002-.005v-.005l.001-.004v-.005l.001-.005.001-.004v-.005l.002-.005v-.004l.001-.005v-.005l.002-.004v-.005l.001-.005v-.004l.002-.005V26.701l.002-.005v-.005l.001-.004v-.005l.002-.005v-.004l.001-.005v-.005l.002-.004v-.005l.001-.005v-.004l.002-.005V26.631l.002-.005v-.005l.001-.004v-.005l.002-.005v-.004l.001-.005v-.005l.002-.004v-.005l.001-.005v-.004l.002-.005V26.561l.002-.005v-.005l.001-.004v-.005l.002-.005v-.004l.001-.005v-.005l.002-.004v-.005l.001-.005v-.004l.001-.005.001-.005v-.004l.002-.005v-.005l.001-.004v-.005l.002-.005v-.004l.001-.005v-.005l.002-.004v-.005l.001-.005v-.004l.001-.005.001-.005v-.004l.002-.005v-.005l.001-.004v-.005l.002-.005v-.005l.001-.004v-.005l.002-.005V26.37l.002-.005v-.004l.001-.005v-.005l.002-.004v-.005l.001-.005v-.004l.002-.005v-.005l.001-.004v-.005l.002-.005V26.3l.002-.005v-.004l.001-.005v-.005l.002-.004v-.005l.001-.005v-.004l.002-.005v-.005l.001-.004v-.005l.002-.005V26.23l.002-.005v-.004l.001-.005v-.005l.002-.004V26.2l.001-.005v-.004l.002-.005v-.005l.001-.004v-.005l.001-.005.001-.004v-.005l.002-.005v-.004l.001-.005v-.005l.002-.004v-.005l.001-.005v-.004l.002-.005v-.005l.001-.004v-.005l.001-.005.001-.004v-.005l.002-.005v-.004l.001-.005v-.005l.002-.004v-.005l.001-.005v-.004l.002-.005V26.038l.002-.005v-.005l.001-.004v-.005l.002-.005v-.004l.001-.005V26l.002-.004v-.005l.001-.005v-.004l.002-.005V25.968l.002-.005v-.005l.001-.004v-.005l.002-.005v-.004l.001-.005v-.005l.002-.004v-.005l.001-.005v-.004l.002-.005V25.898l.002-.005v-.005l.001-.004v-.005l.002-.005v-.004l.001-.005v-.005l.002-.004v-.005l.001-.005v-.004l.001-.005.001-.005v-.004l.002-.005v-.005l.001-.004v-.005l.002-.005V25.8l-7.903-1.24v.005l-.002.004v.005l-.001.004v.005l-.001.005-.001.005v.004l-.002.005v.005l-.001.004v.005l-.002.005v.004l-.001.005v.005l-.002.004v.005l-.001.005v.004l-.001.005-.001.005v.004l-.002.005v.005l-.001.004v.005l-.002.005v.004l-.001.005v.005l-.002.004v.005l-.001.005v.004l-.001.005-.001.005v.004l-.002.005v.005l-.001.004v.005l-.002.005v.004l-.001.005v.005l-.002.004v.01l-.002.004v.005l-.001.005v.004l-.002.005v.005l-.001.004v.005l-.002.005v.004l-.001.005v.005l-.002.004v.01l-.002.004v.005l-.001.005v.004l-.002.005v.005l-.001.004v.005l-.002.005v.004l-.001.005v.005l-.002.004v.01l-.002.004v.005l-.001.005v.004l-.002.005v.005l-.001.004v.005l-.002.005v.004l-.001.005v.005l-.001.004-.001.005V25l-.002.004v.005l-.001.005v.004l-.002.005v.005l-.001.004v.005l-.002.005v.004l-.001.005v.005l-.001.004-.001.005v.005l-.002.004v.005l-.001.005v.004l-.001.005-.001.005-.001.004v.005l-.002.005V25.12l-.002.005v.005l-.001.004v.005l-.002.005v.004l-.001.005v.005l-.002.004v.005l-.001.005v.004l-.002.005V25.19l-.002.005v.005l-.001.004v.005l-.002.005v.004l-.001.005v.005l-.002.004v.005l-.001.005v.004l-.002.005V25.26l-.002.005v.005l-.001.004v.005l-.002.005v.004l-.001.005v.005l-.002.004v.005l-.001.005v.004l-.001.005-.001.005v.004l-.002.005v.005l-.001.004v.005l-.002.005v.004l-.001.005v.005l-.002.004v.005l-.001.005v.004l-.001.005-.001.005v.004l-.002.005v.005l-.001.004v.005l-.002.005v.004l-.001.005v.005l-.002.004v.01l-.002.004v.005l-.001.005v.004l-.002.005v.005l-.001.004v.005l-.002.005v.004l-.001.005v.005l-.002.004v.01l-.002.004v.005l-.001.005v.004l-.002.005v.005l-.001.004v.005l-.002.005v.004l-.001.005v.005l-.002.004v.01l-.002.004v.005l-.001.005v.004l-.002.005v.005l-.001.004v.005l-.002.005v.004l-.001.005v.005l-.001.004-.001.005v.005l-.002.004v.005l-.001.005v.004l-.002.005v.005l-.001.004v.005l-.002.005v.004l-.001.005v.005l-.001.004-.001.005v.005l-.002.005v.004l-.001.005v.005l-.002.004v.005l-.001.005v.004l-.002.005V25.783l-.002.005v.005l-.001.004v.005l-.002.005v.004l-.001.005v.005l-.002.004v.005l-.001.005v.004l-.002.005V25.853l-.002.005v.005l-.001.004v.005l-.002.005v.004l-.001.005v.005l-.002.004v.005l-.001.005v.004l-.002.005V25.923l-.002.005v.005l-.001.004v.005l-.002.005v.004l-.001.005v.005l-.002.004v.005l-.001.005v.004l-.001.005-.001.005v.004l-.002.005v.005l-.001.004v.005l-.002.005v.004l-.001.005v.005l-.002.004v.005l-.001.005v.004l-.001.005-.001.005v.004l-.002.005v.005l-.001.004v.005l-.002.005v.004l-.001.005v.005l-.002.004v.005l-.001.005v.004l-.001.005-.001.005v.004l-.002.005v.005l-.001.004v.005l-.002.005v.004l-.001.005v.005l-.002.004v.01l-.002.004v.005l-.001.005v.004l-.002.005v.005l-.001.004v.005l-.002.005v.004l-.001.005v.005l-.002.004v.01l-.002.004v.005l-.001.005v.004l-.002.005v.005l-.001.004v.005l-.002.005v.004l-.001.005v.005l-.001.004-.001.005v.005l-.002.004v.005l-.001.005v.004l-.002.005v.005l-.001.005v.004l-.002.005v.005l-.001.004v.005l-.001.005-.001.004v.005l-.002.005v.004l-.001.005v.005l-.002.004v.005l-.001.005v.004l-.002.005v.005l-.001.004v.005l-.001.005-.001.004v.005l-.002.005v.004l-.001.005v.005l-.002.004v.005l-.001.005v.004l-.002.005V26.516l-.002.005v.005l-.001.004v.005l-.002.005v.004l-.001.005v.005l-.002.004v.005l-.001.005v.004l-.002.005V26.586l-.002.005v.005l-.001.004v.005l-.002.005v.004l-.001.005v.005l-.002.004v.005l-.001.005v.004l-.001.005-.001.005v.004l-.002.005v.005l-.001.004v.005l-.002.005v.004l-.001.005v.005l-.002.004v.005l-.001.005v.004l-.001.005-.001.005v.004l-.002.005v.005l-.001.004v.005l-.002.005v.004l-.001.005v.005l-.002.004v.005l-.001.005v.004l-.001.005-.001.005v.004l-.002.005v.005l-.001.004v.005l-.002.005v.004l-.001.005v.005l-.002.004v.01l-.002.004v.005l-.001.005v.004l-.002.005v.005l-.001.004v.005l-.002.005v.004l-.001.005v.005l-.002.004v.01l-.002.004v.005l-.001.005v.004l-.002.005v.005l-.001.004 7.903 1.24zm.365-2.328c.147-.849.278-1.677.393-2.484l-7.92-1.131a76.974 76.974 0 0 1-.356 2.25l7.883 1.365zm.383-2.417c.13-.817.246-1.605.345-2.365l-7.933-1.035a74.677 74.677 0 0 1-.311 2.135l7.9 1.265zm.335-2.293c.11-.738.212-1.428.306-2.073l-7.915-1.158a846.86 846.86 0 0 1-.304 2.052l7.913 1.179zm.312-2.115c.203-1.497.398-2.924.585-4.28l-7.925-1.093c-.188 1.363-.384 2.796-.587 4.3l7.927 1.073zm-3.378-.826h4.172v-8h-4.172v8zm35.48-14.852 3.98.394.438-4.428-4.45.034.032 4zm-.328 3.704 3.987.314v-.004l-3.987-.31zm-.258 3.562-3.991-.263-.296 4.494 4.497-.236-.21-3.995zm1.758-.07.108 3.998.051-.001.051-.003-.21-3.994zm1.805-.14 3.997.137.158-4.585-4.564.468.409 3.98zm-.164 4.757-.21 3.994 4.067.214.14-4.07-3.997-.138zm-3.633-.047v-4H79.41l-.21 3.778 3.994.222zm-.282 6.61-3.998-.116v.028l3.998.087zm-.046 9.89-4 .055v.028l.001.028 3.999-.111zm.093 3.422.073 4 4.035-.074-.11-4.034-3.998.108zm-5.156.094-3.998-.13-.137 4.206 4.208-.077-.073-4zm.281-9.961 4 .095-4-.095zm.118-9.961h4v-4.216l-4.21.221.21 3.995zm-1.805.094.102 3.998.052-.001.05-.003-.204-3.994zm-1.805.093-3.997-.146-.164 4.487 4.476-.353-.315-3.988zm.188-5.133.565-3.96-4.4-.628-.163 4.442 3.998.146zm3.375.305-.228 3.994 4.228.241v-4.235h-4zm-.047-3.586-4 .054v.026l.001.027 3.999-.107zm-.094-3.586-.031-4-4.124.033.158 4.121 3.997-.154zm2.02-.44c-.128 1.292-.24 2.554-.336 3.786l7.976.621c.091-1.174.198-2.38.32-3.62l-7.96-.787zm-.336 3.782c-.095 1.205-.182 2.41-.261 3.614l7.983.526c.076-1.17.161-2.34.254-3.51l-7.976-.63zm3.94 7.872c.561-.03 1.113-.052 1.656-.067l-.216-7.997c-.613.017-1.233.042-1.86.075l.42 7.989zm1.758-.07c.662-.036 1.33-.088 2.003-.157l-.817-7.958c-.545.056-1.08.098-1.606.125l.42 7.99zm-2.403-4.274-.164 4.758 7.995.276.164-4.758-7.995-.276zm4.044.901a38.809 38.809 0 0 0-2.039-.052v8c.559 0 1.098.014 1.618.041l.42-7.989zm-2.039-.052H83.194v8H84.998v-8zM79.2 14.903a253.136 253.136 0 0 0-.286 6.716l7.997.231c.061-2.12.153-4.287.277-6.503l-7.988-.444zm-.287 6.744a300.11 300.11 0 0 0-.07 6.58h8c0-2.16.022-4.294.069-6.405l-7.999-.175zm-.07 6.58c0 1.143.007 2.294.023 3.453l8-.11a245.37 245.37 0 0 1-.024-3.343h-8zm.024 3.51.094 3.418 7.997-.216-.094-3.425-7.997.222zm4.02-.69-5.157.094.146 7.999 5.156-.094-.145-7.998zM81.8 35.272c.11-3.371.204-6.703.282-9.996l-7.998-.19c-.077 3.269-.17 6.578-.28 9.925l7.996.26zm.282-9.997c.08-3.328.119-6.68.119-10.055h-8c0 3.312-.04 6.601-.117 9.866l7.998.19zm-4.092-14.05-1.799.094.41 7.99 1.81-.095-.42-7.989zm-1.697.09c-.678.017-1.35.052-2.017.105l.63 7.975a30.023 30.023 0 0 1 1.592-.083l-.205-7.997zm2.296 4.238.187-5.133-7.995-.292-.187 5.133 7.995.292zm-4.376-1.319c.631.09 1.275.162 1.93.215l.646-7.974c-.5-.04-.982-.094-1.445-.16l-1.131 7.92zm1.93.215c.608.05 1.202.09 1.782.124l.457-7.987a67.088 67.088 0 0 1-1.593-.111l-.646 7.974zm6.01-3.87c0-1.253-.015-2.484-.048-3.692l-7.997.213c.03 1.135.046 2.295.046 3.48h8zm-.046-3.64a147 147 0 0 0-.097-3.685l-7.994.307c.046 1.187.076 2.348.091 3.486l8-.107zm-4.063.468 6-.047-.062-8-6 .047.062 8zm25.432 22.93-3.822-1.18-.006.018-.005.018 3.833 1.144zm-1.149 2.625-3.362-2.167-.006.01-.006.01 3.374 2.147zm-1.476 1.664-2.444-3.167-.022.017-.022.018 2.488 3.132zm-5.555.938-.922 3.892.011.003.011.002.9-3.898zm-3.094-2.297-3.34 2.2.018.028.019.028 3.303-2.256zm-1.781-6.047-3.975.446.002.022.003.022 3.97-.49zm.375-11.813-3.894-.914-.004.016-.004.016 3.902.882zm1.64-4.242 3.352 2.184.007-.012.008-.011-3.367-2.16zm2.297-2.156 1.656 3.641.027-.012.027-.013-1.71-3.616zm4.383-.422-.845 3.91.06.013.06.01.725-3.933zm1.664.68-2.219 3.328.023.015.023.015 2.173-3.358zm2.649 3.82-3.795 1.265.003.009.003.01 3.789-1.284zm-4.149 4.992-3.975.449.001.007 3.974-.456zm-1.125-3.445-2.543 3.088.056.045.057.044 2.43-3.177zm-1.804.14 2.98 2.668.034-.038.033-.039-3.047-2.59zm-.68 1.454-3.853-1.076-.012.042-.01.042 3.875.992zm-.399 2.601 3.984.357.001-.005-3.985-.352zm.024 7.664-3.977.428.004.034.004.034 3.969-.496zm.492 2.414-3.795 1.265.02.06.022.058 3.753-1.383zm.75 1.266-2.657 2.99.04.035.04.034 2.577-3.06zm3.945-8.602c0 1.794-.081 3.301-.229 4.541l7.943.95c.196-1.636.286-3.472.286-5.49h-8zm-.229 4.541c-.151 1.266-.36 2.269-.6 3.045l7.643 2.36c.417-1.35.708-2.846.9-4.455l-7.943-.95zm-.611 3.08c-.236.79-.48 1.297-.678 1.603l6.724 4.334c.709-1.1 1.23-2.343 1.619-3.648l-7.665-2.288zm-.69 1.622c-.233.365-.425.552-.546.645l4.887 6.334c.973-.75 1.765-1.674 2.408-2.684l-6.75-4.295zm-.59.68a.837.837 0 0 1-.307.166l2.121 7.713a8.826 8.826 0 0 0 3.161-1.615l-4.975-6.264zm-.307.166a3.215 3.215 0 0 1-.862.114v8c1.01 0 2.008-.133 2.983-.4l-2.121-7.714zm-.862.114a4.42 4.42 0 0 1-.999-.108l-1.799 7.795a12.42 12.42 0 0 0 2.798.313v-8zm-.976-.103a.629.629 0 0 1-.233-.116l-4.706 6.47a8.617 8.617 0 0 0 3.095 1.43l1.844-7.784zm-.233-.116c-.075-.054-.246-.203-.48-.544L88.9 35.522c.642.94 1.423 1.806 2.38 2.502l4.706-6.47zm-.442-.488c-.144-.22-.362-.65-.584-1.4l-7.67 2.277c.372 1.25.873 2.46 1.572 3.523l6.682-4.4zm-.584-1.4c-.217-.73-.415-1.697-.568-2.938l-7.94.981c.19 1.541.462 2.965.838 4.234l7.67-2.277zm-.563-2.894c-.135-1.202-.21-2.68-.21-4.452h-8c0 1.978.082 3.766.26 5.345l7.95-.893zm-.21-4.452c0-2.653.195-4.633.511-6.032l-7.803-1.764c-.496 2.196-.707 4.825-.707 7.796h8zm.504-6c.364-1.548.772-2.473 1.098-2.972L89.086 8.98c-1.018 1.562-1.703 3.466-2.183 5.511l7.788 1.828zm1.113-2.995c.385-.601.618-.69.586-.676l-3.31-7.283c-1.752.796-3.05 2.145-4.009 3.638l6.733 4.32zm.64-.7a2.14 2.14 0 0 1 .939-.227v-8c-1.527 0-2.991.347-4.358.994l3.419 7.232zm.939-.227c.287 0 .582.031.889.098l1.69-7.82c-.849-.183-1.71-.278-2.58-.278v8zm1.01.122a.42.42 0 0 1 .17.074L103 5.937a8.412 8.412 0 0 0-3.158-1.285l-1.45 7.868zm.215.104c.06.038.216.157.44.458l6.42-4.774c-.683-.917-1.51-1.751-2.514-2.4l-4.346 6.716zm.44.458c.126.17.347.55.587 1.269l7.589-2.53c-.416-1.25-.976-2.463-1.756-3.512l-6.42 4.773zm.593 1.287c.222.655.433 1.568.598 2.79l7.928-1.069c-.21-1.558-.514-3.004-.949-4.287l-7.577 2.566zm.598 2.79c.157 1.164.245 2.625.245 4.411h8c0-2.026-.099-3.862-.317-5.48l-7.928 1.07zm3.206 4.599c0-1.578-.056-2.972-.19-4.136l-7.948.912c.085.742.138 1.802.138 3.224h8zm-.189-4.129c-.123-1.093-.311-2.17-.625-3.113l-7.59 2.53c.061.183.17.637.266 1.48l7.949-.897zm-.625-3.113c-.27-.807-.818-2.122-2.045-3.06l-4.86 6.354a2.525 2.525 0 0 1-.643-.7c-.07-.119-.073-.159-.042-.064l7.59-2.53zm-1.932-2.97a5.333 5.333 0 0 0-3.41-1.241v8c-.322 0-.651-.059-.964-.177a2.529 2.529 0 0 1-.712-.407l5.086-6.176zm-3.41-1.241c-1.706 0-3.08.812-3.985 1.878l6.095 5.181a2.621 2.621 0 0 1-.825.636 2.89 2.89 0 0 1-1.285.305v-8zm-3.918 1.801c-.875.978-1.306 2.164-1.552 3.045l7.706 2.15c.024-.087.045-.151.06-.195.016-.043.024-.059.02-.052a1.064 1.064 0 0 1-.061.11c-.04.062-.107.16-.212.277l-5.961-5.335zm-1.574 3.13c-.246.961-.404 2.064-.508 3.24l7.969.704c.084-.949.191-1.58.29-1.962l-7.751-1.983zm-.508 3.235c-.108 1.205-.156 2.613-.156 4.2h8c0-1.443.045-2.597.124-3.486l-7.968-.714zm-.156 4.2c0 1.612.057 3.04.187 4.25l7.954-.857c-.089-.822-.141-1.941-.141-3.392h-8zm.195 4.317c.141 1.132.347 2.225.666 3.183l7.59-2.53c-.087-.26-.21-.777-.318-1.645l-7.938.992zm.708 3.301c.31.842.844 1.983 1.846 2.872l5.314-5.979c.246.218.36.404.386.447.028.048.009.025-.04-.106l-7.506 2.766zm1.927 2.942c.88.741 2.076 1.316 3.514 1.316v-8c.78 0 1.352.324 1.639.565l-5.153 6.12zm3.514 1.316c1.988 0 3.384-1.126 4.162-2.232.694-.987 1.041-2.116 1.244-3.042l-7.813-1.718c-.11.496-.168.433.025.158.118-.167.37-.469.807-.731a3.081 3.081 0 0 1 1.575-.435v8zm5.406-5.274c.411-1.868.562-4.45.562-7.515h-8c0 2.965-.16 4.821-.375 5.797l7.813 1.718zm30.167-13.585-3.855-1.069-.004.016-.004.016 3.863 1.037zm-1.617 3.562-3.321-2.23-.011.017-.011.016 3.343 2.197zm-2.742 2.906 2.392 3.206.015-.011.014-.011-2.421-3.184zm-3.938 1.899-1.109-3.843-2.941.849.051 3.06 3.999-.066zm.117 5.625-3.998.1v.018l.001.017 3.997-.135zm.211 5.508v4h4.175l-.178-4.171-3.997.17zm-5.718 0-3.991-.282-.301 4.282h4.292v-4zm.539-10.641-3.998-.141v.009l-.001.009 3.999.123zm.14-16.922-3.999.06 3.999-.06zm-.187-6.281-1.156-3.83-2.978.9.138 3.107 3.996-.177zm2.508-.492L122-3.132h-.006l.369 3.984zm3.726.023-.608 3.953.007.002h.008l.593-3.955zm1.922.563-1.576 3.676.052.022.053.021 1.471-3.72zm1.992 1.148-2.424 3.182.042.032.043.03 2.339-3.244zm1.805 1.969-3.367 2.16.009.014.01.015 3.348-2.19zm-7.055 15.515h-4v5.711l5.367-1.951-1.367-3.76zm1.336-.75-2.499-3.123-.031.025-.031.025 2.561 3.073zm1.008-1.03-3.185-2.421-.007.01-.008.01 3.2 2.4zm.726-1.243-3.628-1.685-.025.054-.023.055 3.676 1.576zm.493-1.29-3.83-1.154-.003.01-.003.008 3.836 1.137zm.515-3.21 3.997.162.003-.081v-.081h-4zm-.023-.54h-4v.092l.004.09 3.996-.181zm-.117-1.288-3.973.467.008.066.01.066 3.955-.6zm-.328-1.735-3.887.948.003.011.003.012 3.881-.97zm-.657-1.828-3.634 1.67.018.04.019.04 3.597-1.75zm-1.054-1.547-2.974 2.676.047.052.049.05 2.878-2.778zm-1.571-.984 1.15-3.831-4.882-1.465-.262 5.09 3.994.206zm-.258 7.29 4 .077v-.001l-4-.077zm4.766-.188c0 .982-.131 1.943-.394 2.892l7.71 2.137a18.79 18.79 0 0 0 .684-5.03h-8zm-.402 2.924a7.882 7.882 0 0 1-1.075 2.37l6.642 4.459a15.867 15.867 0 0 0 2.159-4.756l-7.726-2.073zm-1.097 2.402a7.77 7.77 0 0 1-1.821 1.92l4.843 6.367a15.763 15.763 0 0 0 3.664-3.893l-6.686-4.394zm-1.792 1.898c-.674.503-1.537.938-2.654 1.26l2.218 7.687c1.915-.553 3.676-1.383 5.221-2.536l-4.785-6.411zm-5.544 5.17c.031 1.902.07 3.788.118 5.66l7.997-.202a625.836 625.836 0 0 1-.116-5.59l-7.999.132zm.119 5.694c.063 1.856.133 3.703.212 5.543l7.993-.341c-.078-1.817-.148-3.64-.21-5.473l-7.995.271zm4.208 1.372h-5.718v8h5.718v-8zm-1.728 4.282c.253-3.6.436-7.2.547-10.799l-7.997-.246a262.698 262.698 0 0 1-.531 10.482l7.981.563zm.546-10.781c.127-3.595.19-7.212.19-10.852h-8c0 3.547-.062 7.07-.185 10.57l7.995.282zm.19-10.852c0-2.098-.016-4.189-.047-6.272l-7.999.122c.031 2.042.046 4.092.046 6.15h8zm-.047-6.271c-.032-2.118-.096-4.251-.191-6.399l-7.992.355c.092 2.071.153 4.126.184 6.164l7.999-.12zm-3.031-2.392a8.715 8.715 0 0 1 1.72-.338l-.737-7.966c-1.116.103-2.216.32-3.295.645l2.312 7.66zm1.714-.338c.787-.071 1.385-.1 1.817-.1v-8c-.755 0-1.611.048-2.542.133l.725 7.967zm1.817-.1c.149 0 .448.018.939.093l1.216-7.906a14.356 14.356 0 0 0-2.155-.188v8zm.954.096c.246.037.557.12.939.283l3.152-7.353a11.832 11.832 0 0 0-2.905-.842l-1.186 7.912zm1.044.326c.287.114.634.302 1.039.61l4.848-6.363a12.371 12.371 0 0 0-2.945-1.686l-2.942 7.44zm1.124.674c.195.14.467.4.777.884l6.734-4.32c-.753-1.173-1.684-2.226-2.833-3.054l-4.678 6.49zm.796.913c.259.396.54.992.785 1.866l7.704-2.157c-.412-1.47-.99-2.859-1.793-4.087l-6.696 4.378zm.785 1.866c.203.726.344 1.742.344 3.117h8c0-1.876-.187-3.656-.64-5.274l-7.704 2.157zm-3.125 15.22a8.428 8.428 0 0 0 2.53-1.437l-5.122-6.146c.022-.017-.007.015-.142.064l2.734 7.518zm2.468-1.386a9.728 9.728 0 0 0 1.709-1.755l-6.4-4.8a1.723 1.723 0 0 1-.307.308l4.998 6.247zm1.694-1.735a9.885 9.885 0 0 0 1.218-2.086l-7.353-3.152a1.89 1.89 0 0 1-.235.398l6.37 4.84zm1.169-1.978c.278-.598.514-1.21.7-1.837l-7.671-2.272a5.317 5.317 0 0 1-.285.74l7.256 3.37zm.694-1.818c.406-1.345.624-2.753.683-4.204l-7.993-.324a8.933 8.933 0 0 1-.349 2.218l7.659 2.31zm.686-4.366c0-.136-.016-.478-.027-.72l-7.992.362.017.385.004.09v.007-.02l-.001-.03-.001-.074h8zm-.023-.54c0-.618-.068-1.264-.163-1.887l-7.909 1.198c.062.408.072.62.072.69h8zm-.145-1.756c-.086-.73-.23-1.479-.42-2.237l-7.761 1.94c.123.492.197.9.236 1.232l7.945-.935zm-.414-2.214c-.222-.91-.537-1.79-.946-2.63l-7.194 3.5c.154.314.277.654.367 1.025l7.773-1.895zm-.908-2.55a9.538 9.538 0 0 0-1.812-2.656l-5.755 5.557c.121.125.218.265.298.438l7.269-3.34zm-1.716-2.553a7.375 7.375 0 0 0-3.394-2.14l-2.299 7.662a.709.709 0 0 1-.254-.171l5.947-5.351zm-8.538 1.485a228.206 228.206 0 0 0-.263 7.418l7.999.154c.046-2.395.13-4.781.253-7.16l-7.989-.412zm-.263 7.418a386.2 386.2 0 0 0-.071 7.413h8c0-2.443.023-4.863.07-7.258l-7.999-.155zm-.071 7.413v.82h8v-.82h-8zm22.478 15.117.154 3.997 3.899-.15-.053-3.902-4 .055zm-1.383.094.285 3.99.039-.003.039-.004-.363-3.983zm-1.546.117-.315-3.988-.009.001.324 3.987zm-1.922.188-3.999.106.116 4.35 4.324-.48-.441-3.976zm-.446-14.04-3.997.154 3.997-.153zm-.422-10.335 3.997-.178-.001-.013-3.996.19zm-.468-8.555-.185-3.996-4.069.188.262 4.065 3.992-.257zm6.093-.281h4v-4.19l-4.184.194.184 3.996zm0 17.062h-4v.014l.001.015 3.999-.029zm.024 5.742h-4v.039l4-.039zm.023 4.196h-4v.023l4-.023zm-.106 1.815c-.492.019-1.024.056-1.592.107l.725 7.967c.464-.042.853-.067 1.174-.08l-.307-7.994zm-1.515.101c-.45.032-.976.072-1.576.12l.629 7.975c.587-.047 1.093-.085 1.517-.115l-.57-7.98zm-1.585.12c-.625.05-1.306.117-2.04.2l.883 7.95a61.506 61.506 0 0 1 1.804-.176l-.647-7.974zm2.4 4.069c-.141-5.309-.29-10.005-.447-14.087l-7.994.307c.156 4.043.304 8.706.444 13.992l7.997-.212zm-.447-14.087c-.156-4.083-.297-7.537-.422-10.36l-7.993.355c.125 2.802.265 6.239.421 10.312l7.994-.307zm-.423-10.373a511.433 511.433 0 0 0-.473-8.622l-7.983.515c.154 2.394.309 5.222.465 8.488l7.991-.38zm-4.28-4.368 6.094-.282-.369-7.991-6.094.281.369 7.992zm1.909-4.277V11.094h8V1.555h-8zm0 9.539V18.617h8V11.094h-8zm.001 7.552c.015 2.18.023 4.085.023 5.713h8c0-1.652-.008-3.576-.024-5.77l-7.999.057zm.023 5.752c.016 1.617.023 3.002.023 4.157h8c0-1.189-.008-2.6-.023-4.234l-8 .077zm.023 4.18c.016 2.734.032 4.686.048 5.844l7.999-.11a813.134 813.134 0 0 1-.047-5.78l-8 .046zm23.229-1.101-4-.051v.025l4 .026zm-.141 7.71-.23 3.994 4.108.236.12-4.113-3.998-.117zm-4.078-.234h-4v3.777l3.77.217.23-3.994zm0-3.164h4V16.353l-7.497 13.493 3.497 1.943zm-1.594 1.945 2.373 3.22.027-.02.027-.02-2.427-3.18zm-1.687.985 1.485 3.714.019-.008.019-.008-1.523-3.698zm-1.852.422v4h.102l.103-.006-.205-3.994zm-2.109-.493-1.856 3.544.033.017.034.017 1.789-3.578zm-2.86-3.28-3.761 1.36.017.048.019.049 3.725-1.458zm.164-4.9-3.652-1.63-.007.015-.007.016 3.666 1.6zm1.969-2.366 2.426 3.18.009-.007.01-.007-2.445-3.166zm5.461-4.125 2.623 3.02.005-.005-2.628-3.015zm1.336-1.5-3.411-2.09-.009.015-.01.017 3.43 2.058zm-.07-3.961-3.329 2.218.016.024.016.024 3.297-2.266zm-2.25-.493 2.365 3.226.017-.013.018-.013-2.4-3.2zm-.586.704-3.54-1.863-.019.036-.019.038 3.578 1.789zm-.328.96-3.909-.85-.015.068-.012.067 3.936.716zm-.071 1.805-3.994.222.006.11.013.11 3.975-.442zm.164.89.07 4 5.031-.087-1.22-4.882-3.881.97zm-5.39.095-3.973.467.423 3.595 3.619-.063-.069-4zm-.071-.75-3.992.25.001.007v.009l3.991-.266zm.469-3.586 3.776 1.321.003-.01.003-.01-3.782-1.301zm1.43-2.532-3.042-2.598-.004.006 3.046 2.592zm9.023-1.523-2.363 3.227.033.024.032.023 2.298-3.274zm2.016 2.484-3.662 1.61.01.023.01.023 3.642-1.656zm.89 3.516-3.982.38.003.025.003.026 3.976-.431zm-5.062 10.617 3.899.891.013-.053.01-.053-3.922-.785zm.211-1.336-3.957-.586-.007.045-.005.045 3.969.496zm.164-1.523 3.988.315v-.008l-3.988-.307zm.117-2.04 3.997.167.55-13.22-7.782 10.701 3.235 2.353zm-2.039 2.25 2.548 3.085.084-.07.081-.075-2.713-2.94zm-1.148 1.009 2.65 2.995.032-.028.031-.028-2.713-2.94zm-1.125 1.148-3.054-2.584-.029.035-.029.036 3.112 2.513zm-.844 1.266-3.526-1.89-.013.024-.012.024 3.551 1.842zm.117 2.46-3.136 2.483.026.033.026.032 3.084-2.547zm2.109.258-1.85-3.546-.033.017-.032.018 1.915 3.511zm1.008-.797-2.893-2.761-.034.035-.033.036 2.96 2.69zm2.703-9.328a581.8 581.8 0 0 1-.046 7.356l7.999.101c.032-2.485.047-4.971.047-7.457h-8zm-.046 7.381a338.31 338.31 0 0 1-.139 7.62l7.996.233c.079-2.7.127-5.3.142-7.802l-7.999-.05zm4.088 3.743-4.078-.234-.459 7.986 4.078.235.459-7.987zm-.307 3.76v-3.165h-8v3.164h8zm-7.497-5.108c-.276.497-.476.672-.524.709l4.854 6.36c1.139-.87 2.002-1.993 2.663-3.183l-6.993-3.886zm-.47.668c-.401.296-.679.44-.837.506l3.046 7.397c.904-.372 1.75-.883 2.537-1.462l-4.746-6.44zm-.8.49a1.786 1.786 0 0 1-.571.142l.41 7.99a9.762 9.762 0 0 0 3.132-.703l-2.971-7.428zm-.366.137a.663.663 0 0 1-.321-.07l-3.577 7.155a8.648 8.648 0 0 0 3.898.915v-8zm-.253-.036a1.759 1.759 0 0 1-.536-.426l-6.062 5.22a9.764 9.764 0 0 0 2.886 2.293l3.712-7.087zm-.536-.426a2.61 2.61 0 0 1-.455-.77l-7.45 2.916a10.603 10.603 0 0 0 1.843 3.074l6.062-5.22zm-.418-.672a2.629 2.629 0 0 1-.16-.913h-8c0 1.245.213 2.463.637 3.634l7.523-2.721zm-.16-.913c0-.312.062-.644.228-1.026l-7.332-3.199a10.51 10.51 0 0 0-.896 4.225h8zm.215-.995c.066-.148.241-.435.742-.817l-4.852-6.36c-1.343 1.023-2.48 2.314-3.195 3.916l7.305 3.261zm.761-.831a93.226 93.226 0 0 1 3.075-2.29l-4.618-6.533c-.966.683-2.084 1.516-3.347 2.49l4.89 6.333zm3.075-2.29a33.224 33.224 0 0 0 2.564-1.981l-5.246-6.04a25.2 25.2 0 0 1-1.936 1.488l4.618 6.532zm2.569-1.986c.789-.688 1.565-1.502 2.138-2.457l-6.86-4.116c.013-.022-.01.02-.102.124-.091.102-.23.242-.433.419l5.257 6.03zm2.118-2.425c.721-1.176 1.035-2.468 1.035-3.755h-8c0-.006.001-.06.025-.149.024-.09.064-.187.119-.277l6.821 4.18zm1.035-3.755c0-1.334-.196-3.074-1.219-4.563l-6.593 4.533a1.779 1.779 0 0 1-.182-.332c-.031-.075-.039-.115-.038-.109.002.006.01.047.018.129.008.081.014.194.014.343h8zm-1.187-4.515c-.997-1.495-2.635-2.555-4.688-2.555v8c-.356 0-.793-.089-1.216-.33a2.235 2.235 0 0 1-.753-.678l6.657-4.437zm-4.688-2.555a5.438 5.438 0 0 0-3.29 1.081l4.8 6.4a2.564 2.564 0 0 1-1.51.52v-8zm-3.256 1.056a6.01 6.01 0 0 0-1.76 2.066l7.079 3.726c-.083.157-.262.42-.588.66l-4.731-6.452zm-1.798 2.14a8.073 8.073 0 0 0-.659 1.9l7.817 1.7a.379.379 0 0 1 .018-.068c.001-.003-.005.014-.021.045l-7.155-3.577zm-.686 2.034a9.727 9.727 0 0 0-.158 1.747h8c0-.1.009-.204.029-.316l-7.871-1.431zm-.158 1.747c0 .321.01.654.029.995l7.988-.444a10.345 10.345 0 0 1-.017-.551h-8zm.048 1.215c.053.482.143.956.259 1.419l7.761-1.94a2.709 2.709 0 0 1-.069-.363l-7.951.884zm4.07-3.55-5.391.093.139 7.999 5.391-.094-.139-7.999zm-1.349 3.625c-.024-.207-.041-.39-.052-.549l-7.982.533c.021.31.051.627.089.95l7.945-.934zm-.05-.532a7.51 7.51 0 0 1-.016-.477h-8c0 .323.011.649.031.976l7.985-.499zm-.016-.477c0-.507.084-1.014.268-1.538l-7.551-2.643a12.598 12.598 0 0 0-.717 4.181h8zm.274-1.557c.173-.503.407-.904.694-1.241l-6.092-5.185a11.745 11.745 0 0 0-2.166 3.822l7.564 2.604zm.689-1.236a3.33 3.33 0 0 1 1.068-.825l-3.578-7.155a11.32 11.32 0 0 0-3.573 2.784l6.083 5.196zm1.068-.825c.27-.134.68-.257 1.328-.257v-8c-1.695 0-3.363.33-4.906 1.102l3.578 7.155zm1.328-.257c.995 0 1.259.214 1.223.188l4.726-6.455c-1.785-1.307-3.912-1.733-5.949-1.733v8zm1.288.235c.271.19.482.433.652.82l7.324-3.219a9.833 9.833 0 0 0-3.38-4.15l-4.596 6.55zm.672.866c.258.567.461 1.297.55 2.24l7.964-.76c-.16-1.682-.551-3.296-1.231-4.79l-7.283 3.31zm.556 2.291c.124 1.148.187 2.332.187 3.553h8c0-1.497-.077-2.97-.234-4.415l-7.953.862zm2.836 10.97c.102-.507.186-1.051.258-1.624l-7.938-.992c-.054.427-.11.774-.164 1.048l7.844 1.569zm.246-1.534c.08-.539.143-1.142.195-1.794l-7.976-.63a18.93 18.93 0 0 1-.133 1.252l7.914 1.172zm.195-1.802a63.46 63.46 0 0 0 .126-2.18l-7.993-.333c-.03.713-.067 1.345-.109 1.899l7.976.614zm-7.106-4.699c-.19.261-.354.465-.491.62l5.999 5.293c.332-.376.652-.782.962-1.208l-6.47-4.705zm-.491.62c-.191.217-.352.389-.485.521l5.657 5.657c.273-.273.55-.57.827-.885l-5.999-5.293zm-.485.521c-.204.204-.384.377-.541.523l5.426 5.878c.249-.23.507-.479.772-.744l-5.657-5.657zm-.375.378c-.426.351-.864.736-1.314 1.152l5.426 5.879c.362-.334.689-.62.983-.863l-5.095-6.168zm-1.252 1.096a15.262 15.262 0 0 0-1.528 1.56l6.107 5.168c.217-.257.457-.502.722-.737l-5.301-5.991zm-1.586 1.63c-.477.591-.899 1.221-1.258 1.89l7.052 3.778c.11-.205.25-.42.429-.64l-6.223-5.027zm-1.283 1.938a6.674 6.674 0 0 0-.777 3.084h8c0 .335-.095.548-.121.599l-7.102-3.683zm-.777 3.084c0 1.424.508 2.69 1.309 3.701l6.272-4.965c.089.112.2.286.287.524.089.242.132.496.132.74h-8zm1.361 3.766c1 1.21 2.468 1.992 4.186 1.992v-8a2.643 2.643 0 0 1 1.982.913l-6.168 5.095zm4.186 1.992a6.09 6.09 0 0 0 2.923-.77l-3.831-7.023c.13-.071.448-.207.908-.207v8zm2.858-.735a7.635 7.635 0 0 0 2.117-1.653l-5.92-5.381c-.041.045-.012 0 .102-.059l3.701 7.093zm2.051-1.582a9.729 9.729 0 0 0 1.476-2.025l-7.005-3.864a1.74 1.74 0 0 1-.258.366l5.787 5.523zm1.476-2.025c.444-.806.758-1.66.959-2.54l-7.798-1.783a1.76 1.76 0 0 1-.166.459l7.005 3.864zm21.726-19.416 3.996-.167-.156-3.737-3.739-.095-.101 3.999zm.328 10.195-3.999.091v.02l3.999-.11zm-1.266 19.734-3.414-2.083-.008.013-.008.012 3.43 2.058zm-2.414 1.993-1.398-3.748-.025.01-.024.009 1.447 3.729zm-11.062.093-3.998-.146-.133 3.647 3.619.467.512-3.968zm.187-5.132.273-3.991-4.12-.282-.15 4.127 3.997.146zm5.273.304.267-3.99-.028-.003-.028-.001-.211 3.994zm2.79-.07-1.129-3.837-.102.03-.101.035 1.332 3.772zm.632-.469-3.145-2.471-.096.123-.087.13 3.328 2.218zm.446-3.844 3.972-.467-1.27-10.797-6.031 9.046 3.329 2.218zm-.868.891-2.218-3.328-.038.025-.037.026 2.293 3.277zm-1.851.75-.419-3.978-.12.013-.119.02.658 3.945zm-5.602-2.812-3.615 1.712.013.026.012.025 3.59-1.763zm-.867-3.118-3.967.515.001.007 3.966-.522zm-.258-5.062h-4v.154l.012.153 3.988-.307zm-.023-.399h-4v.65l.205.615 3.795-1.265zm0-.046h-4l7.98.398-3.98-.398zm.023-.235 3.98.398.002-.018.002-.018-3.984-.362zm.422-6.89-3.993-.235-.001.018-.001.019 3.995.198zm.328-6.07.345-3.986-4.129-.357-.211 4.139 3.995.203zm5.414.468-.345 3.985.173.015h.172v-4zm-.093.914-3.937-.707-.008.042-.006.041 3.951.624zm-.352 2.555-3.968-.503-.003.024-.003.025 3.974.454zm-.398 12-3.963.544.006.044.007.044 3.95-.632zm1.218 3.023-2.56 3.073.091.077.097.07 2.372-3.22zm2.532-1.125 3.688 1.547.005-.01.004-.01-3.697-1.527zm.586-5.156h-4v.181l.016.181 3.984-.362zm-.024-.797h-4v.09l.004.092 3.996-.182zm-.187-3.61-3.995.2.001.036.003.035 3.991-.27zm-.188-3.398-3.996.186.002.025.001.024 3.993-.235zm-.258-4.828.102-3.999-4.348-.11.253 4.342 3.993-.233zm1.535.307c.14 3.35.248 6.723.326 10.12l7.998-.182c-.079-3.447-.189-6.87-.331-10.27l-7.993.332zm.326 10.14c.093 3.367.139 6.807.139 10.319h8a382.4 382.4 0 0 0-.142-10.54l-7.997.22zm.139 10.319c0 2.155-.09 3.86-.251 5.157l7.94.982c.214-1.735.311-3.794.311-6.14h-8zm-.251 5.157c-.144 1.169-.399 1.785-.569 2.064l6.829 4.167c.954-1.565 1.449-3.386 1.68-5.249l-7.94-.982zm-.585 2.09c-.085.142-.164.22-.382.302l2.796 7.495c1.876-.7 3.406-1.949 4.446-3.682l-6.86-4.116zm-.431.32c-.408.159-1.243.339-2.701.339v8c1.978 0 3.909-.226 5.595-.88l-2.894-7.458zm-2.701.339c-.762 0-1.675-.034-2.751-.108l-.546 7.981c1.206.083 2.308.127 3.297.127v-8zm-2.751-.108a62.168 62.168 0 0 1-3.652-.375l-1.023 7.934c1.511.196 2.89.338 4.129.422l.546-7.98zm-.166 3.738.187-5.132-7.994-.292-.188 5.132 7.995.292zm-4.083-1.288c1.156.08 2.193.143 3.11.191l.42-7.988c-.865-.046-1.859-.107-2.984-.184l-.546 7.981zm3.11.191h.005l.005.001a.137.137 0 0 1 .01 0h.006l.005.001h.01l.005.001h.016l.005.001h.016l.005.001h.01l.005.001h.016l.005.001h.015a.137.137 0 0 1 .011.001h.005l.005.001h.015l.005.001h.005a.137.137 0 0 1 .01 0l.006.001a.137.137 0 0 0 .015 0l.005.001h.01l.005.001h.01a.137.137 0 0 1 .01.001h.015l.005.001h.016l.005.001h.01l.005.001h.005a.137.137 0 0 0 .01 0l.005.001h.015l.005.001a.136.136 0 0 1 .015 0l.005.001H170.848l.005.001h.015l.005.001h.01l.005.001h.015a.136.136 0 0 1 .01.001H170.922l.005.001h.015l.005.001h.015l.005.001H170.981l.005.001h.015l.004.001h.015l.005.001H171.039l.005.001h.01a.137.137 0 0 0 .009.001h.01l.005.001H171.092l.005.001h.014l.005.001h.014l.005.001h.014l.005.001h.014l.005.001h.014l.005.001H171.206l.005.001H171.225l.005.001H171.248l.005.001H171.267l.005.001H171.286l.004.001h.014l.005.001H171.323l.004.001h.014l.005.001H171.36l.004.001h.014l.005.001H171.396l.005.001H171.419l.005.001H171.437l.005.001H171.456l.004.001H171.474l.004.001H171.492l.004.001H171.514l.005.001H171.532l.004.001H171.55l.004.001H171.568l.004.001H171.59l.004.001H171.607l.005.001H171.625l.004.001H171.647l.004.001H171.664l.005.001H171.678a.07.07 0 0 0 .008.001H171.704l.004.001H171.721l.004.001h.017l.005.001H171.76l.004.001H171.773a.07.07 0 0 0 .008.001h.017l.004.001H171.815l.004.001h.017l.005.001h.012l.004.001h.017l.005.001h.012l.004.001h.017l.004.001H171.929l.004.001h.016l.004.001h.017l.004.001h.012l.005.001h.016l.004.001h.016l.004.001H172.044l.004.001h.016l.004.001h.016l.004.001h.012l.004.001h.016l.004.001h.016l.004.001h.016l.004.001h.008a.07.07 0 0 0 .004 0l.004.001h.012a.03.03 0 0 1 .003 0l.004.001h.016l.004.001h.016l.003.001h.016l.004.001h.015l.004.001h.016l.003.001h.016l.004.001h.015l.004.001h.015l.004.001h.004a.03.03 0 0 0 .003 0h.008l.004.001h.015l.004.001h.015l.003.001h.015l.004.001h.004a.03.03 0 0 1 .003 0h.004a.054.054 0 0 1 .007.001h.012a.03.03 0 0 0 .003 0l.004.001h.015l.003.001h.015l.004.001h.018l.004.001h.014l.004.001h.011a.054.054 0 0 0 .007 0l.003.001h.011l.004.001h.003a.054.054 0 0 0 .007 0h.008l.003.001h.004a.03.03 0 0 1 .003 0h.004a.03.03 0 0 0 .003 0l.004.001H172.632l.004.001h.017l.004.001h.007a.03.03 0 0 0 .003 0h.004l.003.001H172.688l.421-7.988h-.011l-.003-.001h-.018l-.003-.001H173.06l-.004-.001a.03.03 0 0 1-.003 0h-.015l-.003-.001h-.007a.054.054 0 0 1-.007 0l-.004-.001H173.003l-.004-.001a.03.03 0 0 1-.003 0h-.015l-.003-.001h-.015a.03.03 0 0 1-.003-.001h-.015l-.004-.001H172.927l-.004-.001h-.018l-.004-.001h-.004a.054.054 0 0 0-.007 0h-.004l-.003-.001h-.015l-.004-.001h-.015a.03.03 0 0 1-.003-.001h-.015l-.004-.001h-.015l-.004-.001h-.004a.03.03 0 0 0-.003 0h-.008l-.004-.001a.03.03 0 0 0-.003 0h-.012l-.004-.001h-.015l-.004-.001a.03.03 0 0 0-.003 0h-.012l-.004-.001h-.015l-.004-.001h-.015l-.004-.001h-.016l-.004-.001a.03.03 0 0 1-.003 0h-.012l-.004-.001h-.016l-.003-.001h-.016l-.004-.001h-.012l-.004-.001h-.016l-.004-.001h-.015l-.004-.001h-.016l-.004-.001h-.008a.07.07 0 0 1-.008-.001h-.016l-.004-.001H172.496a.07.07 0 0 0-.004 0h-.004l-.004-.001h-.016l-.004-.001h-.012l-.004-.001h-.016l-.005-.001h-.016l-.004-.001h-.012l-.005-.001h-.004a.07.07 0 0 0-.008 0h-.004l-.004-.001H172.357l-.004-.001h-.012a.07.07 0 0 1-.004 0l-.005-.001h-.012l-.004-.001h-.017l-.004-.001h-.017l-.004-.001H172.261l-.004-.001h-.017a.07.07 0 0 1-.004-.001H172.223a.07.07 0 0 1-.004-.001H172.206a.07.07 0 0 1-.004-.001H172.184l-.004-.001H172.167l-.004-.001h-.017l-.005-.001a.07.07 0 0 0-.008 0h-.005l-.004-.001H172.111l-.004-.001H172.089l-.004-.001H172.072l-.005-.001h-.017l-.004-.001H172.032l-.004-.001h-.005a.07.07 0 0 0-.008 0l-.005-.001H171.997l-.004-.001H171.975l-.005-.001H171.957l-.005-.001H171.939l-.004-.001H171.921l-.004-.001H171.899l-.005-.001H171.881l-.005-.001H171.862l-.004-.001H171.844l-.004-.001H171.826l-.005-.001H171.803l-.004-.001h-.014l-.005-.001H171.766l-.004-.001H171.748l-.005-.001H171.729l-.004-.001H171.711l-.005-.001H171.692l-.004-.001h-.014l-.005-.001H171.655l-.005-.001H171.636l-.005-.001H171.617l-.004-.001h-.015l-.004-.001h-.015l-.004-.001h-.015l-.004-.001h-.015l-.004-.001h-.015l-.005-.001H171.503l-.005-.001H171.484l-.005-.001h-.014l-.005-.001h-.015l-.005-.001H171.426l-.005-.001h-.015l-.004-.001h-.015l-.005-.001h-.005a.136.136 0 0 1-.01 0l-.004-.001a.137.137 0 0 1-.01 0h-.005l-.005-.001h-.015l-.005-.001h-.01l-.005-.001H171.294l-.005-.001h-.015l-.005-.001h-.015l-.005-.001h-.015l-.005-.001h-.015l-.005-.001h-.01l-.005-.001h-.015l-.005-.001h-.015l-.005-.001h-.015l-.005-.001h-.01l-.005-.001h-.016l-.005-.001h-.015l-.005-.001h-.015a.137.137 0 0 1-.011-.001h-.005l-.005-.001h-.015a.137.137 0 0 1-.015-.002h-.021l-.005-.001h-.016l-.005-.001h-.015a.12.12 0 0 1-.011-.001h-.01l-.005-.001h-.011l-.005-.001h-.015l-.006-.001h-.005l-.42 7.988zm2.17.114c.762.051 1.465.08 2.095.08v-8c-.402 0-.918-.019-1.562-.062l-.533 7.982zm2.095.08c.687 0 1.483-.084 2.292-.37l-2.663-7.543c.144-.05.254-.072.313-.08.059-.01.081-.007.058-.007v8zm2.089-.304a5.12 5.12 0 0 0 2.833-2.087l-6.657-4.438a2.867 2.867 0 0 1 1.567-1.15l2.257 7.675zm2.65-1.834c.711-.905 1.013-1.902 1.157-2.654l-7.856-1.51c-.001.007.012-.066.062-.192.051-.126.153-.342.346-.587l6.291 4.943zm1.157-2.654c.145-.751.189-1.553.189-2.326h-8c0 .51-.033.754-.045.815l7.856 1.511zm.189-2.326V34.25h-8V34.859h8zm0-.609c0-.405-.028-.806-.074-1.194l-7.945.935c.017.143.019.226.019.259h8zm-7.375-2.945s.017-.026.058-.068c.042-.043.103-.097.185-.151l4.437 6.656a7.152 7.152 0 0 0 1.977-2l-6.657-4.437zm.168-.168c-.094.066-.137.082-.13.079l2.972 7.428a8.652 8.652 0 0 0 1.745-.953l-4.587-6.554zm-.13.079c-.013.005.041-.018.153-.03l.838 7.956a7.428 7.428 0 0 0 1.981-.498l-2.972-7.428zm-.086.002a3.03 3.03 0 0 1-.127.019h.009c.012-.002.037-.003.073-.003v8c.49 0 .961-.058 1.36-.124l-1.315-7.892zm-.045.016c-.751 0-.933-.155-.867-.112L168.07 37.8c1.628 1.075 3.493 1.435 5.274 1.435v-8zm-.867-.112c-.151-.1-.298-.243-.441-.534l-7.181 3.527c.732 1.49 1.804 2.753 3.215 3.684l4.407-6.677zm-.417-.483c-.21-.443-.403-1.066-.516-1.926l-7.932 1.043c.2 1.515.585 2.97 1.218 4.308l7.23-3.425zm-.515-1.92a25.822 25.822 0 0 1-.201-3.328h-8c0 1.511.087 2.966.267 4.359l7.934-1.03zm-.201-3.328c0-.584-.006-1.144-.035-1.526l-7.977.614c-.001-.018.003.041.007.227.003.168.005.394.005.685h8zm-.024-1.22c0-.144-.002-.32-.012-.498-.001-.017-.018-.57-.216-1.164l-7.59 2.53a3.838 3.838 0 0 1-.161-.697c-.014-.104-.018-.177-.02-.199-.002-.045-.001-.045-.001.029h8zm-.023-.398V23.72h-8v.005h8v-.005h-8V23.774h8zm-4-.046 3.98.398v-.005h.001V24.11h.001V24.1h.001V24.09h.001V24.08l.001-.001V24.07h.001V24.06h.001V24.05h.001V24.04l.001-.001V24.03l.001-.001V24.02h.001V24.01h.001V24l.001-.002V23.99h.001V23.98l.001-.002V23.97h.001V23.96h.001V23.95h.001v-.01h.001V23.93l.001-.001v-.01h.001V23.91l.001-.001V23.9h.001v-.01l-7.96-.796v.006l-.001.001V23.11l-.001.001V23.12h-.001V23.13l-.001.001V23.14l-.001.001v.01h-.001V23.16h-.001V23.17h-.001V23.18l-.001.001v.01h-.001V23.2l-.001.002v.008l-.001.001V23.22h-.001V23.23l-.001.001V23.24l-.001.001V23.25l-.001.001V23.26h-.001V23.27h-.001V23.28h-.001V23.29l-.001.001V23.3h-.001V23.31l-.001.001V23.32h-.001v.008l3.98.399zm4.007.127c.02-.22.046-.574.077-1.024l-7.981-.55c-.031.455-.052.727-.063.85l7.967.724zm.077-1.024c.032-.463.079-1.181.142-2.15l-7.983-.516c-.063.968-.109 1.672-.14 2.115l7.981.55zm.142-2.15c.064-.998.136-2.293.214-3.88l-7.99-.396c-.078 1.569-.147 2.82-.207 3.76l7.983.515zm.212-3.843c.095-1.609.205-3.643.33-6.102l-7.99-.407a760.55 760.55 0 0 1-.326 6.039l7.986.47zm-4.01-2.32 5.414.468.69-7.97-5.414-.469-.69 7.97zm5.759.483a3.99 3.99 0 0 1-3.75-2.634c-.199-.554-.219-1.013-.224-1.104a3.68 3.68 0 0 1 .007-.442c0-.004-.012.103-.063.387l7.874 1.414c.058-.326.116-.676.147-.984.013-.12.043-.428.025-.785-.007-.129-.031-.616-.237-1.19-.114-.317-1.042-2.662-3.779-2.662v8zm-4.044-3.71a91.238 91.238 0 0 0-.369 2.676l7.936 1.006c.139-1.097.251-1.901.335-2.434l-7.902-1.248zm-.375 2.725a124.65 124.65 0 0 0-.388 4.093l7.974.644c.123-1.52.244-2.793.362-3.83l-7.948-.907zm-.388 4.093a68.566 68.566 0 0 0-.2 5.478h8c0-1.805.059-3.414.174-4.834l-7.974-.644zm-.2 5.478c0 1.241.059 2.394.201 3.427l7.925-1.088c-.077-.562-.126-1.33-.126-2.34h-8zm.214 3.515c.153.955.379 1.917.736 2.795l7.412-3.01c-.05-.123-.152-.442-.249-1.05l-7.899 1.265zm.736 2.795c.342.841.903 1.862 1.872 2.67l5.121-6.147c.213.178.333.34.386.42.052.079.057.105.033.046l-7.412 3.011zm2.06 2.816a5.62 5.62 0 0 0 3.357 1.108v-8a2.383 2.383 0 0 1 1.388.452l-4.745 6.44zm3.357 1.108c3.168 0 4.67-2.559 5.235-3.906l-7.377-3.094c-.082.196-.042.004.259-.278.166-.157.419-.347.767-.494.357-.152.74-.228 1.116-.228v8zm5.244-3.927c.721-1.746.912-3.97.912-6.213h-8c0 2.038-.215 2.939-.307 3.161l7.395 3.052zM181 23.68c0-.285-.016-.565-.04-.831l-7.967.724c.007.077.007.11.007.107h8zm-.023-.47c0-.278-.011-.614-.028-.978l-7.992.364c.015.324.02.518.02.615h8zm-.024-.796c0-.462-.02-1.005-.053-1.605l-7.988.444c.03.525.041.905.041 1.161h8zm-.053-1.605c-.032-.585-.081-1.346-.144-2.275l-7.981.541c.062.915.107 1.639.137 2.178l7.988-.444zm-.139-2.204c-.048-.953-.111-2.098-.19-3.434l-7.986.47c.078 1.32.14 2.441.186 3.363l7.99-.4zm-.187-3.385c-.064-1.364-.151-2.99-.26-4.875l-7.987.466c.109 1.865.194 3.458.255 4.781l7.992-.372zm-4.355-.643 5.531.14.203-7.997-5.531-.14-.203 7.997z" fill="#243041" mask="url(#b)"/><defs><linearGradient id="a" x1="91.5" y1="-1.478" x2="91.5" y2="47" gradientUnits="userSpaceOnUse"><stop stop-color="#67B6FF"/><stop offset="1" stop-color="#fff"/></linearGradient></defs></svg>