<svg width="55" height="52" viewBox="0 0 55 52" fill="none" xmlns="http://www.w3.org/2000/svg">
<g filter="url(#filter0_i_51_169)">
<path d="M3.30473 26.9178L3.07855 25.4416C1.12567 12.6964 0.149238 6.32377 3.8208 2.85697C7.49235 -0.609832 13.6481 0.872319 25.9596 3.83662L27.5882 4.22874C44.3933 8.275 52.7959 10.2981 54.0287 16.2434C55.2616 22.1887 48.3814 27.5073 34.6211 38.1445L33.2187 39.2286C22.0336 47.8751 16.4411 52.1983 11.498 50.1641C6.5549 48.1298 5.47151 41.0591 3.30473 26.9178Z" fill="white"/>
</g>
<path d="M3.30473 26.9178L3.07855 25.4416C1.12567 12.6964 0.149238 6.32377 3.8208 2.85697C7.49235 -0.609832 13.6481 0.872319 25.9596 3.83662L27.5882 4.22874C44.3933 8.275 52.7959 10.2981 54.0287 16.2434C55.2616 22.1887 48.3814 27.5073 34.6211 38.1445L33.2187 39.2286C22.0336 47.8751 16.4411 52.1983 11.498 50.1641C6.5549 48.1298 5.47151 41.0591 3.30473 26.9178Z" stroke="black"/>
<defs>
<filter id="filter0_i_51_169" x="0.8396" y="0.349609" width="53.8307" height="50.8115" filterUnits="userSpaceOnUse" color-interpolation-filters="sRGB">
<feFlood flood-opacity="0" result="BackgroundImageFix"/>
<feBlend mode="normal" in="SourceGraphic" in2="BackgroundImageFix" result="shape"/>
<feColorMatrix in="SourceAlpha" type="matrix" values="0 0 0 0 0 0 0 0 0 0 0 0 0 0 0 0 0 0 127 0" result="hardAlpha"/>
<feOffset dy="-6"/>
<feComposite in2="hardAlpha" operator="arithmetic" k2="-1" k3="1"/>
<feColorMatrix type="matrix" values="0 0 0 0 0.141176 0 0 0 0 0.188235 0 0 0 0 0.254902 0 0 0 1 0"/>
<feBlend mode="normal" in2="shape" result="effect1_innerShadow_51_169"/>
</filter>
</defs>
</svg>
