<svg width="258" height="85" fill="none" xmlns="http://www.w3.org/2000/svg"><mask id="b" maskUnits="userSpaceOnUse" x="-8" y="-8" width="274" height="101" fill="#000"><path fill="#fff" d="M-8-8h274V93H-8z"/><path d="M11.32 1.723a564.92 564.92 0 0 0-1.102 17.303 635.67 635.67 0 0 0-.505 17.12 426.469 426.469 0 0 0 6.105-17.166A896.268 896.268 0 0 0 21.37 1.54l10.052.733a562.899 562.899 0 0 0-7.436 18.084 406.873 406.873 0 0 0-6.655 18.314 217.913 217.913 0 0 0 5.875 14.274c2.111 4.62 4.36 9.195 6.747 13.724l-10.19 1.147c-1.499-4.498-3.09-8.904-4.773-13.218A279.151 279.151 0 0 0 9.621 41.7v5.692c0 6.7.092 13.356.276 19.965l-9.455-.091c.183-6.243.336-12.47.459-18.681.122-6.212.183-12.454.183-18.727 0-4.681-.046-9.348-.138-13.999a2250.9 2250.9 0 0 0-.23-14.136H11.32zm48.64 37.04c0 4.834-.03 9.669-.091 14.504-.03 4.834-.122 9.868-.275 15.1l-7.987-.459v-6.196c-.918 1.652-1.958 2.922-3.12 3.81-1.164.856-2.265 1.499-3.306 1.927-1.223.49-2.432.765-3.625.826a9.11 9.11 0 0 1-4.131-.964 11.306 11.306 0 0 1-3.35-2.662 12.947 12.947 0 0 1-2.25-3.763 12.993 12.993 0 0 1-.78-4.452c0-1.744.367-3.458 1.101-5.141.765-1.714 2.05-3.259 3.856-4.636 2.417-1.866 4.513-3.427 6.288-4.681 1.775-1.255 3.243-2.387 4.406-3.397 1.194-1.04 2.066-2.02 2.616-2.937.582-.949.872-2.035.872-3.26 0-2.019-.336-3.518-1.01-4.497-.672-1.01-1.56-1.515-2.661-1.515-.674 0-1.255.184-1.745.55-.459.337-.841.796-1.147 1.378a7.996 7.996 0 0 0-.643 1.882 11.267 11.267 0 0 0-.183 2.02c0 .458.015.963.046 1.514.06.55.168 1.132.321 1.744l-10.557.184c-.06-.52-.107-1.01-.137-1.47-.031-.489-.046-.963-.046-1.422 0-1.897.321-3.764.964-5.6.642-1.866 1.575-3.518 2.8-4.957a14.337 14.337 0 0 1 4.543-3.534c1.775-.887 3.81-1.33 6.105-1.33 2.968 0 5.309.626 7.022 1.881 1.744 1.224 3.06 2.846 3.948 4.865.917 2.02 1.499 4.315 1.744 6.885.275 2.54.413 5.14.413 7.803zM49.635 51.752c.153-.765.29-1.637.413-2.616.122-.826.23-1.82.321-2.984.092-1.193.168-2.524.23-3.993a24.45 24.45 0 0 1-1.423 1.79c-.46.52-.888.98-1.285 1.377-.46.46-.888.872-1.286 1.24a54.794 54.794 0 0 0-2.249 1.973 21.8 21.8 0 0 0-2.203 2.25 15.874 15.874 0 0 0-1.652 2.478c-.428.826-.643 1.637-.643 2.432 0 .857.291 1.653.872 2.387.582.704 1.3 1.056 2.158 1.056.642 0 1.3-.184 1.973-.551.704-.367 1.362-.888 1.974-1.56a11.212 11.212 0 0 0 2.8-5.279zm43.133-31.303c.276 6.61.49 13.265.643 19.966.183 6.67.275 13.479.275 20.425 0 4.406-.184 8.093-.55 11.061-.368 2.969-1.102 5.355-2.204 7.16-1.101 1.836-2.677 3.137-4.727 3.902-2.05.796-4.758 1.193-8.124 1.193-1.714 0-3.688-.076-5.921-.23-2.234-.152-4.774-.412-7.62-.78l.368-10.051c2.234.153 4.222.275 5.967.367l4.36.23a54.81 54.81 0 0 0 3.58.137c.734 0 1.362-.092 1.882-.275.52-.153.933-.46 1.24-.918.336-.429.58-1.04.733-1.836.154-.796.23-1.82.23-3.075V66.53c0-.428-.03-.902-.092-1.423-.49.735-1.056 1.316-1.698 1.745a9.115 9.115 0 0 1-1.836 1.01 6.712 6.712 0 0 1-1.79.458c-.55.092-1.01.138-1.377.138-2.478 0-4.483-.505-6.013-1.515-1.53-1.01-2.723-2.386-3.58-4.13-.826-1.745-1.392-3.78-1.698-6.105-.306-2.356-.459-4.865-.459-7.527 0-1.194-.015-1.99-.046-2.387 0-.428-.015-.689-.046-.78v-.092l.046-.46c.03-.336.077-.948.138-1.835a523.553 523.553 0 0 0 .689-11.658c.183-3.121.397-7.084.642-11.888L76.38 21c.092 0 .031.597-.183 1.79-.184 1.163-.413 2.83-.689 5.003-.245 2.142-.49 4.727-.734 7.757-.245 3.03-.367 6.395-.367 10.098 0 2.203.107 4.084.321 5.645.245 1.53.566 2.785.964 3.764.398.979.872 1.698 1.423 2.157a3.175 3.175 0 0 0 1.927.642c1.224 0 2.234-.948 3.03-2.845.795-1.928 1.193-4.988 1.193-9.18 0-.275-.015-.581-.046-.918 0-.367-.015-.887-.046-1.56 0-.704-.03-1.607-.091-2.709a375.085 375.085 0 0 0-.276-4.36 774.917 774.917 0 0 0-.367-6.655c-.122-2.632-.29-5.783-.505-9.455l10.832.275zm35.147 24.326c-.306 4.59-.902 8.446-1.79 11.567-.856 3.12-1.897 5.645-3.121 7.573-1.193 1.897-2.524 3.259-3.993 4.085-1.469.826-2.937 1.24-4.406 1.24-.643-.093-1.316-.337-2.02-.735-.612-.337-1.315-.842-2.111-1.515-.765-.673-1.561-1.59-2.387-2.754v4.315h-9.088V3.42h11.429l-1.01 18.405c.765-1.163 1.561-2.035 2.387-2.616.857-.612 1.637-1.071 2.341-1.377a8.08 8.08 0 0 1 2.432-.597c1.836 0 3.397.505 4.682 1.515 1.316 1.01 2.402 2.34 3.259 3.993.887 1.622 1.576 3.458 2.065 5.508.49 2.02.842 4.054 1.056 6.104a48.43 48.43 0 0 1 .367 5.83c.031 1.836 0 3.365-.092 4.59zm-9.776.092V41.7a76.159 76.159 0 0 0 0-3.764 37.652 37.652 0 0 0-.275-3.763c-.153-1.255-.398-2.372-.735-3.35-.306-.98-.749-1.76-1.331-2.342-.551-.612-1.27-.918-2.157-.918-.979 0-1.805.383-2.479 1.148-.673.734-1.224 1.698-1.652 2.892-.428 1.162-.765 2.478-1.01 3.947a73.943 73.943 0 0 0-.505 4.36c-.091 1.438-.153 2.8-.183 4.085v3.03c0 1.805.076 3.503.229 5.094.184 1.56.459 2.938.826 4.131.398 1.193.888 2.142 1.469 2.846.612.673 1.331 1.01 2.157 1.01.98 0 1.821-.46 2.525-1.378.704-.918 1.27-2.096 1.698-3.534.459-1.468.796-3.105 1.01-4.91.214-1.806.352-3.611.413-5.417zm39.921 21.894c-2.846.979-5.447 1.621-7.803 1.928-2.326.306-4.238.459-5.737.459-1.867 0-3.504-.368-4.912-1.102a12.163 12.163 0 0 1-3.671-2.938c-1.01-1.224-1.852-2.631-2.525-4.222a30.812 30.812 0 0 1-1.606-5.095 45.48 45.48 0 0 1-.872-5.37 62.632 62.632 0 0 1-.23-5.187c0-4.039.321-7.757.964-11.153.643-3.427 1.576-6.38 2.8-8.858 1.224-2.479 2.738-4.407 4.544-5.784 1.805-1.407 3.855-2.11 6.15-2.11 1.897 0 3.626.473 5.187 1.422 1.56.948 2.891 2.402 3.993 4.36 1.101 1.959 1.943 4.453 2.524 7.482.612 2.999.918 6.563.918 10.694 0 1.163-.03 2.34-.092 3.534a53.663 53.663 0 0 1-.229 3.718l-16.248 2.157c.122 1.133.306 2.203.551 3.213.275 1.01.627 1.913 1.055 2.708.459.765.995 1.377 1.607 1.836.612.46 1.361.689 2.249.689 1.652 0 3.304-.092 4.957-.276 1.652-.214 3.381-.459 5.186-.734l1.24 8.629zm-17.121-23.867 7.62-1.423v-1.744c0-2.601-.199-4.606-.597-6.013-.398-1.438-.826-2.494-1.285-3.167-.551-.796-1.178-1.255-1.882-1.377-.887.092-1.591.505-2.111 1.24-.521.734-.918 1.682-1.194 2.845-.245 1.132-.398 2.417-.459 3.855a102.881 102.881 0 0 0-.092 4.36v1.424zm37.075-36.857a353.47 353.47 0 0 0-.642 7.252 527.474 527.474 0 0 0-.505 6.977 134.83 134.83 0 0 1 3.442-.138 71.378 71.378 0 0 0 3.534-.276l-.321 9.318a68.135 68.135 0 0 0-3.58-.092h-3.534c-.245 4.406-.428 8.72-.551 12.944-.092 4.192-.138 8.43-.138 12.713 0 2.203.016 4.422.046 6.656.062 2.203.123 4.437.184 6.7l-10.098.184c.215-6.578.398-13.08.551-19.506.153-6.457.23-12.96.23-19.507l-3.535.183c-1.193.03-2.371.092-3.534.184l.367-10.052c1.071.153 2.173.275 3.305.367 1.132.092 2.234.169 3.305.23 0-2.387-.031-4.728-.092-7.023a280.806 280.806 0 0 0-.184-7.022l11.75-.092zm24.224 0a353.602 353.602 0 0 0-.643 7.252 545.057 545.057 0 0 0-.505 6.977c1.163-.062 2.311-.107 3.443-.138a71.567 71.567 0 0 0 3.534-.276l-.321 9.318a68.173 68.173 0 0 0-3.581-.092h-3.534c-.244 4.406-.428 8.72-.55 12.944-.092 4.192-.138 8.43-.138 12.713 0 2.203.015 4.422.046 6.656l.183 6.7-10.097.184c.214-6.578.397-13.08.55-19.506.153-6.457.23-12.96.23-19.507l-3.534.183c-1.194.03-2.372.092-3.534.184l.367-10.052c1.071.153 2.172.275 3.304.367 1.133.092 2.234.169 3.305.23 0-2.387-.03-4.728-.092-7.023a276.03 276.03 0 0 0-.183-7.022l11.75-.092zm22.249.964c0 .949-.152 1.836-.458 2.662a6.006 6.006 0 0 1-1.377 2.111c-.612.582-1.393 1.04-2.341 1.377-.918.337-2.004.505-3.259.505-1.377 0-2.54-.168-3.488-.505-.918-.336-1.683-.795-2.295-1.377a5.76 5.76 0 0 1-1.285-2.11A9.322 9.322 0 0 1 209.615 7c0-.918.138-1.775.413-2.57a5.713 5.713 0 0 1 1.286-2.158c.612-.612 1.392-1.086 2.34-1.422.949-.368 2.081-.551 3.397-.551 1.316 0 2.433.183 3.351.55.948.337 1.713.811 2.294 1.423a5.452 5.452 0 0 1 1.332 2.158c.306.795.458 1.652.458 2.57zm-2.753 13.356a119.338 119.338 0 0 0-.459 5.416c-.123 1.928-.23 3.932-.322 6.013-.091 2.05-.153 4.146-.183 6.288a425.182 425.182 0 0 0-.046 6.242c0 2.387.015 4.697.046 6.931.061 2.203.122 4.238.183 6.105.092 1.866.184 3.518.276 4.957.122 1.438.26 2.555.413 3.35-1.224 0-2.494.03-3.81.092-1.132.061-2.402.138-3.809.23-1.408.091-2.815.229-4.223.413.52-5.508.872-10.542 1.056-15.101.183-4.59.275-8.705.275-12.347 0-3.12-.061-5.844-.184-8.17a165.275 165.275 0 0 0-.321-5.966c-.122-1.898-.275-3.52-.459-4.866 1.714.215 3.274.352 4.682.413 1.438.062 2.677.092 3.718.092h1.331c.397 0 .734-.015 1.009-.046.337 0 .612-.015.827-.046zm23.213 47.368a184.733 184.733 0 0 0 1.423-14.963c.306-5.05.459-10.343.459-15.881 0-1.867-.122-3.35-.367-4.452-.245-1.133-.566-1.99-.964-2.57-.398-.613-.826-.995-1.285-1.148a3.577 3.577 0 0 0-1.331-.275c-.612 0-1.194.107-1.744.32-.521.215-1.01.628-1.469 1.24-.459.612-.888 1.469-1.285 2.57-.367 1.102-.689 2.555-.964 4.36-.276 1.806-.49 4.01-.643 6.61-.122 2.57-.183 5.646-.183 9.226v7.986c.03 1.255.046 2.372.046 3.35.03.95.076 1.622.137 2.02l-10.373-.092c.092-2.784.153-5.263.184-7.435.061-2.203.107-4.223.138-6.059.03-1.836.045-3.55.045-5.14.031-1.622.046-3.213.046-4.774 0-1.407-.015-2.846-.046-4.314 0-1.5-.015-3.106-.045-4.82 0-1.713-.031-3.58-.092-5.6-.031-2.05-.077-4.314-.138-6.792l10.74-.276-.183 4.682c.826-1.56 1.713-2.8 2.662-3.718.948-.948 1.882-1.683 2.8-2.203.948-.52 1.866-.857 2.753-1.01.888-.183 1.683-.275 2.387-.275 1.897 0 3.458.658 4.682 1.974 1.224 1.315 2.188 3.075 2.891 5.278.735 2.172 1.24 4.666 1.515 7.481.275 2.816.413 5.738.413 8.767 0 2.203-.061 4.437-.183 6.701a233.623 233.623 0 0 1-.368 6.701 190.146 190.146 0 0 1-.459 6.334c-.153 2.02-.29 3.902-.413 5.646l-10.786.55z"/></mask><path d="M11.32 1.723a564.92 564.92 0 0 0-1.102 17.303 635.67 635.67 0 0 0-.505 17.12 426.469 426.469 0 0 0 6.105-17.166A896.268 896.268 0 0 0 21.37 1.54l10.052.733a562.899 562.899 0 0 0-7.436 18.084 406.873 406.873 0 0 0-6.655 18.314 217.913 217.913 0 0 0 5.875 14.274c2.111 4.62 4.36 9.195 6.747 13.724l-10.19 1.147c-1.499-4.498-3.09-8.904-4.773-13.218A279.151 279.151 0 0 0 9.621 41.7v5.692c0 6.7.092 13.356.276 19.965l-9.455-.091c.183-6.243.336-12.47.459-18.681.122-6.212.183-12.454.183-18.727 0-4.681-.046-9.348-.138-13.999a2250.9 2250.9 0 0 0-.23-14.136H11.32zm48.64 37.04c0 4.834-.03 9.669-.091 14.504-.03 4.834-.122 9.868-.275 15.1l-7.987-.459v-6.196c-.918 1.652-1.958 2.922-3.12 3.81-1.164.856-2.265 1.499-3.306 1.927-1.223.49-2.432.765-3.625.826a9.11 9.11 0 0 1-4.131-.964 11.306 11.306 0 0 1-3.35-2.662 12.947 12.947 0 0 1-2.25-3.763 12.993 12.993 0 0 1-.78-4.452c0-1.744.367-3.458 1.101-5.141.765-1.714 2.05-3.259 3.856-4.636 2.417-1.866 4.513-3.427 6.288-4.681 1.775-1.255 3.243-2.387 4.406-3.397 1.194-1.04 2.066-2.02 2.616-2.937.582-.949.872-2.035.872-3.26 0-2.019-.336-3.518-1.01-4.497-.672-1.01-1.56-1.515-2.661-1.515-.674 0-1.255.184-1.745.55-.459.337-.841.796-1.147 1.378a7.996 7.996 0 0 0-.643 1.882 11.267 11.267 0 0 0-.183 2.02c0 .458.015.963.046 1.514.06.55.168 1.132.321 1.744l-10.557.184c-.06-.52-.107-1.01-.137-1.47-.031-.489-.046-.963-.046-1.422 0-1.897.321-3.764.964-5.6.642-1.866 1.575-3.518 2.8-4.957a14.337 14.337 0 0 1 4.543-3.534c1.775-.887 3.81-1.33 6.105-1.33 2.968 0 5.309.626 7.022 1.881 1.744 1.224 3.06 2.846 3.948 4.865.917 2.02 1.499 4.315 1.744 6.885.275 2.54.413 5.14.413 7.803zM49.635 51.752c.153-.765.29-1.637.413-2.616.122-.826.23-1.82.321-2.984.092-1.193.168-2.524.23-3.993a24.45 24.45 0 0 1-1.423 1.79c-.46.52-.888.98-1.285 1.377-.46.46-.888.872-1.286 1.24a54.794 54.794 0 0 0-2.249 1.973 21.8 21.8 0 0 0-2.203 2.25 15.874 15.874 0 0 0-1.652 2.478c-.428.826-.643 1.637-.643 2.432 0 .857.291 1.653.872 2.387.582.704 1.3 1.056 2.158 1.056.642 0 1.3-.184 1.973-.551.704-.367 1.362-.888 1.974-1.56a11.212 11.212 0 0 0 2.8-5.279zm43.133-31.303c.276 6.61.49 13.265.643 19.966.183 6.67.275 13.479.275 20.425 0 4.406-.184 8.093-.55 11.061-.368 2.969-1.102 5.355-2.204 7.16-1.101 1.836-2.677 3.137-4.727 3.902-2.05.796-4.758 1.193-8.124 1.193-1.714 0-3.688-.076-5.921-.23-2.234-.152-4.774-.412-7.62-.78l.368-10.051c2.234.153 4.222.275 5.967.367l4.36.23a54.81 54.81 0 0 0 3.58.137c.734 0 1.362-.092 1.882-.275.52-.153.933-.46 1.24-.918.336-.429.58-1.04.733-1.836.154-.796.23-1.82.23-3.075V66.53c0-.428-.03-.902-.092-1.423-.49.735-1.056 1.316-1.698 1.745a9.115 9.115 0 0 1-1.836 1.01 6.712 6.712 0 0 1-1.79.458c-.55.092-1.01.138-1.377.138-2.478 0-4.483-.505-6.013-1.515-1.53-1.01-2.723-2.386-3.58-4.13-.826-1.745-1.392-3.78-1.698-6.105-.306-2.356-.459-4.865-.459-7.527 0-1.194-.015-1.99-.046-2.387 0-.428-.015-.689-.046-.78v-.092l.046-.46c.03-.336.077-.948.138-1.835a523.553 523.553 0 0 0 .689-11.658c.183-3.121.397-7.084.642-11.888L76.38 21c.092 0 .031.597-.183 1.79-.184 1.163-.413 2.83-.689 5.003-.245 2.142-.49 4.727-.734 7.757-.245 3.03-.367 6.395-.367 10.098 0 2.203.107 4.084.321 5.645.245 1.53.566 2.785.964 3.764.398.979.872 1.698 1.423 2.157a3.175 3.175 0 0 0 1.927.642c1.224 0 2.234-.948 3.03-2.845.795-1.928 1.193-4.988 1.193-9.18 0-.275-.015-.581-.046-.918 0-.367-.015-.887-.046-1.56 0-.704-.03-1.607-.091-2.709a375.085 375.085 0 0 0-.276-4.36 774.917 774.917 0 0 0-.367-6.655c-.122-2.632-.29-5.783-.505-9.455l10.832.275zm35.147 24.326c-.306 4.59-.902 8.446-1.79 11.567-.856 3.12-1.897 5.645-3.121 7.573-1.193 1.897-2.524 3.259-3.993 4.085-1.469.826-2.937 1.24-4.406 1.24-.643-.093-1.316-.337-2.02-.735-.612-.337-1.315-.842-2.111-1.515-.765-.673-1.561-1.59-2.387-2.754v4.315h-9.088V3.42h11.429l-1.01 18.405c.765-1.163 1.561-2.035 2.387-2.616.857-.612 1.637-1.071 2.341-1.377a8.08 8.08 0 0 1 2.432-.597c1.836 0 3.397.505 4.682 1.515 1.316 1.01 2.402 2.34 3.259 3.993.887 1.622 1.576 3.458 2.065 5.508.49 2.02.842 4.054 1.056 6.104a48.43 48.43 0 0 1 .367 5.83c.031 1.836 0 3.365-.092 4.59zm-9.776.092V41.7a76.159 76.159 0 0 0 0-3.764 37.652 37.652 0 0 0-.275-3.763c-.153-1.255-.398-2.372-.735-3.35-.306-.98-.749-1.76-1.331-2.342-.551-.612-1.27-.918-2.157-.918-.979 0-1.805.383-2.479 1.148-.673.734-1.224 1.698-1.652 2.892-.428 1.162-.765 2.478-1.01 3.947a73.943 73.943 0 0 0-.505 4.36c-.091 1.438-.153 2.8-.183 4.085v3.03c0 1.805.076 3.503.229 5.094.184 1.56.459 2.938.826 4.131.398 1.193.888 2.142 1.469 2.846.612.673 1.331 1.01 2.157 1.01.98 0 1.821-.46 2.525-1.378.704-.918 1.27-2.096 1.698-3.534.459-1.468.796-3.105 1.01-4.91.214-1.806.352-3.611.413-5.417zm39.921 21.894c-2.846.979-5.447 1.621-7.803 1.928-2.326.306-4.238.459-5.737.459-1.867 0-3.504-.368-4.912-1.102a12.163 12.163 0 0 1-3.671-2.938c-1.01-1.224-1.852-2.631-2.525-4.222a30.812 30.812 0 0 1-1.606-5.095 45.48 45.48 0 0 1-.872-5.37 62.632 62.632 0 0 1-.23-5.187c0-4.039.321-7.757.964-11.153.643-3.427 1.576-6.38 2.8-8.858 1.224-2.479 2.738-4.407 4.544-5.784 1.805-1.407 3.855-2.11 6.15-2.11 1.897 0 3.626.473 5.187 1.422 1.56.948 2.891 2.402 3.993 4.36 1.101 1.959 1.943 4.453 2.524 7.482.612 2.999.918 6.563.918 10.694 0 1.163-.03 2.34-.092 3.534a53.663 53.663 0 0 1-.229 3.718l-16.248 2.157c.122 1.133.306 2.203.551 3.213.275 1.01.627 1.913 1.055 2.708.459.765.995 1.377 1.607 1.836.612.46 1.361.689 2.249.689 1.652 0 3.304-.092 4.957-.276 1.652-.214 3.381-.459 5.186-.734l1.24 8.629zm-17.121-23.867 7.62-1.423v-1.744c0-2.601-.199-4.606-.597-6.013-.398-1.438-.826-2.494-1.285-3.167-.551-.796-1.178-1.255-1.882-1.377-.887.092-1.591.505-2.111 1.24-.521.734-.918 1.682-1.194 2.845-.245 1.132-.398 2.417-.459 3.855a102.881 102.881 0 0 0-.092 4.36v1.424zm37.075-36.857a353.47 353.47 0 0 0-.642 7.252 527.474 527.474 0 0 0-.505 6.977 134.83 134.83 0 0 1 3.442-.138 71.378 71.378 0 0 0 3.534-.276l-.321 9.318a68.135 68.135 0 0 0-3.58-.092h-3.534c-.245 4.406-.428 8.72-.551 12.944-.092 4.192-.138 8.43-.138 12.713 0 2.203.016 4.422.046 6.656.062 2.203.123 4.437.184 6.7l-10.098.184c.215-6.578.398-13.08.551-19.506.153-6.457.23-12.96.23-19.507l-3.535.183c-1.193.03-2.371.092-3.534.184l.367-10.052c1.071.153 2.173.275 3.305.367 1.132.092 2.234.169 3.305.23 0-2.387-.031-4.728-.092-7.023a280.806 280.806 0 0 0-.184-7.022l11.75-.092zm24.224 0a353.602 353.602 0 0 0-.643 7.252 545.057 545.057 0 0 0-.505 6.977c1.163-.062 2.311-.107 3.443-.138a71.567 71.567 0 0 0 3.534-.276l-.321 9.318a68.173 68.173 0 0 0-3.581-.092h-3.534c-.244 4.406-.428 8.72-.55 12.944-.092 4.192-.138 8.43-.138 12.713 0 2.203.015 4.422.046 6.656l.183 6.7-10.097.184c.214-6.578.397-13.08.55-19.506.153-6.457.23-12.96.23-19.507l-3.534.183c-1.194.03-2.372.092-3.534.184l.367-10.052c1.071.153 2.172.275 3.304.367 1.133.092 2.234.169 3.305.23 0-2.387-.03-4.728-.092-7.023a276.03 276.03 0 0 0-.183-7.022l11.75-.092zm22.249.964c0 .949-.152 1.836-.458 2.662a6.006 6.006 0 0 1-1.377 2.111c-.612.582-1.393 1.04-2.341 1.377-.918.337-2.004.505-3.259.505-1.377 0-2.54-.168-3.488-.505-.918-.336-1.683-.795-2.295-1.377a5.76 5.76 0 0 1-1.285-2.11A9.322 9.322 0 0 1 209.615 7c0-.918.138-1.775.413-2.57a5.713 5.713 0 0 1 1.286-2.158c.612-.612 1.392-1.086 2.34-1.422.949-.368 2.081-.551 3.397-.551 1.316 0 2.433.183 3.351.55.948.337 1.713.811 2.294 1.423a5.452 5.452 0 0 1 1.332 2.158c.306.795.458 1.652.458 2.57zm-2.753 13.356a119.338 119.338 0 0 0-.459 5.416c-.123 1.928-.23 3.932-.322 6.013-.091 2.05-.153 4.146-.183 6.288a425.182 425.182 0 0 0-.046 6.242c0 2.387.015 4.697.046 6.931.061 2.203.122 4.238.183 6.105.092 1.866.184 3.518.276 4.957.122 1.438.26 2.555.413 3.35-1.224 0-2.494.03-3.81.092-1.132.061-2.402.138-3.809.23-1.408.091-2.815.229-4.223.413.52-5.508.872-10.542 1.056-15.101.183-4.59.275-8.705.275-12.347 0-3.12-.061-5.844-.184-8.17a165.275 165.275 0 0 0-.321-5.966c-.122-1.898-.275-3.52-.459-4.866 1.714.215 3.274.352 4.682.413 1.438.062 2.677.092 3.718.092h1.331c.397 0 .734-.015 1.009-.046.337 0 .612-.015.827-.046zm23.213 47.368a184.733 184.733 0 0 0 1.423-14.963c.306-5.05.459-10.343.459-15.881 0-1.867-.122-3.35-.367-4.452-.245-1.133-.566-1.99-.964-2.57-.398-.613-.826-.995-1.285-1.148a3.577 3.577 0 0 0-1.331-.275c-.612 0-1.194.107-1.744.32-.521.215-1.01.628-1.469 1.24-.459.612-.888 1.469-1.285 2.57-.367 1.102-.689 2.555-.964 4.36-.276 1.806-.49 4.01-.643 6.61-.122 2.57-.183 5.646-.183 9.226v7.986c.03 1.255.046 2.372.046 3.35.03.95.076 1.622.137 2.02l-10.373-.092c.092-2.784.153-5.263.184-7.435.061-2.203.107-4.223.138-6.059.03-1.836.045-3.55.045-5.14.031-1.622.046-3.213.046-4.774 0-1.407-.015-2.846-.046-4.314 0-1.5-.015-3.106-.045-4.82 0-1.713-.031-3.58-.092-5.6-.031-2.05-.077-4.314-.138-6.792l10.74-.276-.183 4.682c.826-1.56 1.713-2.8 2.662-3.718.948-.948 1.882-1.683 2.8-2.203.948-.52 1.866-.857 2.753-1.01.888-.183 1.683-.275 2.387-.275 1.897 0 3.458.658 4.682 1.974 1.224 1.315 2.188 3.075 2.891 5.278.735 2.172 1.24 4.666 1.515 7.481.275 2.816.413 5.738.413 8.767 0 2.203-.061 4.437-.183 6.701a233.623 233.623 0 0 1-.368 6.701 190.146 190.146 0 0 1-.459 6.334c-.153 2.02-.29 3.902-.413 5.646l-10.786.55z" fill="url(#a)"/><path d="m11.32 1.723 7.975.63.68-8.63H11.32v8zm-1.102 17.303-7.99-.384-.002.02v.02l7.992.344zm-.505 17.12-7.999-.128 15.478 2.968-7.479-2.84zm6.105-17.166 7.593 2.518.004-.012-7.597-2.506zM21.37 1.54l.583-7.98-6.357-.464-1.873 6.093 7.647 2.35zm10.052.733 7.345 3.17 4.457-10.329-11.22-.82-.582 7.98zm-7.436 18.084-7.45-2.912 7.45 2.912zm-6.655 18.314L9.75 36.119 8.847 38.8l.985 2.653 7.5-2.783zm5.875 14.274-7.284 3.307.004.01.004.008 7.276-3.325zm6.747 13.724.895 7.95 11.647-1.312L37.03 62.94l-7.077 3.73zm-10.19 1.147-7.589 2.53 2.049 6.145 6.436-.725-.895-7.95zm-4.773-13.218-7.46 2.89.004.008.003.009 7.453-2.907zM9.621 41.7l7.306-3.259-15.306 3.26h8zm.276 25.657-.078 8 8.305.08-.23-8.302-7.997.222zm-9.455-.091-7.997-.236-.24 8.156 8.159.08.078-8zm.504-51.407-7.999.105v.027l.001.026 7.998-.158zM.716 1.723v-8h-8.155l.157 8.154 7.999-.154zm2.628-.63a572.955 572.955 0 0 0-1.117 17.549l15.982.769c.271-5.639.633-11.325 1.086-17.059L3.345 1.093zm-1.119 17.59a643.72 643.72 0 0 0-.511 17.335l15.998.257c.09-5.65.257-11.286.498-16.905l-15.985-.687zm14.967 20.303a434.487 434.487 0 0 0 6.219-17.488L8.224 16.463a418.425 418.425 0 0 1-5.99 16.844l14.958 5.68zm6.223-17.5a903.697 903.697 0 0 0 5.603-17.597l-15.294-4.7A888.532 888.532 0 0 1 8.22 16.475l15.195 5.011zM20.788 9.518l10.052.734 1.166-15.957-10.052-.735-1.166 15.958zm3.29-10.414a571.065 571.065 0 0 0-7.542 18.341l14.902 5.825a554.932 554.932 0 0 1 7.33-17.827L24.078-.896zm-7.542 18.341A414.833 414.833 0 0 0 9.75 36.12l15.164 5.104a398.829 398.829 0 0 1 6.524-17.953l-14.902-5.825zM9.832 41.454c1.87 5.04 3.9 9.972 6.09 14.798l14.57-6.614a210.01 210.01 0 0 1-5.66-13.75l-15 5.566zM15.93 56.27A279.103 279.103 0 0 0 22.877 70.4l14.155-7.46a263.05 263.05 0 0 1-6.548-13.319L15.93 56.27zm13.128 2.45-10.19 1.147 1.791 15.9 10.19-1.148-1.791-15.9zm-1.705 6.567a288.083 288.083 0 0 0-4.91-13.597L7.538 57.505a272.134 272.134 0 0 1 4.637 12.841l15.18-5.06zm-4.903-13.579a287.271 287.271 0 0 0-5.524-13.267L2.315 44.96a271.216 271.216 0 0 1 5.216 12.528l14.92-5.779zM1.621 41.7v5.692h16V41.7h-16zm0 5.692c0 6.774.093 13.503.279 20.188l15.994-.445a711.079 711.079 0 0 1-.273-19.743h-16zm8.353 11.966L.52 59.266l-.155 16 9.455.091.155-16zM8.438 67.5c.184-6.268.338-12.52.461-18.758l-15.997-.316c-.122 6.186-.274 12.387-.457 18.603l15.993.47zM8.9 48.743c.123-6.265.185-12.56.185-18.885h-16c0 6.221-.06 12.41-.182 18.57l15.997.315zm.185-18.885c0-4.733-.046-9.453-.14-14.157l-15.996.316c.09 4.598.136 9.212.136 13.841h16zm-.138-14.103c-.062-4.699-.138-9.428-.23-14.187l-15.998.31c.092 4.726.168 9.421.23 14.086l15.998-.21zM.716 9.723H11.32v-16H.716v16zM59.87 53.267l-8-.102V53.216l8 .05zm-.275 15.1-.46 7.987 8.216.472.24-8.225-7.996-.234zm-7.987-.459h-8v7.554l7.541.433.46-7.987zm0-6.196h8V30.839L44.614 57.827l6.993 3.885zm-3.12 3.81 4.745 6.44.054-.04.054-.04-4.854-6.36zm-3.306 1.927 2.972 7.428.037-.015.038-.015-3.047-7.398zm-3.625.826v8h.205l.204-.01-.41-7.99zm-4.131-.964-3.712 7.087.066.035.068.034 3.578-7.156zm-5.6-6.425-7.523 2.72.035.098.038.097 7.45-2.915zm.321-9.593-7.305-3.261-.014.03-.013.031 7.332 3.2zm3.856-4.636 4.851 6.361.02-.014.018-.015-4.89-6.332zm6.288-4.681-4.618-6.533 4.618 6.533zm4.406-3.397 5.246 6.04.005-.005.006-.005-5.257-6.03zm2.616-2.937-6.82-4.18-.02.031-.02.033 6.86 4.116zm-.137-7.757-6.657 4.437.032.048.032.047 6.593-4.532zm-4.407-.964 4.731 6.451.035-.025.034-.026-4.8-6.4zm-1.147 1.377-7.08-3.726-.038.074-.038.074 7.156 3.578zm-.643 1.882-7.817-1.7-.03.134-.024.135 7.871 1.43zm-.137 3.534-7.988.444.012.22.025.22 7.95-.884zm.321 1.744.14 7.999 10.062-.175-2.44-9.764-7.762 1.94zm-10.557.184-7.945.934.846 7.19 7.238-.126-.139-7.998zm-.137-1.47-7.985.5.001.016.001.017 7.983-.532zm.918-7.022 7.55 2.643.007-.02.007-.018-7.564-2.605zm2.8-4.957-6.084-5.196-.004.006-.005.005 6.092 5.185zm4.543-3.534-3.577-7.155 3.577 7.155zm13.127.551-4.726 6.455.065.047.066.046 4.595-6.548zm3.948 4.865-7.325 3.218.02.047.022.046 7.283-3.31zm1.744 6.885-7.964.758.005.052.005.052 7.954-.862zm-9.914 20.792 7.798 1.783.025-.107.021-.107-7.844-1.569zm.413-2.616-7.914-1.173-.013.09-.011.09 7.938.993zm.321-2.984 7.975.63v-.008l.001-.008-7.976-.614zm.23-3.993 7.993.333 1.101-26.44-15.564 21.402 6.47 4.705zm-3.994 4.406 5.095 6.168.17-.14.162-.15-5.427-5.878zm-2.249 1.974 5.3 5.992.064-.056.063-.058-5.427-5.878zm-2.203 2.25-6.107-5.169-.059.07-.057.071 6.223 5.027zM40.5 53.266l-7.052-3.778-.025.047-.025.048 7.102 3.683zm.23 4.819-6.273 4.966.052.065.053.064 6.167-5.095zm4.13.505-3.7-7.093-.066.034-.065.036 3.831 7.023zm1.974-1.56-5.787-5.524-.067.07-.066.072 5.92 5.381zm5.127-18.268c0 4.8-.03 9.602-.091 14.402l15.998.203c.062-4.869.093-9.737.093-14.605h-16zm-.092 14.453a651.51 651.51 0 0 1-.272 14.917l15.993.468a668.32 668.32 0 0 0 .279-15.284l-16-.101zm8.184 7.164-7.987-.459-.918 15.974 7.987.459.918-15.974zm-.446 7.528v-6.196h-16v6.196h16zM44.614 57.827c-.533.959-.91 1.28-.981 1.335l9.707 12.72c2.254-1.722 3.957-3.939 5.26-6.285l-13.986-7.77zm-.873 1.254c-.778.573-1.31.85-1.605.97l6.091 14.796c1.787-.736 3.457-1.744 5.005-2.885L43.74 59.08zm-1.53.94c-.491.197-.837.253-1.065.265l.82 15.979c2.157-.11 4.23-.605 6.187-1.388L42.21 60.021zm-.655.254c-.256 0-.405-.044-.554-.119l-7.155 14.31a17.109 17.109 0 0 0 7.709 1.81v-16zm-.42-.05a3.31 3.31 0 0 1-1-.796L28.012 69.87a19.307 19.307 0 0 0 5.7 4.53l7.425-14.174zm-1-.796a4.953 4.953 0 0 1-.861-1.459l-14.9 5.83a20.947 20.947 0 0 0 3.637 6.07l12.124-10.44zm-.788-1.264a4.992 4.992 0 0 1-.303-1.731h-16c0 2.457.421 4.862 1.257 7.173l15.046-5.442zm-.303-1.731c0-.586.116-1.213.434-1.941l-14.665-6.4c-1.151 2.638-1.77 5.438-1.77 8.34h16zm.406-1.88c.116-.26.44-.801 1.402-1.536L31.15 40.296c-2.647 2.02-4.895 4.568-6.309 7.736l14.61 6.522zm1.44-1.565c2.36-1.823 4.362-3.311 6.017-4.48l-9.236-13.066c-1.895 1.34-4.086 2.972-6.56 4.882l9.78 12.664zm6.017-4.48c1.911-1.352 3.607-2.65 5.034-3.89L41.45 32.54c-.9.78-2.14 1.746-3.779 2.904l9.236 13.065zm5.045-3.9c1.552-1.353 3.085-2.96 4.22-4.851l-13.72-8.232c.03-.052-.007.021-.182.218a9.405 9.405 0 0 1-.832.805l10.514 12.06zm4.18-4.787c1.429-2.33 2.051-4.892 2.051-7.44h-16c0-.024.004-.146.054-.335.052-.192.137-.396.254-.586l13.641 8.361zm2.051-7.44c0-2.625-.385-6.074-2.417-9.03l-13.185 9.065a3.646 3.646 0 0 1-.374-.682c-.064-.155-.083-.244-.082-.239.001.004.017.076.032.231a7 7 0 0 1 .026.656h16zm-2.353-8.935c-1.979-2.968-5.237-5.077-9.319-5.077v16c-.723 0-1.607-.18-2.464-.668-.826-.47-1.304-1.041-1.53-1.38l13.313-8.875zm-9.319-5.077c-2.22 0-4.53.64-6.544 2.15l9.6 12.8c-1.034.777-2.18 1.05-3.055 1.05v-16zm-6.474 2.1c-1.58 1.158-2.712 2.611-3.496 4.102L50.7 32.024c-.172.328-.54.863-1.2 1.348L40.037 20.47zm-3.572 4.25a15.977 15.977 0 0 0-1.305 3.76l15.635 3.4a1.544 1.544 0 0 1 .029-.113s-.014.04-.049.109l-14.31-7.156zm-1.359 4.029a19.271 19.271 0 0 0-.312 3.45h16c0-.185.016-.38.054-.588l-15.742-2.862zm-.312 3.45c0 .633.02 1.288.058 1.959l15.975-.888a19.516 19.516 0 0 1-.033-1.07h-16zm.095 2.398c.105.952.283 1.888.51 2.801l15.523-3.88a5.323 5.323 0 0 1-.131-.688L34.89 34.597zm8.133-7.138-10.557.184.278 15.997 10.557-.183-.278-15.998zm-2.473 7.248c-.047-.404-.08-.759-.1-1.066l-15.965 1.064c.041.61.1 1.235.175 1.871l15.89-1.87zm-.098-1.033c-.02-.335-.03-.642-.03-.924h-16c0 .636.02 1.277.061 1.922l15.969-.998zm-.03-.924c0-.974.162-1.948.515-2.957l-15.102-5.285a24.84 24.84 0 0 0-1.413 8.242h16zm.528-2.995c.332-.966.78-1.734 1.328-2.377l-12.185-10.37c-1.9 2.234-3.319 4.77-4.272 7.538l15.129 5.209zm1.318-2.366a6.343 6.343 0 0 1 2.039-1.574l-7.155-14.311a22.337 22.337 0 0 0-7.05 5.493L42.268 27.39zm2.039-1.574c.502-.251 1.28-.487 2.527-.487v-16c-3.342 0-6.635.652-9.682 2.176l7.155 14.31zm2.527-.487c1.926 0 2.404.415 2.296.337l9.452-12.91c-3.534-2.588-7.739-3.427-11.748-3.427v16zm2.427.43c.504.354.897.805 1.218 1.535l14.649-6.436c-1.454-3.309-3.692-6.101-6.676-8.195L49.26 25.758zm1.26 1.628c.496 1.092.889 2.503 1.063 4.332l15.928-1.517c-.316-3.31-1.086-6.49-2.425-9.436l-14.566 6.62zm1.073 4.436a64.34 64.34 0 0 1 .367 6.94h16a80.35 80.35 0 0 0-.46-8.665l-15.907 1.725zm5.884 21.499c.2-.998.366-2.068.507-3.193l-15.877-1.984a28.72 28.72 0 0 1-.319 2.039l15.69 3.138zm.482-3.013c.157-1.06.282-2.247.383-3.526l-15.95-1.26a37.098 37.098 0 0 1-.26 2.441l15.827 2.345zm.384-3.542c.1-1.305.182-2.732.247-4.274l-15.987-.666c-.058 1.395-.13 2.631-.212 3.713l15.952 1.227zm-14.216-9.312c-.37.508-.688.903-.952 1.202l11.997 10.586a32.42 32.42 0 0 0 1.894-2.377l-12.94-9.411zm-.952 1.202c-.373.423-.687.757-.943 1.013l11.313 11.314a38.397 38.397 0 0 0 1.627-1.74L43.176 38.655zm-.943 1.013a36.91 36.91 0 0 1-1.055 1.018l10.853 11.757c.49-.452.995-.94 1.515-1.461L42.233 39.669zm-.724.729a62.723 62.723 0 0 0-2.58 2.263l10.853 11.756a46.75 46.75 0 0 1 1.917-1.684L41.51 40.398zm-2.454 2.15a29.82 29.82 0 0 0-3.01 3.072L48.26 55.956c.42-.497.884-.971 1.397-1.425L39.055 42.547zm-3.126 3.213a23.877 23.877 0 0 0-2.481 3.728l14.104 7.555c.21-.393.48-.803.824-1.23L35.929 45.762zm-2.531 3.823c-.918 1.77-1.54 3.837-1.54 6.115h16c0 .688-.195 1.132-.256 1.25l-14.204-7.365zm-1.54 6.115c0 2.83 1.01 5.345 2.599 7.353l12.545-9.932c.183.232.41.59.587 1.073.18.492.268 1.009.268 1.506h-16zm2.704 7.482c1.987 2.406 4.908 3.96 8.325 3.96v-16c.703 0 1.523.154 2.334.551.797.39 1.343.896 1.676 1.299L34.562 63.18zm8.325 3.96c2.217 0 4.182-.642 5.804-1.527l-7.662-14.046c.276-.15.925-.426 1.858-.426v16zm5.674-1.458c1.65-.86 3.038-2.002 4.192-3.271L40.914 51.649c-.07.077.002-.024.246-.15l7.4 14.184zm4.06-3.129a19.206 19.206 0 0 0 2.916-4l-14.01-7.73a3.253 3.253 0 0 1-.48.683l11.574 11.047zm2.916-4a19.214 19.214 0 0 0 1.895-5.02L41.835 49.97a3.257 3.257 0 0 1-.307.856l14.009 7.73zm37.23-38.105 7.993-.333-.311-7.474-7.478-.19-.204 7.997zm.643 19.966-7.998.183v.038l7.998-.221zM90.93 79.061l-6.829-4.166-.015.025-.016.026 6.86 4.115zm-4.727 3.902-2.797-7.495-.049.018-.049.019 2.895 7.458zm-14.045.964-.547 7.981.547-7.981zm-7.62-.78-7.994-.293-.266 7.293 7.237.934 1.024-7.934zm.368-10.052.547-7.982-8.24-.564-.302 8.254 7.995.292zm10.327.596.532-7.982-.056-.004-.056-.002-.42 7.988zm5.462-.137-2.257-7.675-.205.06-.2.07 2.662 7.545zm1.24-.918-6.291-4.943-.193.246-.173.26 6.656 4.437zm.871-7.528 7.945-.934-2.54-21.595L76.15 60.671l6.656 4.437zm-1.698 1.745-4.438-6.657-.075.05-.075.053 4.588 6.554zm-3.626 1.468-.838-7.956-.24.026-.237.04 1.315 7.89zm-10.97-5.508-7.23 3.425.025.052.025.05 7.18-3.527zm-1.698-6.104-7.933 1.03.001.014 7.932-1.044zm-.505-9.914h-8v.307l.024.306 7.976-.613zm-.046-.78h-8v1.298l.41 1.231 7.59-2.53zm0-.092h-8l15.96.796-7.96-.796zm.046-.46 7.96.797.004-.036.003-.036-7.967-.724zm.826-13.493-7.986-.47-.002.037-.002.037 7.99.396zm.643-11.888.69-7.97-8.258-.715-.422 8.278 7.99.407zM76.38 21l-.69 7.97.345.03h.345v-8zm-.183 1.79-7.874-1.413-.015.082-.013.083 7.902 1.248zm-.689 5.003-7.936-1.006-.006.049-.006.049 7.948.908zm-.78 23.5-7.926 1.088.013.088.013.088 7.9-1.264zm2.387 5.92-5.122 6.147.184.153.192.141 4.746-6.44zm4.957-2.202 7.377 3.094.01-.021.008-.021-7.395-3.052zm1.147-10.098h-8v.363l.033.361 7.967-.724zm-.046-1.56h-8v.181l.009.182 7.991-.364zm-.367-7.069-7.99.4.004.07.005.071 7.981-.54zm-.367-6.655L74.449 30l.002.049.003.049 7.986-.47zm-.505-9.455.203-7.998-8.696-.22.507 8.684 7.986-.466zm2.84.608c.272 6.559.485 13.164.637 19.816l15.996-.366c-.154-6.75-.37-13.456-.648-20.116l-15.986.666zm.638 19.853c.181 6.595.272 13.33.272 20.205h16c0-7.017-.093-13.898-.278-20.645l-15.994.44zm.272 20.205c0 4.216-.177 7.55-.49 10.08l15.879 1.964c.421-3.407.611-7.448.611-12.044h-16zm-.49 10.08c-.281 2.273-.776 3.455-1.093 3.975l13.658 8.333c1.886-3.09 2.861-6.683 3.314-10.344l-15.88-1.965zm-1.124 4.026c-.147.245-.271.375-.664.522L89 90.458c3.708-1.383 6.735-3.854 8.791-7.28l-13.72-8.232zm-.761.559c-.773.3-2.384.651-5.23.651v16c3.885 0 7.69-.443 11.018-1.735L83.31 75.505zm-5.23.651c-1.486 0-3.271-.067-5.375-.21l-1.093 15.962c2.364.162 4.526.248 6.468.248v-16zm-5.375-.21c-2.037-.14-4.413-.382-7.142-.734l-2.047 15.869c2.962.382 5.666.66 8.096.827l1.093-15.963zm-.17 7.493.367-10.052-15.99-.584-.367 10.051 15.99.585zm-8.175-2.363c2.265.155 4.297.28 6.093.375l.841-15.978c-1.692-.09-3.638-.209-5.84-.36L64.36 81.076zm6.093.375 1.254.066 1.144.06 1.963.103.84-15.978-.054-.002-.028-.002-.027-.001-.112-.006-.113-.006-.115-.006-.477-.025-.249-.013h-.008l-.008-.001h-.007l-.008-.001h-.016l-.008-.001h-.008l-.064-.004-.064-.003h-.008l-.008-.001-.016-.001-.032-.002-.263-.014-.133-.007-.068-.003-.068-.004-.137-.007a47.132 47.132 0 0 0-.139-.007h-.008l-.01-.001-.017-.001-.035-.002-.07-.004-.142-.007a1571.23 1571.23 0 0 0-.662-.035l-.075-.004-.038-.002-.038-.002-.02-.001-.018-.001h-.01l-.01-.001-.019-.001-.038-.002-.038-.002h-.01l-.01-.001-.019-.001-.02-.001H72.1l-.01-.001-.019-.001h-.01l-.01-.001-.038-.002-.079-.004-.64-.034-.84 15.978zm4.249.223c1.495.1 2.874.155 4.112.155v-16c-.781 0-1.789-.036-3.048-.12l-1.064 15.965zm4.112.155c1.36 0 2.938-.164 4.544-.731L78.033 66.01a3.46 3.46 0 0 1 .644-.165c.124-.019.176-.016.137-.016v16zm4.14-.6a10.192 10.192 0 0 0 5.638-4.156l-13.313-8.875a5.727 5.727 0 0 1 1.355-1.417 5.786 5.786 0 0 1 1.805-.902l4.514 15.35zm5.272-3.65c1.415-1.801 2.014-3.782 2.3-5.268l-15.713-3.022a3.058 3.058 0 0 1 .13-.405 4.89 4.89 0 0 1 .702-1.19l12.58 9.884zm2.3-5.268c.285-1.486.373-3.068.373-4.586h-16c0 .99-.065 1.459-.086 1.564l15.712 3.022zm.373-4.586V66.53h-16V67.725h16zm0-1.194c0-.8-.057-1.592-.147-2.357l-15.89 1.87c.032.275.037.43.037.487h16zm-14.748-5.86c.013-.02.168-.24.52-.475l8.875 13.313c1.639-1.092 2.925-2.475 3.918-3.963L76.15 60.671zm.37-.372c-.174.121-.248.147-.22.136l5.943 14.855a17.102 17.102 0 0 0 3.453-1.884L76.52 60.3zm-.22.136c-.013.005.107-.045.344-.07l1.675 15.912c1.4-.147 2.714-.503 3.924-.987l-5.942-14.856zm-.133-.005a5.569 5.569 0 0 1-.238.034l.025-.001c.026-.002.078-.004.151-.004v16c.972 0 1.906-.115 2.692-.247l-2.63-15.782zm-.062.029c-1.45 0-1.77-.3-1.606-.192l-8.813 13.354c3.223 2.128 6.911 2.838 10.419 2.838v-16zm-1.606-.192c-.27-.177-.538-.435-.806-.98L59.333 66.34c1.445 2.942 3.563 5.439 6.354 7.28L74.5 60.268zm-.757-.878c-.402-.85-.776-2.052-.996-3.724l-15.864 2.088c.392 2.98 1.15 5.847 2.4 8.485l14.46-6.85zm-.995-3.71c-.256-1.977-.392-4.14-.392-6.497h-16c0 2.966.17 5.822.526 8.557l15.866-2.06zm-.392-6.497c0-1.143-.011-2.246-.07-3l-15.952 1.226c-.003-.038.005.072.012.436.006.328.01.77.01 1.338h16zm-.046-2.387c0-.285-.004-.633-.025-.986-.002-.033-.035-1.136-.431-2.324l-15.18 5.06a7.656 7.656 0 0 1-.322-1.395 5.63 5.63 0 0 1-.04-.402c-.005-.093-.002-.096-.002.047h16zm-.046-.78V45.911h-16V45.923h16V45.911h-16V46.015h16zm-8-.092 7.96.796v-.004l.001-.003.002-.022c.01-.102-.007.071.004-.036l.005-.05.014-.143.02-.201-15.92-1.592-.003.028v.007l-.001.003v.004l-.002.013-.005.052-.005.049-.004.045-.008.078-.007.065-.008.086v.006l-.001.002v.005l-.001.009v.005l-.001.001 7.96.797zm8.013.265c.04-.435.091-1.128.152-2.01l-15.962-1.1a96.63 96.63 0 0 1-.124 1.662l15.934 1.448zm.152-2.01c.062-.906.155-2.313.278-4.212l-15.967-1.03c-.123 1.896-.213 3.273-.273 4.142l15.962 1.1zm.278-4.212c.126-1.953.266-4.492.42-7.6l-15.98-.792a516.975 516.975 0 0 1-.407 7.362l15.967 1.03zm.416-7.526c.185-3.15.4-7.136.645-11.95l-15.979-.815c-.244 4.793-.457 8.733-.639 11.825l15.973.94zm-8.034-4.388 10.602.918 1.38-15.94-10.602-.918-1.38 15.94zM76.38 29a7.979 7.979 0 0 1-7.502-5.27c-.398-1.107-.438-2.025-.447-2.208a6.65 6.65 0 0 1 .014-.89c.002-.015-.023.19-.122.745l15.748 2.826c.114-.638.228-1.328.29-1.94.025-.236.086-.848.05-1.56-.014-.259-.063-1.232-.474-2.378C83.71 17.69 81.855 13 76.381 13v16zm-8.085-7.458a185.297 185.297 0 0 0-.723 5.245l15.873 2.012c.272-2.148.49-3.72.654-4.761l-15.804-2.496zm-.735 5.343a247.66 247.66 0 0 0-.76 8.02l15.948 1.29c.24-2.974.477-5.467.709-7.494L67.56 26.885zm-.76 8.02c-.265 3.284-.393 6.87-.393 10.742h16c0-3.531.117-6.678.341-9.453l-15.948-1.289zm-.393 10.742c0 2.436.117 4.703.395 6.734l15.852-2.176c-.15-1.09-.247-2.587-.247-4.557h-16zm.421 6.91c.301 1.879.747 3.775 1.452 5.51l14.824-6.021c-.09-.223-.287-.836-.476-2.017l-15.8 2.528zm1.452 5.51c.675 1.663 1.788 3.688 3.713 5.293l10.243-12.292c.433.36.678.69.788.858.11.165.123.227.08.12L68.28 58.068zm4.09 5.587a11.174 11.174 0 0 0 6.672 2.202v-16a4.83 4.83 0 0 1 2.818.917l-9.49 12.881zm6.672 2.202c6.312 0 9.294-5.097 10.407-7.751l-14.755-6.188c-.155.371-.065-.029.546-.603.339-.318.851-.7 1.553-.999a5.779 5.779 0 0 1 2.25-.459v16zm10.425-7.793c1.424-3.451 1.798-7.836 1.798-12.232h-16c0 3.988-.421 5.723-.588 6.128l14.79 6.104zm1.798-12.232c0-.564-.03-1.117-.079-1.642l-15.934 1.448c.013.148.013.207.013.194h16zm-.046-.918c0-.55-.022-1.211-.054-1.924l-15.983.727c.028.634.037 1.012.037 1.197h16zm-.046-1.56c0-.91-.038-1.976-.104-3.152l-15.975.887c.057 1.027.08 1.767.08 2.264h16zM91.07 40.2a383.323 383.323 0 0 0-.281-4.458l-15.963 1.082c.12 1.79.21 3.208.269 4.263l15.975-.887zm-.273-4.316c-.093-1.867-.217-4.11-.37-6.726l-15.973.94c.152 2.586.273 4.78.363 6.585l15.98-.8zm-.366-6.628a827.405 827.405 0 0 0-.51-9.549l-15.972.932c.213 3.651.38 6.77.5 9.36l15.982-.743zm-8.7-1.086 10.833.276.407-15.995-10.833-.276-.406 15.995zm46.183 16.604-7.977-.598-.003.033-.002.033 7.982.532zm-1.79 11.567-7.695-2.188-.01.035-.009.035 7.714 2.118zm-3.121 7.573-6.753-4.288-.01.014-.008.014 6.771 4.26zm-8.399 5.324-1.132 7.92.563.08h.569v-8zm-2.02-.734 3.937-6.965-.041-.023-.04-.022-3.856 7.01zm-2.111-1.515-5.285 6.006.058.051.059.05 5.168-6.107zm-2.387-2.754 6.522-4.633-14.522-20.438v25.071h8zm0 4.315v8h8v-8h-8zm-9.088 0h-8v8h8v-8zm0-65.13v-8h-8v8h8zm11.429 0 7.988.438.463-8.438h-8.451v8zm-1.01 18.405-7.988-.438-1.624 29.604 16.296-24.769-6.684-4.397zm2.387-2.616 4.604 6.542.023-.016.023-.016-4.65-6.51zm2.341-1.377-3.019-7.409-.086.035-.085.037 3.19 7.337zm2.432-.597v-8h-.307l-.306.024.613 7.976zm4.682 1.515-4.943 6.29.036.029.037.027 4.87-6.346zm3.259 3.993-7.102 3.683.041.079.043.078 7.018-3.84zm2.065 5.508-7.781 1.858.003.014.003.013 7.775-1.885zm1.056 6.104-7.957.832.007.066.008.065 7.942-.963zm.367 5.83h-8v.066l.001.067 7.999-.134zm-9.868 4.681 7.995.271.005-.135v-.136h-8zm0-3.167-7.998-.2-.002.1v.1h8zm-.275-7.527-7.942.968.002.012.001.012 7.939-.992zm-.735-3.35-7.636 2.386.034.107.037.107 7.565-2.6zm-1.331-2.342-5.946 5.352.141.157.148.148 5.657-5.657zm-4.636.23 5.898 5.406.054-.06.054-.061-6.006-5.285zm-1.652 2.892 7.507 2.765.011-.031.012-.032-7.53-2.703zm-1.01 3.947-7.891-1.315-.013.08-.012.08 7.916 1.155zm-.505 4.36-7.971-.678-.007.084-.005.085 7.983.51zm-.183 4.085-7.998-.19-.002.095v.095h8zm.229 8.124-7.963.766.008.084.01.085 7.945-.935zm.826 4.131-7.646 2.353.028.089.029.088 7.589-2.53zm1.469 2.846-6.167 5.095.12.146.128.14 5.919-5.381zm6.38-3.902-7.636-2.386-.016.051-.015.051 7.667 2.284zm1.01-4.91-7.944-.943 7.944.942zm2.207-6.04c-.283 4.24-.818 7.501-1.503 9.91l15.39 4.376c1.09-3.834 1.748-8.284 2.078-13.223l-15.965-1.064zm-1.522 9.98c-.727 2.647-1.5 4.362-2.16 5.403l13.507 8.576c1.787-2.815 3.095-6.148 4.082-9.744l-15.429-4.235zm-2.178 5.431c-.71 1.128-1.156 1.38-1.144 1.372l7.844 13.946c2.95-1.66 5.166-4.132 6.843-6.798l-13.543-8.52zm-1.144 1.372a2.13 2.13 0 0 1-.447.201c-.057.016-.063.011-.037.011v16c3.034 0 5.841-.867 8.328-2.266l-7.844-13.946zm.647.293c.553.079.827.244.786.22l-7.873 13.93c1.366.771 2.986 1.426 4.824 1.689l2.263-15.84zm.705.175c.03.017-.028-.013-.179-.121a10.281 10.281 0 0 1-.621-.49l-10.335 12.213c1.025.867 2.178 1.733 3.424 2.418l7.711-14.02zm-.682-.51c-.158-.14-.552-.54-1.15-1.382l-13.043 9.267c1.053 1.483 2.251 2.919 3.623 4.126l10.57-12.011zm-15.672 3.251v4.315h16v-4.315h-16zm8-3.685h-9.088v16h9.088v-16zm-1.088 8V3.42h-16v65.13h16zm-8-57.13h11.429v-16H98.998v16zm3.441-8.438-1.01 18.405 15.976.876 1.01-18.405-15.976-.876zm13.662 23.24c.191-.29.327-.455.397-.531.069-.076.045-.034-.09.06L107.2 12.668c-1.895 1.333-3.343 3.055-4.466 4.761l13.367 8.794zm.353-.503c.556-.397.841-.533.881-.55l-6.38-14.674c-1.368.595-2.643 1.377-3.801 2.204l9.3 13.02zm.709-.478c.076-.031.114-.04.115-.04.001-.001-.03.006-.087.01L115.964 9.26a16.072 16.072 0 0 0-4.838 1.164l6.037 14.818zm-.586-.006c.181 0 .189.024.085-.01a1.169 1.169 0 0 1-.346-.185l9.886-12.58c-2.868-2.254-6.229-3.225-9.625-3.225v16zm-.188-.139c.277.214.643.59 1.027 1.33l14.204-7.365c-1.33-2.566-3.137-4.851-5.49-6.658l-9.741 12.694zm1.111 1.487c.502.918.955 2.073 1.302 3.526l15.562-3.716c-.632-2.647-1.556-5.164-2.828-7.49l-14.036 7.68zm1.308 3.553c.407 1.675.697 3.358.874 5.05l15.914-1.662a54.37 54.37 0 0 0-1.238-7.158l-15.55 3.77zm.889 5.182c.21 1.728.309 3.349.309 4.866h16c0-2.215-.145-4.48-.425-6.791l-15.884 1.925zm.31 5c.029 1.698-.003 2.965-.07 3.858l15.955 1.197c.117-1.555.146-3.349.113-5.322l-15.998.267zm6.131 4.548V41.7h-16V44.867h16zm-.003-2.967a85.84 85.84 0 0 0 .001-4.154l-15.996.38a67.73 67.73 0 0 1 0 3.374l15.995.4zm.001-4.154a45.801 45.801 0 0 0-.335-4.565l-15.877 1.984c.119.947.192 1.934.216 2.962l15.996-.38zm-.332-4.542c-.207-1.693-.557-3.373-1.11-4.982l-15.131 5.2c.12.35.259.904.358 1.72l15.883-1.938zm-1.04-4.768c-.598-1.913-1.615-3.917-3.31-5.611L110.14 34.138c-.532-.532-.662-.974-.648-.93l15.272-4.772zm-3.02-5.306c-2.196-2.44-5.147-3.566-8.104-3.566v16a4.97 4.97 0 0 1-1.928-.41 5.312 5.312 0 0 1-1.861-1.32l11.893-10.704zm-8.104-3.566c-3.383 0-6.363 1.451-8.484 3.862l12.011 10.57a4.61 4.61 0 0 1-1.52 1.114 4.823 4.823 0 0 1-2.007.453v-16zm-8.376 3.741c-1.558 1.7-2.591 3.663-3.284 5.595l15.059 5.406a2.42 2.42 0 0 1 .15-.352c.014-.024-.022.045-.13.163l-11.795-10.812zm-3.262 5.532c-.632 1.716-1.083 3.53-1.394 5.398l15.782 2.63c.179-1.07.401-1.887.626-2.497l-15.014-5.531zm-1.419 5.558a81.506 81.506 0 0 0-.56 4.837l15.943 1.357c.108-1.275.258-2.57.45-3.885l-15.833-2.309zm-.572 5.006c-.098 1.531-.164 3-.198 4.404l15.996.38c.027-1.166.083-2.42.169-3.765l-15.967-1.02zm-.2 4.594V47.024h16V43.995h-16zm0 3.03c0 2.028.086 3.984.266 5.86l15.927-1.532a45.24 45.24 0 0 1-.193-4.329h-16zm.284 6.029c.226 1.924.585 3.792 1.125 5.549l15.293-4.706c-.194-.63-.387-1.516-.527-2.713l-15.891 1.87zm1.182 5.726c.6 1.8 1.493 3.719 2.891 5.41L116.503 54c.128.156.164.237.138.187a3.454 3.454 0 0 1-.185-.467l-15.179 5.06zm3.139 5.697c1.957 2.153 4.754 3.629 8.076 3.629v-16a5.3 5.3 0 0 1 2.233.502c.728.34 1.228.774 1.53 1.106l-11.839 10.763zm8.076 3.629c3.935 0 6.965-2.02 8.874-4.51l-12.698-9.735c.19-.248.618-.719 1.359-1.123a5.197 5.197 0 0 1 2.465-.633v16zm8.874-4.51c1.444-1.884 2.388-4.01 3.016-6.118l-15.334-4.568c-.229.768-.417.999-.38.951l12.698 9.735zm2.985-6.015c.63-2.015 1.056-4.146 1.318-6.355l-15.888-1.885c-.167 1.4-.413 2.545-.702 3.467l15.272 4.773zm1.318-6.355c.241-2.027.396-4.056.464-6.088l-15.99-.542a56.652 56.652 0 0 1-.362 4.745l15.888 1.885zm32.39 15.535 2.603 7.565 6.256-2.153-.941-6.55-7.918 1.138zm-7.803 1.928-1.03-7.934-.014.002 1.044 7.932zm-10.649-.643-3.7 7.093 3.7-7.093zm-3.671-2.938-6.171 5.091.037.046.038.045 6.096-5.182zm-2.525-4.222-7.389 3.067.011.025.01.025 7.368-3.117zm-1.606-5.095-7.807 1.75 7.807-1.75zm-.872-5.37-7.973.664.006.073.008.072 7.959-.81zm.734-16.34 7.861 1.487.002-.013-7.863-1.474zm2.8-8.858 7.173 3.542-7.173-3.542zm4.544-5.784 4.851 6.361.034-.025.034-.026-4.919-6.31zm17.854 11.154-7.856 1.508.008.046.01.046 7.838-1.6zm.826 14.228-7.989-.41-.005.103-.003.102 7.997.205zm-.229 3.718 1.053 7.93 6.308-.837.603-6.334-7.964-.759zm-16.248 2.157-1.053-7.93-7.74 1.028.839 7.762 7.954-.86zm.551 3.213-7.775 1.885.027.11.03.11 7.718-2.105zm1.055 2.708-7.043 3.793.088.164.095.16 6.86-4.117zm8.813 2.25.883 7.95.073-.008.072-.01-1.028-7.933zm5.186-.735 7.919-1.137-1.147-7.989-7.978 1.217 1.206 7.909zm-15.881-15.238h-8v9.632l9.469-1.768-1.469-7.864zm7.62-1.423 1.468 7.864 6.532-1.22v-6.644h-8zm-.597-7.757-7.711 2.133.006.021.006.021 7.699-2.175zm-1.285-3.167 6.61-4.507-.016-.023-.017-.024-6.577 4.554zm-1.882-1.377 1.371-7.882-1.092-.19-1.102.114.823 7.958zm-3.305 4.085-7.784-1.844-.018.076-.017.077 7.819 1.69zm13.967 25.941c-2.464.848-4.529 1.338-6.23 1.56l2.06 15.866c3.011-.391 6.148-1.186 9.376-2.296l-5.206-15.13zm-6.244 1.56c-2.149.284-3.68.392-4.693.392v16c1.985 0 4.279-.199 6.78-.528l-2.087-15.863zm-4.693.392c-.805 0-1.131-.153-1.211-.195l-7.401 14.186c2.735 1.427 5.683 2.008 8.612 2.008v-16zm-1.211-.195a4.163 4.163 0 0 1-1.277-1.026L129.84 70.29c1.7 2 3.734 3.632 6.067 4.849l7.401-14.186zm-1.201-.936c-.476-.577-.93-1.307-1.328-2.248l-14.736 6.234c.948 2.24 2.178 4.325 3.722 6.197l12.342-10.183zM140.8 57.82a22.836 22.836 0 0 1-1.189-3.778l-15.613 3.5a38.893 38.893 0 0 0 2.024 6.412l14.778-6.134zm-1.189-3.778a37.661 37.661 0 0 1-.719-4.43l-15.918 1.62a53.507 53.507 0 0 0 1.024 6.31l15.613-3.5zm-.706-4.284a54.657 54.657 0 0 1-.202-4.523h-16c0 1.871.088 3.823.257 5.851l15.945-1.328zm-.202-4.523c0-3.62.289-6.833.825-9.666l-15.722-2.974c-.749 3.96-1.103 8.183-1.103 12.64h16zm.827-9.679c.541-2.887 1.281-5.11 2.11-6.79l-14.346-7.085c-1.619 3.278-2.746 6.96-3.49 10.927l15.726 2.948zm2.11-6.79c.795-1.61 1.588-2.48 2.222-2.965l-9.703-12.722c-2.976 2.27-5.212 5.255-6.865 8.602l14.346 7.085zm2.29-3.017c.396-.308.714-.42 1.231-.42v-16c-4.072 0-7.855 1.296-11.069 3.802l9.838 12.618zm1.231-.42c.491 0 .773.102 1.031.26l8.311-13.673c-2.863-1.74-6.039-2.587-9.342-2.587v16zm1.031.26c.146.087.594.41 1.176 1.445l13.945-7.844c-1.621-2.882-3.834-5.465-6.81-7.274l-8.311 13.672zm1.176 1.445c.554.985 1.166 2.593 1.641 5.068l15.713-3.016c-.688-3.584-1.759-6.964-3.409-9.896l-13.945 7.844zm1.659 5.16c.475 2.326.756 5.327.756 9.094h16c0-4.495-.33-8.623-1.079-12.294l-15.677 3.2zm.756 9.094c0 1.023-.027 2.064-.081 3.125l15.979.819c.068-1.326.102-2.64.102-3.944h-16zm-.089 3.33a45.66 45.66 0 0 1-.196 3.164l15.928 1.517c.138-1.455.227-2.88.263-4.272l-15.995-.41zm6.715-4.008-16.248 2.157 2.106 15.86 16.248-2.157-2.106-15.86zM133.26 51.556c.156 1.445.396 2.86.73 4.238l15.549-3.77a17.117 17.117 0 0 1-.371-2.188l-15.908 1.72zm.787 4.458c.41 1.506.972 2.989 1.73 4.396l14.087-7.586c-.099-.184-.241-.506-.381-1.02l-15.436 4.21zm1.913 4.72c.905 1.506 2.101 2.945 3.667 4.12l9.6-12.8c.341.255.467.47.453.447l-13.72 8.232zm3.667 4.12c2.21 1.657 4.718 2.288 7.049 2.288v-16c.247 0 .637.032 1.114.178.488.15.983.393 1.437.733l-9.6 12.8zm7.049 2.288c1.949 0 3.896-.109 5.84-.325l-1.767-15.902c-1.36.151-2.718.227-4.073.227v16zm5.985-.342c1.717-.223 3.506-.476 5.365-.76l-2.413-15.817c-1.752.267-3.421.504-5.009.71l2.057 15.867zm-3.76-7.53 1.239 8.628 15.837-2.274-1.239-8.63-15.837 2.275zm-6.494-8.512 7.619-1.423-2.937-15.728-7.619 1.422 2.937 15.729zm14.151-9.287v-1.744h-16v1.744h16zm0-1.744c0-2.86-.203-5.728-.899-8.189l-15.397 4.351c.1.354.296 1.496.296 3.838h16zm-.887-8.146c-.471-1.703-1.179-3.771-2.385-5.54l-13.22 9.013c-.103-.152-.156-.253-.169-.277-.014-.027-.001-.006.031.075.07.17.182.488.322.995l15.421-4.266zm-2.418-5.588c-1.325-1.914-3.61-4.1-7.088-4.705l-2.742 15.764c-2.07-.36-3.101-1.628-3.325-1.951l13.155-9.108zm-9.282-4.78c-3.204.33-5.977 1.975-7.817 4.572l13.057 9.248a5.05 5.05 0 0 1-1.561 1.415 5.086 5.086 0 0 1-2.033.68l-1.646-15.916zm-7.817 4.572c-1.273 1.797-2.011 3.774-2.449 5.626l15.569 3.688a3.492 3.492 0 0 1 .098-.334c.004-.01-.039.096-.161.268l-13.057-9.248zm-2.484 5.78c-.361 1.667-.556 3.417-.632 5.205l15.985.68c.046-1.088.157-1.908.286-2.505l-15.639-3.38zm-.632 5.205c-.067 1.554-.1 3.12-.1 4.7h16c0-1.357.029-2.697.085-4.02l-15.985-.68zm-.1 4.7v1.424h16V41.47h-16zm45.075-35.433 7.962.786.874-8.855-8.898.07.062 8zm-.642 7.252 7.975.63.001-.008-7.976-.622zm-.505 6.977-7.983-.526-.591 8.988 8.994-.473-.42-7.99zm3.442-.138.216 7.997.103-.003.102-.005-.421-7.99zm3.534-.276 7.996.276.316-9.17-9.128.936.816 7.958zm-.321 9.318-.42 7.989 8.135.428.28-8.141-7.995-.276zm-7.114-.092v-8h-7.568l-.42 7.556 7.988.444zm-.551 12.944-7.996-.232-.001.028-.001.028 7.998.176zm-.092 19.369-7.999.11.001.056.001.056 7.997-.222zm.184 6.7.145 8 8.07-.147-.218-8.068-7.997.216zm-10.098.184-7.995-.26-.274 8.412 8.415-.153-.146-7.999zm.551-19.506 7.998.19-7.998-.19zm.23-19.507h8V20.83l-8.421.443.421 7.989zm-3.535.183.205 7.998.103-.003.102-.005-.41-7.99zm-3.534.184-7.994-.292-.328 8.974 8.952-.707-.63-7.975zm.367-10.052 1.132-7.92-8.802-1.257-.324 8.885 7.994.292zm6.61.597-.457 7.987 8.457.483v-8.47h-8zm-.092-7.023-7.999.107v.053l.002.054 7.997-.214zm-.184-7.022-.062-8-8.249.065.317 8.242 7.994-.307zm3.789-.878c-.25 2.53-.469 5.003-.657 7.417l15.952 1.243c.179-2.299.388-4.661.628-7.088l-15.923-1.572zm-.656 7.408a526.42 526.42 0 0 0-.513 7.081l15.966 1.05c.15-2.29.316-4.58.497-6.871l-15.95-1.26zm7.89 15.596c1.097-.058 2.176-.101 3.238-.13l-.432-15.994a142.81 142.81 0 0 0-3.647.146l.841 15.978zm3.443-.138a79.464 79.464 0 0 0 3.93-.306l-1.633-15.917c-1.065.11-2.111.191-3.138.245l.841 15.978zm-4.882-8.54-.321 9.317 15.99.552.322-9.318-15.991-.551zm8.095 1.604a76.085 76.085 0 0 0-4.001-.103v16c1.091 0 2.144.027 3.16.08l.841-15.977zm-4.001-.103H176.407v16H179.941v-16zm-11.522 7.556a496.624 496.624 0 0 0-.559 13.156l15.993.463c.12-4.149.301-8.392.542-12.731l-15.976-.888zm-.561 13.212c-.093 4.252-.14 8.548-.14 12.89h16c0-4.227.046-8.407.136-12.54l-15.996-.35zm-.14 12.89c0 2.24.016 4.495.047 6.764l15.999-.219a479.65 479.65 0 0 1-.046-6.546h-16zm.049 6.877c.062 2.2.123 4.433.184 6.695l15.994-.432c-.061-2.267-.122-4.502-.184-6.708l-15.994.445zm8.036-1.52-10.098.184.291 15.997 10.097-.183-.29-15.998zm-1.957 8.443c.215-6.602.399-13.127.553-19.577l-15.996-.38a2225.36 2225.36 0 0 1-.548 19.436l15.991.52zm.553-19.578c.154-6.52.232-13.086.232-19.696h-16c0 6.486-.076 12.925-.228 19.317l15.996.38zm-8.189-27.685-3.523.183.819 15.979 3.545-.184-.841-15.978zm-3.319.175a74.65 74.65 0 0 0-3.958.206l1.259 15.95a58.483 58.483 0 0 1 3.109-.161l-.41-15.995zm4.666 8.473.367-10.052-15.989-.584-.367 10.052 15.989.584zm-8.759-2.424c1.24.177 2.503.317 3.79.421l1.293-15.947a46.599 46.599 0 0 1-2.82-.313l-2.263 15.839zm3.79.421c1.191.097 2.356.178 3.494.243l.913-15.974c-1.004-.057-2.042-.13-3.114-.216l-1.293 15.947zm11.951-7.744c0-2.455-.032-4.867-.095-7.236l-15.994.427c.059 2.22.089 4.49.089 6.809h16zm-.093-7.13a281.98 281.98 0 0 0-.189-7.223l-15.988.615c.09 2.323.149 4.597.179 6.822l15.998-.213zm-8.12 1.085 11.75-.092-.125-16-11.75.092.125 16zm35.911-8.092 7.961.786.875-8.855-8.899.07.063 8zm-.643 7.252 7.975.63.001-.008-7.976-.622zm-.505 6.977-7.982-.526-.592 8.988 8.995-.473-.421-7.99zm3.443-.138.216 7.997.102-.003.102-.005-.42-7.99zm3.534-.276 7.995.276.316-9.17-9.127.936.816 7.958zm-.321 9.318-.421 7.989 8.135.428.281-8.141-7.995-.276zm-7.115-.092v-8h-7.568l-.419 7.556 7.987.444zm-.55 12.944-7.997-.232-.001.028-.001.028 7.999.176zm-.092 19.369-8 .11.001.056.002.056 7.997-.222zm.183 6.7.146 8 8.069-.147-.218-8.068-7.997.216zm-10.097.184-7.996-.26-.274 8.412 8.415-.153-.145-7.999zm.55-19.506 7.998.19-7.998-.19zm.23-19.507h8V20.83l-8.421.443.421 7.989zm-3.534.183.205 7.998.102-.003.102-.005-.409-7.99zm-3.534.184-7.995-.292-.328 8.974 8.952-.707-.629-7.975zm.367-10.052 1.131-7.92-8.801-1.257-.325 8.885 7.995.292zm6.609.597-.456 7.987 8.456.483v-8.47h-8zm-.092-7.023-7.999.107.001.053.001.054 7.997-.214zm-.183-7.022-.063-8-8.248.065.317 8.242 7.994-.307zm3.788-.878c-.249 2.53-.469 5.003-.657 7.417l15.952 1.243c.179-2.299.388-4.661.628-7.088l-15.923-1.572zm-.656 7.408c-.186 2.36-.357 4.721-.512 7.081l15.965 1.05c.151-2.29.317-4.58.497-6.871l-15.95-1.26zm7.891 15.596c1.096-.058 2.176-.101 3.238-.13l-.432-15.994c-1.203.032-2.418.081-3.647.146l.841 15.978zm3.442-.138a79.464 79.464 0 0 0 3.93-.306l-1.632-15.917c-1.066.11-2.112.191-3.139.245l.841 15.978zm-4.881-8.54-.322 9.317 15.991.552.321-9.318-15.99-.551zm8.094 1.604a76.057 76.057 0 0 0-4.001-.103v16c1.091 0 2.144.027 3.16.08l.841-15.977zm-4.001-.103H200.63v16H204.164v-16zm-11.521 7.556a492.458 492.458 0 0 0-.56 13.156l15.993.463c.12-4.149.301-8.392.542-12.731l-15.975-.888zm-.562 13.212a589.446 589.446 0 0 0-.139 12.89h16c0-4.227.045-8.407.136-12.54l-15.997-.35zm-.139 12.89c0 2.24.015 4.495.046 6.764l15.999-.219c-.03-2.198-.045-4.38-.045-6.546h-16zm.049 6.877.183 6.695 15.994-.432-.183-6.708-15.994.445zm8.035-1.52-10.098.184.291 15.997 10.098-.183-.291-15.998zm-1.957 8.443c.215-6.602.4-13.127.553-19.577l-15.995-.38c-.153 6.401-.336 12.88-.549 19.436l15.991.52zm.553-19.578c.155-6.52.232-13.086.232-19.696h-16c0 6.486-.076 12.925-.227 19.317l15.995.38zm-8.189-27.685-3.523.183.819 15.979 3.545-.184-.841-15.978zm-3.318.175a74.632 74.632 0 0 0-3.959.206l1.259 15.95a58.522 58.522 0 0 1 3.11-.161l-.41-15.995zm4.665 8.473.367-10.052-15.989-.584-.367 10.052 15.989.584zm-8.759-2.424c1.24.177 2.504.317 3.79.421l1.293-15.947a46.599 46.599 0 0 1-2.82-.313l-2.263 15.839zm3.79.421c1.192.097 2.357.178 3.495.243l.913-15.974c-1.004-.057-2.043-.13-3.115-.216l-1.293 15.947zm11.951-7.744c0-2.455-.031-4.867-.094-7.236l-15.995.427c.059 2.22.089 4.49.089 6.809h16zm-.092-7.13a291.42 291.42 0 0 0-.189-7.223l-15.988.615c.089 2.323.148 4.597.178 6.822l15.999-.213zm-8.121 1.085 11.75-.092-.125-16-11.75.092.125 16zm33.479-4.466 7.466 2.872.018-.047.018-.046-7.502-2.779zm-1.377 2.111 5.51 5.8.074-.07.072-.073-5.656-5.657zm-2.341 1.377-2.676-7.539-.039.014-.039.014 2.754 7.511zm-6.747 0-2.754 7.511.039.015.039.014 2.676-7.54zm-2.295-1.377-5.8 5.51.141.15.149.14 5.51-5.8zm-1.285-2.11-7.671 2.272.052.173.059.171 7.56-2.617zm.045-5.233 7.56 2.617.015-.044.015-.044-7.59-2.53zm1.286-2.158-5.657-5.656-.073.072-.07.074 5.8 5.51zm2.34-1.422 2.676 7.539.107-.038.105-.04L213.654.85zm6.748 0-2.972 7.427.147.06.149.052 2.676-7.54zm2.294 1.422-5.8 5.51.071.075.073.072 5.656-5.657zm1.332 2.158-7.59 2.53.058.172.065.17 7.467-2.872zm-2.295 15.926 7.952.868 1.118-10.245-10.202 1.458 1.132 7.92zm-.781 11.43 7.992.357.001-.005-7.993-.353zm-.183 6.287 7.999.116v-.002l-7.999-.114zm0 13.173-8 .11.001.056.002.056 7.997-.222zm.183 6.105-7.995.262.002.065.003.066 7.99-.393zm.276 4.957-7.984.51.005.084.008.084 7.971-.678zm.413 3.35v8h9.685l-1.829-9.51-7.856 1.51zm-3.81.092-.371-7.991-.031.001-.03.002.432 7.988zm-8.032.643-7.965-.753-.942 9.982 9.942-1.297-1.035-7.932zm1.056-15.101 7.993.322v-.002l-7.993-.32zm.091-20.517-7.993.312.002.054.003.055 7.988-.42zm-.321-5.966-7.983.515.003.043.003.044 7.977-.602zm-.459-4.866.992-7.938-10.324-1.29 1.406 10.31 7.926-1.082zm4.682.413-.348 7.993h.008l.34-7.993zm6.058.046v-8h-.443l-.44.05.883 7.95zm-4.42-13.402c0 .043-.003.046.002.018a.721.721 0 0 1 .038-.134l15.004 5.557c.659-1.782.956-3.617.956-5.441h-16zm.075-.21a2.028 2.028 0 0 1 .433-.673l11.313 11.313a14.004 14.004 0 0 0 3.187-4.896L216.561 6.79zm.58-.817c.341-.324.586-.395.493-.362l5.351 15.079c1.805-.64 3.61-1.63 5.176-3.117l-11.02-11.6zm.415-.334c.093-.034.111-.029.026-.016a3.59 3.59 0 0 1-.531.032v16c1.941 0 4.003-.257 6.013-.994L217.556 5.64zm-.505.016c-.368 0-.615-.023-.759-.043-.144-.021-.15-.035-.054-.001l-5.351 15.079c2.06.73 4.188.965 6.164.965v-16zm-.734-.016c-.053-.02.165.054.461.334l-11.02 11.6c1.519 1.444 3.268 2.435 5.051 3.088l5.508-15.022zm.751.624a2.202 2.202 0 0 1 .474.782l-15.119 5.234a13.77 13.77 0 0 0 3.045 5.004l11.6-11.02zm.585 1.126c-.005-.018-.038-.133-.038-.389h-16c0 1.641.213 3.3.697 4.935l15.341-4.546zm-.038-.389c0-.058.005-.076.002-.062a.945.945 0 0 1-.029.108l-15.119-5.233A15.799 15.799 0 0 0 201.615 7h16zm.003-.04c-.037.11-.097.25-.189.405a2.397 2.397 0 0 1-.315.417l-11.6-11.02a13.71 13.71 0 0 0-3.075 5.138l15.179 5.06zm-.648.97c-.356.355-.649.462-.64.459l-5.351-15.079c-1.888.67-3.742 1.725-5.322 3.306L216.97 7.93zm-.428.38c-.105.041-.131.037-.046.023.086-.014.265-.034.555-.034v-16c-2.028 0-4.188.279-6.284 1.09l5.775 14.921zm.509-.011c.291 0 .46.02.527.032.066.01.004.007-.148-.054l5.943-14.855c-2.119-.848-4.306-1.123-6.322-1.123v16zm.675.09c-.011-.004-.392-.146-.83-.607l11.6-11.02c-1.6-1.684-3.511-2.775-5.419-3.452L217.726 8.39zm-.686-.46a2.498 2.498 0 0 1-.36-.457 2.454 2.454 0 0 1-.242-.513l15.179-5.06a13.447 13.447 0 0 0-3.264-5.283L217.04 7.93zm-.479-.627a1.208 1.208 0 0 1-.065-.227c-.01-.06-.01-.088-.01-.075h16a15.09 15.09 0 0 0-.992-5.442l-14.933 5.744zM213.78 19.49a127.523 127.523 0 0 0-.49 5.777l15.968 1.013c.115-1.823.259-3.507.427-5.055L213.78 19.49zm-.49 5.777a320.048 320.048 0 0 0-.33 6.166l15.985.706c.089-2.034.194-3.986.313-5.859l-15.968-1.014zm-.33 6.161a214.206 214.206 0 0 0-.19 6.532l15.998.228c.029-2.064.088-4.079.176-6.044l-15.984-.716zm-.19 6.53a426.927 426.927 0 0 0-.047 6.358h16c0-2.01.015-4.052.045-6.126l-15.998-.232zm-.047 6.358c0 2.421.015 4.768.046 7.04l15.999-.218a499.51 499.51 0 0 1-.045-6.822h-16zm.049 7.153c.061 2.214.123 4.263.185 6.145l15.991-.525a1197.44 1197.44 0 0 1-.182-6.064l-15.994.444zm.19 6.276c.093 1.894.187 3.587.282 5.073l15.967-1.019c-.088-1.39-.178-3.002-.268-4.84l-15.981.785zm.295 5.242c.13 1.538.296 2.979.528 4.183l15.712-3.022c-.075-.387-.184-1.18-.298-2.518l-15.942 1.357zm8.384-5.328a90.07 90.07 0 0 0-4.181.1l.743 15.983a74.172 74.172 0 0 1 3.438-.083v-16zm-4.242.104c-1.167.063-2.468.141-3.898.234l1.041 15.966c1.385-.09 2.625-.164 3.721-.224l-.864-15.976zm-3.898.234c-1.58.103-3.159.258-4.737.464l2.07 15.865a57.69 57.69 0 0 1 3.708-.362l-1.041-15.967zm4.263 9.149c.531-5.622.894-10.802 1.084-15.531l-15.987-.644c-.177 4.39-.517 9.277-1.027 14.67l15.93 1.505zm1.084-15.533c.187-4.67.282-8.896.282-12.667h-16c0 3.512-.089 7.518-.269 12.027l15.987.64zm.282-12.667c0-3.217-.063-6.087-.195-8.59l-15.977.84c.113 2.148.172 4.726.172 7.75h16zm-.19-8.481a174.092 174.092 0 0 0-.338-6.258l-15.954 1.205c.113 1.492.215 3.378.305 5.676l15.987-.623zm-.331-6.17c-.131-2.019-.299-3.84-.516-5.432l-15.853 2.162c.15 1.101.287 2.524.402 4.3l15.967-1.03zm-9.435 3.588a66.53 66.53 0 0 0 5.326.467l.695-15.985a50.632 50.632 0 0 1-4.037-.359l-1.984 15.877zm5.334.467c1.512.064 2.87.1 4.058.1v-16c-.894 0-2.014-.027-3.378-.085l-.68 15.985zm4.058.1H219.897v-16H218.566v16zm1.331 0c.577 0 1.228-.022 1.893-.096l-1.767-15.902c.067-.007.091-.007.061-.006a4.302 4.302 0 0 1-.187.003v16zm1.009-.047c.532 0 1.223-.021 1.958-.126l-2.263-15.84c.173-.024.287-.031.321-.033.038-.002.036 0-.016 0v16zm24.04 39.322-7.926-1.084-1.307 9.566 9.641-.493-.408-7.99zm1.423-14.963-7.985-.484-.002.024-.001.024 7.988.436zm.092-20.333-7.819 1.69.004.023.005.022 7.81-1.735zm-.964-2.57-6.708 4.36.052.079.054.078 6.602-4.518zm-1.285-1.148-2.971 7.428.218.087.223.074 2.53-7.59zm-3.075.046-2.9-7.456-.073.028-.073.03 3.046 7.398zm-2.754 3.81-7.525-2.718-.033.093-.032.095 7.59 2.53zm-1.607 10.97-7.986-.47-.003.044-.002.045 7.991.38zm-.183 17.211h-8v.098l.002.097 7.998-.195zm.046 3.35h-8v.13l.004.129 7.996-.258zm.137 2.02-.071 8 9.409.083-1.431-9.3-7.907 1.217zm-10.373-.092-7.995-.263-.27 8.19 8.194.073.071-8zm.184-7.435-7.997-.222-.002.054v.055l7.999.113zm.183-11.2-7.998-.15-.002.075v.076h8zm0-9.087h-8v.083l.002.083 7.998-.166zm-.045-4.82h-8v.072l.001.071 7.999-.143zm-.092-5.6-7.999.12.001.062.001.061 7.997-.242zm-.138-6.792-.205-7.998-7.99.205.197 7.99 7.998-.197zm10.74-.276 7.994.314.335-8.53-8.534.219.205 7.997zm-.183 4.682-7.994-.313 15.064 4.056-7.07-3.743zm2.662-3.718 5.563 5.75.047-.047.047-.046-5.657-5.657zm2.8-2.203-3.847-7.014-.049.026-.049.028 3.945 6.96zm2.753-1.01 1.36 7.884.131-.023.13-.027-1.621-7.834zm7.069 1.699-5.858 5.449 5.858-5.45zm2.891 5.278-7.62 2.434.02.064.022.064 7.578-2.562zm1.745 22.95-7.989-.433-.003.054-.002.054 7.994.324zm-.368 6.7-7.98-.554-.004.052-.003.052 7.987.45zm-.459 6.334-7.968-.713-.005.054-.004.055 7.977.604zm-.413 5.646.408 7.99 7.077-.362.496-7.068-7.981-.56zm-2.859 1.634a192.838 192.838 0 0 0 1.484-15.61l-15.976-.872a177.08 177.08 0 0 1-1.361 14.315l15.853 2.167zm1.481-15.562c.317-5.225.474-10.68.474-16.365h-16c0 5.392-.149 10.523-.444 15.397l15.97.968zm.474-16.365c0-2.124-.131-4.268-.558-6.188l-15.619 3.471c.063.283.177 1.108.177 2.717h16zm-.548-6.143c-.341-1.576-.941-3.585-2.181-5.397l-13.204 9.035a3.705 3.705 0 0 1-.269-.452 1.712 1.712 0 0 1-.08-.178c-.005-.013.004.01.022.075.019.066.044.163.074.298l15.638-3.381zm-2.075-5.24c-.906-1.392-2.605-3.424-5.463-4.377l-5.06 15.18c-1.94-.647-2.783-1.914-2.893-2.083l13.416-8.72zm-5.022-4.215a11.567 11.567 0 0 0-4.302-.848v16a4.45 4.45 0 0 1-1.64-.296l5.942-14.856zm-4.302-.848a12.77 12.77 0 0 0-4.644.866l5.799 14.912a3.23 3.23 0 0 1-1.155.222v-16zm-4.79.924c-2.248.926-3.8 2.472-4.823 3.837l12.8 9.6c-.106.141-.678.861-1.885 1.358l-6.092-14.795zm-4.823 3.837c-1.117 1.489-1.869 3.157-2.41 4.653l15.049 5.435c.115-.32.203-.513.251-.609.05-.1.03-.038-.09.121l-12.8-9.6zm-2.475 4.84c-.568 1.705-.973 3.653-1.283 5.684l15.817 2.413c.241-1.58.479-2.538.645-3.037l-15.179-5.06zm-1.283 5.684c-.324 2.128-.558 4.593-.72 7.346l15.972.94c.145-2.449.339-4.39.565-5.873L229.51 35.72zm-.725 7.436c-.13 2.735-.192 5.944-.192 9.606h16c0-3.498.06-6.44.174-8.845l-15.982-.761zm-.192 9.606V56.8h16V52.762h-16zm0 4.039V60.748h16V56.801h-16zm.002 4.142c.029 1.207.044 2.257.044 3.156h16c0-1.06-.017-2.244-.049-3.546l-15.995.39zm.048 3.414c.031.956.085 2.057.226 2.978l15.814-2.433c.012.077.014.107.011.07a6.134 6.134 0 0 1-.017-.201 30.16 30.16 0 0 1-.043-.93l-15.991.516zm8.204-6.239-10.373-.091-.142 16 10.373.09.142-15.999zm-2.448 8.172c.093-2.822.156-5.352.187-7.587l-15.998-.225c-.03 2.11-.09 4.537-.18 7.285l15.991.527zm.185-7.477c.062-2.227.108-4.277.139-6.148l-15.997-.266c-.03 1.801-.076 3.79-.136 5.97l15.994.444zm.139-6.148c.032-1.873.047-3.632.047-5.273h-16c0 1.54-.014 3.209-.044 5.007l15.997.267zm.046-5.123c.031-1.67.047-3.311.047-4.924h-16c0 1.508-.014 3.05-.044 4.623l15.997.301zm.047-4.924c0-1.465-.016-2.959-.047-4.48l-15.997.332c.03 1.416.044 2.799.044 4.148h16zm-.046-4.314c0-1.553-.015-3.208-.047-4.962l-15.997.285c.03 1.673.044 3.231.044 4.677h16zm-.045-4.82c0-1.807-.033-3.755-.096-5.842l-15.993.485c.06 1.953.089 3.737.089 5.357h16zm-.093-5.719a729.74 729.74 0 0 0-.139-6.87l-15.996.394c.061 2.458.106 4.696.137 6.715l15.998-.239zM226.7 29.09l10.74-.275-.41-15.995-10.74.275.41 15.995zm2.541-8.586-.183 4.682 15.988.627.183-4.682-15.988-.627zm14.881 8.738c.557-1.051.976-1.539 1.155-1.712L234.15 16.032c-1.718 1.662-3.073 3.653-4.169 5.723l14.141 7.486zm1.249-1.804c.569-.57.939-.816 1.087-.9l-7.889-13.92c-1.687.956-3.185 2.18-4.512 3.506l11.314 11.314zm.989-.845c.325-.178.406-.165.267-.14l-2.719-15.768c-1.914.33-3.669 1.016-5.241 1.879l7.693 14.029zm.528-.19c.498-.104.736-.11.766-.11v-16c-1.377 0-2.73.177-4.007.441l3.241 15.668zm.766-.11c.01 0-.199-.002-.514-.135a1.995 1.995 0 0 1-.662-.442l11.715-10.898c-2.829-3.042-6.559-4.525-10.539-4.525v16zm-1.176-.578c.226.243.684.873 1.129 2.264l15.241-4.868c-.963-3.015-2.432-5.904-4.655-8.293l-11.715 10.898zm1.171 2.392c.5 1.479.902 3.355 1.131 5.698l15.924-1.558c-.322-3.287-.929-6.398-1.898-9.264l-15.157 5.124zm1.131 5.698c.248 2.54.375 5.2.375 7.988h16c0-3.271-.149-6.454-.451-9.546l-15.924 1.558zm.375 7.988c0 2.055-.057 4.145-.172 6.27l15.977.863c.13-2.404.195-4.782.195-7.133h-16zm-.177 6.377c-.089 2.19-.207 4.347-.354 6.471l15.961 1.109c.159-2.282.285-4.593.38-6.932l-15.987-.648zm-.361 6.575a183.2 183.2 0 0 1-.44 6.07l15.937 1.428c.191-2.143.351-4.342.478-6.598l-15.975-.9zm-.449 6.18c-.154 2.032-.292 3.929-.416 5.69l15.961 1.12c.121-1.727.257-3.594.41-5.601l-15.955-1.209zm7.156-1.74-10.786.551.816 15.98 10.786-.552-.816-15.979z" fill="#243041" mask="url(#b)"/><defs><linearGradient id="a" x1="128.5" y1="-4.448" x2="128.5" y2="90" gradientUnits="userSpaceOnUse"><stop stop-color="#67B6FF"/><stop offset="1" stop-color="#fff"/></linearGradient></defs></svg>