<svg width="239" height="69" fill="none" xmlns="http://www.w3.org/2000/svg"><mask id="b" maskUnits="userSpaceOnUse" x="-9" y="-8" width="256" height="85" fill="#000"><path fill="#fff" d="M-9-8h256v85H-9z"/><path d="M10.994.723a565.015 565.015 0 0 0-1.102 17.303 635.71 635.71 0 0 0-.505 17.12 426.578 426.578 0 0 0 6.105-17.166A896.958 896.958 0 0 0 21.045.54l10.052.733a562.896 562.896 0 0 0-7.435 18.084 406.997 406.997 0 0 0-6.656 18.314 218.024 218.024 0 0 0 5.875 14.274c2.112 4.62 4.36 9.195 6.747 13.724l-10.19 1.147a280.15 280.15 0 0 0-4.772-13.218A279.23 279.23 0 0 0 9.296 40.7v5.692c0 6.7.091 13.356.275 19.965l-9.455-.091c.183-6.243.336-12.47.459-18.681.122-6.212.183-12.454.183-18.727 0-4.681-.046-9.348-.137-13.999C.559 10.178.483 5.465.39.723h10.603zm48.641 37.04c0 4.834-.03 9.669-.092 14.504-.03 4.834-.122 9.868-.275 15.1l-7.987-.459v-6.196c-.917 1.652-1.958 2.922-3.12 3.81-1.163.856-2.265 1.499-3.305 1.927-1.224.49-2.433.765-3.626.826a9.11 9.11 0 0 1-4.131-.964 11.308 11.308 0 0 1-3.35-2.662 12.949 12.949 0 0 1-2.25-3.763 12.991 12.991 0 0 1-.78-4.452c0-1.744.367-3.458 1.101-5.141.766-1.714 2.05-3.259 3.856-4.636 2.417-1.866 4.513-3.427 6.288-4.681 1.775-1.255 3.244-2.387 4.406-3.397 1.194-1.04 2.066-2.02 2.617-2.937.58-.949.872-2.035.872-3.26 0-2.019-.337-3.518-1.01-4.497-.673-1.01-1.56-1.515-2.662-1.515-.673 0-1.255.184-1.744.55-.46.337-.842.796-1.148 1.378a7.992 7.992 0 0 0-.642 1.882 11.267 11.267 0 0 0-.184 2.02c0 .458.015.963.046 1.514.061.55.168 1.132.321 1.744l-10.556.184c-.062-.52-.108-1.01-.138-1.47-.03-.489-.046-.963-.046-1.422 0-1.897.321-3.764.964-5.6.642-1.866 1.576-3.518 2.8-4.957a14.336 14.336 0 0 1 4.544-3.534c1.774-.887 3.81-1.33 6.104-1.33 2.968 0 5.309.626 7.023 1.881 1.744 1.224 3.06 2.846 3.947 4.865.918 2.02 1.5 4.315 1.744 6.885.275 2.54.413 5.14.413 7.803zM49.308 50.752c.153-.765.29-1.637.413-2.616.122-.826.23-1.82.321-2.984.092-1.193.169-2.524.23-3.993-.49.673-.964 1.27-1.423 1.79-.46.52-.887.98-1.285 1.377-.46.46-.888.872-1.285 1.24a54.728 54.728 0 0 0-2.25 1.973 21.79 21.79 0 0 0-2.203 2.25 15.874 15.874 0 0 0-1.652 2.478c-.428.826-.643 1.637-.643 2.432 0 .857.291 1.653.873 2.387.58.704 1.3 1.056 2.157 1.056.642 0 1.3-.184 1.973-.551.704-.367 1.362-.888 1.974-1.56a11.208 11.208 0 0 0 1.698-2.341c.49-.888.857-1.867 1.102-2.938zm38.314-32.267L74.954 57.958l11.934-.275v9.684l-24.373.367 13.082-40.482-12.026.459-.275-9.226h24.326zm30.282 19.278c0 4.834-.031 9.669-.092 14.504-.03 4.834-.122 9.868-.275 15.1l-7.987-.459v-6.196c-.918 1.652-1.958 2.922-3.121 3.81-1.162.856-2.264 1.499-3.304 1.927-1.224.49-2.433.765-3.626.826a9.11 9.11 0 0 1-4.131-.964 11.307 11.307 0 0 1-3.35-2.662 12.949 12.949 0 0 1-2.25-3.763 12.991 12.991 0 0 1-.78-4.452c0-1.744.367-3.458 1.102-5.141.764-1.714 2.05-3.259 3.855-4.636 2.417-1.866 4.513-3.427 6.288-4.681 1.775-1.255 3.244-2.387 4.406-3.397 1.194-1.04 2.066-2.02 2.617-2.937.581-.949.872-2.035.872-3.26 0-2.019-.337-3.518-1.01-4.497-.673-1.01-1.561-1.515-2.662-1.515-.673 0-1.255.184-1.744.55-.459.337-.842.796-1.148 1.378a8.01 8.01 0 0 0-.642 1.882 11.213 11.213 0 0 0-.184 2.02c0 .458.015.963.046 1.514.061.55.168 1.132.321 1.744l-10.556.184c-.062-.52-.108-1.01-.138-1.47-.03-.489-.046-.963-.046-1.422 0-1.897.321-3.764.964-5.6.642-1.866 1.576-3.518 2.8-4.957a14.338 14.338 0 0 1 4.543-3.534c1.775-.887 3.81-1.33 6.105-1.33 2.968 0 5.309.626 7.022 1.881 1.745 1.224 3.06 2.846 3.948 4.865.918 2.02 1.499 4.315 1.744 6.885.275 2.54.413 5.14.413 7.803zm-10.327 12.989c.153-.765.29-1.637.413-2.616.122-.826.229-1.82.321-2.984.092-1.193.168-2.524.23-3.993a24.53 24.53 0 0 1-1.423 1.79c-.459.52-.888.98-1.285 1.377-.459.46-.888.872-1.286 1.24a55.534 55.534 0 0 0-2.249 1.973 21.944 21.944 0 0 0-2.203 2.25 15.9 15.9 0 0 0-1.652 2.478c-.428.826-.643 1.637-.643 2.432 0 .857.291 1.653.873 2.387.58.704 1.3 1.056 2.157 1.056.642 0 1.3-.184 1.973-.551.704-.367 1.362-.888 1.974-1.56a11.175 11.175 0 0 0 1.698-2.341c.49-.888.857-1.867 1.102-2.938zm33.908 15.973a185.185 185.185 0 0 0 1.423-14.963c.306-5.05.459-10.343.459-15.881 0-1.867-.123-3.35-.368-4.452-.244-1.132-.566-1.99-.963-2.57-.398-.613-.827-.995-1.286-1.148a3.573 3.573 0 0 0-1.331-.275 4.77 4.77 0 0 0-1.744.32c-.52.215-1.01.628-1.469 1.24-.459.612-.887 1.469-1.285 2.57-.367 1.102-.688 2.555-.964 4.36-.275 1.806-.489 4.01-.642 6.61-.123 2.57-.184 5.646-.184 9.226v7.986c.031 1.255.046 2.372.046 3.35.031.95.077 1.622.138 2.02l-10.373-.092c.092-2.784.153-5.263.183-7.435.062-2.203.107-4.223.138-6.059.031-1.836.046-3.55.046-5.14.031-1.622.046-3.213.046-4.774 0-1.407-.015-2.846-.046-4.314 0-1.5-.015-3.106-.046-4.82 0-1.713-.031-3.58-.092-5.6-.03-2.05-.076-4.314-.137-6.792l10.74-.276-.184 4.682c.826-1.56 1.714-2.8 2.662-3.718.949-.948 1.882-1.683 2.8-2.203.949-.52 1.867-.857 2.754-1.01.887-.183 1.683-.275 2.387-.275 1.897 0 3.457.658 4.681 1.974 1.224 1.315 2.188 3.075 2.892 5.278.734 2.172 1.239 4.666 1.515 7.481.275 2.816.413 5.738.413 8.767 0 2.203-.061 4.437-.184 6.701a233.65 233.65 0 0 1-.367 6.701 190.146 190.146 0 0 1-.459 6.334 986.1 986.1 0 0 0-.413 5.646l-10.786.55zm45.474-65.13-1.147 65.956h-8.813v-4.682c-.887 1.316-1.744 2.341-2.57 3.075-.826.704-1.561 1.224-2.203 1.56-.765.399-1.469.643-2.112.735-1.56 0-3.105-.459-4.635-1.377-1.53-.948-2.907-2.509-4.131-4.681-1.194-2.173-2.173-5.019-2.938-8.537-.765-3.55-1.147-7.94-1.147-13.173 0-4.009.321-7.528.964-10.557.673-3.06 1.56-5.615 2.662-7.665 1.101-2.05 2.371-3.595 3.809-4.636 1.438-1.04 2.938-1.56 4.498-1.56a7.426 7.426 0 0 1 2.479.642c.704.337 1.484.842 2.341 1.515.856.673 1.667 1.622 2.432 2.846l-.596-19.002 11.107-.46zm-9.685 43.236c-.061-2.08-.137-4.207-.229-6.38-.061-2.172-.26-4.146-.597-5.92-.336-1.806-.856-3.275-1.56-4.407-.673-1.163-1.637-1.744-2.892-1.744-1.163 0-2.081.474-2.754 1.423-.642.948-1.132 2.172-1.469 3.672-.305 1.499-.489 3.151-.55 4.957a156.405 156.405 0 0 0-.092 5.278c0 1.193.015 2.448.046 3.764.061 1.315.153 2.631.275 3.947.123 1.285.306 2.509.551 3.672.245 1.162.551 2.203.918 3.12.367.888.811 1.592 1.331 2.112.551.52 1.193.78 1.928.78.918 0 1.698-.367 2.341-1.101.642-.765 1.162-1.79 1.56-3.075.429-1.285.734-2.785.918-4.498.184-1.744.275-3.611.275-5.6zm25.784-25.474c-.275 2.418-.489 5.08-.642 7.987-.153 2.876-.26 5.829-.321 8.858-.062 3.03-.092 6.028-.092 8.996.03 2.938.092 5.692.183 8.262.092 2.54.199 4.789.322 6.747.122 1.958.275 3.442.459 4.452-1.224 0-2.494.03-3.81.092a347.1 347.1 0 0 0-3.81.23c-1.407.091-2.815.229-4.222.413.704-7.589 1.117-14.244 1.239-19.966.153-5.753.153-10.603 0-14.55-.153-4.59-.444-8.568-.872-11.934 1.744.215 3.32.352 4.728.413a85.19 85.19 0 0 0 3.625.092c1.194 0 2.265-.03 3.213-.092zm23.214 47.368a185.185 185.185 0 0 0 1.423-14.963c.306-5.05.459-10.343.459-15.881 0-1.867-.123-3.35-.367-4.452-.245-1.132-.566-1.99-.964-2.57-.398-.613-.826-.995-1.285-1.148a3.577 3.577 0 0 0-1.331-.275c-.612 0-1.194.107-1.745.32-.52.215-1.009.628-1.468 1.24-.459.612-.888 1.469-1.285 2.57-.368 1.102-.689 2.555-.964 4.36-.276 1.806-.49 4.01-.643 6.61-.122 2.57-.184 5.646-.184 9.226v7.986c.031 1.255.046 2.372.046 3.35.031.95.077 1.622.138 2.02l-10.373-.092c.092-2.784.153-5.263.184-7.435.061-2.203.107-4.223.137-6.059.031-1.836.046-3.55.046-5.14.031-1.622.046-3.213.046-4.774 0-1.407-.015-2.846-.046-4.314 0-1.5-.015-3.106-.046-4.82 0-1.713-.03-3.58-.091-5.6-.031-2.05-.077-4.314-.138-6.792l10.74-.276-.184 4.682c.827-1.56 1.714-2.8 2.663-3.718.948-.948 1.881-1.683 2.799-2.203.949-.52 1.867-.857 2.754-1.01.888-.183 1.683-.275 2.387-.275 1.897 0 3.458.658 4.682 1.974 1.224 1.315 2.187 3.075 2.891 5.278.735 2.172 1.24 4.666 1.515 7.481.275 2.816.413 5.738.413 8.767 0 2.203-.061 4.437-.184 6.701a230.075 230.075 0 0 1-.367 6.701 190.146 190.146 0 0 1-.459 6.334c-.153 2.02-.29 3.902-.413 5.646l-10.786.55z"/></mask><path d="M10.994.723a565.015 565.015 0 0 0-1.102 17.303 635.71 635.71 0 0 0-.505 17.12 426.578 426.578 0 0 0 6.105-17.166A896.958 896.958 0 0 0 21.045.54l10.052.733a562.896 562.896 0 0 0-7.435 18.084 406.997 406.997 0 0 0-6.656 18.314 218.024 218.024 0 0 0 5.875 14.274c2.112 4.62 4.36 9.195 6.747 13.724l-10.19 1.147a280.15 280.15 0 0 0-4.772-13.218A279.23 279.23 0 0 0 9.296 40.7v5.692c0 6.7.091 13.356.275 19.965l-9.455-.091c.183-6.243.336-12.47.459-18.681.122-6.212.183-12.454.183-18.727 0-4.681-.046-9.348-.137-13.999C.559 10.178.483 5.465.39.723h10.603zm48.641 37.04c0 4.834-.03 9.669-.092 14.504-.03 4.834-.122 9.868-.275 15.1l-7.987-.459v-6.196c-.917 1.652-1.958 2.922-3.12 3.81-1.163.856-2.265 1.499-3.305 1.927-1.224.49-2.433.765-3.626.826a9.11 9.11 0 0 1-4.131-.964 11.308 11.308 0 0 1-3.35-2.662 12.949 12.949 0 0 1-2.25-3.763 12.991 12.991 0 0 1-.78-4.452c0-1.744.367-3.458 1.101-5.141.766-1.714 2.05-3.259 3.856-4.636 2.417-1.866 4.513-3.427 6.288-4.681 1.775-1.255 3.244-2.387 4.406-3.397 1.194-1.04 2.066-2.02 2.617-2.937.58-.949.872-2.035.872-3.26 0-2.019-.337-3.518-1.01-4.497-.673-1.01-1.56-1.515-2.662-1.515-.673 0-1.255.184-1.744.55-.46.337-.842.796-1.148 1.378a7.992 7.992 0 0 0-.642 1.882 11.267 11.267 0 0 0-.184 2.02c0 .458.015.963.046 1.514.061.55.168 1.132.321 1.744l-10.556.184c-.062-.52-.108-1.01-.138-1.47-.03-.489-.046-.963-.046-1.422 0-1.897.321-3.764.964-5.6.642-1.866 1.576-3.518 2.8-4.957a14.336 14.336 0 0 1 4.544-3.534c1.774-.887 3.81-1.33 6.104-1.33 2.968 0 5.309.626 7.023 1.881 1.744 1.224 3.06 2.846 3.947 4.865.918 2.02 1.5 4.315 1.744 6.885.275 2.54.413 5.14.413 7.803zM49.308 50.752c.153-.765.29-1.637.413-2.616.122-.826.23-1.82.321-2.984.092-1.193.169-2.524.23-3.993-.49.673-.964 1.27-1.423 1.79-.46.52-.887.98-1.285 1.377-.46.46-.888.872-1.285 1.24a54.728 54.728 0 0 0-2.25 1.973 21.79 21.79 0 0 0-2.203 2.25 15.874 15.874 0 0 0-1.652 2.478c-.428.826-.643 1.637-.643 2.432 0 .857.291 1.653.873 2.387.58.704 1.3 1.056 2.157 1.056.642 0 1.3-.184 1.973-.551.704-.367 1.362-.888 1.974-1.56a11.208 11.208 0 0 0 1.698-2.341c.49-.888.857-1.867 1.102-2.938zm38.314-32.267L74.954 57.958l11.934-.275v9.684l-24.373.367 13.082-40.482-12.026.459-.275-9.226h24.326zm30.282 19.278c0 4.834-.031 9.669-.092 14.504-.03 4.834-.122 9.868-.275 15.1l-7.987-.459v-6.196c-.918 1.652-1.958 2.922-3.121 3.81-1.162.856-2.264 1.499-3.304 1.927-1.224.49-2.433.765-3.626.826a9.11 9.11 0 0 1-4.131-.964 11.307 11.307 0 0 1-3.35-2.662 12.949 12.949 0 0 1-2.25-3.763 12.991 12.991 0 0 1-.78-4.452c0-1.744.367-3.458 1.102-5.141.764-1.714 2.05-3.259 3.855-4.636 2.417-1.866 4.513-3.427 6.288-4.681 1.775-1.255 3.244-2.387 4.406-3.397 1.194-1.04 2.066-2.02 2.617-2.937.581-.949.872-2.035.872-3.26 0-2.019-.337-3.518-1.01-4.497-.673-1.01-1.561-1.515-2.662-1.515-.673 0-1.255.184-1.744.55-.459.337-.842.796-1.148 1.378a8.01 8.01 0 0 0-.642 1.882 11.213 11.213 0 0 0-.184 2.02c0 .458.015.963.046 1.514.061.55.168 1.132.321 1.744l-10.556.184c-.062-.52-.108-1.01-.138-1.47-.03-.489-.046-.963-.046-1.422 0-1.897.321-3.764.964-5.6.642-1.866 1.576-3.518 2.8-4.957a14.338 14.338 0 0 1 4.543-3.534c1.775-.887 3.81-1.33 6.105-1.33 2.968 0 5.309.626 7.022 1.881 1.745 1.224 3.06 2.846 3.948 4.865.918 2.02 1.499 4.315 1.744 6.885.275 2.54.413 5.14.413 7.803zm-10.327 12.989c.153-.765.29-1.637.413-2.616.122-.826.229-1.82.321-2.984.092-1.193.168-2.524.23-3.993a24.53 24.53 0 0 1-1.423 1.79c-.459.52-.888.98-1.285 1.377-.459.46-.888.872-1.286 1.24a55.534 55.534 0 0 0-2.249 1.973 21.944 21.944 0 0 0-2.203 2.25 15.9 15.9 0 0 0-1.652 2.478c-.428.826-.643 1.637-.643 2.432 0 .857.291 1.653.873 2.387.58.704 1.3 1.056 2.157 1.056.642 0 1.3-.184 1.973-.551.704-.367 1.362-.888 1.974-1.56a11.175 11.175 0 0 0 1.698-2.341c.49-.888.857-1.867 1.102-2.938zm33.908 15.973a185.185 185.185 0 0 0 1.423-14.963c.306-5.05.459-10.343.459-15.881 0-1.867-.123-3.35-.368-4.452-.244-1.132-.566-1.99-.963-2.57-.398-.613-.827-.995-1.286-1.148a3.573 3.573 0 0 0-1.331-.275 4.77 4.77 0 0 0-1.744.32c-.52.215-1.01.628-1.469 1.24-.459.612-.887 1.469-1.285 2.57-.367 1.102-.688 2.555-.964 4.36-.275 1.806-.489 4.01-.642 6.61-.123 2.57-.184 5.646-.184 9.226v7.986c.031 1.255.046 2.372.046 3.35.031.95.077 1.622.138 2.02l-10.373-.092c.092-2.784.153-5.263.183-7.435.062-2.203.107-4.223.138-6.059.031-1.836.046-3.55.046-5.14.031-1.622.046-3.213.046-4.774 0-1.407-.015-2.846-.046-4.314 0-1.5-.015-3.106-.046-4.82 0-1.713-.031-3.58-.092-5.6-.03-2.05-.076-4.314-.137-6.792l10.74-.276-.184 4.682c.826-1.56 1.714-2.8 2.662-3.718.949-.948 1.882-1.683 2.8-2.203.949-.52 1.867-.857 2.754-1.01.887-.183 1.683-.275 2.387-.275 1.897 0 3.457.658 4.681 1.974 1.224 1.315 2.188 3.075 2.892 5.278.734 2.172 1.239 4.666 1.515 7.481.275 2.816.413 5.738.413 8.767 0 2.203-.061 4.437-.184 6.701a233.65 233.65 0 0 1-.367 6.701 190.146 190.146 0 0 1-.459 6.334 986.1 986.1 0 0 0-.413 5.646l-10.786.55zm45.474-65.13-1.147 65.956h-8.813v-4.682c-.887 1.316-1.744 2.341-2.57 3.075-.826.704-1.561 1.224-2.203 1.56-.765.399-1.469.643-2.112.735-1.56 0-3.105-.459-4.635-1.377-1.53-.948-2.907-2.509-4.131-4.681-1.194-2.173-2.173-5.019-2.938-8.537-.765-3.55-1.147-7.94-1.147-13.173 0-4.009.321-7.528.964-10.557.673-3.06 1.56-5.615 2.662-7.665 1.101-2.05 2.371-3.595 3.809-4.636 1.438-1.04 2.938-1.56 4.498-1.56a7.426 7.426 0 0 1 2.479.642c.704.337 1.484.842 2.341 1.515.856.673 1.667 1.622 2.432 2.846l-.596-19.002 11.107-.46zm-9.685 43.236c-.061-2.08-.137-4.207-.229-6.38-.061-2.172-.26-4.146-.597-5.92-.336-1.806-.856-3.275-1.56-4.407-.673-1.163-1.637-1.744-2.892-1.744-1.163 0-2.081.474-2.754 1.423-.642.948-1.132 2.172-1.469 3.672-.305 1.499-.489 3.151-.55 4.957a156.405 156.405 0 0 0-.092 5.278c0 1.193.015 2.448.046 3.764.061 1.315.153 2.631.275 3.947.123 1.285.306 2.509.551 3.672.245 1.162.551 2.203.918 3.12.367.888.811 1.592 1.331 2.112.551.52 1.193.78 1.928.78.918 0 1.698-.367 2.341-1.101.642-.765 1.162-1.79 1.56-3.075.429-1.285.734-2.785.918-4.498.184-1.744.275-3.611.275-5.6zm25.784-25.474c-.275 2.418-.489 5.08-.642 7.987-.153 2.876-.26 5.829-.321 8.858-.062 3.03-.092 6.028-.092 8.996.03 2.938.092 5.692.183 8.262.092 2.54.199 4.789.322 6.747.122 1.958.275 3.442.459 4.452-1.224 0-2.494.03-3.81.092a347.1 347.1 0 0 0-3.81.23c-1.407.091-2.815.229-4.222.413.704-7.589 1.117-14.244 1.239-19.966.153-5.753.153-10.603 0-14.55-.153-4.59-.444-8.568-.872-11.934 1.744.215 3.32.352 4.728.413a85.19 85.19 0 0 0 3.625.092c1.194 0 2.265-.03 3.213-.092zm23.214 47.368a185.185 185.185 0 0 0 1.423-14.963c.306-5.05.459-10.343.459-15.881 0-1.867-.123-3.35-.367-4.452-.245-1.132-.566-1.99-.964-2.57-.398-.613-.826-.995-1.285-1.148a3.577 3.577 0 0 0-1.331-.275c-.612 0-1.194.107-1.745.32-.52.215-1.009.628-1.468 1.24-.459.612-.888 1.469-1.285 2.57-.368 1.102-.689 2.555-.964 4.36-.276 1.806-.49 4.01-.643 6.61-.122 2.57-.184 5.646-.184 9.226v7.986c.031 1.255.046 2.372.046 3.35.031.95.077 1.622.138 2.02l-10.373-.092c.092-2.784.153-5.263.184-7.435.061-2.203.107-4.223.137-6.059.031-1.836.046-3.55.046-5.14.031-1.622.046-3.213.046-4.774 0-1.407-.015-2.846-.046-4.314 0-1.5-.015-3.106-.046-4.82 0-1.713-.03-3.58-.091-5.6-.031-2.05-.077-4.314-.138-6.792l10.74-.276-.184 4.682c.827-1.56 1.714-2.8 2.663-3.718.948-.948 1.881-1.683 2.799-2.203.949-.52 1.867-.857 2.754-1.01.888-.183 1.683-.275 2.387-.275 1.897 0 3.458.658 4.682 1.974 1.224 1.315 2.187 3.075 2.891 5.278.735 2.172 1.24 4.666 1.515 7.481.275 2.816.413 5.738.413 8.767 0 2.203-.061 4.437-.184 6.701a230.075 230.075 0 0 1-.367 6.701 190.146 190.146 0 0 1-.459 6.334c-.153 2.02-.29 3.902-.413 5.646l-10.786.55z" fill="url(#a)"/><path d="m10.994.723 7.975.63.681-8.63h-8.656v8zM9.892 18.026l-7.99-.384-.002.02v.02l7.992.344zm-.505 17.12-7.999-.128 15.478 2.968-7.479-2.84zm6.105-17.166 7.593 2.518.004-.012-7.597-2.506zM21.045.54l.583-7.98-6.357-.464-1.873 6.093L21.045.54zm10.052.733 7.346 3.17 4.456-10.329-11.219-.82-.583 7.98zm-7.435 18.084-7.451-2.912 7.45 2.912zm-6.656 18.314-7.582-2.552-.903 2.682.985 2.653 7.5-2.783zm5.875 14.274-7.284 3.307.004.01.004.008 7.276-3.325zm6.747 13.724.896 7.95 11.646-1.312-5.464-10.368-7.078 3.73zm-10.19 1.147-7.588 2.53 2.048 6.145 6.436-.725-.895-7.95zm-4.772-13.218-7.46 2.89.003.008.003.009 7.454-2.907zM9.296 40.7l7.306-3.259-15.307 3.26h8zm.275 25.657-.078 8 8.305.08-.23-8.302-7.997.222zm-9.455-.091-7.997-.236-.24 8.156 8.159.08.078-8zM.62 14.859l-8 .105v.027l.001.026 7.999-.158zM.39.723v-8h-8.156l.158 8.154L.39.723zm2.627-.63a572.924 572.924 0 0 0-1.117 17.549l15.982.769c.271-5.639.633-11.325 1.086-17.059L3.019.093zM1.9 17.683a643.68 643.68 0 0 0-.51 17.335l15.997.257c.09-5.65.257-11.286.499-16.905l-15.986-.687zm14.967 20.303a434.335 434.335 0 0 0 6.22-17.488L7.897 15.463a418.425 418.425 0 0 1-5.99 16.844l14.958 5.68zm6.223-17.5a904.382 904.382 0 0 0 5.604-17.597l-15.295-4.7a888.45 888.45 0 0 1-5.504 17.286l15.195 5.011zM20.462 8.518l10.052.734L31.68-6.705 21.628-7.44 20.462 8.518zm3.29-10.414a571.07 571.07 0 0 0-7.541 18.341l14.902 5.825a554.702 554.702 0 0 1 7.33-17.827L23.752-1.896zM16.21 16.445A414.992 414.992 0 0 0 9.424 35.12l15.164 5.104a398.706 398.706 0 0 1 6.525-17.953L16.21 16.445zM9.505 40.454c1.87 5.04 3.9 9.972 6.09 14.798l14.57-6.614a210.01 210.01 0 0 1-5.66-13.75l-15 5.566zm6.099 14.816A279.101 279.101 0 0 0 22.551 69.4l14.155-7.46a263.136 263.136 0 0 1-6.548-13.319l-14.553 6.65zm13.128 2.45-10.19 1.147 1.791 15.9 10.19-1.148-1.79-15.9zm-1.705 6.567a288.083 288.083 0 0 0-4.91-13.597L7.213 56.505a272.246 272.246 0 0 1 4.638 12.841l15.178-5.06zm-4.902-13.579a287.273 287.273 0 0 0-5.524-13.267L1.989 43.96a271.227 271.227 0 0 1 5.217 12.528l14.92-5.779zM1.296 40.7v5.692h16V40.7h-16zm0 5.692c0 6.774.092 13.503.278 20.188l15.994-.445a711.079 711.079 0 0 1-.273-19.743h-16zm8.352 11.966-9.455-.092-.155 16 9.455.091.155-16zM8.112 66.5c.185-6.268.338-12.52.461-18.758l-15.997-.316c-.122 6.186-.274 12.387-.457 18.603l15.993.47zm.461-18.758c.124-6.265.185-12.56.185-18.885h-16c0 6.221-.06 12.41-.182 18.57l15.997.315zm.185-18.885c0-4.733-.046-9.453-.139-14.157l-15.997.316c.09 4.598.136 9.212.136 13.841h16zM8.62 14.755A2258.76 2258.76 0 0 0 8.39.568l-15.997.31c.091 4.726.167 9.421.228 14.086l15.999-.21zM.39 8.723h10.603v-16H.39v16zm59.152 43.544-8-.102V52.216l8 .05zm-.275 15.1-.46 7.987 8.216.472.24-8.225-7.996-.234zm-7.987-.459h-8v7.554l7.541.433.46-7.987zm0-6.196h8V29.839L44.288 56.827l6.993 3.885zm-3.12 3.81 4.745 6.44.054-.04.054-.04-4.854-6.36zm-3.305 1.927 2.97 7.428.038-.015.038-.015-3.046-7.398zm-3.626.826v8h.205l.204-.01-.41-7.99zm-4.131-.964-3.712 7.087.067.035.067.034L37.1 66.31zm-5.6-6.425-7.523 2.72.036.098.037.097 7.45-2.915zm.322-9.593-7.306-3.261-.013.03-.014.031 7.332 3.2zm3.855-4.636 4.852 6.361.019-.014.018-.015-4.889-6.332zm6.288-4.681-4.618-6.533 4.618 6.533zm4.406-3.397 5.246 6.04.006-.005.005-.005-5.257-6.03zm2.617-2.937-6.821-4.18-.02.031-.02.033 6.86 4.116zm-.138-7.757-6.657 4.437.032.048.033.047 6.592-4.532zm-4.406-.964 4.73 6.451.035-.025.035-.026-4.8-6.4zm-1.148 1.377-7.08-3.726-.038.074-.037.074 7.155 3.578zm-.642 1.882-7.818-1.7-.029.134-.024.135 7.87 1.43zm-.138 3.534-7.988.444.012.22.025.22 7.95-.884zm.321 1.744.14 7.999 10.062-.175-2.44-9.764-7.762 1.94zm-10.556.184-7.946.934.846 7.19 7.239-.126-.14-7.998zm-.138-1.47-7.985.5.001.016.002.017 7.982-.532zm.918-7.022 7.55 2.643.007-.02.007-.018-7.564-2.605zm2.8-4.957-6.083-5.196-.005.006-.005.005 6.093 5.185zm4.544-3.534-3.578-7.155 3.578 7.155zm13.127.551-4.726 6.455.064.047.066.046 4.596-6.548zm3.947 4.865-7.324 3.218.02.047.02.046 7.284-3.31zm1.744 6.885-7.964.758.005.052.006.052 7.953-.862zm-9.914 20.792 7.799 1.783.024-.107.022-.107-7.845-1.569zm.413-2.616-7.914-1.173-.013.09-.011.09 7.938.993zm.321-2.984 7.975.63.001-.008v-.008l-7.976-.614zm.23-3.993 7.993.333 1.101-26.44-15.564 21.402 6.47 4.705zm-3.993 4.406 5.095 6.168.17-.14.16-.15-5.425-5.878zm-2.25 1.974 5.301 5.992.064-.056.062-.058-5.427-5.878zm-2.203 2.25L35.72 44.62l-.059.07-.057.071 6.223 5.027zm-1.652 2.478-7.052-3.778-.025.047-.025.048 7.102 3.683zm.23 4.819-6.273 4.966.052.065.053.064 6.168-5.095zm4.13.505-3.7-7.093-.066.034-.064.036 3.83 7.023zm1.974-1.56-5.787-5.524-.067.07-.066.072 5.92 5.381zm5.127-18.268c0 4.8-.03 9.602-.091 14.402l15.999.203c.061-4.869.092-9.737.092-14.605h-16zm-.092 14.453c-.03 4.769-.12 9.741-.272 14.917l15.993.468a668.32 668.32 0 0 0 .279-15.284l-16-.101zm8.184 7.164-7.986-.459-.919 15.974 7.987.459.918-15.974zm-.446 7.528v-6.196h-16v6.196h16zM44.288 56.827c-.532.959-.91 1.28-.981 1.335l9.707 12.72c2.255-1.722 3.957-3.939 5.26-6.285l-13.986-7.77zm-.873 1.254c-.778.573-1.31.85-1.605.97l6.092 14.796c1.786-.736 3.456-1.744 5.004-2.885L43.415 58.08zm-1.53.94c-.491.197-.836.253-1.065.265l.82 15.979c2.157-.11 4.23-.605 6.187-1.388l-5.942-14.856zm-.655.254c-.256 0-.404-.044-.553-.119l-7.156 14.31a17.108 17.108 0 0 0 7.709 1.81v-16zm-.42-.05a3.31 3.31 0 0 1-1-.796L27.686 68.87a19.307 19.307 0 0 0 5.7 4.53l7.425-14.174zm-1-.796a4.953 4.953 0 0 1-.86-1.459l-14.9 5.83a20.947 20.947 0 0 0 3.636 6.07L39.81 58.43zm-.788-1.264a4.995 4.995 0 0 1-.303-1.731h-16c0 2.457.421 4.862 1.257 7.173l15.046-5.442zm-.303-1.731c0-.586.116-1.213.434-1.941l-14.665-6.4c-1.15 2.638-1.77 5.438-1.77 8.34h16zm.407-1.88c.115-.26.439-.801 1.402-1.536l-9.704-12.722c-2.647 2.02-4.895 4.568-6.309 7.736l14.61 6.522zm1.44-1.565c2.36-1.823 4.361-3.311 6.016-4.48l-9.236-13.066c-1.895 1.34-4.085 2.972-6.56 4.882l9.78 12.664zm6.016-4.48c1.911-1.352 3.607-2.65 5.034-3.89L41.125 31.54c-.9.78-2.14 1.746-3.779 2.904l9.236 13.065zm5.045-3.9c1.553-1.353 3.085-2.96 4.22-4.851l-13.72-8.232c.03-.052-.007.021-.182.218a9.395 9.395 0 0 1-.832.805l10.514 12.06zm4.18-4.787c1.429-2.33 2.052-4.892 2.052-7.44h-16c0-.024.003-.147.053-.335.052-.192.138-.396.254-.586l13.641 8.361zm2.052-7.44c0-2.625-.386-6.074-2.418-9.03l-13.184 9.065a3.64 3.64 0 0 1-.375-.682c-.063-.155-.083-.244-.082-.239.001.004.017.076.032.231.015.154.027.37.027.656h16zm-2.354-8.935c-1.979-2.968-5.236-5.077-9.318-5.077v16c-.724 0-1.608-.18-2.465-.668-.826-.47-1.304-1.041-1.53-1.38l13.313-8.875zm-9.318-5.077c-2.222 0-4.53.64-6.544 2.15l9.6 12.8c-1.035.777-2.181 1.05-3.056 1.05v-16zm-6.475 2.1c-1.58 1.158-2.712 2.611-3.496 4.102l14.158 7.452c-.172.328-.54.863-1.2 1.348L39.712 19.47zm-3.572 4.25a15.978 15.978 0 0 0-1.305 3.76l15.635 3.4a1.62 1.62 0 0 1 .02-.086l.009-.027s-.014.04-.049.109L36.14 23.72zm-1.358 4.029a19.262 19.262 0 0 0-.313 3.45h16c0-.185.017-.38.054-.588l-15.741-2.862zm-.313 3.45c0 .633.02 1.288.058 1.959l15.975-.888a19.617 19.617 0 0 1-.033-1.07h-16zm.095 2.398c.105.952.283 1.888.511 2.801l15.522-3.88a5.306 5.306 0 0 1-.131-.688l-15.902 1.767zm8.133-7.138-10.557.184.279 15.997 10.556-.183-.278-15.998zm-2.472 7.248c-.048-.404-.08-.759-.1-1.066L24.16 33.705c.04.61.1 1.235.174 1.871l15.89-1.87zm-.099-1.033c-.02-.335-.03-.642-.03-.924h-16c0 .636.021 1.277.061 1.922l15.97-.998zm-.03-.924c0-.974.162-1.948.515-2.957l-15.102-5.285a24.84 24.84 0 0 0-1.413 8.242h16zm.528-2.995c.332-.966.78-1.734 1.328-2.377l-12.185-10.37c-1.9 2.234-3.319 4.77-4.271 7.538l15.128 5.209zm1.319-2.366a6.343 6.343 0 0 1 2.038-1.574l-7.155-14.311a22.336 22.336 0 0 0-7.05 5.494l12.167 10.391zm2.038-1.574c.502-.251 1.28-.487 2.527-.487v-16c-3.342 0-6.635.652-9.682 2.176l7.155 14.31zm2.527-.487c1.927 0 2.404.415 2.297.337l9.451-12.91c-3.534-2.588-7.738-3.427-11.748-3.427v16zm2.427.43c.504.354.898.805 1.219 1.535l14.648-6.436c-1.454-3.309-3.692-6.101-6.676-8.195l-9.19 13.096zm1.26 1.628c.496 1.092.889 2.503 1.063 4.332l15.928-1.517c-.316-3.31-1.086-6.49-2.425-9.436l-14.566 6.62zm1.074 4.436a64.34 64.34 0 0 1 .366 6.94h16c0-2.938-.152-5.827-.46-8.665L51.27 30.823zm5.884 21.499c.2-.998.366-2.068.506-3.193l-15.876-1.984a28.837 28.837 0 0 1-.32 2.039l15.69 3.138zm.482-3.013c.157-1.06.281-2.247.382-3.526l-15.95-1.26a37.098 37.098 0 0 1-.26 2.441l15.828 2.345zm.384-3.542c.1-1.305.181-2.732.246-4.274l-15.986-.666c-.059 1.395-.13 2.631-.213 3.713l15.953 1.227zm-14.217-9.312c-.37.508-.688.903-.952 1.202l11.997 10.586a32.422 32.422 0 0 0 1.895-2.377l-12.94-9.411zm-.952 1.202c-.373.423-.686.757-.943 1.013L53.22 49.983a38.397 38.397 0 0 0 1.627-1.74L42.85 37.655zm-.943 1.013c-.398.398-.749.736-1.055 1.018l10.853 11.757c.49-.452.995-.94 1.516-1.461L41.907 38.669zm-.723.729a62.724 62.724 0 0 0-2.58 2.263l10.852 11.756a46.747 46.747 0 0 1 1.918-1.684l-10.19-12.335zm-2.455 2.15a29.799 29.799 0 0 0-3.01 3.072l12.215 10.336c.42-.497.883-.971 1.396-1.425L38.73 41.547zm-3.126 3.213a23.877 23.877 0 0 0-2.48 3.728l14.103 7.555c.21-.393.48-.803.824-1.23L35.603 44.762zm-2.531 3.823c-.918 1.77-1.54 3.837-1.54 6.115h16c0 .688-.194 1.132-.256 1.25l-14.204-7.365zm-1.54 6.115c0 2.83 1.01 5.345 2.6 7.353l12.544-9.932c.183.232.41.59.588 1.073.18.492.267 1.009.267 1.506h-16zm2.704 7.482c1.987 2.406 4.909 3.96 8.325 3.96v-16c.703 0 1.523.154 2.334.551.797.39 1.343.896 1.676 1.299L34.236 62.18zm8.325 3.96c2.217 0 4.183-.642 5.804-1.527l-7.661-14.046c.275-.15.924-.426 1.857-.426v16zm5.674-1.458c1.65-.86 3.039-2.002 4.193-3.271l-11.84-10.763c-.07.077.003-.024.246-.15l7.4 14.184zm4.06-3.129a19.203 19.203 0 0 0 2.916-4l-14.01-7.73a3.25 3.25 0 0 1-.48.683l11.574 11.047zm2.916-4a19.22 19.22 0 0 0 1.896-5.02L41.509 48.97a3.253 3.253 0 0 1-.307.856l14.009 7.73zm32.411-39.069 7.617 2.445 3.352-10.445H87.622v8zM74.954 57.958l-7.617-2.445-3.435 10.702 11.237-.26-.185-7.997zm11.934-.275h8v-8.187l-8.185.189.185 7.998zm0 9.684.12 8 7.88-.12v-7.88h-8zm-24.373.367-7.612-2.46-3.434 10.628 11.167-.168-.12-8zm13.082-40.482 7.612 2.46 3.52-10.89-11.438.436.306 7.994zm-12.026.459-7.996.239.24 8.063 8.061-.308-.305-7.994zm-.275-9.226v-8h-8.243l.246 8.24 7.997-.24zm16.709-2.444L67.337 55.513l15.234 4.89L95.24 20.93l-15.234-4.89zm-4.866 49.915 11.933-.276-.369-15.995-11.934.275.37 15.996zm3.749-8.273v9.684h16v-9.684h-16zm7.88 1.685-24.373.367.241 15.999 24.372-.368-.24-15.998zm-16.64 10.826 13.081-40.482-15.225-4.92-13.08 40.483 15.224 4.92zm5.163-50.936-12.025.459.61 15.988 12.026-.459-.61-15.988zm-3.723 8.214-.276-9.225-15.993.477.276 9.226 15.993-.478zm-8.272-.987h24.326v-16H63.296v16zm54.516 25.782-7.999-.102-.001.026v.025l8 .05zm-.275 15.1-.459 7.987 8.215.472.24-8.225-7.996-.234zm-7.987-.459h-8v7.554l7.541.433.459-7.987zm0-6.196h8V29.839l-14.993 26.988 6.993 3.885zm-3.121 3.81 4.746 6.44.054-.04.054-.04-4.854-6.36zm-3.304 1.927 2.971 7.428.037-.015.038-.015-3.046-7.398zm-3.626.826v8h.205l.204-.01-.41-7.99zm-4.131-.964-3.712 7.087.067.035.067.034 3.578-7.156zm-5.6-6.425-7.523 2.72.035.098.038.097 7.45-2.915zm.322-9.593-7.306-3.261-.013.03-.014.031 7.332 3.2zm3.855-4.636 4.852 6.361.018-.014.02-.015-4.89-6.332zm6.288-4.681-4.618-6.533 4.618 6.533zm4.406-3.397 5.246 6.04.006-.005.005-.005-5.257-6.03zm2.617-2.937-6.821-4.18-.02.031-.019.033 6.86 4.116zm-.138-7.757-6.657 4.437.032.048.032.047 6.593-4.532zm-4.406-.964 4.73 6.451.035-.025.035-.026-4.8-6.4zm-1.148 1.377-7.08-3.726-.038.074-.037.074 7.155 3.578zm-.642 1.882-7.818-1.7-.029.134-.024.135 7.871 1.43zm-.138 3.534-7.988.444.012.22.025.22 7.951-.884zm.321 1.744.139 7.999 10.063-.175-2.441-9.764-7.761 1.94zm-10.556.184-7.946.934.846 7.19 7.239-.126-.14-7.998zm-.138-1.47-7.985.5.001.016.001.017 7.983-.532zm.918-7.022 7.55 2.643.007-.02.007-.018-7.564-2.605zm2.8-4.957-6.083-5.196-.005.006-.005.005 6.093 5.185zm4.543-3.534-3.577-7.155 3.578 7.155zm13.127.551-4.725 6.455.064.047.066.046 4.595-6.548zm3.948 4.865-7.324 3.218.02.047.021.046 7.283-3.31zm1.744 6.885-7.964.758.005.052.005.052 7.954-.862zm-9.914 20.792 7.799 1.783.024-.107.021-.107-7.844-1.569zm.413-2.616-7.914-1.173-.013.09-.011.09 7.938.993zm.321-2.984 7.975.63.001-.008.001-.008-7.977-.614zm.23-3.993 7.993.333 1.101-26.44-15.564 21.402 6.47 4.705zm-3.994 4.406 5.096 6.168.169-.14.162-.15-5.427-5.878zm-2.249 1.974 5.301 5.992.063-.056.063-.058-5.427-5.878zm-2.203 2.25-6.107-5.169-.059.07-.057.071 6.223 5.027zm-1.652 2.478-7.052-3.778-.025.047-.025.048 7.102 3.683zm.23 4.819L92.4 62.052l.052.065.053.064 6.168-5.095zm4.13.505-3.7-7.093-.066.034-.065.036 3.831 7.023zm1.974-1.56-5.787-5.524-.067.07-.066.072 5.92 5.381zm5.127-18.268c0 4.8-.03 9.602-.091 14.402l15.999.203c.061-4.869.092-9.737.092-14.605h-16zm-.092 14.453c-.03 4.769-.12 9.741-.272 14.917l15.993.468c.155-5.288.248-10.383.279-15.284l-16-.101zm8.184 7.164-7.987-.459-.918 15.974 7.987.459.918-15.974zm-.446 7.528v-6.196h-16v6.196h16zm-14.993-10.081c-.532.959-.91 1.28-.981 1.335l9.707 12.72c2.255-1.722 3.957-3.939 5.261-6.285l-13.987-7.77zm-.873 1.254c-.778.573-1.311.85-1.605.97l6.092 14.796c1.786-.736 3.456-1.744 5.004-2.885l-9.491-12.881zm-1.53.94c-.491.197-.836.253-1.065.265l.82 15.979c2.157-.11 4.23-.605 6.187-1.388l-5.942-14.856zm-.655.254c-.256 0-.404-.044-.553-.119l-7.156 14.31a17.108 17.108 0 0 0 7.709 1.81v-16zm-.42-.05a3.309 3.309 0 0 1-1-.796L85.955 68.87a19.308 19.308 0 0 0 5.7 4.53l7.425-14.174zm-1-.796a4.955 4.955 0 0 1-.86-1.459l-14.9 5.83a20.947 20.947 0 0 0 3.636 6.07L98.08 58.43zm-.788-1.264a4.992 4.992 0 0 1-.303-1.731h-16c0 2.457.421 4.862 1.257 7.173l15.046-5.442zm-.303-1.731c0-.586.116-1.213.434-1.941l-14.665-6.4c-1.15 2.638-1.77 5.438-1.77 8.34h16zm.407-1.88c.115-.26.439-.801 1.401-1.536l-9.703-12.722c-2.647 2.02-4.895 4.568-6.309 7.736l14.61 6.522zm1.44-1.565c2.36-1.823 4.361-3.311 6.016-4.48l-9.236-13.066c-1.895 1.34-4.085 2.972-6.56 4.882l9.78 12.664zm6.016-4.48c1.911-1.352 3.607-2.65 5.034-3.89L99.394 31.54c-.9.78-2.14 1.746-3.779 2.904l9.236 13.065zm5.045-3.9c1.553-1.353 3.085-2.96 4.219-4.851l-13.719-8.232c.031-.052-.007.021-.182.218a9.382 9.382 0 0 1-.832.805l10.514 12.06zm4.18-4.787c1.429-2.33 2.052-4.892 2.052-7.44h-16c0-.024.003-.147.053-.335.052-.192.137-.396.254-.586l13.641 8.361zm2.052-7.44c0-2.625-.386-6.074-2.418-9.03l-13.185 9.065a3.653 3.653 0 0 1-.374-.682c-.064-.155-.083-.244-.082-.239.001.004.017.076.032.231.015.154.027.37.027.656h16zm-2.354-8.935c-1.979-2.968-5.236-5.077-9.318-5.077v16c-.724 0-1.608-.18-2.465-.668-.826-.47-1.304-1.041-1.53-1.38l13.313-8.875zm-9.318-5.077c-2.222 0-4.53.64-6.544 2.15l9.6 12.8c-1.035.777-2.181 1.05-3.056 1.05v-16zm-6.475 2.1c-1.58 1.158-2.712 2.611-3.496 4.102l14.158 7.452c-.172.328-.539.863-1.201 1.348L97.981 19.47zm-3.572 4.25a15.978 15.978 0 0 0-1.305 3.76l15.635 3.4a.912.912 0 0 1 .029-.113c-.001 0-.014.04-.048.109L94.409 23.72zM93.05 27.75a19.262 19.262 0 0 0-.313 3.45h16c0-.185.017-.38.054-.588l-15.741-2.862zm-.313 3.45c0 .633.02 1.288.058 1.959l15.976-.888a19.572 19.572 0 0 1-.034-1.07h-16zm.095 2.398c.106.952.283 1.888.511 2.801l15.522-3.88a5.486 5.486 0 0 1-.131-.688l-15.902 1.767zm8.133-7.138-10.557.184.279 15.997 10.556-.183-.278-15.998zm-2.472 7.248c-.048-.404-.08-.759-.1-1.066l-15.966 1.064c.041.61.1 1.235.175 1.871l15.89-1.87zm-.099-1.033c-.02-.335-.03-.642-.03-.924h-16c0 .636.021 1.277.061 1.922l15.97-.998zm-.03-.924c0-.974.162-1.948.515-2.957l-15.102-5.285a24.837 24.837 0 0 0-1.413 8.242h16zm.528-2.995c.332-.966.78-1.734 1.328-2.377l-12.185-10.37c-1.9 2.234-3.319 4.77-4.272 7.538l15.129 5.209zm1.319-2.366a6.337 6.337 0 0 1 2.038-1.574l-7.155-14.311a22.336 22.336 0 0 0-7.05 5.494l12.167 10.391zm2.038-1.574c.502-.251 1.279-.487 2.527-.487v-16c-3.342 0-6.635.652-9.682 2.176l7.155 14.31zm2.527-.487c1.927 0 2.404.415 2.297.337l9.451-12.91c-3.534-2.588-7.738-3.427-11.748-3.427v16zm2.427.43c.504.354.898.805 1.219 1.535l14.648-6.436c-1.454-3.309-3.692-6.101-6.676-8.195l-9.191 13.096zm1.26 1.628c.496 1.092.889 2.503 1.063 4.332l15.928-1.517c-.316-3.31-1.086-6.49-2.425-9.436l-14.566 6.62zm1.073 4.436c.244 2.242.367 4.555.367 6.94h16c0-2.938-.152-5.827-.46-8.665l-15.907 1.725zm5.884 21.499c.2-.998.367-2.068.507-3.193l-15.876-1.984a28.922 28.922 0 0 1-.32 2.039l15.689 3.138zm.483-3.013a52.87 52.87 0 0 0 .382-3.526l-15.95-1.26a37.06 37.06 0 0 1-.26 2.441l15.828 2.345zm.384-3.542c.1-1.305.181-2.732.246-4.274l-15.986-.666a109.55 109.55 0 0 1-.213 3.713l15.953 1.227zm-14.217-9.312c-.37.508-.688.903-.952 1.202l11.998 10.586a32.635 32.635 0 0 0 1.894-2.377l-12.94-9.411zm-.952 1.202a22.28 22.28 0 0 1-.943 1.013l11.314 11.314a38.915 38.915 0 0 0 1.627-1.74l-11.998-10.587zm-.943 1.013c-.398.398-.749.736-1.055 1.018l10.853 11.757c.489-.452.995-.94 1.516-1.461l-11.314-11.314zm-.724.729a62.79 62.79 0 0 0-2.58 2.263l10.853 11.756a46.349 46.349 0 0 1 1.918-1.684l-10.19-12.335zm-2.454 2.15a29.799 29.799 0 0 0-3.01 3.072l12.214 10.336c.42-.497.884-.971 1.397-1.425L96.998 41.547zm-3.126 3.213a23.877 23.877 0 0 0-2.48 3.728l14.103 7.555c.21-.393.48-.803.824-1.23L93.872 44.762zm-2.531 3.823c-.918 1.77-1.54 3.837-1.54 6.115H105.8c0 .688-.194 1.132-.255 1.25l-14.204-7.365zm-1.54 6.115c0 2.83 1.01 5.345 2.6 7.353l12.544-9.932c.183.232.411.59.588 1.073.179.492.267 1.009.267 1.506h-16zm2.704 7.482c1.987 2.406 4.909 3.96 8.325 3.96v-16a5.35 5.35 0 0 1 2.334.551c.797.39 1.343.896 1.676 1.299L92.505 62.18zm8.325 3.96c2.217 0 4.183-.642 5.804-1.527l-7.662-14.046c.276-.15.925-.426 1.858-.426v16zm5.674-1.458c1.651-.86 3.039-2.002 4.193-3.271l-11.84-10.763c-.07.077.003-.024.246-.15l7.401 14.184zm4.06-3.129a19.217 19.217 0 0 0 2.916-4l-14.01-7.73a3.245 3.245 0 0 1-.48.683l11.574 11.047zm2.916-4a19.246 19.246 0 0 0 1.896-5.02L99.778 48.97a3.253 3.253 0 0 1-.307.856l14.009 7.73zm28.005 9.17-7.927-1.083-1.307 9.566 9.642-.493-.408-7.99zm1.423-14.962-7.986-.484-.001.024-.002.024 7.989.436zm.091-20.333-7.819 1.69.005.023.005.022 7.809-1.735zm-.963-2.57-6.708 4.36.052.079.053.078 6.603-4.518zm-1.286-1.148-2.971 7.428.219.087.223.074 2.529-7.59zm-3.075.046-2.899-7.456-.074.028-.073.03 3.046 7.398zm-2.754 3.81-7.524-2.718-.034.093-.031.095 7.589 2.53zm-1.606 10.97-7.986-.47-.003.044-.002.045 7.991.38zm-.184 17.211h-8v.098l.003.097 7.997-.195zm.046 3.35h-8v.13l.004.129 7.996-.258zm.138 2.02-.071 8 9.408.083-1.43-9.3-7.907 1.217zm-10.373-.092-7.996-.263-.27 8.19 8.195.073.071-8zm.183-7.435-7.997-.222-.001.054-.001.055 7.999.113zm.184-11.2-7.999-.15-.001.075v.076h8zm0-9.087h-8v.083l.002.083 7.998-.166zm-.046-4.82h-8v.072l.001.071 7.999-.143zm-.092-5.6-7.999.12.001.062.002.061 7.996-.242zm-.137-6.792-.206-7.998-7.989.205.197 7.99 7.998-.197zm10.74-.276 7.994.314.334-8.53-8.533.219.205 7.997zm-.184 4.682-7.994-.313 15.064 4.056-7.07-3.743zm2.662-3.718 5.564 5.75.047-.047.046-.046-5.657-5.657zm2.8-2.203-3.847-7.014-.048.026-.049.028 3.944 6.96zm2.754-1.01 1.359 7.884.131-.023.131-.027-1.621-7.834zm7.068 1.699-5.857 5.449 5.857-5.45zm2.892 5.278-7.621 2.434.021.064.021.064 7.579-2.562zm1.744 22.95-7.988-.433-.003.054-.002.054 7.993.324zm-.367 6.7-7.981-.554-.003.052-.003.052 7.987.45zm-.459 6.334-7.968-.713-.005.054-.004.055 7.977.604zm-.413 5.646.408 7.99 7.076-.362.496-7.068-7.98-.56zm-2.86 1.634a192.838 192.838 0 0 0 1.485-15.61l-15.977-.872a176.18 176.18 0 0 1-1.361 14.315l15.853 2.167zm1.482-15.562c.317-5.225.474-10.68.474-16.365h-16c0 5.392-.149 10.523-.445 15.397l15.971.968zm.474-16.365c0-2.124-.132-4.268-.558-6.188l-15.619 3.471c.063.283.177 1.108.177 2.717h16zm-.548-6.143c-.341-1.576-.941-3.585-2.181-5.397l-13.205 9.035a3.99 3.99 0 0 1-.269-.452c-.051-.102-.075-.165-.08-.178l.023.075c.019.066.044.163.073.298l15.639-3.381zm-2.076-5.24c-.905-1.392-2.605-3.424-5.463-4.377l-5.059 15.18c-1.941-.647-2.783-1.914-2.893-2.083l13.415-8.72zm-5.022-4.215a11.563 11.563 0 0 0-4.302-.848v16c-.733 0-1.298-.16-1.64-.296l5.942-14.856zm-4.302-.848c-1.568 0-3.135.28-4.643.866l5.799 14.912a3.239 3.239 0 0 1-1.156.222v-16zm-4.79.924c-2.247.926-3.799 2.472-4.823 3.837l12.8 9.6c-.105.141-.678.861-1.885 1.358l-6.092-14.795zm-4.823 3.837c-1.116 1.489-1.869 3.157-2.409 4.653l15.049 5.435c.115-.32.202-.513.25-.609.051-.1.03-.038-.09.121l-12.8-9.6zm-2.474 4.84c-.568 1.705-.973 3.653-1.283 5.684l15.817 2.413c.241-1.58.478-2.538.645-3.037l-15.179-5.06zm-1.283 5.684c-.325 2.128-.558 4.593-.72 7.346l15.972.94c.144-2.449.339-4.39.565-5.873l-15.817-2.413zm-.725 7.436c-.13 2.735-.193 5.944-.193 9.606h16c0-3.498.06-6.44.175-8.845l-15.982-.761zm-.193 9.606V55.8h16V51.762h-16zm0 4.039V59.748h16V55.801h-16zm.003 4.142c.029 1.207.043 2.257.043 3.156h16c0-1.06-.016-2.243-.048-3.546l-15.995.39zm.047 3.414c.031.956.085 2.057.227 2.978l15.814-2.433c.012.077.014.107.01.07a27.244 27.244 0 0 1-.059-1.132l-15.992.517zm8.205-6.239-10.373-.091-.142 16 10.373.09.142-15.999zm-2.449 8.172c.093-2.822.156-5.352.188-7.587l-15.999-.225c-.03 2.11-.089 4.537-.18 7.285l15.991.527zm.185-7.477c.062-2.227.109-4.277.14-6.148l-15.998-.266a529.82 529.82 0 0 1-.136 5.97l15.994.444zm.14-6.148c.031-1.873.047-3.632.047-5.273h-16c0 1.54-.015 3.209-.045 5.007l15.998.267zm.046-5.123c.031-1.67.047-3.311.047-4.924h-16c0 1.508-.015 3.05-.045 4.623l15.998.301zm.047-4.924c0-1.465-.016-2.959-.048-4.48l-15.996.332c.029 1.416.044 2.799.044 4.148h16zm-.046-4.314c0-1.553-.016-3.208-.047-4.962l-15.998.285c.03 1.673.045 3.231.045 4.677h16zm-.046-4.82c0-1.807-.032-3.755-.095-5.842l-15.993.485c.059 1.953.088 3.737.088 5.357h16zm-.093-5.719c-.031-2.08-.077-4.371-.139-6.87l-15.995.394c.061 2.458.106 4.696.136 6.715l15.998-.239zm-7.931 1.324 10.74-.275-.41-15.995-10.741.275.411 15.995zm2.541-8.586-.184 4.682 15.988.627.184-4.682-15.988-.627zm14.88 8.738c.557-1.051.977-1.539 1.156-1.712l-11.127-11.498c-1.718 1.663-3.073 3.654-4.169 5.724l14.14 7.486zm1.249-1.804c.57-.57.939-.816 1.087-.9l-7.888-13.92c-1.688.956-3.185 2.18-4.513 3.506l11.314 11.314zm.99-.845c.324-.178.406-.165.266-.14l-2.718-15.768c-1.914.33-3.669 1.016-5.242 1.879l7.694 14.029zm.528-.19c.498-.104.736-.11.766-.11v-16c-1.378 0-2.731.177-4.008.441l3.242 15.668zm.766-.11c.009 0-.2-.002-.515-.135a1.977 1.977 0 0 1-.661-.442l11.715-10.898c-2.83-3.042-6.559-4.525-10.539-4.525v16zm-1.176-.578c.226.243.684.873 1.128 2.264l15.242-4.868c-.964-3.015-2.433-5.904-4.655-8.293l-11.715 10.898zm1.17 2.392c.5 1.479.902 3.355 1.132 5.698l15.924-1.558c-.322-3.287-.93-6.398-1.898-9.264l-15.158 5.124zm1.132 5.698c.248 2.54.375 5.2.375 7.988h16c0-3.271-.149-6.454-.451-9.546l-15.924 1.558zm.375 7.988c0 2.055-.057 4.145-.172 6.27l15.976.863a132.1 132.1 0 0 0 .196-7.133h-16zm-.177 6.377a224.1 224.1 0 0 1-.355 6.471l15.962 1.109c.158-2.282.285-4.593.38-6.932l-15.987-.648zm-.361 6.575c-.118 2.09-.265 4.113-.44 6.07l15.936 1.428c.192-2.143.351-4.342.478-6.598l-15.974-.9zm-.449 6.18a1071.58 1071.58 0 0 0-.417 5.69l15.961 1.12c.121-1.727.258-3.594.41-5.601l-15.954-1.209zm7.156-1.74-10.786.551.816 15.98 10.786-.552-.816-15.979zm35.096-56.59 7.999.14.147-8.483-8.476.35.33 7.994zm-1.147 65.957v8h7.862l.136-7.861-7.998-.14zm-8.813 0h-8v8h8v-8zm0-4.682h8V36.7l-14.632 21.697 6.632 4.473zm-2.57 3.075 5.188 6.09.064-.054.063-.056-5.315-5.98zm-2.203 1.56 3.69 7.099.011-.006.011-.005-3.712-7.087zm-2.112.735v8h.569l.563-.08-1.132-7.92zm-4.635-1.377-4.216 6.8.05.03.05.03 4.116-6.86zm-4.131-4.681-7.012 3.851.021.038.021.037 6.97-3.926zm-2.938-8.537-7.82 1.685.001.007.002.007 7.817-1.7zm-.183-23.73-7.814-1.719-.006.03-.006.029 7.826 1.66zm10.969-13.861.591-7.978-.295-.022h-.296v8zm2.479.642 3.452-7.217-.101-.048-.102-.045-3.249 7.31zm4.773 4.36-6.784 4.24 15.711 25.137-.931-29.627-7.996.25zm-.596-19.001-.331-7.993-7.914.327.249 7.917 7.996-.251zm1.422 42.777h8v-.118l-.003-.117-7.997.235zm-.229-6.38-7.997.225.002.057.002.056 7.993-.338zm-.597-5.92-7.864 1.465.002.013.002.012 7.86-1.49zm-1.56-4.407-6.924 4.008.063.109.066.106 6.795-4.223zm-5.646-.321-6.524-4.63-.05.07-.049.073 6.623 4.487zm-1.469 3.672-7.805-1.753-.017.076-.016.077 7.838 1.6zm-.596 13.999-7.998.186.002.093.004.092 7.992-.371zm.275 3.947-7.965.74v.01l.001.008 7.964-.758zm1.469 6.793-7.428 2.971.018.044.018.044 7.392-3.06zm1.331 2.111-5.657 5.657.081.08.083.08 5.493-5.817zm4.269-.321 6.02 5.268.053-.06.052-.063-6.125-5.145zm1.56-3.075-7.589-2.53-.028.082-.025.082 7.642 2.366zm.918-4.498 7.955.852v-.008l.001-.007-7.956-.837zm1.961-48.975-1.147 65.956 15.997.278 1.148-65.956-15.998-.278zm6.852 58.095h-8.813v16h8.813v-16zm-.813 8v-4.682h-16v4.682h16zm-14.632-9.155c-.661.98-1.092 1.426-1.253 1.57l10.63 11.958c1.491-1.326 2.773-2.93 3.888-4.582l-13.265-8.946zm-1.126 1.458a8.851 8.851 0 0 1-.607.48c-.142.1-.18.115-.12.084l7.424 14.173c1.36-.712 2.599-1.637 3.679-2.557l-10.376-12.18zm-.706.553c-.092.048-.103.046-.039.024.064-.023.231-.075.487-.111l2.263 15.839c1.775-.254 3.352-.87 4.67-1.556l-7.381-14.196zm1.579-.168c.017 0 .007.004-.051-.013a2.123 2.123 0 0 1-.468-.224l-8.232 13.72c2.591 1.555 5.543 2.517 8.751 2.517v-16zm-.42-.176c-.028-.017-.572-.381-1.376-1.81l-13.94 7.854c1.643 2.918 3.853 5.675 6.885 7.555l8.431-13.599zm-1.334-1.734c-.697-1.268-1.464-3.31-2.132-6.385l-15.635 3.399c.861 3.963 2.053 7.612 3.743 10.69l14.024-7.704zm-2.129-6.37c-.606-2.813-.968-6.597-.968-11.488h-16c0 5.574.403 10.571 1.327 14.858l15.641-3.37zm-.968-11.488c0-3.604.291-6.545.789-8.897l-15.651-3.32c-.787 3.707-1.138 7.804-1.138 12.217h16zm.777-8.838c.565-2.57 1.241-4.378 1.896-5.598l-14.094-7.573c-1.548 2.881-2.648 6.184-3.429 9.733l15.627 3.438zm1.896-5.598c.7-1.302 1.248-1.793 1.451-1.94l-9.378-12.963c-2.673 1.933-4.664 4.533-6.167 7.33l14.094 7.573zm1.451-1.94c.161-.116.206-.118.137-.094a1.097 1.097 0 0 1-.328.052v-16c-3.47 0-6.579 1.192-9.187 3.079l9.378 12.963zm-.782-.064a1.027 1.027 0 0 1-.177-.028c-.036-.01-.038-.013-.002.003l6.498-14.621a15.418 15.418 0 0 0-5.137-1.31l-1.182 15.956zm-.382-.119c-.008-.004.063.03.219.131.153.1.363.247.631.457l9.885-12.58c-1.151-.905-2.436-1.774-3.831-2.442l-6.904 14.434zm.85.588c-.064-.05.167.117.591.796l13.568-8.48c-1.105-1.77-2.496-3.5-4.274-4.897L169.073 24.5zm15.371-3.695-.596-19.002-15.992.502.596 19.002 15.992-.502zm-8.262-10.758 11.107-.46-.66-15.985-11.108.459.661 15.986zm9.089 34.549c-.062-2.116-.14-4.277-.233-6.483l-15.986.676c.091 2.14.166 4.232.226 6.277l15.993-.47zm-.229-6.37c-.071-2.515-.304-4.92-.734-7.186l-15.72 2.98c.244 1.284.409 2.826.46 4.656l15.994-.45zm-.729-7.162c-.455-2.439-1.245-4.933-2.631-7.163l-13.589 8.446.013.023.037.073c.031.066.073.165.122.303.099.28.214.687.319 1.25l15.729-2.932zm-2.502-6.948c-1.979-3.42-5.467-5.736-9.815-5.736v16a4.857 4.857 0 0 1-2.468-.714c-.878-.53-1.355-1.173-1.564-1.534l13.847-8.016zm-9.815-5.736c-3.756 0-7.105 1.731-9.278 4.793l13.048 9.26c-.308.435-.846.99-1.658 1.41a4.668 4.668 0 0 1-2.112.537v-16zm-9.377 4.936c-1.36 2.008-2.166 4.243-2.651 6.406l15.611 3.505c.09-.4.179-.666.242-.824.063-.157.089-.179.045-.114l-13.247-8.973zm-2.684 6.559c-.41 2.007-.634 4.111-.708 6.286l15.991.542c.049-1.437.192-2.637.394-3.629l-15.677-3.2zm-.708 6.286c-.064 1.89-.096 3.74-.096 5.549h16c0-1.618.029-3.288.087-5.007l-15.991-.542zm-.096 5.549c0 1.261.016 2.578.048 3.95l15.996-.372c-.03-1.26-.044-2.453-.044-3.578h-16zm.054 4.135c.067 1.44.168 2.879.302 4.317l15.931-1.482a78.287 78.287 0 0 1-.25-3.578l-15.983.743zm.303 4.334c.149 1.559.375 3.081.687 4.562l15.656-3.296a25.174 25.174 0 0 1-.415-2.783l-15.928 1.517zm.687 4.562a26.802 26.802 0 0 0 1.318 4.444l14.856-5.942c-.166-.414-.35-1-.518-1.798l-15.656 3.296zm1.354 4.532c.652 1.576 1.613 3.256 3.066 4.709l11.314-11.314c.211.212.333.386.388.473.053.085.052.1.016.014l-14.784 6.118zm3.23 4.868c1.984 1.874 4.573 2.965 7.421 2.965v-16c.599 0 1.281.11 1.969.389a5.144 5.144 0 0 1 1.596 1.014l-10.986 11.632zm7.421 2.965c3.384 0 6.308-1.488 8.361-3.834L168.5 52.736a4.74 4.74 0 0 1 1.547-1.144 5.052 5.052 0 0 1 2.133-.486v16zm8.466-3.957c1.522-1.811 2.467-3.884 3.077-5.855l-15.284-4.73c-.087.28-.156.429-.18.477-.024.047.01-.033.136-.183l12.251 10.291zm3.025-5.69c.651-1.954 1.053-4.038 1.283-6.176l-15.909-1.705c-.138 1.29-.348 2.204-.553 2.82l15.179 5.06zm1.284-6.19c.217-2.057.319-4.206.319-6.438h-16c0 1.746-.08 3.33-.231 4.762l15.912 1.675zm18.103-31.912 7.949.906 1.083-9.505-9.547.616.515 7.983zm-.642 7.987 7.989.425v-.005l-7.989-.42zm-.413 17.854h-8v.084l8-.084zm.183 8.262-7.995.285.001.004 7.994-.289zm.781 11.2v8h9.585l-1.714-9.432-7.871 1.431zm-3.81.091-.372-7.991-.03.001-.03.002.432 7.988zm-8.032.643-7.966-.74-.924 9.967 9.924-1.295-1.034-7.932zm1.239-19.966-7.997-.213-.001.02v.022l7.998.17zm0-14.55-7.996.266.001.022.001.022 7.994-.31zm-.872-11.934.975-7.94-10.21-1.254 1.299 10.204 7.936-1.01zm4.728.413.347-7.992-.347 7.992zm-1.11-.905a140.376 140.376 0 0 0-.683 8.471l15.978.841c.146-2.775.348-5.273.602-7.501l-15.897-1.811zm-.683 8.467c-.158 2.968-.268 6.009-.331 9.122l15.997.323c.059-2.946.163-5.811.312-8.595l-15.978-.85zm-.331 9.122a455.34 455.34 0 0 0-.093 9.157h16c0-2.913.03-5.858.09-8.834l-15.997-.323zm-.093 9.24c.031 2.996.094 5.818.188 8.465l15.99-.572c-.089-2.494-.149-5.18-.179-8.06l-15.999.168zm.189 8.468c.093 2.59.203 4.912.331 6.957l15.969-.998a252.306 252.306 0 0 1-.311-6.537l-15.989.578zm.331 6.957c.128 2.044.303 3.903.573 5.384l15.742-2.862c-.098-.538-.229-1.647-.346-3.52l-15.969.998zm8.444-4.047c-1.357 0-2.751.034-4.182.1l.744 15.983a74.172 74.172 0 0 1 3.438-.083v-16zm-4.242.104c-1.168.063-2.468.141-3.898.234l1.041 15.966c1.385-.09 2.624-.164 3.721-.224l-.864-15.976zm-3.898.234c-1.581.103-3.16.258-4.737.464l2.069 15.865a57.65 57.65 0 0 1 3.709-.362l-1.041-15.967zm4.264 9.135c.716-7.72 1.144-14.572 1.271-20.533l-15.996-.342c-.117 5.482-.515 11.94-1.207 19.398l15.932 1.477zm1.27-20.492c.156-5.855.159-10.892-.003-15.072l-15.988.62c.144 3.714.147 8.378-.003 14.027l15.994.425zm-.001-15.029c-.159-4.758-.464-8.995-.932-12.677l-15.872 2.02c.388 3.05.665 6.769.812 11.19l15.992-.533zm-9.843-3.726c1.904.233 3.694.393 5.355.465l.695-15.985a52.933 52.933 0 0 1-4.1-.361l-1.95 15.88zm5.355.465c1.482.064 2.813.1 3.973.1v-16c-.858 0-1.945-.027-3.278-.085l-.695 15.985zm3.973.1c1.325 0 2.572-.034 3.728-.11l-1.03-15.966c-.74.048-1.635.075-2.698.075v16zm26.427 39.275-7.926-1.084-1.307 9.566 9.641-.493-.408-7.99zm1.423-14.963-7.985-.484-.002.024-.001.024 7.988.436zm.092-20.333-7.82 1.69.005.023.005.022 7.81-1.735zm-.964-2.57-6.708 4.36.052.079.053.078 6.603-4.518zm-1.285-1.148-2.971 7.428.218.087.223.074 2.53-7.59zm-3.076.046-2.899-7.456-.074.028-.073.03 3.046 7.398zm-2.753 3.81-7.525-2.718-.034.093-.031.095 7.59 2.53zm-1.607 10.97-7.986-.47-.003.044-.002.045 7.991.38zm-.184 17.211h-8v.098l.003.097 7.997-.195zm.046 3.35h-8v.13l.005.129 7.995-.258zm.138 2.02-.071 8 9.409.083-1.431-9.3-7.907 1.217zm-10.373-.092-7.996-.263-.27 8.19 8.195.073.071-8zm.184-7.435-7.997-.222-.002.054-.001.055 8 .113zm.183-11.2-7.998-.15-.002.075v.076h8zm0-9.087h-8v.083l.002.083 7.998-.166zm-.046-4.82h-8v.072l.002.071 7.998-.143zm-.091-5.6-8 .12.001.062.002.061 7.997-.242zm-.138-6.792-.205-7.998-7.99.205.197 7.99 7.998-.197zm10.74-.276 7.994.314.334-8.53-8.533.219.205 7.997zm-.184 4.682-7.993-.313 15.064 4.056-7.071-3.743zm2.663-3.718 5.563 5.75.047-.047.046-.046-5.656-5.657zm2.799-2.203-3.846-7.014-.049.026-.049.028 3.944 6.96zm2.754-1.01 1.36 7.884.131-.023.13-.027-1.621-7.834zm7.069 1.699-5.858 5.449 5.858-5.45zm2.891 5.278-7.62 2.434.02.064.022.064 7.578-2.562zm1.744 22.95-7.988-.433-.003.054-.002.054 7.993.324zm-.367 6.7-7.981-.554-.003.052-.003.052 7.987.45zm-.459 6.334-7.968-.713-.005.054-.004.055 7.977.604zm-.413 5.646.408 7.99 7.076-.362.497-7.068-7.981-.56zm-2.86 1.634a192.838 192.838 0 0 0 1.485-15.61l-15.976-.872a177.08 177.08 0 0 1-1.361 14.315l15.852 2.167zm1.482-15.562c.317-5.225.474-10.68.474-16.365h-16c0 5.392-.149 10.523-.444 15.397l15.97.968zm.474-16.365c0-2.124-.131-4.268-.558-6.188l-15.619 3.471c.063.283.177 1.108.177 2.717h16zm-.548-6.143c-.341-1.576-.941-3.585-2.181-5.397l-13.205 9.035a3.99 3.99 0 0 1-.269-.452c-.051-.102-.075-.165-.08-.178-.005-.013.005.01.023.075.019.066.044.163.073.298l15.639-3.381zm-2.076-5.24c-.905-1.392-2.604-3.424-5.463-4.377l-5.059 15.18c-1.94-.647-2.783-1.914-2.893-2.083l13.415-8.72zm-5.021-4.215a11.567 11.567 0 0 0-4.302-.848v16a4.45 4.45 0 0 1-1.64-.296l5.942-14.856zm-4.302-.848a12.77 12.77 0 0 0-4.644.866l5.799 14.912a3.234 3.234 0 0 1-1.155.222v-16zm-4.791.924c-2.247.926-3.799 2.472-4.822 3.837l12.8 9.6c-.106.141-.679.861-1.886 1.358l-6.092-14.795zm-4.822 3.837c-1.117 1.489-1.87 3.157-2.41 4.653l15.049 5.435c.115-.32.203-.513.251-.609.05-.1.029-.038-.09.121l-12.8-9.6zm-2.475 4.84c-.568 1.705-.973 3.653-1.283 5.684l15.817 2.413c.241-1.58.479-2.538.645-3.037l-15.179-5.06zm-1.283 5.684c-.324 2.128-.558 4.593-.72 7.346l15.972.94c.144-2.449.339-4.39.565-5.873l-15.817-2.413zm-.725 7.436c-.13 2.735-.193 5.944-.193 9.606h16c0-3.498.06-6.44.175-8.845l-15.982-.761zm-.193 9.606V55.8h16V51.762h-16zm0 4.039V59.748h16V55.801h-16zm.003 4.142c.029 1.207.043 2.257.043 3.156h16c0-1.06-.016-2.243-.048-3.546l-15.995.39zm.048 3.414c.03.956.084 2.057.226 2.978l15.814-2.433c.012.077.014.107.01.07a7.403 7.403 0 0 1-.016-.201 30.16 30.16 0 0 1-.043-.93l-15.991.516zm8.204-6.239-10.373-.091-.142 16 10.373.09.142-15.999zm-2.448 8.172c.093-2.822.155-5.352.187-7.587l-15.999-.225c-.029 2.11-.089 4.537-.18 7.285l15.992.527zm.185-7.477c.061-2.227.108-4.277.139-6.148l-15.998-.266c-.03 1.801-.075 3.79-.135 5.97l15.994.444zm.139-6.148c.031-1.873.047-3.632.047-5.273h-16c0 1.54-.015 3.209-.045 5.007l15.998.267zm.046-5.123c.031-1.67.047-3.311.047-4.924h-16c0 1.508-.015 3.05-.044 4.623l15.997.301zm.047-4.924c0-1.465-.016-2.959-.048-4.48l-15.996.332c.029 1.416.044 2.799.044 4.148h16zm-.046-4.314c0-1.553-.016-3.208-.047-4.962l-15.997.285c.029 1.673.044 3.231.044 4.677h16zm-.046-4.82c0-1.807-.032-3.755-.095-5.842l-15.993.485c.059 1.953.088 3.737.088 5.357h16zm-.092-5.719c-.031-2.08-.078-4.371-.14-6.87l-15.995.394c.061 2.458.106 4.696.136 6.715l15.999-.239zm-7.932 1.324 10.74-.275-.41-15.995-10.74.275.41 15.995zm2.541-8.586-.183 4.682 15.987.627.184-4.682-15.988-.627zm14.881 8.738c.556-1.051.976-1.539 1.155-1.712l-11.127-11.498c-1.718 1.663-3.073 3.654-4.169 5.724l14.141 7.486zm1.248-1.804c.57-.57.939-.816 1.087-.9l-7.888-13.92c-1.688.956-3.185 2.18-4.512 3.506l11.313 11.314zm.99-.845c.325-.178.406-.165.267-.14l-2.719-15.768c-1.914.33-3.669 1.016-5.241 1.879l7.693 14.029zm.528-.19c.498-.104.736-.11.766-.11v-16c-1.378 0-2.731.177-4.008.441l3.242 15.668zm.766-.11c.009 0-.199-.002-.514-.135a1.995 1.995 0 0 1-.662-.442l11.715-10.898c-2.83-3.042-6.559-4.525-10.539-4.525v16zm-1.176-.578c.226.243.684.873 1.129 2.264l15.241-4.868c-.963-3.015-2.433-5.904-4.655-8.293l-11.715 10.898zm1.171 2.392c.5 1.479.902 3.355 1.131 5.698l15.924-1.558c-.322-3.287-.929-6.398-1.898-9.264l-15.157 5.124zm1.131 5.698c.248 2.54.375 5.2.375 7.988h16c0-3.271-.149-6.454-.451-9.546l-15.924 1.558zm.375 7.988c0 2.055-.057 4.145-.172 6.27l15.977.863c.13-2.404.195-4.782.195-7.133h-16zm-.177 6.377a224.1 224.1 0 0 1-.355 6.471l15.962 1.109c.158-2.282.285-4.593.38-6.932l-15.987-.648zm-.361 6.575c-.118 2.09-.265 4.113-.44 6.07l15.936 1.428c.192-2.143.351-4.342.479-6.598l-15.975-.9zm-.449 6.18a971.186 971.186 0 0 0-.416 5.69l15.961 1.12a996 996 0 0 1 .409-5.601l-15.954-1.209zm7.156-1.74-10.786.551.816 15.98 10.786-.552-.816-15.979z" fill="#243041" mask="url(#b)"/><defs><linearGradient id="a" x1="119" y1="-5.448" x2="119" y2="89" gradientUnits="userSpaceOnUse"><stop stop-color="#67B6FF"/><stop offset="1" stop-color="#fff"/></linearGradient></defs></svg>