<svg width="216" height="44" fill="none" xmlns="http://www.w3.org/2000/svg"><mask id="b" maskUnits="userSpaceOnUse" x="-4" y="-4" width="224" height="52" fill="#000"><path fill="#fff" d="M-4-4h224v52H-4z"/><path d="M17.631 1.203c-.203 3.14-.36 6.258-.468 9.352-.11 3.078-.165 6.172-.165 9.28 0 2.423.032 4.813.094 7.173.078 2.36.203 4.734.375 7.125l-4.734-.14a2317.57 2317.57 0 0 1-1.852-6.048c-.594-2.015-1.187-4.015-1.781-6a372.462 372.462 0 0 0-1.828-5.93c-.61-1.968-1.242-3.93-1.899-5.882.047 4.078.118 8.148.211 12.21.11 4.048.297 8.087.563 12.118l-5.414-.047c.187-4.984.281-9.992.281-15.023A445.718 445.718 0 0 0 .64 1.063l6.563.14c.796 3.438 1.648 6.93 2.554 10.477a303.138 303.138 0 0 0 2.883 10.5c-.11-3.532-.273-7.063-.492-10.594-.203-3.547-.43-7.024-.68-10.43l6.164.047zM36.72 20.07c0 2.47-.016 4.938-.047 7.407a337.154 337.154 0 0 1-.14 7.71l-4.079-.234V31.79c-.469.844-1 1.492-1.594 1.945-.593.438-1.156.766-1.687.985-.625.25-1.242.39-1.852.422-.75 0-1.453-.164-2.11-.493a5.774 5.774 0 0 1-1.71-1.359 6.61 6.61 0 0 1-1.148-1.922 6.632 6.632 0 0 1-.399-2.273c0-.89.188-1.766.563-2.625.39-.875 1.047-1.664 1.968-2.367a96.953 96.953 0 0 1 3.211-2.391 29.095 29.095 0 0 0 2.25-1.734c.61-.532 1.055-1.032 1.336-1.5.297-.485.446-1.04.446-1.665 0-1.03-.172-1.796-.516-2.296-.344-.516-.797-.774-1.36-.774-.343 0-.64.094-.89.281-.234.172-.43.407-.586.704a4.08 4.08 0 0 0-.328.96 5.754 5.754 0 0 0-.094 1.032c0 .234.008.492.024.773.03.281.085.578.164.89l-5.391.095A11.676 11.676 0 0 1 22.656 17a8.6 8.6 0 0 1 .492-2.86 7.765 7.765 0 0 1 1.43-2.53 7.322 7.322 0 0 1 2.32-1.805c.907-.453 1.946-.68 3.118-.68 1.515 0 2.71.32 3.586.96a5.839 5.839 0 0 1 2.015 2.485c.469 1.032.766 2.203.89 3.516.141 1.297.212 2.625.212 3.984zm-5.274 6.633c.078-.39.149-.836.211-1.336.063-.422.117-.93.164-1.523.047-.61.086-1.29.117-2.04-.25.344-.492.65-.726.915-.234.265-.453.5-.656.703-.235.234-.453.445-.657.633-.359.297-.742.633-1.148 1.008-.406.359-.781.742-1.125 1.148-.328.406-.61.828-.844 1.266-.218.421-.328.835-.328 1.242 0 .437.149.843.445 1.218.297.36.665.54 1.102.54.328 0 .664-.094 1.008-.282.36-.187.695-.453 1.008-.797a5.724 5.724 0 0 0 1.43-2.695zm21.432 1.29c0 1.39-.235 2.554-.704 3.491-.453.922-1.03 1.664-1.734 2.227a6.552 6.552 0 0 1-2.273 1.219c-.828.234-1.61.351-2.344.351a8.893 8.893 0 0 1-1.594-.187 10.513 10.513 0 0 1-1.453-.422 4.474 4.474 0 0 1-1.36-.867l.188-5.344a7.456 7.456 0 0 0 1.711 1.055c.578.25 1.11.437 1.594.562.562.14 1.11.227 1.64.258a2.447 2.447 0 0 0 1.008-.984c.25-.438.375-.922.375-1.454 0-.453-.11-.93-.328-1.43-.203-.515-.523-1-.96-1.452l-1.571-1.57a20.146 20.146 0 0 1-1.735-2.11 13.338 13.338 0 0 1-1.406-2.602c-.375-.953-.562-1.992-.562-3.117 0-1.11.148-2.117.445-3.023.313-.922.742-1.711 1.29-2.367a5.904 5.904 0 0 1 1.991-1.524 6.039 6.039 0 0 1 2.555-.539c.75 0 1.563.117 2.438.352.874.218 1.804.57 2.789 1.054l-.375 5.461a5.66 5.66 0 0 0-1.29-.867 8.272 8.272 0 0 0-1.265-.539 7.03 7.03 0 0 0-1.336-.281c-.594.11-1.102.422-1.523.937-.422.5-.633 1.149-.633 1.946 0 .75.148 1.406.445 1.968a8.96 8.96 0 0 0 1.148 1.57c.47.485.977.977 1.524 1.477a11.147 11.147 0 0 1 1.523 1.664c.485.625.89 1.344 1.22 2.157.343.812.53 1.789.562 2.93zm10.439-17.321a67.629 67.629 0 0 0-.329 4.078 137.684 137.684 0 0 0-.164 4.523 227.823 227.823 0 0 0-.046 4.594c.015 1.5.046 2.906.093 4.219.047 1.297.102 2.445.164 3.445.063 1 .141 1.758.235 2.274-.625 0-1.274.015-1.946.047-.578.03-1.226.07-1.945.117-.719.047-1.437.117-2.156.21.36-3.874.57-7.273.633-10.195.078-2.937.078-5.414 0-7.43-.078-2.343-.227-4.374-.446-6.093.891.11 1.696.18 2.414.21.72.032 1.336.048 1.852.048.61 0 1.156-.016 1.64-.047zM73.73 34.367c-.406.016-.867.047-1.383.094-.437.031-.953.07-1.546.117a65.52 65.52 0 0 0-1.922.188c-.14-5.297-.29-9.977-.446-14.04-.156-4.078-.296-7.523-.421-10.335a517.408 517.408 0 0 0-.47-8.555l6.094-.281V18.617c.016 2.188.024 4.102.024 5.742.016 1.625.023 3.024.023 4.196.016 2.734.032 4.672.047 5.812zm31.66-15.773c0 3.14-.219 5.804-.657 7.992-.422 2.187-1 3.969-1.734 5.344-.734 1.36-1.602 2.351-2.602 2.976-1 .61-2.07.914-3.21.914-1.141 0-2.211-.289-3.211-.867-1-.594-1.875-1.562-2.625-2.906s-1.344-3.117-1.782-5.32c-.422-2.204-.632-4.915-.632-8.133 0-3.235.21-5.977.632-8.227.438-2.265 1.032-4.101 1.782-5.508.75-1.421 1.625-2.445 2.625-3.07 1-.64 2.07-.96 3.21-.96 1.141 0 2.211.312 3.211.937 1 .609 1.868 1.617 2.602 3.023.734 1.406 1.312 3.242 1.734 5.508.438 2.25.657 5.015.657 8.297zm-5.227 0c0-2.453-.078-4.524-.234-6.211-.157-1.688-.375-3.055-.657-4.102-.265-1.062-.578-1.828-.937-2.297-.36-.468-.742-.703-1.148-.703-.422 0-.82.242-1.196.727-.36.469-.68 1.234-.96 2.297-.266 1.047-.477 2.422-.634 4.125-.156 1.687-.234 3.742-.234 6.164 0 2.406.078 4.43.234 6.07.157 1.625.368 2.938.633 3.938.281.984.602 1.687.961 2.109.375.422.774.633 1.195.633.407 0 .79-.219 1.149-.657.36-.453.672-1.18.937-2.18.282-1.015.5-2.335.657-3.96.156-1.625.234-3.61.234-5.953zm24.197-7.875c.141 3.375.25 6.773.328 10.195.094 3.406.141 6.883.141 10.43 0 2.25-.094 4.133-.282 5.648-.187 1.516-.562 2.735-1.125 3.656-.562.938-1.367 1.602-2.414 1.993-1.046.406-2.429.609-4.148.609-.875 0-1.883-.04-3.023-.117a65.947 65.947 0 0 1-3.891-.399l.187-5.132c1.141.078 2.157.14 3.047.187l2.227.117c.703.047 1.312.07 1.828.07a2.9 2.9 0 0 0 .961-.14c.266-.078.476-.234.633-.469.172-.219.297-.531.375-.937.078-.407.117-.93.117-1.57v-.61c0-.219-.016-.46-.047-.727-.25.375-.539.672-.867.891-.313.219-.625.39-.938.516a3.423 3.423 0 0 1-.914.234c-.281.047-.515.07-.703.07-1.265 0-2.289-.257-3.07-.773-.781-.516-1.391-1.219-1.828-2.11-.422-.89-.711-1.93-.867-3.117a29.743 29.743 0 0 1-.235-3.843c0-.61-.008-1.016-.023-1.22 0-.218-.008-.35-.024-.398v-.046l.024-.235c.015-.172.039-.484.07-.937a289.298 289.298 0 0 0 .352-5.953c.093-1.594.203-3.618.328-6.07l5.414.468c.047 0 .015.305-.094.914a90.922 90.922 0 0 0-.352 2.555c-.125 1.094-.25 2.414-.375 3.96a64.465 64.465 0 0 0-.187 5.157c0 1.125.055 2.086.164 2.883.125.781.289 1.422.492 1.922s.446.867.727 1.101c.297.219.625.328.984.328.625 0 1.141-.484 1.547-1.453.406-.984.609-2.547.609-4.687 0-.14-.007-.297-.023-.47 0-.187-.008-.452-.023-.796 0-.36-.016-.82-.047-1.383-.032-.562-.078-1.304-.141-2.226a403.98 403.98 0 0 0-.187-3.399 440.132 440.132 0 0 0-.258-4.828l5.531.14zm15.173 24.14c.344-2.515.586-5.062.727-7.64.156-2.578.234-5.282.234-8.11 0-.953-.062-1.71-.187-2.273-.125-.578-.289-1.016-.492-1.313-.204-.312-.422-.507-.657-.585a1.825 1.825 0 0 0-.679-.141c-.313 0-.61.055-.891.164-.266.11-.516.32-.75.633-.234.312-.453.75-.656 1.312-.188.563-.352 1.305-.492 2.227-.141.922-.25 2.047-.329 3.375a101.877 101.877 0 0 0-.093 4.71V31.298c.015.64.023 1.21.023 1.71.016.485.039.829.07 1.032l-5.296-.047c.046-1.422.078-2.687.093-3.797.032-1.125.055-2.156.071-3.093.015-.938.023-1.813.023-2.625.016-.829.024-1.641.024-2.438 0-.719-.008-1.453-.024-2.203 0-.766-.008-1.586-.023-2.461 0-.875-.016-1.828-.047-2.86a347.541 347.541 0 0 0-.071-3.468l5.485-.14-.094 2.39c.422-.797.875-1.43 1.359-1.899.485-.484.961-.859 1.43-1.125a4.552 4.552 0 0 1 1.406-.515c.454-.094.86-.14 1.219-.14.969 0 1.766.335 2.391 1.007.625.672 1.117 1.57 1.476 2.695.375 1.11.633 2.383.774 3.82.14 1.438.211 2.93.211 4.477a63.92 63.92 0 0 1-.094 3.422 116.29 116.29 0 0 1-.188 3.422 96.22 96.22 0 0 1-.234 3.234 593.118 593.118 0 0 0-.211 2.883l-5.508.281zm25.182-14.789c0 2.47-.016 4.938-.047 7.407a340.093 340.093 0 0 1-.141 7.71l-4.078-.234V31.79c-.469.844-1 1.492-1.594 1.945-.593.438-1.156.766-1.687.985-.625.25-1.242.39-1.852.422-.75 0-1.453-.164-2.109-.493a5.772 5.772 0 0 1-1.711-1.359 6.639 6.639 0 0 1-1.149-1.922 6.649 6.649 0 0 1-.398-2.273c0-.89.188-1.766.563-2.625.39-.875 1.046-1.664 1.968-2.367a97.904 97.904 0 0 1 3.211-2.391 29.212 29.212 0 0 0 2.25-1.734c.61-.532 1.055-1.032 1.336-1.5.297-.485.445-1.04.445-1.665 0-1.03-.171-1.796-.515-2.296-.344-.516-.797-.774-1.36-.774-.343 0-.64.094-.89.281-.235.172-.43.407-.586.704-.141.28-.25.601-.328.96a5.709 5.709 0 0 0-.094 1.032c0 .234.008.492.023.773.032.281.086.578.165.89l-5.391.095a14.521 14.521 0 0 1-.07-.75c-.016-.25-.024-.493-.024-.727 0-.969.164-1.922.492-2.86a7.762 7.762 0 0 1 1.43-2.53 7.327 7.327 0 0 1 2.32-1.805c.907-.453 1.946-.68 3.118-.68 1.515 0 2.71.32 3.585.96a5.836 5.836 0 0 1 2.016 2.485c.469 1.032.766 2.203.891 3.516.14 1.297.211 2.625.211 3.984zm-5.274 6.633c.078-.39.149-.836.211-1.336.063-.422.117-.93.164-1.523.047-.61.086-1.29.117-2.04-.25.344-.492.65-.726.915-.235.265-.453.5-.656.703-.235.234-.454.445-.657.633a28.05 28.05 0 0 0-1.148 1.008c-.406.359-.781.742-1.125 1.148a8.164 8.164 0 0 0-.844 1.266c-.219.421-.328.835-.328 1.242 0 .437.148.843.445 1.218.297.36.664.54 1.102.54.328 0 .664-.094 1.008-.282a3.665 3.665 0 0 0 1.008-.797 5.727 5.727 0 0 0 1.429-2.695zm19.955 8.156c.344-2.515.586-5.062.726-7.64.157-2.578.235-5.282.235-8.11 0-.953-.063-1.71-.188-2.273-.125-.578-.289-1.016-.492-1.313-.203-.312-.422-.507-.656-.585a1.826 1.826 0 0 0-.68-.141c-.312 0-.609.055-.89.164-.266.11-.516.32-.75.633-.235.312-.454.75-.657 1.312-.187.563-.351 1.305-.492 2.227-.14.922-.25 2.047-.328 3.375a101.724 101.724 0 0 0-.094 4.71V31.298c.016.64.024 1.21.024 1.71.015.485.039.829.07 1.032l-5.297-.047c.047-1.422.078-2.687.094-3.797.031-1.125.055-2.156.07-3.093.016-.938.024-1.813.024-2.625.015-.829.023-1.641.023-2.438 0-.719-.008-1.453-.023-2.203 0-.766-.008-1.586-.024-2.461 0-.875-.015-1.828-.047-2.86a345.643 345.643 0 0 0-.07-3.468l5.484-.14-.093 2.39c.422-.797.875-1.43 1.359-1.899.484-.484.961-.859 1.43-1.125a4.543 4.543 0 0 1 1.406-.515c.453-.094.859-.14 1.219-.14.968 0 1.765.335 2.39 1.007.625.672 1.118 1.57 1.477 2.695.375 1.11.633 2.383.773 3.82a45.87 45.87 0 0 1 .211 4.477c0 1.125-.031 2.266-.093 3.422-.047 1.156-.11 2.297-.188 3.422a98.928 98.928 0 0 1-.234 3.234 489.095 489.095 0 0 0-.211 2.883l-5.508.281zm17.072-24.187a67.227 67.227 0 0 0-.328 4.078 134.438 134.438 0 0 0-.164 4.523 222.08 222.08 0 0 0-.047 4.594c.015 1.5.047 2.906.093 4.219.047 1.297.102 2.445.165 3.445.062 1 .14 1.758.234 2.274-.625 0-1.274.015-1.945.047-.579.03-1.227.07-1.946.117a33.45 33.45 0 0 0-2.156.21c.359-3.874.57-7.273.633-10.195.078-2.937.078-5.414 0-7.43-.078-2.343-.227-4.374-.446-6.093.891.11 1.696.18 2.415.21a43.54 43.54 0 0 0 1.851.048c.61 0 1.156-.016 1.641-.047zm18.993 9.89c-.5.079-1.023.172-1.57.282a27.562 27.562 0 0 0-3.375.914c.156-.781.258-1.461.305-2.04.062-.593.094-1.132.094-1.616 0-.844-.079-1.5-.235-1.97-.14-.484-.304-.843-.492-1.077-.187-.235-.375-.375-.562-.422a1.657 1.657 0 0 0-.352-.07c-.5 0-.906.21-1.219.632-.312.407-.554.953-.726 1.64a13.261 13.261 0 0 0-.352 2.321 38.132 38.132 0 0 0-.094 2.696 80.766 80.766 0 0 0 .094 3.937l.328 9.211-5.414.375c0-3.766-.039-7.156-.117-10.172a508.253 508.253 0 0 0-.211-7.758c-.094-2.5-.195-4.726-.305-6.68l4.618-.304.234 2.648c.406-1 .883-1.789 1.43-2.367.562-.594 1.117-1.031 1.664-1.312.562-.297 1.07-.485 1.523-.563.469-.078.82-.117 1.055-.117.797 0 1.445.258 1.945.773.5.5.891 1.149 1.172 1.946.281.797.469 1.672.562 2.625.11.953.165 1.875.165 2.765 0 .703-.024 1.375-.071 2.016-.031.625-.062 1.188-.094 1.688z"/></mask><path d="M17.631 1.203c-.203 3.14-.36 6.258-.468 9.352-.11 3.078-.165 6.172-.165 9.28 0 2.423.032 4.813.094 7.173.078 2.36.203 4.734.375 7.125l-4.734-.14a2317.57 2317.57 0 0 1-1.852-6.048c-.594-2.015-1.187-4.015-1.781-6a372.462 372.462 0 0 0-1.828-5.93c-.61-1.968-1.242-3.93-1.899-5.882.047 4.078.118 8.148.211 12.21.11 4.048.297 8.087.563 12.118l-5.414-.047c.187-4.984.281-9.992.281-15.023A445.718 445.718 0 0 0 .64 1.063l6.563.14c.796 3.438 1.648 6.93 2.554 10.477a303.138 303.138 0 0 0 2.883 10.5c-.11-3.532-.273-7.063-.492-10.594-.203-3.547-.43-7.024-.68-10.43l6.164.047zM36.72 20.07c0 2.47-.016 4.938-.047 7.407a337.154 337.154 0 0 1-.14 7.71l-4.079-.234V31.79c-.469.844-1 1.492-1.594 1.945-.593.438-1.156.766-1.687.985-.625.25-1.242.39-1.852.422-.75 0-1.453-.164-2.11-.493a5.774 5.774 0 0 1-1.71-1.359 6.61 6.61 0 0 1-1.148-1.922 6.632 6.632 0 0 1-.399-2.273c0-.89.188-1.766.563-2.625.39-.875 1.047-1.664 1.968-2.367a96.953 96.953 0 0 1 3.211-2.391 29.095 29.095 0 0 0 2.25-1.734c.61-.532 1.055-1.032 1.336-1.5.297-.485.446-1.04.446-1.665 0-1.03-.172-1.796-.516-2.296-.344-.516-.797-.774-1.36-.774-.343 0-.64.094-.89.281-.234.172-.43.407-.586.704a4.08 4.08 0 0 0-.328.96 5.754 5.754 0 0 0-.094 1.032c0 .234.008.492.024.773.03.281.085.578.164.89l-5.391.095A11.676 11.676 0 0 1 22.656 17a8.6 8.6 0 0 1 .492-2.86 7.765 7.765 0 0 1 1.43-2.53 7.322 7.322 0 0 1 2.32-1.805c.907-.453 1.946-.68 3.118-.68 1.515 0 2.71.32 3.586.96a5.839 5.839 0 0 1 2.015 2.485c.469 1.032.766 2.203.89 3.516.141 1.297.212 2.625.212 3.984zm-5.274 6.633c.078-.39.149-.836.211-1.336.063-.422.117-.93.164-1.523.047-.61.086-1.29.117-2.04-.25.344-.492.65-.726.915-.234.265-.453.5-.656.703-.235.234-.453.445-.657.633-.359.297-.742.633-1.148 1.008-.406.359-.781.742-1.125 1.148-.328.406-.61.828-.844 1.266-.218.421-.328.835-.328 1.242 0 .437.149.843.445 1.218.297.36.665.54 1.102.54.328 0 .664-.094 1.008-.282.36-.187.695-.453 1.008-.797a5.724 5.724 0 0 0 1.43-2.695zm21.432 1.29c0 1.39-.235 2.554-.704 3.491-.453.922-1.03 1.664-1.734 2.227a6.552 6.552 0 0 1-2.273 1.219c-.828.234-1.61.351-2.344.351a8.893 8.893 0 0 1-1.594-.187 10.513 10.513 0 0 1-1.453-.422 4.474 4.474 0 0 1-1.36-.867l.188-5.344a7.456 7.456 0 0 0 1.711 1.055c.578.25 1.11.437 1.594.562.562.14 1.11.227 1.64.258a2.447 2.447 0 0 0 1.008-.984c.25-.438.375-.922.375-1.454 0-.453-.11-.93-.328-1.43-.203-.515-.523-1-.96-1.452l-1.571-1.57a20.146 20.146 0 0 1-1.735-2.11 13.338 13.338 0 0 1-1.406-2.602c-.375-.953-.562-1.992-.562-3.117 0-1.11.148-2.117.445-3.023.313-.922.742-1.711 1.29-2.367a5.904 5.904 0 0 1 1.991-1.524 6.039 6.039 0 0 1 2.555-.539c.75 0 1.563.117 2.438.352.874.218 1.804.57 2.789 1.054l-.375 5.461a5.66 5.66 0 0 0-1.29-.867 8.272 8.272 0 0 0-1.265-.539 7.03 7.03 0 0 0-1.336-.281c-.594.11-1.102.422-1.523.937-.422.5-.633 1.149-.633 1.946 0 .75.148 1.406.445 1.968a8.96 8.96 0 0 0 1.148 1.57c.47.485.977.977 1.524 1.477a11.147 11.147 0 0 1 1.523 1.664c.485.625.89 1.344 1.22 2.157.343.812.53 1.789.562 2.93zm10.439-17.321a67.629 67.629 0 0 0-.329 4.078 137.684 137.684 0 0 0-.164 4.523 227.823 227.823 0 0 0-.046 4.594c.015 1.5.046 2.906.093 4.219.047 1.297.102 2.445.164 3.445.063 1 .141 1.758.235 2.274-.625 0-1.274.015-1.946.047-.578.03-1.226.07-1.945.117-.719.047-1.437.117-2.156.21.36-3.874.57-7.273.633-10.195.078-2.937.078-5.414 0-7.43-.078-2.343-.227-4.374-.446-6.093.891.11 1.696.18 2.414.21.72.032 1.336.048 1.852.048.61 0 1.156-.016 1.64-.047zM73.73 34.367c-.406.016-.867.047-1.383.094-.437.031-.953.07-1.546.117a65.52 65.52 0 0 0-1.922.188c-.14-5.297-.29-9.977-.446-14.04-.156-4.078-.296-7.523-.421-10.335a517.408 517.408 0 0 0-.47-8.555l6.094-.281V18.617c.016 2.188.024 4.102.024 5.742.016 1.625.023 3.024.023 4.196.016 2.734.032 4.672.047 5.812zm31.66-15.773c0 3.14-.219 5.804-.657 7.992-.422 2.187-1 3.969-1.734 5.344-.734 1.36-1.602 2.351-2.602 2.976-1 .61-2.07.914-3.21.914-1.141 0-2.211-.289-3.211-.867-1-.594-1.875-1.562-2.625-2.906s-1.344-3.117-1.782-5.32c-.422-2.204-.632-4.915-.632-8.133 0-3.235.21-5.977.632-8.227.438-2.265 1.032-4.101 1.782-5.508.75-1.421 1.625-2.445 2.625-3.07 1-.64 2.07-.96 3.21-.96 1.141 0 2.211.312 3.211.937 1 .609 1.868 1.617 2.602 3.023.734 1.406 1.312 3.242 1.734 5.508.438 2.25.657 5.015.657 8.297zm-5.227 0c0-2.453-.078-4.524-.234-6.211-.157-1.688-.375-3.055-.657-4.102-.265-1.062-.578-1.828-.937-2.297-.36-.468-.742-.703-1.148-.703-.422 0-.82.242-1.196.727-.36.469-.68 1.234-.96 2.297-.266 1.047-.477 2.422-.634 4.125-.156 1.687-.234 3.742-.234 6.164 0 2.406.078 4.43.234 6.07.157 1.625.368 2.938.633 3.938.281.984.602 1.687.961 2.109.375.422.774.633 1.195.633.407 0 .79-.219 1.149-.657.36-.453.672-1.18.937-2.18.282-1.015.5-2.335.657-3.96.156-1.625.234-3.61.234-5.953zm24.197-7.875c.141 3.375.25 6.773.328 10.195.094 3.406.141 6.883.141 10.43 0 2.25-.094 4.133-.282 5.648-.187 1.516-.562 2.735-1.125 3.656-.562.938-1.367 1.602-2.414 1.993-1.046.406-2.429.609-4.148.609-.875 0-1.883-.04-3.023-.117a65.947 65.947 0 0 1-3.891-.399l.187-5.132c1.141.078 2.157.14 3.047.187l2.227.117c.703.047 1.312.07 1.828.07a2.9 2.9 0 0 0 .961-.14c.266-.078.476-.234.633-.469.172-.219.297-.531.375-.937.078-.407.117-.93.117-1.57v-.61c0-.219-.016-.46-.047-.727-.25.375-.539.672-.867.891-.313.219-.625.39-.938.516a3.423 3.423 0 0 1-.914.234c-.281.047-.515.07-.703.07-1.265 0-2.289-.257-3.07-.773-.781-.516-1.391-1.219-1.828-2.11-.422-.89-.711-1.93-.867-3.117a29.743 29.743 0 0 1-.235-3.843c0-.61-.008-1.016-.023-1.22 0-.218-.008-.35-.024-.398v-.046l.024-.235c.015-.172.039-.484.07-.937a289.298 289.298 0 0 0 .352-5.953c.093-1.594.203-3.618.328-6.07l5.414.468c.047 0 .015.305-.094.914a90.922 90.922 0 0 0-.352 2.555c-.125 1.094-.25 2.414-.375 3.96a64.465 64.465 0 0 0-.187 5.157c0 1.125.055 2.086.164 2.883.125.781.289 1.422.492 1.922s.446.867.727 1.101c.297.219.625.328.984.328.625 0 1.141-.484 1.547-1.453.406-.984.609-2.547.609-4.687 0-.14-.007-.297-.023-.47 0-.187-.008-.452-.023-.796 0-.36-.016-.82-.047-1.383-.032-.562-.078-1.304-.141-2.226a403.98 403.98 0 0 0-.187-3.399 440.132 440.132 0 0 0-.258-4.828l5.531.14zm15.173 24.14c.344-2.515.586-5.062.727-7.64.156-2.578.234-5.282.234-8.11 0-.953-.062-1.71-.187-2.273-.125-.578-.289-1.016-.492-1.313-.204-.312-.422-.507-.657-.585a1.825 1.825 0 0 0-.679-.141c-.313 0-.61.055-.891.164-.266.11-.516.32-.75.633-.234.312-.453.75-.656 1.312-.188.563-.352 1.305-.492 2.227-.141.922-.25 2.047-.329 3.375a101.877 101.877 0 0 0-.093 4.71V31.298c.015.64.023 1.21.023 1.71.016.485.039.829.07 1.032l-5.296-.047c.046-1.422.078-2.687.093-3.797.032-1.125.055-2.156.071-3.093.015-.938.023-1.813.023-2.625.016-.829.024-1.641.024-2.438 0-.719-.008-1.453-.024-2.203 0-.766-.008-1.586-.023-2.461 0-.875-.016-1.828-.047-2.86a347.541 347.541 0 0 0-.071-3.468l5.485-.14-.094 2.39c.422-.797.875-1.43 1.359-1.899.485-.484.961-.859 1.43-1.125a4.552 4.552 0 0 1 1.406-.515c.454-.094.86-.14 1.219-.14.969 0 1.766.335 2.391 1.007.625.672 1.117 1.57 1.476 2.695.375 1.11.633 2.383.774 3.82.14 1.438.211 2.93.211 4.477a63.92 63.92 0 0 1-.094 3.422 116.29 116.29 0 0 1-.188 3.422 96.22 96.22 0 0 1-.234 3.234 593.118 593.118 0 0 0-.211 2.883l-5.508.281zm25.182-14.789c0 2.47-.016 4.938-.047 7.407a340.093 340.093 0 0 1-.141 7.71l-4.078-.234V31.79c-.469.844-1 1.492-1.594 1.945-.593.438-1.156.766-1.687.985-.625.25-1.242.39-1.852.422-.75 0-1.453-.164-2.109-.493a5.772 5.772 0 0 1-1.711-1.359 6.639 6.639 0 0 1-1.149-1.922 6.649 6.649 0 0 1-.398-2.273c0-.89.188-1.766.563-2.625.39-.875 1.046-1.664 1.968-2.367a97.904 97.904 0 0 1 3.211-2.391 29.212 29.212 0 0 0 2.25-1.734c.61-.532 1.055-1.032 1.336-1.5.297-.485.445-1.04.445-1.665 0-1.03-.171-1.796-.515-2.296-.344-.516-.797-.774-1.36-.774-.343 0-.64.094-.89.281-.235.172-.43.407-.586.704-.141.28-.25.601-.328.96a5.709 5.709 0 0 0-.094 1.032c0 .234.008.492.023.773.032.281.086.578.165.89l-5.391.095a14.521 14.521 0 0 1-.07-.75c-.016-.25-.024-.493-.024-.727 0-.969.164-1.922.492-2.86a7.762 7.762 0 0 1 1.43-2.53 7.327 7.327 0 0 1 2.32-1.805c.907-.453 1.946-.68 3.118-.68 1.515 0 2.71.32 3.585.96a5.836 5.836 0 0 1 2.016 2.485c.469 1.032.766 2.203.891 3.516.14 1.297.211 2.625.211 3.984zm-5.274 6.633c.078-.39.149-.836.211-1.336.063-.422.117-.93.164-1.523.047-.61.086-1.29.117-2.04-.25.344-.492.65-.726.915-.235.265-.453.5-.656.703-.235.234-.454.445-.657.633a28.05 28.05 0 0 0-1.148 1.008c-.406.359-.781.742-1.125 1.148a8.164 8.164 0 0 0-.844 1.266c-.219.421-.328.835-.328 1.242 0 .437.148.843.445 1.218.297.36.664.54 1.102.54.328 0 .664-.094 1.008-.282a3.665 3.665 0 0 0 1.008-.797 5.727 5.727 0 0 0 1.429-2.695zm19.955 8.156c.344-2.515.586-5.062.726-7.64.157-2.578.235-5.282.235-8.11 0-.953-.063-1.71-.188-2.273-.125-.578-.289-1.016-.492-1.313-.203-.312-.422-.507-.656-.585a1.826 1.826 0 0 0-.68-.141c-.312 0-.609.055-.89.164-.266.11-.516.32-.75.633-.235.312-.454.75-.657 1.312-.187.563-.351 1.305-.492 2.227-.14.922-.25 2.047-.328 3.375a101.724 101.724 0 0 0-.094 4.71V31.298c.016.64.024 1.21.024 1.71.015.485.039.829.07 1.032l-5.297-.047c.047-1.422.078-2.687.094-3.797.031-1.125.055-2.156.07-3.093.016-.938.024-1.813.024-2.625.015-.829.023-1.641.023-2.438 0-.719-.008-1.453-.023-2.203 0-.766-.008-1.586-.024-2.461 0-.875-.015-1.828-.047-2.86a345.643 345.643 0 0 0-.07-3.468l5.484-.14-.093 2.39c.422-.797.875-1.43 1.359-1.899.484-.484.961-.859 1.43-1.125a4.543 4.543 0 0 1 1.406-.515c.453-.094.859-.14 1.219-.14.968 0 1.765.335 2.39 1.007.625.672 1.118 1.57 1.477 2.695.375 1.11.633 2.383.773 3.82a45.87 45.87 0 0 1 .211 4.477c0 1.125-.031 2.266-.093 3.422-.047 1.156-.11 2.297-.188 3.422a98.928 98.928 0 0 1-.234 3.234 489.095 489.095 0 0 0-.211 2.883l-5.508.281zm17.072-24.187a67.227 67.227 0 0 0-.328 4.078 134.438 134.438 0 0 0-.164 4.523 222.08 222.08 0 0 0-.047 4.594c.015 1.5.047 2.906.093 4.219.047 1.297.102 2.445.165 3.445.062 1 .14 1.758.234 2.274-.625 0-1.274.015-1.945.047-.579.03-1.227.07-1.946.117a33.45 33.45 0 0 0-2.156.21c.359-3.874.57-7.273.633-10.195.078-2.937.078-5.414 0-7.43-.078-2.343-.227-4.374-.446-6.093.891.11 1.696.18 2.415.21a43.54 43.54 0 0 0 1.851.048c.61 0 1.156-.016 1.641-.047zm18.993 9.89c-.5.079-1.023.172-1.57.282a27.562 27.562 0 0 0-3.375.914c.156-.781.258-1.461.305-2.04.062-.593.094-1.132.094-1.616 0-.844-.079-1.5-.235-1.97-.14-.484-.304-.843-.492-1.077-.187-.235-.375-.375-.562-.422a1.657 1.657 0 0 0-.352-.07c-.5 0-.906.21-1.219.632-.312.407-.554.953-.726 1.64a13.261 13.261 0 0 0-.352 2.321 38.132 38.132 0 0 0-.094 2.696 80.766 80.766 0 0 0 .094 3.937l.328 9.211-5.414.375c0-3.766-.039-7.156-.117-10.172a508.253 508.253 0 0 0-.211-7.758c-.094-2.5-.195-4.726-.305-6.68l4.618-.304.234 2.648c.406-1 .883-1.789 1.43-2.367.562-.594 1.117-1.031 1.664-1.312.562-.297 1.07-.485 1.523-.563.469-.078.82-.117 1.055-.117.797 0 1.445.258 1.945.773.5.5.891 1.149 1.172 1.946.281.797.469 1.672.562 2.625.11.953.165 1.875.165 2.765 0 .703-.024 1.375-.071 2.016-.031.625-.062 1.188-.094 1.688z" fill="url(#a)"/><path d="m17.631 1.203 3.992.258.273-4.226-4.234-.032-.03 4zm-.468 9.352 3.997.142v-.001l-3.997-.141zm-.07 16.453-4 .106v.013l.001.013 3.998-.132zm.374 7.125-.119 3.998 4.426.132-.317-4.417-3.99.287zm-4.734-.14L8.91 35.167l.842 2.737 2.862.085.119-3.998zm-1.852-6.048-3.837 1.13.006.018.005.018 3.826-1.166zm-3.61-11.93-3.82 1.183.004.014.004.014 3.813-1.21zm-1.898-5.882 3.792-1.274-7.791 1.32 4-.046zm.211 12.21-3.999.093v.016l4-.108zm.563 12.118-.035 4 4.31.037-.284-4.3-3.991.263zm-5.414-.047-3.997-.15-.155 4.114 4.117.036.035-4zM.639 1.062l.086-3.999-4.256-.09.173 4.253L.64 1.063zm6.563.141L11.098.3l-.702-3.03-3.109-.066-.085 4zm5.437 20.977-3.837 1.128 7.835-1.252-3.998.124zm-.492-10.594-3.994.229v.009l.002.01 3.992-.248zm-.68-10.43.03-4-4.337-.033.318 4.326 3.99-.293zM13.64.945a324.23 324.23 0 0 0-.475 9.468l7.995.283c.108-3.054.262-6.132.463-9.235L13.64.945zm-.475 9.468a265.288 265.288 0 0 0-.167 9.423h8c0-3.063.054-6.109.162-9.14l-7.995-.283zm-.167 9.423c0 2.456.032 4.882.096 7.278l7.997-.212a266.605 266.605 0 0 1-.093-7.066h-8zm.096 7.304c.08 2.412.208 4.838.383 7.28l7.98-.574c-.168-2.34-.29-4.663-.367-6.97l-7.996.264zm4.492 2.995-4.734-.141-.238 7.996 4.734.141.238-7.996zm-1.03 2.68c-.624-2.027-1.24-4.04-1.848-6.035L7.055 29.11c.61 2.004 1.229 4.023 1.855 6.058l7.646-2.353zm-1.838-6c-.595-2.021-1.19-4.026-1.786-6.016l-7.664 2.293a1464.23 1464.23 0 0 1 1.776 5.984l7.674-2.261zm-1.786-6.016c-.6-2.006-1.216-4.004-1.848-5.994l-7.625 2.42a368.703 368.703 0 0 1 1.809 5.867l7.664-2.293zm-1.839-5.966c-.619-2-1.261-3.99-1.928-5.974l-7.583 2.548c.646 1.923 1.269 3.853 1.869 5.791l7.642-2.365zm-9.72-4.654c.048 4.093.118 8.179.212 12.257l7.998-.184a1050.81 1050.81 0 0 1-.21-12.165l-8 .092zm.213 12.273c.11 4.098.3 8.189.57 12.272l7.982-.526c-.262-3.98-.447-7.967-.555-11.962l-7.997.216zm4.596 8.01-5.415-.048-.069 8 5.414.047.07-8zM4.73 34.563c.19-5.035.284-10.092.284-15.173h-8c0 4.981-.093 9.939-.278 14.873l7.994.3zm.284-15.173c0-3.121-.031-6.211-.095-9.27l-7.998.165c.062 3.003.093 6.038.093 9.105h8zm-.095-9.27A457.176 457.176 0 0 0 4.636.899l-7.994.327c.124 3.036.217 6.056.28 9.06l7.997-.165zM.553 5.06l6.563.141.171-7.998-6.562-.14-.172 7.998zm2.752-2.955A486.467 486.467 0 0 0 5.88 12.67l7.75-1.98C12.734 7.17 11.889 3.707 11.099.3L3.305 2.106zM5.88 12.67A307.368 307.368 0 0 0 8.8 23.308l7.676-2.257a299.284 299.284 0 0 1-2.845-10.361L5.88 12.67zm10.756 9.386c-.11-3.573-.277-7.145-.498-10.717l-7.984.494c.216 3.49.378 6.98.486 10.47l7.996-.247zm-.497-10.699A655.464 655.464 0 0 0 15.456.863l-7.978.586c.248 3.384.473 6.84.675 10.366l7.987-.458zm-4.703-6.2 6.164.046.06-8-6.163-.047-.061 8zm25.235 22.32-4-.051v.025l4 .026zm-.14 7.71-.23 3.994 4.107.236.12-4.113-3.998-.117zm-4.079-.234h-4v3.777l3.77.217.23-3.994zm0-3.164h4V16.353l-7.497 13.493 3.497 1.943zm-1.594 1.945 2.373 3.22.027-.02.027-.02-2.427-3.18zm-1.687.985 1.485 3.714.02-.008.018-.008-1.523-3.698zm-1.852.422v4h.103l.102-.006-.205-3.994zm-2.11-.493-1.855 3.544.033.017.034.017 1.789-3.578zm-2.858-3.28-3.762 1.36.018.048.019.049 3.725-1.458zm.164-4.9-3.653-1.63-.007.015-.007.016 3.667 1.6zm1.968-2.366 2.426 3.18.01-.007.009-.007-2.445-3.166zm5.461-4.125 2.623 3.02.006-.005-2.629-3.015zm1.336-1.5-3.41-2.09-.01.015-.01.017 3.43 2.058zm-.07-3.961-3.328 2.218.016.024.016.024 3.296-2.266zm-2.25-.493 2.365 3.226.018-.013.017-.013-2.4-3.2zm-.586.704-3.54-1.863-.02.036-.018.038 3.578 1.789zm-.328.96-3.909-.85-.014.068-.013.067 3.936.716zm-.07 1.805-3.994.222.006.11.012.11 3.976-.442zm.164.89.07 4 5.03-.087-1.22-4.882-3.88.97zm-5.391.095-3.973.467.423 3.595 3.62-.063-.07-4zm-.07-.75-3.992.25v.016l3.992-.266zm.468-3.586 3.776 1.321.003-.01.004-.01-3.783-1.301zm1.43-2.532-3.041-2.598-.005.006 3.046 2.592zm9.024-1.523-2.363 3.227.032.024.033.023 2.298-3.274zm2.015 2.484-3.662 1.61.01.023.01.023 3.642-1.656zm.89 3.516-3.981.38.002.025.003.026 3.977-.431zm-5.062 10.617 3.9.891.012-.053.01-.053-3.922-.785zm.211-1.336-3.957-.586-.006.045-.006.045 3.97.496zm.164-1.523 3.988.315v-.008l-3.988-.307zm.117-2.04 3.997.167.55-13.22-7.781 10.701 3.235 2.353zm-2.039 2.25 2.548 3.085.085-.07.08-.075-2.713-2.94zm-1.148 1.009 2.65 2.995.032-.028.031-.028-2.713-2.94zm-1.125 1.148-3.053-2.584-.03.035-.029.036 3.112 2.513zm-.844 1.266-3.526-1.89-.012.024-.013.024 3.551 1.842zm.117 2.46-3.136 2.483.026.033.027.032 3.083-2.547zm2.11.258-1.85-3.546-.033.017-.033.018 1.916 3.511zm1.008-.797-2.894-2.761-.033.035-.033.036 2.96 2.69zm2.703-9.328c0 2.452-.016 4.904-.047 7.356l8 .101c.031-2.485.047-4.971.047-7.457h-8zm-.047 7.381a333.645 333.645 0 0 1-.139 7.62l7.996.233c.08-2.7.127-5.3.143-7.802l-8-.05zm4.089 3.743-4.078-.234-.46 7.986 4.079.235.459-7.987zm-.308 3.76v-3.165h-8v3.164h8zm-7.497-5.108c-.276.497-.476.672-.523.709l4.853 6.36c1.14-.87 2.002-1.993 2.664-3.183l-6.994-3.886zm-.47.668c-.4.296-.679.44-.837.506l3.046 7.397c.904-.372 1.75-.883 2.537-1.462l-4.745-6.44zm-.8.49a1.788 1.788 0 0 1-.57.142l.41 7.99a9.762 9.762 0 0 0 3.131-.703l-2.97-7.428zm-.366.137a.658.658 0 0 1-.32-.07l-3.578 7.155a8.65 8.65 0 0 0 3.898.915v-8zm-.253-.036a1.775 1.775 0 0 1-.536-.426l-6.062 5.22a9.774 9.774 0 0 0 2.886 2.293l3.712-7.087zm-.536-.426a2.614 2.614 0 0 1-.454-.77l-7.45 2.916a10.612 10.612 0 0 0 1.842 3.074l6.062-5.22zm-.418-.672a2.633 2.633 0 0 1-.16-.913h-8c0 1.245.214 2.463.637 3.634l7.523-2.721zm-.16-.913c0-.312.062-.644.229-1.026L18.85 24.87a10.503 10.503 0 0 0-.897 4.225h8zm.215-.995c.066-.148.241-.435.742-.817l-4.851-6.36c-1.343 1.023-2.48 2.314-3.196 3.916l7.305 3.261zm.761-.831a93.09 93.09 0 0 1 3.075-2.29l-4.618-6.533c-.966.683-2.084 1.516-3.346 2.49l4.889 6.333zm3.075-2.29a33.045 33.045 0 0 0 2.564-1.981l-5.245-6.04a25.21 25.21 0 0 1-1.937 1.488l4.618 6.532zm2.57-1.986c.789-.688 1.564-1.502 2.137-2.457l-6.86-4.116c.013-.022-.01.02-.102.124-.09.102-.23.242-.432.419l5.257 6.03zm2.118-2.425c.72-1.176 1.035-2.468 1.035-3.755h-8c0-.006 0-.06.024-.149.024-.09.065-.187.12-.277l6.82 4.18zm1.035-3.755c0-1.334-.197-3.074-1.22-4.563l-6.592 4.533a1.772 1.772 0 0 1-.183-.332c-.03-.075-.039-.115-.037-.109.001.006.01.047.017.129.008.081.015.194.015.343h8zm-1.188-4.515c-.997-1.495-2.635-2.555-4.687-2.555v8a2.49 2.49 0 0 1-1.217-.33 2.23 2.23 0 0 1-.752-.678l6.656-4.437zm-4.687-2.555a5.44 5.44 0 0 0-3.291 1.081l4.8 6.4a2.563 2.563 0 0 1-1.51.52v-8zm-3.256 1.056a6.011 6.011 0 0 0-1.76 2.066l7.079 3.726c-.083.157-.263.42-.589.66l-4.73-6.452zm-1.799 2.14a8.069 8.069 0 0 0-.659 1.9l7.818 1.7a.647.647 0 0 1 .017-.068c0-.003-.005.014-.02.045l-7.156-3.577zm-.686 2.034a9.755 9.755 0 0 0-.158 1.747h8c0-.1.01-.204.03-.316l-7.872-1.431zm-.158 1.747c0 .321.01.654.03.995l7.987-.444a10.076 10.076 0 0 1-.017-.551h-8zm.048 1.215c.053.482.143.956.26 1.419l7.76-1.94a2.798 2.798 0 0 1-.069-.363l-7.951.884zm4.07-3.55-5.39.093.139 7.999 5.39-.094-.139-7.999zm-1.348 3.625c-.025-.207-.042-.39-.052-.549l-7.982.533c.02.31.05.627.088.95l7.946-.934zm-.051-.532a7.647 7.647 0 0 1-.016-.477h-8c0 .323.011.649.032.976l7.984-.499zM26.656 17a4.6 4.6 0 0 1 .268-1.538l-7.551-2.643A12.6 12.6 0 0 0 18.656 17h8zm.275-1.557c.173-.503.407-.904.693-1.241l-6.092-5.185a11.759 11.759 0 0 0-2.166 3.822l7.565 2.604zm.689-1.236a3.324 3.324 0 0 1 1.067-.825L25.11 6.227a11.322 11.322 0 0 0-3.573 2.784l6.083 5.196zm1.067-.825c.27-.134.68-.257 1.329-.257v-8c-1.696 0-3.364.33-4.906 1.102l3.577 7.155zm1.329-.257c.995 0 1.258.214 1.223.188l4.726-6.455c-1.786-1.307-3.913-1.733-5.95-1.733v8zm1.288.235c.27.19.481.433.651.82l7.324-3.219a9.838 9.838 0 0 0-3.38-4.15l-4.595 6.55zm.672.866c.258.567.46 1.297.55 2.24l7.964-.76c-.16-1.682-.552-3.296-1.231-4.79l-7.283 3.31zm.555 2.291c.125 1.148.188 2.332.188 3.553h8c0-1.497-.078-2.97-.235-4.415l-7.953.862zm2.837 10.97c.101-.507.186-1.051.257-1.624l-7.938-.992c-.053.427-.11.774-.164 1.048l7.845 1.569zm.245-1.534c.08-.539.143-1.142.195-1.794l-7.975-.63a19.03 19.03 0 0 1-.134 1.252l7.914 1.172zm.196-1.802c.05-.666.092-1.393.125-2.18l-7.993-.333c-.03.713-.066 1.345-.109 1.899l7.977.614zm-7.106-4.699c-.19.261-.355.465-.491.62l5.998 5.293c.332-.376.653-.782.962-1.208l-6.47-4.705zm-.491.62c-.192.217-.353.389-.486.521l5.657 5.657c.274-.273.55-.57.827-.885l-5.998-5.293zm-.486.521c-.204.204-.383.377-.54.523l5.426 5.878c.249-.23.506-.479.771-.744l-5.657-5.657zm-.375.378c-.425.351-.864.736-1.314 1.152l5.426 5.879c.362-.334.69-.62.983-.863l-5.095-6.168zM26.1 22.067a15.14 15.14 0 0 0-1.529 1.56l6.107 5.168c.218-.257.457-.502.722-.737l-5.3-5.991zm-1.587 1.63c-.477.591-.9 1.221-1.258 1.89l7.052 3.778c.11-.205.25-.42.43-.64l-6.224-5.027zm-1.283 1.938c-.463.894-.777 1.936-.777 3.084h8c0 .335-.095.548-.12.599l-7.103-3.683zm-.777 3.084c0 1.424.509 2.69 1.31 3.701l6.272-4.965c.088.112.2.286.287.524.088.242.131.496.131.74h-8zm1.362 3.766c1 1.21 2.468 1.992 4.185 1.992v-8c.347 0 .753.075 1.155.272.394.193.664.443.827.641l-6.167 5.095zM28 34.477a6.09 6.09 0 0 0 2.923-.77l-3.83-7.023c.13-.071.448-.207.907-.207v8zm2.858-.735a7.647 7.647 0 0 0 2.117-1.653l-5.92-5.381c-.04.045-.011 0 .102-.059l3.701 7.093zm2.051-1.582a9.715 9.715 0 0 0 1.476-2.025l-7.004-3.864a1.743 1.743 0 0 1-.259.366l5.787 5.523zm1.476-2.025c.445-.806.759-1.66.96-2.54l-7.8-1.783c-.048.213-.11.359-.165.459l7.005 3.864zm18.492-2.143h4v-.055l-.002-.054-3.998.11zm-.704 3.492-3.577-1.789-.006.013-.006.012 3.59 1.764zm-1.734 2.227-2.499-3.123-.017.013-.017.014 2.533 3.096zm-2.273 1.219 1.089 3.849.033-.01.034-.01-1.156-3.83zm-2.344.351-.114 3.999.057.001h.057v-4zm-1.594-.187.83-3.913-.01-.002-.01-.002-.81 3.917zm-1.453-.422-1.505 3.706.068.028.07.025 1.367-3.76zm-1.36-.867-3.997-.14-.064 1.834 1.349 1.245 2.713-2.94zm.188-5.344 2.51-3.115-6.227-5.016-.28 7.99 3.997.14zm3.305 1.617-1 3.873.015.004.015.004.97-3.88zm1.64.258-.235 3.993 1.128.066.996-.533-1.889-3.526zm1.008-.984-3.473-1.985-.012.02-.011.022 3.496 1.943zm.047-2.883-3.721 1.466.027.069.03.068 3.664-1.603zm-.96-1.453 2.877-2.779-.025-.025-.024-.025-2.829 2.829zm-1.571-1.57-2.9 2.754.035.038.036.036 2.829-2.829zm-1.735-2.11-3.276 2.294.015.022.015.021 3.246-2.337zm-1.406-2.602L38.21 20.2l.01.026.011.026 3.701-1.517zm-.117-6.14-3.788-1.284-.007.019-.006.02 3.801 1.245zm1.29-2.367-3.038-2.604-.018.021-.018.022 3.073 2.56zm1.991-1.524L43.424 5.07l-.014.007-.014.006 1.7 3.621zm4.992-.187-1.034 3.863.032.01.032.007.97-3.88zm2.79 1.054 3.99.274.184-2.678-2.408-1.185-1.766 3.59zm-.375 5.461-2.65 2.996 6.084 5.383.556-8.105-3.99-.274zm-1.29-.867-1.837 3.553.049.025.05.024 1.739-3.602zm-1.265-.539 1.219-3.81-.017-.005-.017-.005-1.185 3.82zm-1.336-.281.426-3.977-.578-.062-.573.105.725 3.934zm-1.523.937 3.057 2.58.02-.023.018-.024-3.096-2.533zm-.188 3.914-3.538 1.867.032.06.033.058 3.473-1.985zm1.148 1.57-2.964 2.687.044.048.046.047 2.874-2.781zm1.524 1.477-2.7 2.952.024.022.024.02 2.652-2.994zm1.523 1.664-3.2 2.4.02.025.019.026 3.161-2.45zm1.22 2.157-3.71 1.497.012.03.013.031 3.684-1.558zm-3.438 2.93c0 .963-.166 1.471-.281 1.703l7.155 3.577c.822-1.644 1.126-3.464 1.126-5.28h-8zm-.293 1.727c-.23.468-.46.72-.644.867l4.998 6.247c1.223-.978 2.15-2.21 2.825-3.585l-7.18-3.53zm-.678.895c-.292.24-.585.391-.896.485l2.312 7.659a10.552 10.552 0 0 0 3.65-1.952l-5.066-6.192zm-.83.466c-.533.15-.945.2-1.254.2v8c1.16 0 2.31-.185 3.433-.502l-2.179-7.698zm-1.14.202a4.887 4.887 0 0 1-.878-.102l-1.66 7.826c.76.16 1.531.25 2.31.273l.228-7.997zm-.898-.106a6.53 6.53 0 0 1-.896-.264l-2.734 7.518c.665.242 1.337.44 2.01.58l1.62-7.834zm-.757-.211a.48.48 0 0 1-.152-.1l-5.426 5.878a8.472 8.472 0 0 0 2.566 1.634l3.012-7.412zm1.132 2.979.188-5.344-7.995-.28-.188 5.343 7.995.281zm-6.32-2.369c.804.647 1.68 1.199 2.633 1.611l3.176-7.343a3.494 3.494 0 0 1-.79-.498l-5.018 6.23zm2.633 1.611c.723.312 1.453.576 2.182.764l2-7.746a7.037 7.037 0 0 1-1.006-.36l-3.176 7.342zm2.212.772c.782.195 1.575.323 2.375.37l.47-7.986a4.936 4.936 0 0 1-.905-.145l-1.94 7.76zm4.5-.097a6.448 6.448 0 0 0 2.615-2.568L44.06 27.41a1.566 1.566 0 0 1 .6-.599l3.777 7.052zm2.591-2.526a6.876 6.876 0 0 0 .902-3.438h-8c0-.05.007-.133.033-.237.028-.105.069-.206.12-.294l6.945 3.97zm.902-3.438c0-1.105-.268-2.128-.663-3.032l-7.33 3.206c.042.096-.007.026-.007-.174h8zm-.606-2.895a8.433 8.433 0 0 0-1.805-2.766l-5.755 5.557c.062.065.095.11.11.131.013.02.012.024.007.01l7.443-2.932zm-1.854-2.816-.003-.002-.003-.003-.002-.002-.003-.003-.002-.003-.003-.002-.002-.003-.003-.002-.003-.003-.002-.003-.003-.002-.002-.003-.003-.002-.002-.003-.003-.003-.003-.002-.002-.003-.003-.002-.002-.003-.003-.003-.003-.002-.002-.003-.003-.002-.003-.003-.002-.003-.003-.002-.002-.003-.003-.002-.003-.003-.002-.003-.003-.002-.002-.003-.003-.002-.003-.003-.002-.003-.003-.002-.003-.003-.002-.003-.003-.002-.002-.003-.003-.003-.003-.002-.002-.003-.003-.002-.003-.003-.002-.003-.003-.003-.003-.002-.002-.003-.003-.002-.003-.003-.002-.003-.003-.002-.003-.003-.002-.003-.003-.002-.003-.003-.002-.003-.003-.003-.003-.002-.002-.003-.003-.003-.003-.002-.002-.003-.003-.003-.003-.002-.003-.003-.002-.003-.003-.002-.003-.003-.002-.003-.003-.003-.003-.002-.002-.003-.003-.003-.003-.002-.003-.003-.002-.003-.003-.003-.003-.002-.002-.003-.003-.003-.003-.002a.037.037 0 0 0-.003-.003l-.002-.003-.003-.003-.003-.002-.003-.003-.002-.003-.003-.003-.003-.002-.003-.003-.002-.003-.003-.003a.073.073 0 0 1-.005-.005c-.002 0-.002-.002-.003-.003l-.003-.002-.003-.003-.003-.003-.002-.003-.003-.002-.003-.003-.003-.003-.002-.003-.003-.003-.003-.002-.003-.003-.003-.003-.002-.003-.003-.003-.003-.002-.003-.003-.002-.003-.003-.003-.003-.002-.003-.003-.003-.003-.002-.003-.003-.003-.003-.002-.003-.003-.003-.003-.002-.003-.003-.003-.003-.002-.003-.003-.003-.003-.002-.003a.075.075 0 0 1-.003-.003l-.003-.003-.003-.002-.003-.003-.003-.003-.002-.003-.003-.003a.075.075 0 0 1-.006-.005l-.003-.003-.003-.003-.002-.003-.003-.003-.003-.003-.003-.002-.003-.003-.003-.003-.003-.003-.002-.003-.003-.003-.003-.003-.003-.002-.003-.003-.003-.003-.002-.003-.003-.003-.003-.003-.003-.003-.003-.002-.003-.003a.078.078 0 0 1-.003-.003l-.003-.003-.002-.003-.003-.003a.078.078 0 0 1-.006-.006l-.003-.002-.003-.003-.003-.003-.003-.003a743963279.436 743963279.436 0 0 1-.005-.006c-.002 0-.002-.002-.003-.003l-.003-.003-.003-.003-.003-.002-.003-.003-.003-.003-.003-.003a.08.08 0 0 1-.006-.006l-.003-.003-.002-.003c-.002 0-.003-.002-.003-.003l-.003-.003-.003-.003-.003-.003a.08.08 0 0 1-.003-.003l-.003-.002-.003-.003-.003-.003-.003-.003-.003-.003-.003-.003-.003-.003-.003-.003-.003-.003-.003-.003-.002-.003c-.002 0-.002-.002-.003-.003-.002 0-.002-.002-.003-.003l-.003-.003-.003-.003a.08.08 0 0 1-.003-.003l-.003-.003-.003-.003a1194157202.764 1194157202.764 0 0 0-.006-.006l-.003-.003a.08.08 0 0 1-.003-.003l-.003-.003-.003-.003-.003-.003-.003-.002-.003-.003-.003-.003-.003-.003-.003-.003-.003-.003-.003-.003-.003-.003a.08.08 0 0 1-.003-.003l-.003-.003-.003-.003-.003-.003-.003-.003-.003-.003-.003-.003-.003-.003-.003-.003-.003-.003-.003-.003-.003-.003-.003-.003a1194157202.764 1194157202.764 0 0 0-.006-.006l-.003-.004a.09.09 0 0 1-.003-.003l-.003-.003-.003-.003-.003-.003-.003-.003-.003-.003a.09.09 0 0 1-.003-.003l-.003-.003-.004-.003-.002-.003c-.002 0-.003-.002-.004-.003l-.003-.003-.003-.003-.003-.003-.003-.003-.003-.003-.003-.003-.003-.003-.003-.003-.003-.003-.003-.004-.003-.003-.003-.003-.003-.003-.004-.003-.003-.003-.003-.003-.003-.003-.003-.003-.003-.003-.003-.003a.045.045 0 0 1-.003-.003l-.003-.003-.003-.004-.003-.003-.003-.003-.004-.003-.003-.003-.003-.003-.003-.003-.003-.003a.092.092 0 0 1-.003-.004l-.003-.003-.003-.003-.003-.003-.004-.003-.003-.003-.003-.003-.003-.003-.003-.003-.003-.003-.003-.004a.092.092 0 0 1-.003-.003l-.004-.003-.003-.003a.092.092 0 0 1-.003-.003l-.003-.003-.003-.003-.003-.004-.003-.003-.003-.003-.004-.003-.003-.003-.003-.003-.003-.003-.003-.004-.003-.003c-.002 0-.002-.002-.004-.003l-.003-.003-.003-.003-.003-.003-.003-.004-.003-.003c-.002 0-.002-.002-.004-.003l-.003-.003-.003-.003-.003-.004-.003-.003-.004-.003-.003-.003-.003-.003-.003-.003-.003-.004-.003-.003c-.002 0-.002-.002-.004-.003l-.003-.003-.003-.003-.003-.004-.003-.003c-.002 0-.002-.002-.004-.003l-.003-.003-.003-.003-.003-.004-.003-.003a.098.098 0 0 1-.004-.003l-.003-.003-.003-.004-.003-.003-.004-.003-.003-.003a.098.098 0 0 1-.003-.003l-.003-.004-.003-.003c-.002 0-.003-.002-.004-.003l-.003-.003-.003-.004-.003-.003-.004-.003-.003-.003-.003-.003-.003-.004-.004-.003-.003-.003-.003-.003-.003-.004-.004-.003-.003-.003-.003-.003-.003-.004c-.002 0-.002-.002-.004-.003l-.003-.003-.003-.004a.048.048 0 0 0-.003-.003c-.002 0-.003-.002-.004-.003l-.003-.003a.098.098 0 0 1-.003-.004l-.004-.003-.003-.003-.003-.003-.003-.004c-.002 0-.003-.002-.004-.003l-.003-.003-.003-.004-.003-.003-.004-.003-.003-.003-.003-.004c-.002 0-.003-.002-.004-.003l-.003-.003-.003-.004-.004-.003-.003-.003-.003-.004-.003-.003-.004-.003-.003-.004a.107.107 0 0 1-.004-.003l-.003-.003-.003-.003-.003-.004c-.002 0-.003-.002-.004-.003l-.003-.003-.003-.004c-.002 0-.003-.002-.004-.003l-.003-.003-.003-.004c-.002 0-.003-.002-.004-.003l-.003-.003-.003-.004c-.002 0-.003-.002-.004-.003l-.003-.003-.003-.004a.107.107 0 0 1-.004-.003l-.003-.003-.003-.004-.004-.003-.003-.004-.004-.003-.003-.003-.003-.004-.004-.003-.003-.003-.003-.004c-.002 0-.003-.002-.004-.003l-.003-.003-.003-.004-.004-.003-.003-.004-.004-.003-.003-.003-.003-.004c-.002 0-.003-.002-.004-.003l-.003-.004-.003-.003-.004-.003-.003-.004-.004-.003-.003-.003-.004-.004-.003-.003-.003-.004-.004-.003-.003-.003-.003-.004a.11.11 0 0 1-.007-.007c-.002 0-.003-.002-.004-.003l-.003-.004-.004-.003-.003-.003-.003-.004a.11.11 0 0 1-.004-.003l-.003-.004-.004-.003-.003-.004-.004-.003-.003-.003-.003-.004-.004-.003-.003-.004c-.002 0-.003-.002-.004-.003l-.003-.004-.004-.003-.003-.004-.004-.003-.003-.003-.003-.004-.004-.003-.003-.004c-.002 0-.003-.002-.004-.003l-.003-.004-.004-.003-.003-.004-.004-.003-.003-.004-.004-.003-.003-.003-.004-.004-.003-.004a.114.114 0 0 1-.007-.006l-.003-.004-.004-.003-.004-.004-.003-.003-.004-.004a.114.114 0 0 1-.006-.007.058.058 0 0 1-.004-.003l-.003-.004-.004-.003a.117.117 0 0 1-.007-.007.058.058 0 0 1-.003-.004l-.004-.003-.003-.004-.004-.003-.004-.004-.003-.003-.004-.004-.003-.003-.004-.004-.003-.004-.004-.003-.003-.004-.004-.003-.003-.004a.117.117 0 0 1-.004-.003l-.003-.004c-.002 0-.003-.002-.004-.003l-.003-.004-.004-.003-.003-.004-.004-.003a.117.117 0 0 1-.003-.004l-.004-.003a.117.117 0 0 1-.004-.004l-.003-.004-.004-.003-.003-.004c-.002 0-.003-.002-.004-.003l-.003-.004-.004-.003-.004-.004-.003-.003-.004-.004-5.657 5.657c.002 0 .003.002.004.003l.004.004.003.003.004.004.003.004c.002 0 .003.002.004.003l.003.004c.002 0 .003.002.004.003l.004.004a.117.117 0 0 0 .007.007l.003.003a.117.117 0 0 0 .01.011l.004.004c.002 0 .003.002.004.003l.003.004c.002 0 .003.002.004.003l.004.004.003.003.004.004.003.003.004.004.003.003.004.004a1601781996.968 1601781996.968 0 0 0 .01.01l.004.004.003.004.004.003.003.003.004.004.003.004.004.003.003.003.004.004.003.003.004.004.003.004a1601781996.968 1601781996.968 0 0 1 .01.01l.004.003.004.004.003.003.004.004a1022568323.982 1022568323.982 0 0 1 .01.01l.003.004c.002 0 .003.002.004.003l.003.004c.002 0 .003.002.004.003a.114.114 0 0 0 .003.004c.002 0 .003.002.004.003l.003.003.004.004.003.003.004.004.003.003.004.004.003.003.003.004c.002 0 .003.002.004.003l.003.004.004.003.003.003.004.004.003.003a1022568323.982 1022568323.982 0 0 1 .01.01l.004.004.003.003.004.004a3250884297.241 3250884297.241 0 0 0 .01.01l.003.003.004.004.003.003.003.004c.002 0 .003.002.004.003l.003.003.004.004a1012165802.866 1012165802.866 0 0 1 .006.007c.002 0 .003.002.004.003l.003.003.004.004.003.003.003.004c.002 0 .003.002.004.003a.107.107 0 0 0 .007.007l.003.003.003.004.004.003.003.003.003.004c.002 0 .003.002.004.003l.003.003.004.004.003.003.003.004.004.003a.107.107 0 0 0 .006.007l.004.003.003.003.003.004c.002 0 .003.002.004.003l.003.003.003.004c.002 0 .003.002.004.003l.003.003.003.004c.002 0 .003.002.004.003a.107.107 0 0 0 .003.003l.003.004c.002 0 .003.002.004.003l.003.003.003.004a2889930025.636 2889930025.636 0 0 0 .007.006l.003.004c.002 0 .003.002.004.003l.003.003.003.004.004.003.003.003.003.003.004.004a.107.107 0 0 0 .003.003l.003.003a2889930025.636 2889930025.636 0 0 0 .007.007l.003.003.003.004.004.003.003.003a2889930025.636 2889930025.636 0 0 0 .006.007c.002 0 .003.002.004.003l.003.003.003.004a963340941.366 963340941.366 0 0 0 .007.006l.003.004.003.003c.002 0 .003.002.004.003l.003.003a.098.098 0 0 0 .006.007c.002 0 .003.002.004.003l.003.003.003.004.004.003.003.003.003.003.003.004.004.003.003.003.003.003.003.004.004.003.003.003.003.003a.098.098 0 0 0 .006.007c.002 0 .003.002.004.003l.003.003.003.004.003.003c.002 0 .002.002.004.003l.003.003.003.003.003.004.004.003.003.003.003.003a1357961663.035 1357961663.035 0 0 1 .006.007l.004.003.003.003a.098.098 0 0 0 .006.006.095.095 0 0 0 .003.004l.003.003c.002 0 .003.002.004.003a2633642439.258 2633642439.258 0 0 1 .006.006l.003.004.004.003.003.003.003.003.003.003.003.003.003.004c.002 0 .002.002.004.003l.003.003.003.003.003.003.003.004.003.003c.002 0 .003.002.004.003l.003.003.003.003.003.003.003.003.003.004.003.003c.002 0 .003.002.004.003l.003.003.003.003.003.003.003.004.003.003.003.003c.002 0 .003.002.004.003l.003.003.003.003.003.003.003.003.003.004.003.003.004.003.003.003.003.003.003.003.003.003.003.003.003.003.003.004.003.003c.002 0 .002.002.004.003l.003.003.003.003.003.003.003.003.003.003.003.003.003.004.003.003.003.003.004.003.002.003a2469213115.107 2469213115.107 0 0 1 .007.006l.003.003.003.003.003.003a1275170800.259 1275170800.259 0 0 0 .006.006l.003.003a1275170800.259 1275170800.259 0 0 0 .006.006l.003.004.003.003.003.003.004.003.002.003a1275170800.259 1275170800.259 0 0 0 .007.006l.003.003.003.003.003.003a1194157202.764 1194157202.764 0 0 0 .006.006l.003.003.003.003.003.003.003.003.003.003.003.003.003.003.003.003.003.003.003.003.003.003.003.003.003.004a796146981.815 796146981.815 0 0 1 .024.024l.003.002.003.003.003.003.003.003.003.003a796146981.815 796146981.815 0 0 0 .015.015l.003.003.003.003.003.003.003.003a1194157202.764 1194157202.764 0 0 1 .006.006l.003.003.003.003.003.003.003.003.003.003.003.003.003.003.002.003c.002 0 .002.002.003.003.002 0 .002.002.003.003l.003.003.003.003a.08.08 0 0 0 .006.006l.003.002.003.003.003.003.003.003a.08.08 0 0 0 .006.006l.003.003.003.003.003.003.003.003.002.003.003.003.003.003.003.002.003.003.003.003.003.003.003.003.003.003.002.003a2309993792.286 2309993792.286 0 0 0 .006.006l.003.003a2309993792.294 2309993792.294 0 0 1 .009.008l.003.003.003.003.003.003.002.003.003.003.003.003.003.002.003.003.003.003.003.003.002.003c.002 0 .002.002.003.003l.003.003.003.002.003.003a693521983.414 693521983.414 0 0 1 .006.006l.003.003.002.003.003.002.003.003.003.003a.075.075 0 0 0 .003.003l.003.003.002.003.003.003.003.002.003.003.003.003.003.003.002.003.003.002.003.003.003.003.003.003.002.003c.002 0 .002.002.003.003l.003.002.003.003.003.003.003.003.002.003.003.003.003.002.003.003.003.003.002.003.003.003.003.002.003.003.002.003c.002 0 .002.002.003.003l.003.002.003.003.003.003.002.003.003.002.003.003.003.003.002.003.003.003.003.002.003.003.003.003.002.003.003.002.003.003.003.003.002.003.003.002.003.003.003.003.002.003.003.002.003.003.003.003.002.003.003.002.003.003.003.003.002.003.003.002.003.003.002.003.003.002.003.003.003.003.002.003.003.002.003.003.002.003.003.002.003.003.002.003.003.003.003.002.003.003.002.003.003.002.003.003.002.003.003.002.003.003.002.003.003.002.003.003.002.003.003.002.003.003.002.003.003.002.003.003.003.003.002.002.003.003.002.003.003.002.003.003.002.003.003.002.003.003.002.003.003.002.003.003.002.003.003.002.003.003.002.002.003.003.002.003.003.002.003.003.002.003.003.002.003.003.002.003.003.002.002.003.003.002.003.003.002.003.003.002.003.003.002.002.003.003.002.003.003.002.002.003.003.002.003.003.002.003.003.002.002.003.003.002.003.003.002.002.003.003.002.003.003.002.002.003.003.002.003.003.002.003.003.002 5.657-5.657zm-1.5-1.497c-.455-.48-.919-1.04-1.387-1.691l-6.493 4.674a24.145 24.145 0 0 0 2.08 2.527l5.8-5.51zm-1.357-1.648a9.34 9.34 0 0 1-.981-1.825l-7.403 3.034a17.331 17.331 0 0 0 1.83 3.379l6.554-4.588zm-.96-1.772c-.175-.443-.285-.98-.285-1.653h-8c0 1.577.264 3.118.84 4.582l7.444-2.93zm-.285-1.653c0-.754.1-1.333.246-1.778l-7.602-2.49c-.448 1.367-.644 2.803-.644 4.268h8zm.233-1.74c.177-.52.383-.86.574-1.09L40.03 7.666c-.902 1.083-1.556 2.32-2.004 3.644l7.576 2.568zm.538-1.047c.202-.236.414-.393.655-.506l-3.4-7.242a9.904 9.904 0 0 0-3.329 2.541l6.074 5.207zm.627-.493c.22-.101.496-.173.883-.173v-8c-1.457 0-2.884.288-4.226.905l3.343 7.268zm.883-.173c.337 0 .798.053 1.403.215l2.07-7.727c-1.146-.307-2.31-.488-3.473-.488v8zm1.467.232c.549.137 1.21.378 1.994.763l3.532-7.178c-1.187-.583-2.384-1.046-3.585-1.346l-1.94 7.761zm-.231-3.1-.375 5.461 7.981.548.375-5.46-7.981-.549zm6.266 2.74a9.653 9.653 0 0 0-2.2-1.474l-3.478 7.204c.098.048.224.126.377.261l5.3-5.992zM53.05 10.61a12.252 12.252 0 0 0-1.884-.796l-2.438 7.62c.133.042.347.127.647.282l3.675-7.106zm-1.917-.806a11.031 11.031 0 0 0-2.096-.438l-.852 7.954c.16.017.351.054.576.124l2.371-7.64zm-3.247-.395c-1.623.299-2.94 1.171-3.894 2.338l6.191 5.066c-.038.047-.135.15-.302.253a1.614 1.614 0 0 1-.545.21l-1.45-7.867zm-3.856 2.292c-1.156 1.37-1.575 2.998-1.575 4.525h8c0-.048.006.017-.038.153-.048.146-.136.32-.272.48l-6.115-5.158zm-1.575 4.525c0 1.284.257 2.602.907 3.835l7.075-3.734c.025.047.032.076.03.07a.84.84 0 0 1-.012-.171h-8zm.972 3.953a12.956 12.956 0 0 0 1.657 2.272l5.928-5.373c-.272-.3-.48-.59-.639-.868l-6.946 3.969zm1.747 2.367c.53.549 1.098 1.098 1.699 1.647l5.398-5.904c-.493-.45-.941-.886-1.348-1.306l-5.749 5.563zm1.746 1.69c.33.293.657.646.975 1.07l6.4-4.8a15.139 15.139 0 0 0-2.071-2.26l-5.304 5.99zm1.014 1.12c.236.304.466.696.671 1.203l7.418-2.995a12.99 12.99 0 0 0-1.766-3.109l-6.323 4.9zm.696 1.264c.102.24.227.7.248 1.48l7.997-.218c-.041-1.5-.291-2.994-.877-4.38l-7.368 3.118zm14.686-15.95 3.974.454.541-4.753-4.773.308.258 3.992zm-.329 4.079 3.995.213v-.003l-3.995-.21zm-.21 9.117h-4v.041l4-.04zm.093 4.219-3.997.143v.001l3.997-.144zm.399 5.719v4h4.793l-.858-4.716-3.935.716zm-1.946.047-.185-3.996h-.015l-.015.001.215 3.995zm-4.101.328-3.983-.37-.462 4.983 4.962-.647-.517-3.966zm.633-10.196-3.999-.106v.02l3.999.086zm0-7.43-3.998.134v.022l3.998-.155zm-.446-6.093.488-3.97-5.105-.627.65 5.102 3.967-.505zm1.932-.242a71.684 71.684 0 0 0-.348 4.32l7.989.421c.075-1.418.178-2.695.308-3.835l-7.949-.906zm-.348 4.319c-.08 1.514-.137 3.066-.169 4.655l7.999.161c.03-1.505.083-2.969.159-4.391l-7.989-.425zm-.169 4.655a231.333 231.333 0 0 0-.047 4.674h8c0-1.488.015-2.992.046-4.513l-7.999-.161zm-.047 4.716c.016 1.529.048 2.97.096 4.32l7.995-.286a163.436 163.436 0 0 1-.092-4.117l-8 .083zm.096 4.321c.048 1.323.104 2.507.17 3.55l7.984-.498c-.06-.957-.113-2.07-.16-3.34l-7.994.288zm.17 3.55c.064 1.044.154 1.989.29 2.74l7.871-1.43c-.05-.28-.118-.851-.177-1.808l-7.985.499zm4.226-1.975c-.692 0-1.402.017-2.131.05l.371 7.992c.615-.028 1.201-.042 1.76-.042v-8zm-2.161.052c-.596.033-1.26.073-1.99.12l.52 7.983c.708-.046 1.341-.084 1.901-.114l-.431-7.989zm-1.99.12a37.55 37.55 0 0 0-2.413.236l1.034 7.933a29.514 29.514 0 0 1 1.9-.186l-.521-7.983zm2.087 4.572c.365-3.94.584-7.437.649-10.48l-7.998-.17c-.06 2.802-.264 6.102-.617 9.911l7.966.74zm.648-10.458c.08-2.99.081-5.56-.001-7.691l-7.994.31c.073 1.899.075 4.282-.002 7.168l7.997.213zm0-7.67c-.081-2.427-.237-4.589-.476-6.465l-7.936 1.01c.2 1.561.34 3.462.416 5.722l7.995-.267zm-4.931-1.99c.97.12 1.882.2 2.728.237l.347-7.992a27.102 27.102 0 0 1-2.1-.185l-.975 7.94zm2.728.237c.756.033 1.434.05 2.025.05v-8c-.44 0-.996-.013-1.678-.042l-.347 7.992zm2.025.05c.675 0 1.31-.017 1.898-.054l-.515-7.984c-.38.025-.839.039-1.383.039v8zm12.056 19.65.154 3.996 3.9-.15-.054-3.902-4 .055zm-1.383.093.285 3.99.039-.003.039-.004-.363-3.983zm-1.546.117-.315-3.988-.009.001.324 3.987zm-1.922.188-3.999.106.116 4.35 4.324-.48-.441-3.976zm-.446-14.04-3.997.154 3.997-.153zm-.421-10.335 3.996-.178-.001-.013-3.995.19zm-.47-8.555L67.36-2.16l-4.07.188.263 4.065 3.992-.257zm6.094-.281h4v-4.19l-4.184.194.184 3.996zm0 17.062h-4V18.646l4-.029zm.024 5.742h-4v.039l4-.039zm.023 4.196h-4v.023l4-.023zm-.106 1.815c-.492.019-1.024.056-1.592.107l.725 7.967a22.93 22.93 0 0 1 1.174-.08l-.308-7.994zm-1.515.101c-.45.032-.976.072-1.576.12l.63 7.975a207.36 207.36 0 0 1 1.516-.115l-.57-7.98zm-1.585.12c-.625.05-1.306.117-2.04.2l.883 7.95a61.415 61.415 0 0 1 1.804-.176l-.647-7.974zm2.4 4.069c-.14-5.309-.29-10.005-.447-14.087l-7.994.307c.156 4.043.304 8.706.444 13.992l7.997-.212zm-.447-14.087c-.156-4.083-.297-7.537-.422-10.36l-7.993.355c.125 2.802.265 6.239.421 10.312l7.994-.307zM72.008 10.2a521.547 521.547 0 0 0-.473-8.622l-7.983.515c.154 2.394.31 5.222.465 8.488l7.991-.38zm-4.28-4.368 6.094-.282-.369-7.991-6.094.281.37 7.992zm1.91-4.277V11.094h8V1.555h-8zm0 9.539V18.617h8V11.094h-8zm0 7.552c.015 2.18.023 4.085.023 5.713h8c0-1.652-.008-3.576-.024-5.77l-8 .057zm.023 5.752c.016 1.617.023 3.002.023 4.157h8c0-1.189-.007-2.6-.023-4.234l-8 .077zm.023 4.18c.016 2.734.032 4.686.048 5.844l7.999-.11a832.937 832.937 0 0 1-.047-5.78l-8 .046zm35.05-1.992-3.922-.784-.003.013-.002.013 3.927.758zM103 31.93l3.519 1.9.005-.008.004-.008L103 31.93zm-2.602 2.976 2.082 3.416.019-.012.019-.012-2.12-3.392zm-6.421.047-2.043 3.44.02.011.02.012 2.003-3.463zm-4.407-8.226-3.928.752.002.013.003.014 3.923-.78zm0-16.36-3.927-.758-.002.01-.002.011 3.931.737zm1.782-5.508 3.529 1.883.004-.008.004-.008-3.537-1.867zm2.625-3.07 2.12 3.392.019-.012.018-.012-2.157-3.368zm6.421-.023-2.12 3.392.02.012.019.011 2.081-3.415zm4.336 8.53-3.932.733.003.016.003.015 3.926-.763zm-5.46-2.015-3.881.97.008.034.01.034 3.862-1.038zm-3.282-2.273L92.83 3.559l-.005.008-.006.007 3.174 2.434zm-.96 2.297L91.163 7.28l-.005.02-.005.02 3.877.984zm-.634 4.125 3.983.369v-.004l-3.983-.365zm0 12.234-3.981.38v.003l3.981-.383zm.633 3.938-3.866 1.026.01.037.01.035 3.846-1.098zm.961 2.109-3.045 2.594.028.032.028.031 2.99-2.657zm2.344-.023 3.091 2.539.022-.027.021-.027-3.134-2.486zm.937-2.18-3.855-1.068-.005.02-.005.02 3.865 1.028zm2.118-9.914c0 2.974-.209 5.359-.579 7.207l7.845 1.57c.505-2.527.734-5.47.734-8.777h-8zm-.584 7.234c-.376 1.948-.852 3.312-1.335 4.217l7.056 3.77c.985-1.845 1.666-4.044 2.134-6.472l-7.855-1.515zm-1.326 4.2c-.504.934-.945 1.325-1.203 1.486l4.24 6.784c1.743-1.089 3.037-2.682 4.001-4.467l-7.038-3.803zm-1.164 1.463a2.07 2.07 0 0 1-1.13.33v8c1.896 0 3.683-.518 5.293-1.499l-4.163-6.832zm-1.13.33c-.428 0-.809-.1-1.208-.33l-4.004 6.925a10.31 10.31 0 0 0 5.213 1.404v-8zm-1.168-.307c-.229-.136-.66-.496-1.175-1.417l-6.985 3.9c.986 1.766 2.304 3.343 4.075 4.395l4.085-6.878zm-1.175-1.417c-.475-.852-.96-2.186-1.35-4.15l-7.847 1.559c.485 2.442 1.188 4.655 2.212 6.49l6.985-3.899zM93.5 25.974c-.359-1.874-.561-4.315-.561-7.38h-8c0 3.372.219 6.353.704 8.885l7.857-1.505zm-.561-7.38c0-3.08.202-5.56.564-7.49L85.639 9.63c-.482 2.57-.701 5.574-.701 8.964h8zm.56-7.468c.392-2.033.885-3.45 1.383-4.384l-7.059-3.765c-1.002 1.878-1.697 4.133-2.18 6.632l7.856 1.517zm1.391-4.4c.536-1.015.986-1.406 1.208-1.545l-4.24-6.784c-1.779 1.111-3.079 2.767-4.043 4.596l7.076 3.733zm1.245-1.569c.384-.246.71-.329 1.053-.329v-8c-1.938 0-3.752.558-5.368 1.593l4.315 6.736zm1.053-.329c.365 0 .704.088 1.091.33l4.24-6.784a9.95 9.95 0 0 0-5.33-1.546v8zm1.13.353c.196.12.624.478 1.137 1.46l7.092-3.704c-.956-1.83-2.262-3.488-4.066-4.587L98.317 5.18zm1.137 1.46c.488.934.969 2.353 1.348 4.388l7.865-1.464c-.465-2.496-1.141-4.75-2.121-6.628l-7.092 3.704zm1.354 4.42c.373 1.916.583 4.408.583 7.533h8c0-3.438-.228-6.477-.73-9.06l-7.853 1.526zm3.356 7.533c0-2.527-.08-4.73-.251-6.58l-7.966.738c.14 1.524.217 3.463.217 5.842h8zm-.251-6.58c-.167-1.803-.413-3.418-.777-4.77L95.41 9.318c.2.741.391 1.86.537 3.433l7.966-.738zm-.759-4.703c-.304-1.217-.777-2.63-1.644-3.76l-6.349 4.867c-.103-.135-.096-.17-.025.004.066.16.156.427.257.83l7.761-1.94zm-1.644-3.76c-.757-.988-2.181-2.27-4.323-2.27v8c-1.328 0-1.987-.813-2.025-.863l6.348-4.867zm-4.323-2.27c-2.145 0-3.583 1.277-4.358 2.278l6.326 4.898a1.88 1.88 0 0 1-.505.424c-.36.218-.865.4-1.463.4v-8zm-4.37 2.293c-.85 1.11-1.332 2.497-1.653 3.707l7.734 2.047c.108-.407.204-.681.275-.85.076-.183.089-.16-.006-.036l-6.35-4.868zm-1.663 3.747c-.338 1.332-.573 2.937-.739 4.743l7.967.731c.146-1.6.333-2.744.526-3.507l-7.754-1.967zm-.739 4.74c-.17 1.85-.25 4.035-.25 6.533h8c0-2.346.075-4.27.216-5.796l-7.966-.737zm-.25 6.533c0 2.48.08 4.64.251 6.45l7.964-.76c-.14-1.47-.216-3.359-.216-5.69h-8zm.252 6.453c.166 1.733.404 3.286.748 4.581l7.732-2.053c-.187-.705-.371-1.777-.517-3.294l-7.963.766zm.768 4.653c.328 1.146.838 2.52 1.762 3.605l6.09-5.188c.073.086.11.145.117.156.007.013-.005-.005-.031-.064a5.272 5.272 0 0 1-.246-.706L91.185 29.7zm1.818 3.668c.864.973 2.269 1.976 4.184 1.976v-8c.487 0 .92.128 1.257.306.314.167.485.344.538.404l-5.98 5.314zm4.184 1.976c2.023 0 3.435-1.137 4.24-2.117l-6.182-5.078c.046-.056.218-.253.55-.442.36-.206.84-.363 1.392-.363v8zm4.283-2.17c.872-1.1 1.357-2.462 1.669-3.64l-7.731-2.053a5.555 5.555 0 0 1-.243.741c-.064.15-.066.11.037-.02l6.268 4.971zm1.658-3.599c.368-1.326.615-2.9.783-4.645l-7.963-.766c-.145 1.505-.334 2.571-.53 3.276l7.71 2.135zm.783-4.645c.173-1.794.253-3.915.253-6.336h-8c0 2.266-.076 4.114-.216 5.57l7.963.766zm20.45-14.211 3.996-.167-.155-3.737-3.739-.095-.102 3.999zm.328 10.195-3.999.091v.01l.001.01 3.998-.11zm-1.266 19.734-3.414-2.083-.008.013-.008.012 3.43 2.058zm-2.414 1.993-1.398-3.748-.024.01-.025.009 1.447 3.729zm-11.062.093-3.997-.146-.134 3.647 3.619.467.512-3.968zm.187-5.132.274-3.991-4.12-.282-.151 4.127 3.997.146zm5.274.304.266-3.99-.028-.003-.028-.001-.21 3.994zm2.789-.07-1.129-3.837-.102.03-.1.035 1.331 3.772zm.633-.469-3.146-2.471-.096.123-.087.13 3.329 2.218zm.445-3.844 3.973-.467-1.271-10.797-6.03 9.046 3.328 2.218zm-.867.891-2.219-3.328-.038.025-.037.026 2.294 3.277zm-1.852.75-.418-3.978-.12.013-.119.02.657 3.945zm-5.601-2.812-3.615 1.712.012.026.012.025 3.591-1.763zm-.867-3.118-3.967.515.001.007 3.966-.522zm-.258-5.062h-4v.154l.011.153 3.989-.307zm-.024-.399h-4v.65l.206.615 3.794-1.265zm0-.046h-4l7.98.398-3.98-.398zm.024-.235 3.98.398.002-.018.001-.018-3.983-.362zm.422-6.89-3.994-.235-.001.018-.001.019 3.996.198zm.328-6.07.345-3.986-4.129-.357-.211 4.139 3.995.203zm5.414.468-.345 3.985.172.015h.173v-4zm-.094.914-3.937-.707-.008.042-.006.041 3.951.624zm-.352 2.555-3.968-.503-.003.024-.003.025 3.974.454zm-.398 12-3.963.544.006.044.007.044 3.95-.632zm1.219 3.023-2.561 3.073.092.077.096.07 2.373-3.22zm2.531-1.125 3.689 1.547.004-.01.004-.01-3.697-1.527zm.586-5.156h-4v.181l.016.181 3.984-.362zm-.023-.797h-4v.09l.004.092 3.996-.182zm-.188-3.61-3.995.2.002.036.002.035 3.991-.27zm-.187-3.398-3.996.186.001.025.001.024 3.994-.235zm-.258-4.828.101-3.999-4.348-.11.253 4.342 3.994-.233zm1.534.307c.14 3.35.249 6.723.326 10.12l7.998-.182c-.079-3.447-.189-6.87-.331-10.27l-7.993.332zm.327 10.14c.092 3.367.139 6.807.139 10.319h8c0-3.582-.048-7.096-.142-10.54l-7.997.22zm.139 10.319c0 2.155-.091 3.86-.251 5.157l7.939.982c.215-1.735.312-3.794.312-6.14h-8zm-.251 5.157c-.145 1.169-.4 1.785-.57 2.064l6.829 4.167c.955-1.565 1.45-3.386 1.68-5.249l-7.939-.982zm-.586 2.09c-.085.142-.164.22-.382.302l2.797 7.495c1.875-.7 3.406-1.949 4.445-3.682l-6.86-4.116zm-.431.32c-.408.159-1.242.339-2.701.339v8c1.979 0 3.91-.226 5.595-.88l-2.894-7.458zm-2.701.339c-.761 0-1.675-.034-2.75-.108l-.547 7.981c1.206.083 2.308.127 3.297.127v-8zm-2.75-.108a61.996 61.996 0 0 1-3.652-.375l-1.024 7.934c1.512.196 2.89.338 4.129.422l.547-7.98zm-.167 3.738.188-5.132-7.995-.292-.187 5.132 7.994.292zm-4.083-1.288c1.156.08 2.193.143 3.11.191l.42-7.988c-.864-.046-1.858-.107-2.983-.184l-.547 7.981zm3.11.191h.005l.005.001h.016a.137.137 0 0 1 .01.002H113.033l.006.001h.015l.005.001h.011l.005.001h.015l.005.001h.016l.005.001h.01l.005.001h.015l.006.001h.005a.137.137 0 0 0 .01 0l.005.001h.015l.005.001h.01l.005.001a.12.12 0 0 0 .006 0h.005a.137.137 0 0 0 .01.001h.015l.005.001h.015l.005.001h.01l.005.001h.015l.005.001h.015l.005.001h.015l.005.001h.015l.005.001a.136.136 0 0 1 .01 0h.005l.005.001H113.392l.005.001h.015l.005.001h.015l.005.001h.005a.137.137 0 0 0 .009 0l.005.001h.015l.005.001h.005a.136.136 0 0 1 .01 0l.004.001h.015l.005.001H113.529l.005.001h.015a.137.137 0 0 0 .009.001h.005l.005.001h.014l.005.001h.015l.004.001h.015l.004.001h.015l.005.001H113.659l.005.001H113.678l.005.001H113.697l.004.001h.015l.004.001h.014l.005.001H113.758l.004.001h.014l.005.001H113.795l.005.001H113.814l.004.001h.014l.005.001H113.851l.004.001h.005a.137.137 0 0 0 .009 0l.005.001H113.887l.005.001H113.906l.004.001H113.929l.004.001H113.947l.004.001H113.965l.004.001H113.983l.004.001H114.001l.004.001H114.023l.005.001H114.041l.005.001H114.059l.005.001H114.077l.004.001H114.099l.005.001a.07.07 0 0 0 .004 0H114.117l.004.001H114.134l.005.001h.017l.005.001H114.174l.004.001H114.191l.005.001h.017l.004.001H114.23l.005.001h.017l.004.001H114.269l.004.001H114.286l.004.001H114.308l.004.001H114.325l.004.001h.017l.004.001h.004a.07.07 0 0 1 .004 0h.005l.004.001h.008a.07.07 0 0 1 .004 0h.005l.004.001h.008a.07.07 0 0 1 .004 0l.005.001h.012a.07.07 0 0 1 .004 0l.005.001h.012l.004.001h.017l.004.001h.016l.004.001H114.496l.004.001h.016l.004.001h.017l.004.001h.012l.004.001h.016l.004.001h.016l.004.001H114.61l.004.001h.016l.004.001h.015l.004.001h.016l.004.001h.012l.004.001h.016l.004.001h.012a.03.03 0 0 0 .003 0l.004.001h.016l.004.001h.015l.004.001h.016l.004.001h.015l.004.001h.015l.004.001h.015l.004.001h.012a.03.03 0 0 0 .003 0l.004.001h.008a.03.03 0 0 0 .003 0h.004l.004.001h.015l.004.001h.015l.004.001h.015l.003.001h.008a.03.03 0 0 1 .003 0h.004l.004.001h.004a.054.054 0 0 0 .007 0h.004l.003.001h.015l.004.001H115.008l.004.001h.015a.03.03 0 0 0 .003 0l.004.001H115.048l.004.001h.015a.03.03 0 0 0 .003.001h.015a.03.03 0 0 1 .003.001h.004a.054.054 0 0 0 .007 0h.007l.004.001h.01a.054.054 0 0 0 .007.001H115.141l.004.001h.004a.03.03 0 0 0 .003 0h.011l.003.001H115.18l.004.001h.014l.42-7.988h-.01l-.004-.001h-.017l-.004-.001h-.014l-.004-.001a.03.03 0 0 1-.003 0H115.548l-.004-.001h-.007a.03.03 0 0 1-.003 0h-.004l-.004-.001h-.014l-.003-.001h-.008a.03.03 0 0 1-.003 0h-.007l-.004-.001H115.473l-.004-.001h-.015l-.003-.001h-.015l-.003-.001h-.019l-.003-.001h-.004a.054.054 0 0 0-.007 0h-.004l-.004-.001h-.015l-.003-.001h-.012a.054.054 0 0 1-.007 0l-.004-.001h-.011l-.004-.001h-.015a.03.03 0 0 0-.003-.001h-.012a.03.03 0 0 0-.003 0l-.004-.001h-.015l-.004-.001h-.015l-.004-.001h-.012a.03.03 0 0 0-.003 0l-.004-.001h-.016l-.003-.001h-.016l-.004-.001h-.008a.03.03 0 0 1-.003 0h-.004l-.004-.001h-.016l-.004-.001h-.015l-.004-.001h-.016l-.004-.001h-.012a.03.03 0 0 1-.003-.001h-.016l-.004-.001h-.016l-.004-.001h-.016l-.004-.001h-.012l-.004-.001h-.016l-.004-.001h-.016l-.004-.001h-.016l-.005-.001h-.012l-.004-.001h-.016l-.004-.001h-.017l-.004-.001h-.012l-.004-.001h-.004a.07.07 0 0 1-.004 0H114.883l-.004-.001h-.012l-.004-.001h-.017l-.004-.001H114.829a.07.07 0 0 0-.008-.001H114.808l-.004-.001h-.017l-.004-.001H114.77l-.004-.001h-.017l-.004-.001H114.732l-.004-.001H114.715l-.004-.001h-.017l-.004-.001H114.677l-.005-.001h-.017l-.004-.001H114.638l-.005-.001H114.62l-.004-.001h-.017l-.005-.001h-.004a.07.07 0 0 1-.004 0h-.005l-.004-.001H114.559l-.004-.001H114.542l-.005-.001H114.524l-.004-.001H114.506l-.004-.001H114.484l-.004-.001H114.466l-.004-.001H114.448l-.004-.001H114.43l-.004-.001H114.408l-.005-.001H114.39l-.005-.001H114.372l-.005-.001H114.354l-.005-.001H114.335l-.004-.001H114.313l-.005-.001H114.294l-.004-.001h-.014l-.005-.001H114.257l-.004-.001h-.014l-.005-.001H114.22l-.004-.001h-.014l-.005-.001H114.183l-.005-.001H114.164l-.004-.001h-.015l-.004-.001h-.014l-.005-.001h-.005a.137.137 0 0 0-.009 0l-.005-.001H114.089l-.005-.001H114.07l-.005-.001h-.005a.137.137 0 0 0-.009 0l-.005-.001h-.014l-.005-.001h-.015l-.004-.001h-.015a.137.137 0 0 0-.009-.001h-.01l-.005-.001h-.014l-.005-.001h-.015l-.005-.001h-.004a.137.137 0 0 1-.01 0l-.005-.001h-.015l-.005-.001H113.877l-.005-.001h-.015l-.005-.001h-.014l-.005-.001h-.01l-.005-.001h-.015l-.005-.001h-.015l-.005-.001h-.015a.137.137 0 0 0-.01-.001h-.01l-.005-.001H113.724l-.005-.001a.137.137 0 0 1-.01 0l-.006-.001h-.005a.136.136 0 0 1-.015-.001h-.015l-.005-.001h-.015l-.005-.001h-.01l-.005-.001h-.015l-.005-.001h-.016a.137.137 0 0 0-.01-.001h-.01l-.005-.001h-.01l-.005-.001h-.016l-.005-.001h-.015l-.005-.001h-.011l-.005-.001h-.015l-.005-.001h-.016l-.005-.001h-.01a.12.12 0 0 0-.006 0l-.005-.001h-.01l-.005-.001h-.016l-.005-.001h-.006l-.42 7.988zm2.171.114c.762.051 1.464.08 2.094.08v-8c-.402 0-.918-.019-1.562-.062l-.532 7.982zm2.094.08c.687 0 1.484-.084 2.292-.37l-2.662-7.543c.144-.05.253-.072.312-.08.059-.01.081-.007.058-.007v8zm2.09-.304a5.122 5.122 0 0 0 2.832-2.087l-6.657-4.438a2.868 2.868 0 0 1 1.567-1.15l2.258 7.675zm2.649-1.834c.711-.905 1.013-1.902 1.158-2.654l-7.856-1.51c-.002.007.011-.066.061-.192.051-.126.154-.342.346-.587l6.291 4.943zm1.158-2.654c.144-.751.189-1.553.189-2.326h-8c0 .51-.034.754-.045.815l7.856 1.511zm.189-2.326V34.25h-8V34.859h8zm0-.609c0-.405-.029-.806-.074-1.194l-7.946.935c.017.143.02.226.02.259h8zm-7.375-2.945a.497.497 0 0 1 .058-.068c.042-.043.103-.097.184-.151l4.438 6.656a7.148 7.148 0 0 0 1.976-2l-6.656-4.437zm.167-.168c-.094.066-.137.082-.129.079l2.971 7.428a8.66 8.66 0 0 0 1.746-.953l-4.588-6.554zm-.129.079c-.014.005.04-.018.153-.03l.837 7.956a7.428 7.428 0 0 0 1.981-.498l-2.971-7.428zm-.086.002a3.726 3.726 0 0 1-.127.019h.009c.012-.002.036-.003.072-.003v8c.49 0 .962-.058 1.361-.124l-1.315-7.892zm-.046.016c-.751 0-.932-.155-.867-.112l-4.407 6.677c1.629 1.075 3.494 1.435 5.274 1.435v-8zm-.867-.112c-.151-.1-.298-.243-.441-.534l-7.181 3.527c.732 1.49 1.804 2.753 3.215 3.684l4.407-6.677zm-.416-.483c-.21-.443-.403-1.066-.517-1.926l-7.931 1.043c.199 1.515.584 2.97 1.218 4.308l7.23-3.425zm-.516-1.92a26.002 26.002 0 0 1-.201-3.328h-8c0 1.511.087 2.966.268 4.359l7.933-1.03zm-.201-3.328c0-.584-.006-1.144-.035-1.526l-7.977.614c-.001-.018.003.041.007.227.003.168.005.394.005.685h8zm-.023-1.22c0-.144-.003-.32-.013-.498-.001-.017-.018-.57-.216-1.164l-7.589 2.53a3.89 3.89 0 0 1-.162-.697 2.876 2.876 0 0 1-.019-.199c-.003-.045-.001-.045-.001.029h8zm-.024-.398V23.72h-8v.005h8v-.005h-8V23.774h8zm-4-.046 3.98.398v-.001h.001V24.113h.001V24.103h.001V24.093h.001V24.083h.001V24.073h.001V24.063h.001V24.053h.001V24.044l.001-.001V24.034l.001-.001V24.023l.001-.001V24.013h.001V24.004l.001-.002v-.008l.001-.002V23.983l.001-.001v-.008l.001-.001V23.964h.001V23.953h.001v-.01h.001V23.933l.001-.001V23.923l.001-.001V23.914h.001V23.903l.001-.001V23.894l.001-.001v-.003l-7.96-.796-.001.001V23.104l-.001.001v.008l-.001.002V23.125l-.001.001V23.134l-.001.001V23.144l-.001.001v.008l-.001.002V23.165h-.001V23.176h-.001V23.184h-.001V23.195h-.001V23.205h-.001V23.215h-.001V23.225h-.001v.01h-.001V23.245h-.001V23.255h-.001V23.265h-.001V23.275h-.001V23.285h-.001V23.295h-.001V23.305h-.001V23.315h-.001V23.325h-.001v.004l3.98.399zm4.007.127c.02-.22.046-.574.078-1.024l-7.982-.55c-.031.455-.052.727-.063.85l7.967.724zm.078-1.024c.031-.463.079-1.181.141-2.15l-7.983-.516c-.063.968-.109 1.672-.14 2.115l7.982.55zm.141-2.15c.065-.998.136-2.293.215-3.88l-7.991-.396c-.077 1.569-.146 2.82-.207 3.76l7.983.515zm.213-3.843c.094-1.609.204-3.643.33-6.102l-7.99-.407a803.95 803.95 0 0 1-.327 6.039l7.987.47zm-4.01-2.32 5.414.468.69-7.97-5.414-.469-.69 7.97zm5.759.483a3.989 3.989 0 0 1-3.751-2.634c-.199-.554-.219-1.013-.223-1.104a3.05 3.05 0 0 1 .006-.442 6.95 6.95 0 0 1-.063.387l7.874 1.414c.058-.326.116-.676.148-.984.012-.12.042-.428.024-.785-.007-.129-.031-.616-.237-1.19C119.658 9.346 118.73 7 115.994 7v8zm-4.045-3.71a94.822 94.822 0 0 0-.369 2.676l7.937 1.006c.139-1.097.25-1.901.334-2.434l-7.902-1.248zm-.375 2.725c-.131 1.15-.26 2.518-.388 4.093l7.974.644c.123-1.52.244-2.793.363-3.83l-7.949-.907zm-.388 4.093a68.566 68.566 0 0 0-.2 5.478h8c0-1.805.06-3.414.174-4.834l-7.974-.644zm-.2 5.478c0 1.241.059 2.394.201 3.427l7.926-1.088c-.077-.562-.127-1.33-.127-2.34h-8zm.214 3.515c.153.955.38 1.917.736 2.795l7.412-3.01c-.049-.123-.151-.442-.248-1.05l-7.9 1.265zm.736 2.795c.342.841.903 1.862 1.872 2.67l5.121-6.147c.214.178.334.34.386.42.052.079.057.105.033.046l-7.412 3.011zm2.06 2.816a5.62 5.62 0 0 0 3.357 1.108v-8a2.379 2.379 0 0 1 1.389.452l-4.746 6.44zm3.357 1.108c3.169 0 4.671-2.559 5.236-3.906l-7.378-3.094c-.082.196-.041.004.259-.278.166-.157.42-.347.768-.494a2.864 2.864 0 0 1 1.115-.228v8zm5.244-3.927c.721-1.746.912-3.97.912-6.213h-8c0 2.038-.215 2.939-.306 3.161l7.394 3.052zm.912-6.213c0-.285-.015-.565-.039-.831l-7.968.724c.007.077.007.11.007.107h8zm-.023-.47c0-.278-.011-.614-.028-.978l-7.991.364c.014.324.019.518.019.615h8zm-.023-.796c0-.462-.02-1.005-.054-1.605l-7.987.444c.029.525.041.905.041 1.161h8zm-.054-1.605c-.032-.585-.08-1.346-.143-2.275l-7.982.541c.062.915.108 1.639.138 2.178l7.987-.444zm-.139-2.204c-.048-.953-.111-2.098-.189-3.434l-7.987.47c.078 1.32.14 2.441.186 3.363l7.99-.4zm-.187-3.385c-.063-1.364-.15-2.99-.26-4.875l-7.987.466c.109 1.865.194 3.458.256 4.781l7.991-.372zm-4.355-.643 5.531.14.204-7.997-5.532-.14-.203 7.997zm20.806 20.282-3.963-.541-.653 4.782 4.82-.246-.204-3.995zm.727-7.64-3.993-.242v.012l-.001.012 3.994.218zm.047-10.383-3.91.845.003.011.002.012 3.905-.868zm-.492-1.313-3.354 2.18.026.04.026.04 3.302-2.26zm-.657-.585-1.485 3.713.109.044.111.037 1.265-3.794zm-1.57.023-1.45-3.728-.036.014-.037.015 1.523 3.699zm-1.406 1.945-3.762-1.358-.017.046-.016.047 3.795 1.265zm-.821 5.602-3.993-.235-.001.022-.001.023 3.995.19zm-.093 8.789h-4v.049l.001.048 3.999-.097zm.023 1.71h-4v.065l.002.065 3.998-.13zm.07 1.032-.035 4 4.704.041-.715-4.65-3.954.61zm-5.296-.047-3.998-.132-.135 4.096 4.097.036.036-4zm.093-3.797-3.998-.11-.001.027v.027l3.999.056zm.094-5.718-3.999-.076-.001.038v.038h4zm0-4.641h-4v.042l.001.041 3.999-.083zm-.023-2.461h-4V17.446l4-.071zm-.047-2.86-4 .06.001.031.001.03 3.998-.12zm-.071-3.468-.102-3.999-3.995.103.099 3.995 3.998-.1zm5.485-.14 3.997.156.167-4.265-4.267.11.103 3.998zm-.094 2.39-3.997-.157 7.532 2.028-3.535-1.871zm1.359-1.899 2.782 2.875.024-.023.023-.023-2.829-2.829zm1.43-1.125-1.923-3.507-.025.014-.024.013 1.972 3.48zm1.406-.515.68 3.942.066-.012.065-.013-.811-3.917zm5.086 3.562-3.81 1.217.01.032.011.032 3.789-1.28zm.891 11.72-3.994-.217-.002.027-.001.027 3.997.162zm-.188 3.42-3.99-.276-.002.026-.001.026 3.993.225zm-.234 3.235-3.984-.357-.002.028-.002.027 3.988.302zm-.211 2.883.204 3.995 3.538-.18.248-3.535-3.99-.28zm-1.544.823c.358-2.625.611-5.28.757-7.964L136.267 27a90.382 90.382 0 0 1-.696 7.317l7.927 1.083zm.756-7.94c.161-2.666.241-5.45.241-8.352h-8c0 2.755-.076 5.377-.227 7.868l7.986.484zm.241-8.352c0-1.082-.067-2.17-.282-3.14l-7.81 1.735c.034.153.092.581.092 1.405h8zm-.278-3.118c-.173-.8-.476-1.814-1.1-2.726l-6.603 4.517a1.846 1.846 0 0 1-.168-.303l.014.045c.01.035.023.087.038.157l7.819-1.69zm-1.048-2.647c-.456-.703-1.311-1.723-2.745-2.201l-2.53 7.59c-.965-.323-1.382-.952-1.432-1.03l6.707-4.36zm-2.524-2.12a5.822 5.822 0 0 0-2.165-.427v8c-.363 0-.64-.08-.806-.146l2.971-7.427zm-2.165-.427c-.791 0-1.581.14-2.341.436l2.9 7.456a1.572 1.572 0 0 1-.559.108v-8zm-2.414.465c-1.129.465-1.91 1.243-2.427 1.932l6.4 4.8c-.048.064-.329.42-.927.666l-3.046-7.398zm-2.427 1.932c-.563.75-.944 1.594-1.218 2.354l7.524 2.717c.06-.166.106-.268.132-.32.028-.055.019-.028-.038.049l-6.4-4.8zm-1.251 2.447c-.288.864-.494 1.854-.652 2.889l7.909 1.206c.123-.809.246-1.304.333-1.565l-7.59-2.53zm-.652 2.889c-.165 1.083-.284 2.339-.367 3.743l7.987.47c.073-1.252.173-2.246.289-3.007l-7.909-1.206zm-.369 3.788a105.602 105.602 0 0 0-.098 4.9h8c0-1.786.03-3.29.089-4.52l-7.991-.38zm-.098 4.9V29.282h8V27.22h-8zm0 2.063V31.297h8V29.28h-8zm.001 2.113c.015.617.022 1.154.022 1.614h8c0-.54-.008-1.144-.024-1.809l-7.998.195zm.024 1.743c.016.488.044 1.046.115 1.51l7.907-1.216c.006.038.007.051.005.031a15.78 15.78 0 0 1-.031-.584l-7.996.259zm4.104-3.098-5.297-.047-.071 8 5.297.047.071-8zm-1.335 4.085a203 203 0 0 0 .096-3.872l-7.999-.113a200.311 200.311 0 0 1-.092 3.721l7.995.264zm.095-3.818c.031-1.137.055-2.183.071-3.138l-7.999-.133c-.015.92-.038 1.936-.069 3.05l7.997.221zm.071-3.138c.016-.956.024-1.854.024-2.691h-8c0 .787-.007 1.64-.023 2.558l7.999.133zm.023-2.616c.016-.852.025-1.69.025-2.513h-8c0 .77-.008 1.558-.023 2.362l7.998.151zm.025-2.513c0-.748-.009-1.51-.025-2.286l-7.998.166c.015.724.023 1.43.023 2.12h8zm-.024-2.203c0-.793-.008-1.637-.024-2.532l-7.999.142c.016.855.023 1.651.023 2.39h8zm-.023-2.461c0-.922-.017-1.916-.049-2.98l-7.996.242c.03.998.045 1.91.045 2.738h8zm-.048-2.92a323.23 323.23 0 0 0-.071-3.507l-7.997.198c.031 1.255.054 2.398.069 3.43l7.999-.12zm-3.967.59 5.484-.14-.205-7.997-5.484.14.205 7.998zm1.385-4.296-.094 2.391 7.994.314.094-2.391-7.994-.314zm7.438 4.42c.287-.543.507-.8.606-.896l-5.563-5.749c-.869.841-1.556 1.85-2.113 2.901l7.07 3.743zm.653-.942c.295-.295.489-.426.573-.473l-3.944-6.96c-.854.483-1.612 1.102-2.286 1.776l5.657 5.657zm.525-.446c.172-.095.222-.092.162-.081l-1.359-7.884a8.525 8.525 0 0 0-2.65.95l3.847 7.015zm.293-.106c.258-.054.386-.058.408-.058v-8c-.696 0-1.381.09-2.029.224l1.621 7.834zm.408-.058c.015 0-.08 0-.229-.062a.927.927 0 0 1-.309-.206l5.858-5.448c-1.428-1.535-3.31-2.284-5.32-2.284v8zm-.538-.268c.126.136.365.47.595 1.188l7.621-2.434c-.489-1.53-1.234-2.994-2.358-4.202l-5.858 5.448zm.616 1.252c.258.763.464 1.728.582 2.93l7.962-.78c-.164-1.673-.473-3.256-.965-4.712l-7.579 2.562zm.582 2.93c.127 1.298.192 2.66.192 4.086h8c0-1.668-.076-3.29-.23-4.866l-7.962.78zm.192 4.086c0 1.051-.029 2.12-.088 3.206l7.988.432c.066-1.226.1-2.439.1-3.638h-8zm-.091 3.26a115.075 115.075 0 0 1-.181 3.307l7.981.554c.081-1.164.145-2.343.194-3.537l-7.994-.324zm-.184 3.359a92.702 92.702 0 0 1-.225 3.102l7.968.714c.098-1.093.179-2.215.244-3.366l-7.987-.45zm-.229 3.157c-.079 1.038-.15 2.006-.213 2.905l7.98.56c.062-.882.132-1.835.21-2.86l-7.977-.605zm3.573-.81-5.508.282.408 7.99 5.508-.282-.408-7.99zm19.831-3.106-4-.051v.025l4 .026zm-.141 7.71-.229 3.994 4.107.236.12-4.113-3.998-.117zm-4.078-.234h-4v3.777l3.771.217.229-3.994zm0-3.164h4V16.353l-7.497 13.493 3.497 1.943zm-1.594 1.945 2.373 3.22.027-.02.027-.02-2.427-3.18zm-1.687.985 1.485 3.714.019-.008.019-.008-1.523-3.698zm-1.852.422v4h.103l.102-.006-.205-3.994zm-2.109-.493-1.856 3.544.033.017.034.017 1.789-3.578zm-2.86-3.28-3.761 1.36.018.048.018.049 3.725-1.458zm.165-4.9-3.653-1.63-.007.015-.007.016 3.667 1.6zm1.968-2.366 2.426 3.18.01-.007.009-.007-2.445-3.166zm5.461-4.125 2.623 3.02.006-.005-2.629-3.015zm1.336-1.5-3.41-2.09-.01.015-.01.017 3.43 2.058zm-.07-3.961-3.328 2.218.015.024.017.024 3.296-2.266zm-2.25-.493 2.365 3.226.018-.013.017-.013-2.4-3.2zm-.586.704-3.54-1.863-.019.036-.019.038 3.578 1.789zm-.328.96-3.909-.85-.014.068-.013.067 3.936.716zm-.071 1.805-3.993.222.006.11.012.11 3.975-.442zm.165.89.069 4 5.032-.087-1.221-4.882-3.88.97zm-5.391.095-3.973.467.423 3.595 3.619-.063-.069-4zm-.07-.75-3.993.25.001.007v.009l3.992-.266zm.468-3.586 3.776 1.321.003-.01.003-.01-3.782-1.301zm1.43-2.532-3.041-2.598-.005.006 3.046 2.592zm9.023-1.523-2.363 3.227.033.024.033.023 2.297-3.274zm2.016 2.484-3.662 1.61.01.023.011.023 3.641-1.656zm.891 3.516-3.982.38.002.025.003.026 3.977-.431zm-5.063 10.617 3.9.891.012-.053.011-.053-3.923-.785zm.211-1.336-3.957-.586-.006.045-.006.045 3.969.496zm.164-1.523 3.988.315v-.008l-3.988-.307zm.117-2.04 3.997.167.551-13.22-7.783 10.701 3.235 2.353zm-2.039 2.25 2.548 3.085.085-.07.08-.075-2.713-2.94zm-1.148 1.009 2.65 2.995.032-.028.031-.028-2.713-2.94zm-1.125 1.148-3.054-2.584-.029.035-.029.036 3.112 2.513zm-.844 1.266-3.526-1.89-.012.024-.013.024 3.551 1.842zm.117 2.46-3.136 2.483.026.033.026.032 3.084-2.547zm2.11.258-1.851-3.546-.032.017-.033.018 1.916 3.511zm1.008-.797-2.894-2.761-.034.035-.032.036 2.96 2.69zm2.703-9.328c0 2.452-.016 4.904-.047 7.356l7.999.101c.032-2.485.048-4.971.048-7.457h-8zm-.047 7.381a338.31 338.31 0 0 1-.139 7.62l7.996.233c.079-2.7.127-5.3.143-7.802l-8-.05zm4.089 3.743-4.078-.234-.459 7.986 4.078.235.459-7.987zm-.308 3.76v-3.165h-8v3.164h8zm-7.497-5.108c-.276.497-.476.672-.523.709l4.853 6.36c1.14-.87 2.002-1.993 2.664-3.183l-6.994-3.886zm-.47.668c-.401.296-.679.44-.837.506l3.046 7.397c.904-.372 1.751-.883 2.537-1.462l-4.746-6.44zm-.8.49a1.786 1.786 0 0 1-.571.142l.41 7.99a9.756 9.756 0 0 0 3.132-.703l-2.971-7.428zm-.366.137a.656.656 0 0 1-.32-.07l-3.578 7.155a8.651 8.651 0 0 0 3.898.915v-8zm-.253-.036a1.783 1.783 0 0 1-.536-.426l-6.062 5.22a9.777 9.777 0 0 0 2.886 2.293l3.712-7.087zm-.536-.426a2.632 2.632 0 0 1-.455-.77l-7.45 2.916a10.625 10.625 0 0 0 1.843 3.074l6.062-5.22zm-.418-.672a2.629 2.629 0 0 1-.16-.913h-8c0 1.245.213 2.463.637 3.634l7.523-2.721zm-.16-.913c0-.312.062-.644.229-1.026l-7.333-3.199a10.51 10.51 0 0 0-.896 4.225h8zm.215-.995c.066-.148.241-.435.742-.817l-4.852-6.36c-1.343 1.023-2.48 2.314-3.195 3.916l7.305 3.261zm.761-.831a93.226 93.226 0 0 1 3.075-2.29l-4.618-6.533c-.966.683-2.084 1.516-3.346 2.49l4.889 6.333zm3.075-2.29a33.032 33.032 0 0 0 2.564-1.981l-5.246-6.04c-.461.4-1.098.895-1.936 1.488l4.618 6.532zm2.57-1.986c.789-.688 1.564-1.502 2.137-2.457l-6.86-4.116c.013-.022-.01.02-.102.124-.09.102-.229.242-.432.419l5.257 6.03zm2.118-2.425c.72-1.176 1.034-2.468 1.034-3.755h-8c0-.006.001-.06.025-.149.024-.09.065-.187.12-.277l6.821 4.18zm1.034-3.755c0-1.334-.196-3.074-1.219-4.563l-6.592 4.533a1.797 1.797 0 0 1-.183-.332c-.03-.075-.039-.115-.037-.109.001.006.01.047.017.129.008.081.014.194.014.343h8zm-1.187-4.515c-.997-1.495-2.635-2.555-4.688-2.555v8c-.355 0-.792-.089-1.216-.33a2.23 2.23 0 0 1-.752-.678l6.656-4.437zm-4.688-2.555a5.44 5.44 0 0 0-3.29 1.081l4.8 6.4a2.564 2.564 0 0 1-1.51.52v-8zm-3.256 1.056a6.022 6.022 0 0 0-1.76 2.066l7.08 3.726c-.083.157-.263.42-.589.66l-4.731-6.452zm-1.798 2.14a8.073 8.073 0 0 0-.659 1.9l7.817 1.7c.01-.043.017-.064.018-.068.001-.003-.005.014-.02.045l-7.156-3.577zm-.686 2.034a9.82 9.82 0 0 0-.158 1.747h8c0-.1.009-.204.029-.316l-7.871-1.431zm-.158 1.747c0 .321.011.654.03.995l7.987-.444a10.345 10.345 0 0 1-.017-.551h-8zm.048 1.215c.053.482.143.956.259 1.419l7.761-1.94a2.883 2.883 0 0 1-.069-.363l-7.951.884zm4.07-3.55-5.391.093.139 7.999 5.391-.094-.139-7.999zm-1.349 3.625c-.024-.207-.041-.39-.051-.549l-7.983.533c.021.31.051.627.089.95l7.945-.934zm-.05-.532a7.51 7.51 0 0 1-.016-.477h-8c0 .323.011.649.031.976l7.985-.499zm-.016-.477c0-.507.084-1.014.268-1.538l-7.551-2.643a12.598 12.598 0 0 0-.717 4.181h8zm.274-1.557c.173-.503.407-.904.694-1.241l-6.092-5.185a11.763 11.763 0 0 0-2.166 3.822l7.564 2.604zm.69-1.236a3.314 3.314 0 0 1 1.067-.825l-3.578-7.155a11.316 11.316 0 0 0-3.572 2.784l6.083 5.196zm1.067-.825c.27-.134.68-.257 1.329-.257v-8c-1.696 0-3.364.33-4.907 1.102l3.578 7.155zm1.329-.257c.994 0 1.258.214 1.222.188l4.726-6.455c-1.785-1.307-3.912-1.733-5.948-1.733v8zm1.288.235c.27.19.481.433.651.82l7.324-3.219a9.833 9.833 0 0 0-3.38-4.15l-4.595 6.55zm.672.866c.258.567.46 1.297.55 2.24l7.964-.76c-.161-1.682-.552-3.296-1.231-4.79l-7.283 3.31zm.555 2.291c.124 1.148.188 2.332.188 3.553h8c0-1.497-.078-2.97-.235-4.415l-7.953.862zm2.837 10.97c.101-.507.186-1.051.257-1.624l-7.938-.992c-.053.427-.109.774-.164 1.048l7.845 1.569zm.245-1.534c.08-.539.143-1.142.195-1.794l-7.975-.63a19.51 19.51 0 0 1-.134 1.252l7.914 1.172zm.195-1.802c.052-.666.093-1.393.126-2.18l-7.993-.333c-.03.713-.066 1.345-.109 1.899l7.976.614zm-7.106-4.699c-.19.261-.354.465-.491.62l5.999 5.293a16.2 16.2 0 0 0 .962-1.208l-6.47-4.705zm-.491.62c-.191.217-.352.389-.485.521l5.657 5.657c.274-.273.55-.57.827-.885l-5.999-5.293zm-.485.521c-.204.204-.384.377-.541.523l5.426 5.878c.25-.23.507-.479.772-.744l-5.657-5.657zm-.375.378a31.65 31.65 0 0 0-1.314 1.152l5.426 5.879c.362-.334.689-.62.983-.863l-5.095-6.168zm-1.251 1.096a15.168 15.168 0 0 0-1.529 1.56l6.107 5.168c.217-.257.457-.502.722-.737l-5.3-5.991zm-1.587 1.63c-.477.591-.899 1.221-1.258 1.89l7.052 3.778c.11-.205.251-.42.43-.64l-6.224-5.027zm-1.283 1.938a6.674 6.674 0 0 0-.777 3.084h8c0 .335-.095.548-.121.599l-7.102-3.683zm-.777 3.084c0 1.424.508 2.69 1.309 3.701l6.273-4.965c.088.112.2.286.286.524.089.242.132.496.132.74h-8zm1.361 3.766c1 1.21 2.469 1.992 4.186 1.992v-8c.347 0 .753.075 1.155.272.394.193.664.443.827.641l-6.168 5.095zm4.186 1.992a6.088 6.088 0 0 0 2.923-.77l-3.831-7.023a1.94 1.94 0 0 1 .908-.207v8zm2.858-.735a7.635 7.635 0 0 0 2.117-1.653l-5.919-5.381c-.042.045-.013 0 .101-.059l3.701 7.093zm2.051-1.582a9.729 9.729 0 0 0 1.476-2.025l-7.005-3.864a1.74 1.74 0 0 1-.258.366l5.787 5.523zm1.476-2.025c.445-.806.758-1.66.96-2.54l-7.799-1.783c-.049.213-.11.359-.166.459l7.005 3.864zm17.015 4.724-3.963-.541-.654 4.782 4.821-.246-.204-3.995zm.726-7.64-3.992-.242-.001.012-.001.012 3.994.218zm.047-10.383-3.909.845.002.011.003.012 3.904-.868zm-.492-1.313-3.354 2.18.026.04.027.04 3.301-2.26zm-.656-.585-1.486 3.713.109.044.112.037 1.265-3.794zm-1.57.023-1.45-3.728-.037.014-.036.015 1.523 3.699zm-1.407 1.945-3.762-1.358-.017.046-.015.047 3.794 1.265zm-.82 5.602-3.993-.235-.001.022-.001.023 3.995.19zm-.094 8.789h-4v.049l.001.048 3.999-.097zm.024 1.71h-4v.065l.002.065 3.998-.13zm.07 1.032-.035 4 4.704.041-.716-4.65-3.953.61zm-5.297-.047-3.998-.132-.135 4.096 4.098.036.035-4zm.094-3.797-3.999-.11v.027l-.001.027 4 .056zm.094-5.718-4-.076v.076h4zm0-4.641h-4v.083l4-.083zm-.024-2.461h-4v.036l.001.035 3.999-.071zm-.047-2.86-3.999.06v.031l.001.03 3.998-.12zm-.07-3.468-.103-3.999-3.994.103.098 3.995 3.999-.1zm5.484-.14 3.997.156.168-4.265-4.267.11.102 3.998zm-.093 2.39-3.997-.157 7.532 2.028-3.535-1.871zm1.359-1.899 2.782 2.875.023-.023.023-.023-2.828-2.829zm1.43-1.125-1.924-3.507-.024.014-.024.013 1.972 3.48zm1.406-.515.68 3.942.065-.012.065-.013-.81-3.917zm5.086 3.562-3.81 1.217.01.032.011.032 3.789-1.28zm.891 11.72-3.995-.217-.001.027-.001.027 3.997.162zm-.188 3.42-3.99-.276-.002.026-.002.026 3.994.225zm-.234 3.235-3.984-.357-.003.028-.002.027 3.989.302zm-.211 2.883.204 3.995 3.538-.18.248-3.535-3.99-.28zm-1.545.823c.359-2.625.611-5.28.758-7.964L176.129 27a89.934 89.934 0 0 1-.695 7.317l7.926 1.083zm.756-7.94c.162-2.666.242-5.45.242-8.352h-8c0 2.755-.076 5.377-.227 7.868l7.985.484zm.242-8.352c0-1.082-.067-2.17-.283-3.14l-7.809 1.735c.034.153.092.581.092 1.405h8zm-.278-3.118c-.173-.8-.477-1.814-1.101-2.726l-6.602 4.517a2.042 2.042 0 0 1-.132-.22c-.024-.05-.035-.08-.037-.083a3.25 3.25 0 0 1 .053.203l7.819-1.691zm-1.048-2.647c-.457-.703-1.311-1.723-2.745-2.201l-2.53 7.59c-.965-.323-1.382-.952-1.433-1.03l6.708-4.36zm-2.525-2.12a5.818 5.818 0 0 0-2.165-.427v8c-.362 0-.639-.08-.806-.146l2.971-7.427zm-2.165-.427c-.79 0-1.58.14-2.34.436l2.899 7.456a1.564 1.564 0 0 1-.559.108v-8zm-2.413.465c-1.13.465-1.911 1.243-2.427 1.932l6.4 4.8c-.048.064-.329.42-.927.666l-3.046-7.398zm-2.427 1.932c-.564.75-.945 1.594-1.219 2.354l7.525 2.717c.059-.166.105-.268.131-.32.028-.055.02-.028-.037.049l-6.4-4.8zm-1.251 2.447c-.288.864-.494 1.854-.652 2.889l7.908 1.206c.124-.809.246-1.304.333-1.565l-7.589-2.53zm-.652 2.889c-.165 1.083-.284 2.339-.367 3.743l7.986.47c.074-1.252.173-2.246.289-3.007l-7.908-1.206zm-.369 3.788a104.091 104.091 0 0 0-.099 4.9h8c0-1.786.031-3.29.089-4.52l-7.99-.38zm-.099 4.9V29.282h8V27.22h-8zm0 2.063V31.297h8V29.28h-8zm.001 2.113c.015.617.023 1.154.023 1.614h8c0-.54-.009-1.144-.025-1.809l-7.998.195zm.025 1.743c.016.488.043 1.046.115 1.51l7.906-1.216c.006.038.007.051.005.031a11.083 11.083 0 0 1-.03-.584l-7.996.259zm4.103-3.098-5.296-.047-.071 8 5.297.047.07-8zm-1.334 4.085c.047-1.44.079-2.732.095-3.872l-7.999-.113a191.954 191.954 0 0 1-.092 3.721l7.996.264zm.094-3.818c.032-1.137.056-2.183.072-3.138l-7.999-.133c-.016.92-.039 1.936-.07 3.05l7.997.221zm.072-3.138c.016-.956.024-1.854.024-2.691h-8c0 .787-.008 1.64-.023 2.558l7.999.133zm.023-2.616c.016-.852.024-1.69.024-2.513h-8c0 .77-.007 1.558-.023 2.362l7.999.151zm.024-2.513c0-.748-.008-1.51-.024-2.286l-7.999.166c.016.724.023 1.43.023 2.12h8zm-.023-2.203c0-.793-.008-1.637-.024-2.532l-7.999.142c.015.855.023 1.651.023 2.39h8zm-.024-2.461c0-.922-.016-1.916-.049-2.98l-7.996.242c.03.998.045 1.91.045 2.738h8zm-.047-2.92c-.016-1.061-.04-2.23-.071-3.507l-7.998.198c.031 1.255.054 2.398.07 3.43l7.999-.12zm-3.967.59 5.484-.14-.205-7.997-5.485.14.206 7.998zm1.384-4.296-.093 2.391 7.994.314.093-2.391-7.994-.314zm7.439 4.42c.287-.543.506-.8.606-.896l-5.564-5.749c-.869.841-1.556 1.85-2.113 2.901l7.071 3.743zm.652-.942c.295-.295.49-.426.574-.473l-3.944-6.96c-.854.483-1.613 1.102-2.286 1.776l5.656 5.657zm.525-.446c.172-.095.223-.092.163-.081l-1.36-7.884a8.543 8.543 0 0 0-2.65.95l3.847 7.015zm.293-.106c.259-.054.386-.058.409-.058v-8c-.697 0-1.382.09-2.029.224l1.62 7.834zm.409-.058c.014 0-.081 0-.23-.062a.92.92 0 0 1-.308-.206l5.857-5.448c-1.428-1.535-3.309-2.284-5.319-2.284v8zm-.538-.268c.125.136.365.47.595 1.188l7.62-2.434c-.489-1.53-1.234-2.994-2.358-4.202l-5.857 5.448zm.616 1.252c.257.763.464 1.728.581 2.93l7.962-.78c-.163-1.673-.473-3.256-.965-4.712l-7.578 2.562zm.581 2.93c.127 1.298.192 2.66.192 4.086h8c0-1.668-.076-3.29-.23-4.866l-7.962.78zm.192 4.086c0 1.051-.029 2.12-.088 3.206l7.989.432c.066-1.226.099-2.439.099-3.638h-8zm-.09 3.26a118.809 118.809 0 0 1-.181 3.307l7.98.554c.081-1.164.146-2.343.194-3.537l-7.993-.324zm-.185 3.359a95.492 95.492 0 0 1-.224 3.102l7.968.714c.098-1.093.179-2.215.244-3.366l-7.988-.45zm-.229 3.157a481.176 481.176 0 0 0-.212 2.905l7.98.56c.062-.882.132-1.835.209-2.86l-7.977-.605zm3.574-.81-5.508.282.408 7.99 5.508-.282-.408-7.99zm11.768-19.911 3.974.453.541-4.753-4.773.308.258 3.992zm-.328 4.078 3.994.213v-.003l-3.994-.21zm-.211 9.117h-4v.041l4-.04zm.093 4.219-3.997.143v.001l3.997-.144zm.399 5.719v4h4.793l-.858-4.716-3.935.716zm-1.945.047-.186-3.996h-.015l-.015.001.216 3.995zm-4.102.328-3.983-.37-.462 4.983 4.962-.647-.517-3.966zm.633-10.196-3.999-.106v.02l3.999.086zm0-7.43-3.998.134v.01l.001.012 3.997-.155zm-.446-6.093.488-3.97-5.105-.627.65 5.102 3.967-.505zm1.932-.242a72.273 72.273 0 0 0-.348 4.32l7.989.421c.075-1.418.178-2.695.308-3.835l-7.949-.906zm-.348 4.319c-.08 1.514-.137 3.066-.169 4.655l7.999.161c.03-1.505.083-2.969.159-4.391l-7.989-.425zm-.169 4.655a237.327 237.327 0 0 0-.047 4.674h8c0-1.488.015-2.992.046-4.513l-7.999-.161zm-.047 4.716c.016 1.529.048 2.97.096 4.32l7.995-.286a164.275 164.275 0 0 1-.092-4.117l-7.999.083zm.096 4.321c.048 1.323.104 2.507.169 3.55l7.985-.498a128.11 128.11 0 0 1-.159-3.34l-7.995.288zm.169 3.55c.065 1.044.155 1.989.291 2.74l7.871-1.43c-.051-.28-.117-.851-.177-1.808l-7.985.499zm4.227-1.975c-.692 0-1.402.017-2.131.05l.371 7.992a38.05 38.05 0 0 1 1.76-.042v-8zm-2.161.052c-.596.033-1.26.073-1.99.12l.521 7.983c.707-.046 1.34-.084 1.9-.114l-.431-7.989zm-1.99.12c-.805.053-1.61.131-2.413.236l1.034 7.933a29.49 29.49 0 0 1 1.9-.186l-.521-7.983zm2.087 4.572c.365-3.94.584-7.437.649-10.48l-7.998-.17c-.06 2.802-.264 6.102-.617 9.911l7.966.74zm.648-10.458c.08-2.99.081-5.56-.001-7.691l-7.994.31c.073 1.899.075 4.282-.002 7.168l7.997.213zm0-7.67c-.081-2.427-.237-4.589-.476-6.465l-7.935 1.01c.198 1.561.34 3.462.415 5.722l7.996-.267zm-4.931-1.99c.971.12 1.882.2 2.728.237l.347-7.992a27.109 27.109 0 0 1-2.1-.185l-.975 7.94zm2.728.237c.756.033 1.434.05 2.025.05v-8c-.44 0-.996-.013-1.678-.042l-.347 7.992zm2.025.05c.675 0 1.31-.017 1.898-.054l-.515-7.984c-.38.025-.839.039-1.383.039v8zm20.634 5.845.618 3.952 3.174-.496.201-3.207-3.993-.25zm-4.945 1.195-3.922-.785-1.364 6.82 6.581-2.25-1.295-3.785zm.305-2.04-3.978-.418-.005.048-.004.047 3.987.324zm-.141-3.585-3.841 1.115.022.075.025.075 3.794-1.265zm-1.054-1.5-1.053 3.859.041.011.041.01.971-3.88zm-1.571.562 3.171 2.44.022-.03.021-.029-3.214-2.38zm-.726 1.64 3.875.992.003-.01.002-.01-3.88-.971zm-.352 8.954 3.998-.142-.001-.024-.001-.024-3.996.19zm.328 9.211.277 3.99 3.858-.267-.137-3.865-3.998.142zm-5.414.375h-4v4.287l4.277-.297-.277-3.99zm-.117-10.172-3.999.083v.02l3.999-.103zm-.211-7.758 3.997-.146v-.004l-3.997.15zm-.305-6.68-.263-3.99-3.952.26.222 3.954 3.993-.223zm4.618-.304 3.984-.353-.345-3.896-3.903.258.264 3.99zm.234 2.648-3.984.353 7.69 1.153-3.706-1.506zm1.43-2.367-2.904-2.75-.002.001 2.906 2.75zm1.664-1.312 1.829 3.557.019-.01.019-.01-1.867-3.537zm1.523-.563-.657-3.945-.011.001-.012.002.68 3.942zm3 .656-2.871 2.785.021.022.022.022 2.828-2.829zm1.734 4.57-3.98.392.003.033.004.032 3.973-.456zm.094 4.782-3.989-.292-.003.046-.003.046 3.995.2zm-.711-2.265c-.561.088-1.14.192-1.737.311l1.569 7.845c.497-.1.964-.183 1.403-.251l-1.235-7.905zm-1.737.311c-.566.114-1.177.258-1.828.43l2.036 7.736c.537-.141.989-.247 1.361-.32l-1.569-7.846zm-1.828.43c-.689.18-1.375.389-2.058.622l2.59 7.57a21.734 21.734 0 0 1 1.504-.456l-2.036-7.736zm3.16 5.191c.176-.882.306-1.722.369-2.5l-7.974-.647c-.031.379-.104.898-.24 1.578l7.845 1.57zm.36-2.405c.074-.702.116-1.384.116-2.035h-8c0 .316-.021.713-.072 1.198l7.956.837zm.116-2.035c0-1.015-.085-2.169-.44-3.234l-7.589 2.53c-.031-.093-.019-.091-.002.051.016.136.031.348.031.653h8zm-.393-3.084c-.201-.692-.546-1.631-1.21-2.462l-6.247 4.998a2.329 2.329 0 0 1-.183-.262 1.727 1.727 0 0 1-.069-.13c-.017-.038-.004-.018.026.086l7.683-2.23zm-1.21-2.462c-.451-.563-1.324-1.456-2.716-1.804l-1.941 7.761c-1.017-.254-1.515-.865-1.59-.96l6.247-4.997zm-2.634-1.782c-.101-.028-.723-.211-1.404-.211v8a3.567 3.567 0 0 1-.65-.06c-.063-.013-.087-.02-.051-.011l2.105-7.718zm-1.404-.211c-1.84 0-3.41.87-4.433 2.251l6.428 4.762a2.42 2.42 0 0 1-.831.695 2.555 2.555 0 0 1-1.164.291v-8zm-4.389 2.194c-.75.974-1.179 2.079-1.437 3.109l7.761 1.94c.04-.16.075-.247.088-.276.013-.03-.004.017-.071.104l-6.341-4.877zm-1.432 3.088c-.244.954-.39 1.972-.466 3.026l7.98.57c.05-.696.137-1.225.237-1.614l-7.751-1.982zm-.466 3.026a42.193 42.193 0 0 0-.104 2.98h8c0-.831.029-1.634.084-2.41l-7.98-.57zm-.104 2.98c0 .689.009 1.377.025 2.065l7.998-.19a78.02 78.02 0 0 1-.023-1.874h-8zm.025 2.065c.016.688.041 1.375.074 2.063l7.991-.38c-.03-.625-.052-1.25-.067-1.874l-7.998.19zm.072 2.015.328 9.211 7.995-.284-.328-9.211-7.995.285zm4.049 5.079-5.414.375.553 7.98 5.414-.375-.553-7.98zm-1.138 4.365c0-3.792-.039-7.218-.118-10.276l-7.998.208c.077 2.974.116 6.329.116 10.068h8zm-.118-10.254a496.1 496.1 0 0 0-.213-7.822l-7.994.292c.077 2.113.147 4.677.209 7.695l7.998-.165zm-.213-7.826c-.094-2.518-.197-4.77-.308-6.753l-7.987.447c.107 1.923.208 4.124.301 6.606l7.994-.3zm-4.038-2.538 4.617-.305-.527-7.982-4.617.304.527 7.983zm.369-3.944.235 2.649 7.968-.705-.234-2.649-7.969.705zm7.925 3.802c.281-.693.522-1.01.629-1.124l-5.811-5.498c-.987 1.043-1.699 2.304-2.23 3.61l7.412 3.012zm.627-1.122c.349-.368.552-.487.59-.506l-3.659-7.114c-1.055.542-1.962 1.299-2.738 2.118l5.807 5.502zm.628-.526c.151-.08.258-.125.321-.148.064-.024.067-.019.015-.01l-1.36-7.884c-.992.171-1.907.543-2.71.967l3.734 7.075zm.314-.154a7.737 7.737 0 0 1 .465-.065c.006 0-.019.002-.068.002v-8c-.58 0-1.2.086-1.712.172l1.315 7.89zm.397-.063c-.037 0-.186-.007-.394-.09a1.539 1.539 0 0 1-.532-.352l5.743-5.57c-1.34-1.38-3.069-1.988-4.817-1.988v8zm-.883-.398c.003.003.107.106.228.448l7.544-2.663c-.442-1.251-1.119-2.445-2.115-3.442l-5.657 5.657zm.228.448c.161.456.287 1.01.354 1.685l7.961-.783a15.107 15.107 0 0 0-.771-3.565l-7.544 2.663zm.361 1.75c.093.813.138 1.582.138 2.31h8c0-1.055-.065-2.13-.191-3.222l-7.947.912zm.138 2.31c0 .614-.021 1.188-.06 1.723l7.979.584c.054-.746.081-1.516.081-2.308h-8zm-.066 1.815c-.03.613-.061 1.158-.091 1.638l7.985.499c.032-.52.064-1.1.096-1.737l-7.99-.4z" fill="#243041" mask="url(#b)"/><defs><linearGradient id="a" x1="107.5" y1="-1.478" x2="107.5" y2="47" gradientUnits="userSpaceOnUse"><stop stop-color="#67B6FF"/><stop offset="1" stop-color="#fff"/></linearGradient></defs></svg>