<svg width="182" height="70" fill="none" xmlns="http://www.w3.org/2000/svg"><mask id="b" maskUnits="userSpaceOnUse" x="-8" y="-8" width="198" height="86" fill="#000"><path fill="#fff" d="M-8-8h198v86H-8z"/><path d="M28.606 22.423c0 2.631-.352 5.217-1.056 7.757a23.223 23.223 0 0 1-3.167 6.976c-1.407 2.142-3.198 4.04-5.37 5.692-2.173 1.621-4.743 2.86-7.711 3.717.061 3.703.138 7.375.23 11.016.122 3.61.26 7.206.412 10.786H.745c.49-6.946.842-13.892 1.056-20.838.245-6.946.367-13.938.367-20.975 0-4.07-.03-8.124-.092-12.163-.06-4.07-.183-8.17-.367-12.301 1.622-.49 3.259-.811 4.911-.964C8.303.973 9.726.896 10.89.896c.826 0 1.836.092 3.03.276 1.223.183 2.478.55 3.763 1.101 1.316.52 2.616 1.27 3.901 2.25 1.316.948 2.494 2.233 3.534 3.855 1.04 1.591 1.882 3.534 2.525 5.829.642 2.295.964 5.034.964 8.216zm-17.304 16.34c1.01-.367 1.882-.857 2.616-1.47a11.174 11.174 0 0 0 1.974-2.019 11.491 11.491 0 0 0 1.423-2.432c.397-.857.719-1.698.963-2.525.582-1.927.919-4.023 1.01-6.288 0-.03-.015-.382-.046-1.055 0-.674-.076-1.515-.23-2.525a27.203 27.203 0 0 0-.642-3.396 17.802 17.802 0 0 0-1.285-3.58 10.848 10.848 0 0 0-2.065-3.03c-.826-.918-1.851-1.56-3.075-1.927a441.376 441.376 0 0 0-.505 14.274 742.406 742.406 0 0 0-.138 14.366v1.607zm47.356 0c0 4.834-.03 9.669-.092 14.504-.03 4.834-.122 9.868-.275 15.1l-7.986-.459v-6.196c-.918 1.652-1.959 2.922-3.121 3.81-1.163.856-2.265 1.499-3.305 1.927-1.224.49-2.433.765-3.626.826a9.11 9.11 0 0 1-4.131-.964 11.307 11.307 0 0 1-3.35-2.662 12.947 12.947 0 0 1-2.25-3.763 12.991 12.991 0 0 1-.78-4.452c0-1.744.367-3.458 1.102-5.141.765-1.714 2.05-3.259 3.855-4.636 2.418-1.866 4.514-3.427 6.288-4.681 1.775-1.255 3.244-2.387 4.407-3.397 1.193-1.04 2.065-2.02 2.616-2.937.581-.949.872-2.035.872-3.26 0-2.019-.337-3.518-1.01-4.497-.673-1.01-1.56-1.515-2.662-1.515-.673 0-1.255.184-1.744.55-.46.337-.842.796-1.148 1.378a7.992 7.992 0 0 0-.642 1.882 11.267 11.267 0 0 0-.184 2.02c0 .458.015.963.046 1.514.061.55.168 1.132.321 1.744l-10.556.184c-.062-.52-.107-1.01-.138-1.47-.03-.489-.046-.963-.046-1.422 0-1.897.321-3.764.964-5.6.642-1.866 1.576-3.518 2.8-4.957a14.336 14.336 0 0 1 4.544-3.534c1.774-.887 3.81-1.33 6.104-1.33 2.968 0 5.31.626 7.023 1.881 1.744 1.224 3.06 2.846 3.947 4.865.918 2.02 1.5 4.315 1.744 6.885.275 2.54.413 5.14.413 7.803zM48.331 51.752c.153-.765.29-1.637.413-2.616.123-.826.23-1.82.321-2.984.092-1.193.169-2.524.23-3.993-.49.673-.964 1.27-1.423 1.79-.459.52-.887.98-1.285 1.377-.46.46-.888.872-1.285 1.24a54.662 54.662 0 0 0-2.25 1.973 21.801 21.801 0 0 0-2.203 2.25 15.88 15.88 0 0 0-1.652 2.478c-.428.826-.642 1.637-.642 2.432 0 .857.29 1.653.872 2.387.581.704 1.3 1.056 2.157 1.056.642 0 1.3-.184 1.973-.551.704-.367 1.362-.888 1.974-1.56a11.212 11.212 0 0 0 1.698-2.341c.49-.888.857-1.867 1.102-2.938zm44.235-29.054a477.797 477.797 0 0 0-.505 14.642 759.165 759.165 0 0 0-.138 14.504v8.537c.031 2.815.092 5.66.184 8.537l-9.134.23V63.41c-.918 1.5-1.943 2.647-3.075 3.443-1.132.795-2.218 1.361-3.259 1.698-1.01.367-1.882.566-2.616.596a27.67 27.67 0 0 1-1.285.092c-1.928-.398-3.534-1.239-4.82-2.524-1.254-1.316-2.264-2.938-3.029-4.865-.734-1.959-1.254-4.162-1.56-6.61a62.184 62.184 0 0 1-.46-7.71c0-2.326.093-4.698.276-7.115.184-2.417.413-4.789.689-7.114.275-2.356.581-4.62.918-6.793.336-2.203.673-4.253 1.01-6.15l10.005.183a801.821 801.821 0 0 0-.872 5.875 342.355 342.355 0 0 0-.78 6.472 234.025 234.025 0 0 0-.55 6.655c-.123 2.203-.184 4.3-.184 6.288 0 1.836.076 3.55.229 5.14.153 1.592.398 2.984.734 4.177.337 1.163.765 2.081 1.285 2.754.551.643 1.224.964 2.02.964 1.04 0 1.897-.627 2.57-1.882.674-1.254 1.194-2.891 1.56-4.91.399-2.05.659-4.346.781-6.886.153-2.54.23-5.094.23-7.665 0-1.927-.03-3.763-.092-5.507a506.744 506.744 0 0 0-.184-4.682 500.896 500.896 0 0 0-.275-4.452l10.327-.184zm26.243 31.578c0 2.724-.459 5.003-1.377 6.84-.887 1.805-2.02 3.258-3.396 4.36a12.839 12.839 0 0 1-4.453 2.386c-1.621.46-3.151.689-4.589.689a17.419 17.419 0 0 1-3.122-.367 20.565 20.565 0 0 1-2.845-.827 8.761 8.761 0 0 1-2.662-1.698l.367-10.465c1.101.888 2.218 1.576 3.35 2.066 1.133.49 2.173.857 3.121 1.101 1.102.276 2.173.444 3.213.505a4.794 4.794 0 0 0 1.974-1.928c.49-.856.734-1.805.734-2.845 0-.888-.214-1.82-.642-2.8-.398-1.01-1.025-1.958-1.882-2.846l-3.075-3.075a39.5 39.5 0 0 1-3.397-4.13 26.126 26.126 0 0 1-2.754-5.095c-.734-1.867-1.101-3.902-1.101-6.105 0-2.173.29-4.146.872-5.92.612-1.806 1.453-3.352 2.524-4.637a11.556 11.556 0 0 1 3.902-2.983c1.53-.704 3.197-1.056 5.003-1.056 1.468 0 3.059.23 4.773.689 1.714.428 3.534 1.117 5.462 2.065l-.734 10.695a11.08 11.08 0 0 0-2.525-1.699 16.184 16.184 0 0 0-2.478-1.055 13.786 13.786 0 0 0-2.617-.551c-1.162.214-2.157.826-2.983 1.836-.826.979-1.239 2.249-1.239 3.81 0 1.468.29 2.753.872 3.855a17.515 17.515 0 0 0 2.249 3.075 67.99 67.99 0 0 0 2.983 2.892 21.828 21.828 0 0 1 2.984 3.258c.948 1.224 1.744 2.632 2.386 4.223.674 1.591 1.041 3.504 1.102 5.737zm30.052 12.485c-2.845.979-5.446 1.621-7.802 1.928-2.326.306-4.238.459-5.738.459-1.866 0-3.503-.368-4.911-1.102a12.179 12.179 0 0 1-3.672-2.938c-1.009-1.224-1.851-2.631-2.524-4.222a30.812 30.812 0 0 1-1.606-5.095 45.69 45.69 0 0 1-.873-5.37 62.613 62.613 0 0 1-.229-5.187c0-4.039.321-7.757.964-11.153.642-3.427 1.576-6.38 2.8-8.858 1.224-2.479 2.738-4.407 4.544-5.784 1.805-1.407 3.855-2.11 6.15-2.11 1.897 0 3.626.473 5.186 1.422 1.561.948 2.892 2.402 3.994 4.36 1.101 1.959 1.943 4.453 2.524 7.482.612 2.999.918 6.563.918 10.694 0 1.163-.031 2.34-.092 3.534a53.663 53.663 0 0 1-.229 3.718l-16.248 2.157a25.15 25.15 0 0 0 .55 3.213 12.86 12.86 0 0 0 1.056 2.708c.459.765.995 1.377 1.607 1.836.612.46 1.361.689 2.249.689 1.652 0 3.304-.092 4.957-.276 1.652-.214 3.381-.459 5.186-.734l1.239 8.629zm-17.12-23.867 7.619-1.423v-1.744c0-2.601-.198-4.606-.596-6.013-.398-1.438-.826-2.494-1.285-3.167-.551-.796-1.178-1.255-1.882-1.377-.888.092-1.591.505-2.112 1.24-.52.734-.918 1.682-1.193 2.845-.245 1.132-.398 2.417-.459 3.855a102.881 102.881 0 0 0-.092 4.36v1.424zm49.56-40.3-1.148 65.957h-8.812v-4.682c-.888 1.316-1.745 2.341-2.571 3.075-.826.704-1.56 1.224-2.203 1.56-.765.399-1.469.643-2.111.735-1.561 0-3.106-.459-4.636-1.377-1.53-.948-2.907-2.509-4.131-4.681-1.193-2.173-2.172-5.019-2.937-8.537-.765-3.55-1.148-7.94-1.148-13.173 0-4.009.322-7.528.964-10.557.673-3.06 1.561-5.615 2.662-7.665 1.102-2.05 2.372-3.595 3.81-4.636 1.438-1.04 2.937-1.56 4.498-1.56a7.427 7.427 0 0 1 2.478.642c.704.337 1.484.842 2.341 1.515.857.673 1.668 1.622 2.433 2.846l-.597-19.002 11.108-.46zm-9.685 43.237c-.061-2.08-.138-4.207-.229-6.38-.062-2.172-.261-4.146-.597-5.92-.337-1.806-.857-3.275-1.561-4.407-.673-1.163-1.637-1.744-2.891-1.744-1.163 0-2.081.474-2.754 1.423-.643.948-1.132 2.172-1.469 3.672-.306 1.499-.49 3.151-.551 4.957a156.405 156.405 0 0 0-.092 5.278c0 1.193.016 2.448.046 3.764a85.78 85.78 0 0 0 .276 3.947c.122 1.285.306 2.509.551 3.672.244 1.162.55 2.203.917 3.12.368.888.811 1.592 1.332 2.112.55.52 1.193.78 1.927.78.918 0 1.699-.367 2.341-1.101.643-.765 1.163-1.79 1.561-3.075.428-1.285.734-2.785.918-4.498.183-1.744.275-3.611.275-5.6z"/></mask><path d="M28.606 22.423c0 2.631-.352 5.217-1.056 7.757a23.223 23.223 0 0 1-3.167 6.976c-1.407 2.142-3.198 4.04-5.37 5.692-2.173 1.621-4.743 2.86-7.711 3.717.061 3.703.138 7.375.23 11.016.122 3.61.26 7.206.412 10.786H.745c.49-6.946.842-13.892 1.056-20.838.245-6.946.367-13.938.367-20.975 0-4.07-.03-8.124-.092-12.163-.06-4.07-.183-8.17-.367-12.301 1.622-.49 3.259-.811 4.911-.964C8.303.973 9.726.896 10.89.896c.826 0 1.836.092 3.03.276 1.223.183 2.478.55 3.763 1.101 1.316.52 2.616 1.27 3.901 2.25 1.316.948 2.494 2.233 3.534 3.855 1.04 1.591 1.882 3.534 2.525 5.829.642 2.295.964 5.034.964 8.216zm-17.304 16.34c1.01-.367 1.882-.857 2.616-1.47a11.174 11.174 0 0 0 1.974-2.019 11.491 11.491 0 0 0 1.423-2.432c.397-.857.719-1.698.963-2.525.582-1.927.919-4.023 1.01-6.288 0-.03-.015-.382-.046-1.055 0-.674-.076-1.515-.23-2.525a27.203 27.203 0 0 0-.642-3.396 17.802 17.802 0 0 0-1.285-3.58 10.848 10.848 0 0 0-2.065-3.03c-.826-.918-1.851-1.56-3.075-1.927a441.376 441.376 0 0 0-.505 14.274 742.406 742.406 0 0 0-.138 14.366v1.607zm47.356 0c0 4.834-.03 9.669-.092 14.504-.03 4.834-.122 9.868-.275 15.1l-7.986-.459v-6.196c-.918 1.652-1.959 2.922-3.121 3.81-1.163.856-2.265 1.499-3.305 1.927-1.224.49-2.433.765-3.626.826a9.11 9.11 0 0 1-4.131-.964 11.307 11.307 0 0 1-3.35-2.662 12.947 12.947 0 0 1-2.25-3.763 12.991 12.991 0 0 1-.78-4.452c0-1.744.367-3.458 1.102-5.141.765-1.714 2.05-3.259 3.855-4.636 2.418-1.866 4.514-3.427 6.288-4.681 1.775-1.255 3.244-2.387 4.407-3.397 1.193-1.04 2.065-2.02 2.616-2.937.581-.949.872-2.035.872-3.26 0-2.019-.337-3.518-1.01-4.497-.673-1.01-1.56-1.515-2.662-1.515-.673 0-1.255.184-1.744.55-.46.337-.842.796-1.148 1.378a7.992 7.992 0 0 0-.642 1.882 11.267 11.267 0 0 0-.184 2.02c0 .458.015.963.046 1.514.061.55.168 1.132.321 1.744l-10.556.184c-.062-.52-.107-1.01-.138-1.47-.03-.489-.046-.963-.046-1.422 0-1.897.321-3.764.964-5.6.642-1.866 1.576-3.518 2.8-4.957a14.336 14.336 0 0 1 4.544-3.534c1.774-.887 3.81-1.33 6.104-1.33 2.968 0 5.31.626 7.023 1.881 1.744 1.224 3.06 2.846 3.947 4.865.918 2.02 1.5 4.315 1.744 6.885.275 2.54.413 5.14.413 7.803zM48.331 51.752c.153-.765.29-1.637.413-2.616.123-.826.23-1.82.321-2.984.092-1.193.169-2.524.23-3.993-.49.673-.964 1.27-1.423 1.79-.459.52-.887.98-1.285 1.377-.46.46-.888.872-1.285 1.24a54.662 54.662 0 0 0-2.25 1.973 21.801 21.801 0 0 0-2.203 2.25 15.88 15.88 0 0 0-1.652 2.478c-.428.826-.642 1.637-.642 2.432 0 .857.29 1.653.872 2.387.581.704 1.3 1.056 2.157 1.056.642 0 1.3-.184 1.973-.551.704-.367 1.362-.888 1.974-1.56a11.212 11.212 0 0 0 1.698-2.341c.49-.888.857-1.867 1.102-2.938zm44.235-29.054a477.797 477.797 0 0 0-.505 14.642 759.165 759.165 0 0 0-.138 14.504v8.537c.031 2.815.092 5.66.184 8.537l-9.134.23V63.41c-.918 1.5-1.943 2.647-3.075 3.443-1.132.795-2.218 1.361-3.259 1.698-1.01.367-1.882.566-2.616.596a27.67 27.67 0 0 1-1.285.092c-1.928-.398-3.534-1.239-4.82-2.524-1.254-1.316-2.264-2.938-3.029-4.865-.734-1.959-1.254-4.162-1.56-6.61a62.184 62.184 0 0 1-.46-7.71c0-2.326.093-4.698.276-7.115.184-2.417.413-4.789.689-7.114.275-2.356.581-4.62.918-6.793.336-2.203.673-4.253 1.01-6.15l10.005.183a801.821 801.821 0 0 0-.872 5.875 342.355 342.355 0 0 0-.78 6.472 234.025 234.025 0 0 0-.55 6.655c-.123 2.203-.184 4.3-.184 6.288 0 1.836.076 3.55.229 5.14.153 1.592.398 2.984.734 4.177.337 1.163.765 2.081 1.285 2.754.551.643 1.224.964 2.02.964 1.04 0 1.897-.627 2.57-1.882.674-1.254 1.194-2.891 1.56-4.91.399-2.05.659-4.346.781-6.886.153-2.54.23-5.094.23-7.665 0-1.927-.03-3.763-.092-5.507a506.744 506.744 0 0 0-.184-4.682 500.896 500.896 0 0 0-.275-4.452l10.327-.184zm26.243 31.578c0 2.724-.459 5.003-1.377 6.84-.887 1.805-2.02 3.258-3.396 4.36a12.839 12.839 0 0 1-4.453 2.386c-1.621.46-3.151.689-4.589.689a17.419 17.419 0 0 1-3.122-.367 20.565 20.565 0 0 1-2.845-.827 8.761 8.761 0 0 1-2.662-1.698l.367-10.465c1.101.888 2.218 1.576 3.35 2.066 1.133.49 2.173.857 3.121 1.101 1.102.276 2.173.444 3.213.505a4.794 4.794 0 0 0 1.974-1.928c.49-.856.734-1.805.734-2.845 0-.888-.214-1.82-.642-2.8-.398-1.01-1.025-1.958-1.882-2.846l-3.075-3.075a39.5 39.5 0 0 1-3.397-4.13 26.126 26.126 0 0 1-2.754-5.095c-.734-1.867-1.101-3.902-1.101-6.105 0-2.173.29-4.146.872-5.92.612-1.806 1.453-3.352 2.524-4.637a11.556 11.556 0 0 1 3.902-2.983c1.53-.704 3.197-1.056 5.003-1.056 1.468 0 3.059.23 4.773.689 1.714.428 3.534 1.117 5.462 2.065l-.734 10.695a11.08 11.08 0 0 0-2.525-1.699 16.184 16.184 0 0 0-2.478-1.055 13.786 13.786 0 0 0-2.617-.551c-1.162.214-2.157.826-2.983 1.836-.826.979-1.239 2.249-1.239 3.81 0 1.468.29 2.753.872 3.855a17.515 17.515 0 0 0 2.249 3.075 67.99 67.99 0 0 0 2.983 2.892 21.828 21.828 0 0 1 2.984 3.258c.948 1.224 1.744 2.632 2.386 4.223.674 1.591 1.041 3.504 1.102 5.737zm30.052 12.485c-2.845.979-5.446 1.621-7.802 1.928-2.326.306-4.238.459-5.738.459-1.866 0-3.503-.368-4.911-1.102a12.179 12.179 0 0 1-3.672-2.938c-1.009-1.224-1.851-2.631-2.524-4.222a30.812 30.812 0 0 1-1.606-5.095 45.69 45.69 0 0 1-.873-5.37 62.613 62.613 0 0 1-.229-5.187c0-4.039.321-7.757.964-11.153.642-3.427 1.576-6.38 2.8-8.858 1.224-2.479 2.738-4.407 4.544-5.784 1.805-1.407 3.855-2.11 6.15-2.11 1.897 0 3.626.473 5.186 1.422 1.561.948 2.892 2.402 3.994 4.36 1.101 1.959 1.943 4.453 2.524 7.482.612 2.999.918 6.563.918 10.694 0 1.163-.031 2.34-.092 3.534a53.663 53.663 0 0 1-.229 3.718l-16.248 2.157a25.15 25.15 0 0 0 .55 3.213 12.86 12.86 0 0 0 1.056 2.708c.459.765.995 1.377 1.607 1.836.612.46 1.361.689 2.249.689 1.652 0 3.304-.092 4.957-.276 1.652-.214 3.381-.459 5.186-.734l1.239 8.629zm-17.12-23.867 7.619-1.423v-1.744c0-2.601-.198-4.606-.596-6.013-.398-1.438-.826-2.494-1.285-3.167-.551-.796-1.178-1.255-1.882-1.377-.888.092-1.591.505-2.112 1.24-.52.734-.918 1.682-1.193 2.845-.245 1.132-.398 2.417-.459 3.855a102.881 102.881 0 0 0-.092 4.36v1.424zm49.56-40.3-1.148 65.957h-8.812v-4.682c-.888 1.316-1.745 2.341-2.571 3.075-.826.704-1.56 1.224-2.203 1.56-.765.399-1.469.643-2.111.735-1.561 0-3.106-.459-4.636-1.377-1.53-.948-2.907-2.509-4.131-4.681-1.193-2.173-2.172-5.019-2.937-8.537-.765-3.55-1.148-7.94-1.148-13.173 0-4.009.322-7.528.964-10.557.673-3.06 1.561-5.615 2.662-7.665 1.102-2.05 2.372-3.595 3.81-4.636 1.438-1.04 2.937-1.56 4.498-1.56a7.427 7.427 0 0 1 2.478.642c.704.337 1.484.842 2.341 1.515.857.673 1.668 1.622 2.433 2.846l-.597-19.002 11.108-.46zm-9.685 43.237c-.061-2.08-.138-4.207-.229-6.38-.062-2.172-.261-4.146-.597-5.92-.337-1.806-.857-3.275-1.561-4.407-.673-1.163-1.637-1.744-2.891-1.744-1.163 0-2.081.474-2.754 1.423-.643.948-1.132 2.172-1.469 3.672-.306 1.499-.49 3.151-.551 4.957a156.405 156.405 0 0 0-.092 5.278c0 1.193.016 2.448.046 3.764a85.78 85.78 0 0 0 .276 3.947c.122 1.285.306 2.509.551 3.672.244 1.162.55 2.203.917 3.12.368.888.811 1.592 1.332 2.112.55.52 1.193.78 1.927.78.918 0 1.699-.367 2.341-1.101.643-.765 1.163-1.79 1.561-3.075.428-1.285.734-2.785.918-4.498.183-1.744.275-3.611.275-5.6z" fill="url(#a)"/><path d="m27.55 30.18-7.71-2.137-.008.032-.009.032 7.727 2.073zm-3.167 6.976-6.642-4.46-.022.034-.022.033 6.686 4.393zm-5.37 5.692 4.785 6.41.03-.021.028-.022-4.843-6.367zm-7.711 3.717L9.083 38.88l-5.881 1.698.101 6.12 7.999-.132zm.23 11.016-7.998.202v.034l.002.035 7.995-.27zm.412 10.786v8h8.35l-.357-8.341-7.993.341zm-11.199 0-7.98-.562-.603 8.562H.745v-8zM1.801 47.53l-7.995-.282v.018l-.001.018 7.996.246zm.275-33.138-7.999.12 8-.12zM1.71 2.09-.603-5.57-6.559-3.77l.276 6.216L1.71 2.09zm4.911-.964-.724-7.967-.013.001.737 7.966zm7.298.046-1.216 7.907.015.002.014.002 1.187-7.911zm3.764 1.101L14.53 9.627l.104.044.106.042 2.94-7.44zm3.901 2.25-4.848 6.363.084.064.086.062 4.678-6.49zm3.534 3.855-6.733 4.32.019.029.019.029 6.695-4.378zM11.302 38.763h-8v11.421l10.734-3.903-2.734-7.518zm2.616-1.47-4.997-6.246-.063.05-.061.051 5.121 6.146zm1.974-2.019-6.37-4.84-.015.02-.015.02 6.4 4.8zm1.423-2.432-7.256-3.37-.05.109-.048.11 7.354 3.15zm.963-2.525-7.659-2.31-.005.02-.006.018 7.67 2.272zm1.01-6.288 7.994.324.006-.162v-.162h-8zm-.046-1.055h-8v.181l.009.182 7.991-.363zm-.23-2.525-7.944.935.015.132.02.132 7.91-1.199zm-.642-3.396-7.772 1.895.006.023.005.022 7.761-1.94zm-1.285-3.58-7.27 3.34.038.08.038.08 7.194-3.5zm-2.065-3.03-5.947 5.352.094.104.098.101 5.755-5.557zm-3.075-1.927L14.242.853 4.481-2.076l-.526 10.18 7.99.412zM11.44 22.79l7.998.155v-.001l-7.998-.154zm9.166-.367c0 1.908-.254 3.775-.766 5.62l15.42 4.273a36.914 36.914 0 0 0 1.346-9.893h-16zm-.783 5.684a15.227 15.227 0 0 1-2.082 4.59l13.284 8.919a31.223 31.223 0 0 0 4.252-9.363l-15.454-4.146zm-2.126 4.656c-.878 1.336-2.03 2.578-3.527 3.717l9.686 12.735c2.847-2.165 5.276-4.718 7.213-7.665l-13.372-8.787zm-3.47 3.674c-1.3.97-2.973 1.816-5.144 2.442l4.438 15.373c3.765-1.087 7.233-2.721 10.277-4.994l-9.57-12.821zM3.303 46.697c.062 3.726.139 7.42.231 11.086l15.995-.404c-.091-3.617-.167-7.266-.228-10.946l-15.998.265zm.233 11.155c.123 3.634.262 7.253.416 10.857l15.985-.683c-.152-3.557-.289-7.129-.41-10.716l-15.991.542zm8.409 2.515H.745v16h11.2v-16zm-3.22 8.563c.498-7.051.855-14.103 1.072-21.154l-15.992-.493c-.211 6.84-.558 13.68-1.04 20.522l15.96 1.125zM9.797 47.81c.248-7.041.372-14.127.372-21.257h-16c0 6.945-.12 13.843-.362 20.694l15.99.563zm.372-21.257c0-4.11-.03-8.205-.092-12.285l-15.999.243c.06 3.998.091 8.012.091 12.042h16zm-.092-12.284c-.063-4.149-.188-8.327-.375-12.535l-15.984.71c.18 4.054.3 8.076.36 12.066l15.998-.24zM4.02 9.748a16.9 16.9 0 0 1 3.337-.656L5.883-6.84c-2.197.203-4.362.63-6.486 1.271L4.021 9.748zm3.324-.655c1.54-.14 2.704-.197 3.544-.197v-16c-1.486 0-3.167.097-4.993.263L7.345 9.093zm3.544-.197c.28 0 .856.036 1.813.183l2.433-15.814c-1.43-.22-2.874-.369-4.246-.369v16zm1.842.187c.467.07 1.063.228 1.8.544L20.832-5.08C19-5.866 17.086-6.442 15.105-6.74L12.73 9.083zm2.01.63c.545.216 1.211.577 1.994 1.173l9.697-12.727c-1.788-1.362-3.723-2.5-5.809-3.325l-5.882 14.88zm2.164 1.299c.363.261.881.754 1.479 1.686l13.467-8.64c-1.483-2.312-3.32-4.39-5.59-6.025l-9.356 12.979zm1.517 1.744c.496.759 1.04 1.91 1.516 3.608l15.408-4.314c-.81-2.892-1.948-5.627-3.533-8.05l-13.391 8.756zm1.516 3.608c.393 1.403.668 3.378.668 6.059h16c0-3.684-.368-7.186-1.26-10.373l-15.408 4.314zm-5.902 29.917c1.772-.644 3.476-1.569 5.004-2.841L8.797 31.148c.025-.02.03-.02 0-.004a1.57 1.57 0 0 1-.229.1l5.468 15.037zm4.88-2.74a19.17 19.17 0 0 0 3.376-3.467l-12.8-9.6c-.12.16-.298.354-.571.573l9.995 12.494zm3.345-3.426a19.495 19.495 0 0 0 2.407-4.122L9.96 29.69a3.493 3.493 0 0 1-.438.744l12.738 9.681zm2.31-3.904a26.436 26.436 0 0 0 1.378-3.62l-15.34-4.546c-.124.417-.302.892-.55 1.428L24.57 36.21zm1.367-3.584c.798-2.648 1.228-5.419 1.344-8.274l-15.987-.648c-.068 1.674-.312 3.095-.676 4.303l15.319 4.62zm1.35-8.598c0-.272-.032-.946-.054-1.419l-15.983.727a372.45 372.45 0 0 1 .04.929l.001.013a39.604 39.604 0 0 1-.002-.103l-.002-.147h16zm-.046-1.055c0-1.223-.134-2.497-.32-3.723l-15.819 2.397c.12.793.14 1.202.14 1.326h16zm-.284-3.46a35.161 35.161 0 0 0-.826-4.402l-15.523 3.881c.24.958.383 1.75.459 2.39l15.89-1.868zm-.816-4.357a25.797 25.797 0 0 0-1.863-5.184l-14.388 7a9.8 9.8 0 0 1 .707 1.975l15.544-3.79zm-1.787-5.024a18.849 18.849 0 0 0-3.58-5.246L9.265 16c.224.233.403.491.55.813l14.54-6.68zm-3.389-5.041c-1.842-2.047-4.145-3.466-6.723-4.239L9.646 16.178a1.481 1.481 0 0 1-.572-.383L20.965 5.092zM3.956 8.103c-.25 4.83-.421 9.674-.515 14.533l15.997.308c.09-4.688.256-9.36.496-14.016L3.955 8.103zM3.44 22.635c-.093 4.796-.139 9.636-.139 14.521h16c0-4.784.045-9.52.136-14.211l-15.997-.31zm-.139 14.521v1.607h16v-1.607h-16zm55.264 16.11-7.999-.1v.05l8 .05zm-.275 15.101-.46 7.987 8.216.472.24-8.225-7.996-.234zm-7.986-.459h-8v7.554l7.54.433.46-7.987zm0-6.196h8V30.839L43.31 57.827l6.994 3.885zm-3.121 3.81 4.745 6.44.054-.04.054-.04-4.853-6.36zm-3.305 1.927 2.971 7.428.038-.015.037-.015-3.046-7.398zm-3.626.826v8h.205l.205-.01-.41-7.99zm-4.131-.964-3.712 7.087.067.035.067.034 3.578-7.156zm-5.6-6.425L23 63.606l.036.098.037.097 7.45-2.915zm.322-9.593-7.305-3.261-.014.03-.014.031 7.333 3.2zm3.855-4.636 4.852 6.361.019-.014.018-.015-4.889-6.332zm6.288-4.681-4.618-6.533 4.618 6.533zm4.407-3.397 5.245 6.04.006-.005.006-.005-5.258-6.03zm2.616-2.937-6.821-4.18-.02.031-.02.033 6.86 4.116zm-.138-7.757-6.656 4.437.031.048.033.047 6.592-4.532zm-4.406-.964 4.73 6.451.035-.025.035-.026-4.8-6.4zm-1.148 1.377-7.08-3.726-.038.074-.037.074 7.155 3.578zm-.642 1.882-7.818-1.7-.029.134-.024.135 7.87 1.43zm-.138 3.534-7.988.444.013.22.024.22 7.951-.884zm.321 1.744.14 7.999 10.063-.175-2.442-9.764-7.76 1.94zm-10.556.184-7.945.934.845 7.19 7.239-.126-.14-7.998zm-.138-1.47-7.985.5.002.016v.017l7.983-.532zm.918-7.022 7.55 2.643.008-.02.006-.018-7.564-2.605zm2.8-4.957L28.8 16.997l-.005.006-.005.005 6.093 5.185zm4.544-3.534-3.578-7.155 3.578 7.155zm13.127.551-4.726 6.455.064.047.066.046 4.596-6.548zm3.947 4.865-7.324 3.218.02.047.021.046 7.283-3.31zm1.744 6.885-7.964.758.005.052.006.052 7.953-.862zm-9.914 20.792 7.799 1.783.024-.107.022-.107-7.845-1.569zm.413-2.616-7.914-1.173-.013.09-.011.09 7.938.993zm.321-2.984 7.976.63v-.016l-7.976-.614zm.23-3.993 7.993.333 1.102-26.44-15.565 21.402 6.47 4.705zm-3.993 4.406 5.095 6.168.17-.14.16-.15-5.425-5.878zm-2.25 1.974 5.301 5.992.064-.056.062-.058-5.426-5.878zm-2.203 2.25-6.107-5.169-.059.07-.057.071 6.224 5.027zm-1.652 2.478-7.052-3.778-.025.047-.025.048 7.102 3.683zm.23 4.819-6.273 4.966.052.065.053.064 6.168-5.095zm4.13.505-3.7-7.093-.066.034-.064.036 3.83 7.023zm1.974-1.56-5.787-5.524-.067.07-.065.072 5.92 5.381zm5.127-18.268c0 4.8-.03 9.602-.091 14.402l15.999.203c.061-4.869.092-9.737.092-14.605h-16zm-.092 14.453c-.03 4.769-.12 9.741-.272 14.917l15.993.468c.155-5.288.248-10.383.28-15.284l-16-.101zm8.184 7.164-7.986-.459-.918 15.974 7.986.459.918-15.974zm-.445 7.528v-6.196h-16v6.196h16zM43.31 57.827c-.532.959-.91 1.28-.98 1.335l9.706 12.72c2.255-1.722 3.958-3.939 5.26-6.285l-13.986-7.77zm-.873 1.254c-.778.573-1.31.85-1.605.97l6.092 14.796c1.786-.736 3.456-1.744 5.004-2.885L42.438 59.08zm-1.53.94c-.491.197-.836.253-1.065.265l.82 15.979c2.158-.11 4.23-.605 6.187-1.388l-5.942-14.856zm-.655.254c-.255 0-.404-.044-.553-.119l-7.156 14.31a17.108 17.108 0 0 0 7.709 1.81v-16zm-.419-.05a3.309 3.309 0 0 1-1-.796L26.709 69.87a19.308 19.308 0 0 0 5.7 4.53l7.425-14.174zm-1-.796a4.953 4.953 0 0 1-.862-1.458l-14.9 5.83a20.945 20.945 0 0 0 3.637 6.069l12.125-10.44zm-.789-1.264a4.991 4.991 0 0 1-.303-1.731h-16c0 2.457.421 4.862 1.257 7.173l15.046-5.442zm-.303-1.731c0-.586.116-1.213.434-1.941l-14.665-6.4c-1.15 2.638-1.769 5.438-1.769 8.34h16zm.407-1.88c.116-.26.439-.801 1.402-1.536l-9.703-12.722c-2.648 2.02-4.895 4.568-6.31 7.736l14.61 6.522zm1.44-1.565c2.36-1.823 4.362-3.311 6.016-4.48L36.37 35.442c-1.895 1.34-4.085 2.972-6.56 4.882l9.78 12.664zm6.016-4.48c1.912-1.352 3.608-2.65 5.034-3.89L40.148 32.54c-.9.78-2.14 1.746-3.779 2.904l9.236 13.065zm5.046-3.9c1.552-1.353 3.084-2.96 4.219-4.851l-13.72-8.232c.031-.052-.007.021-.182.218a9.39 9.39 0 0 1-.832.805l10.515 12.06zm4.18-4.787c1.428-2.33 2.05-4.892 2.05-7.44h-16c0-.024.004-.146.055-.335.051-.192.137-.396.253-.586l13.642 8.361zm2.05-7.44c0-2.625-.385-6.074-2.417-9.03L41.28 32.417a3.651 3.651 0 0 1-.375-.682c-.063-.155-.082-.244-.081-.239 0 .004.016.076.031.231.015.154.027.37.027.656h16zm-2.353-8.935c-1.979-2.968-5.236-5.077-9.318-5.077v16c-.724 0-1.608-.18-2.465-.668-.826-.47-1.304-1.041-1.53-1.38l13.313-8.875zM45.21 18.37c-2.222 0-4.53.64-6.544 2.15l9.6 12.8c-1.035.777-2.181 1.05-3.056 1.05v-16zm-6.475 2.1c-1.58 1.158-2.712 2.611-3.496 4.102l14.159 7.452c-.173.328-.54.863-1.201 1.348L38.735 20.47zm-3.572 4.25a15.973 15.973 0 0 0-1.305 3.76l15.635 3.4a1.62 1.62 0 0 1 .029-.113s-.014.04-.048.109L35.163 24.72zm-1.358 4.029a19.271 19.271 0 0 0-.313 3.45h16c0-.185.017-.38.055-.588l-15.742-2.862zm-.313 3.45c0 .633.021 1.288.058 1.959l15.976-.888a19.519 19.519 0 0 1-.034-1.07h-16zm.095 2.398c.106.952.283 1.888.511 2.801l15.522-3.88a5.301 5.301 0 0 1-.13-.688l-15.903 1.767zm8.133-7.138-10.556.184.278 15.997 10.556-.183-.278-15.998zm-2.472 7.248c-.048-.404-.08-.759-.1-1.066l-15.965 1.064c.04.61.1 1.235.175 1.871l15.89-1.87zm-.099-1.033c-.02-.335-.03-.642-.03-.924h-16c0 .636.021 1.277.061 1.922l15.97-.998zm-.03-.924c0-.974.162-1.948.515-2.957l-15.102-5.285a24.837 24.837 0 0 0-1.413 8.242h16zm.528-2.995c.333-.966.78-1.734 1.328-2.377L28.79 17.008c-1.9 2.234-3.319 4.77-4.271 7.538l15.128 5.209zm1.319-2.366a6.343 6.343 0 0 1 2.038-1.574L35.85 11.504a22.338 22.338 0 0 0-7.05 5.493L40.967 27.39zm2.038-1.574c.502-.251 1.28-.487 2.527-.487v-16c-3.342 0-6.634.652-9.682 2.176l7.155 14.31zm2.527-.487c1.927 0 2.404.415 2.297.337l9.451-12.91c-3.534-2.588-7.738-3.427-11.748-3.427v16zm2.427.43c.504.354.898.805 1.219 1.535l14.648-6.436c-1.454-3.309-3.692-6.101-6.676-8.195l-9.19 13.096zm1.26 1.628c.496 1.092.889 2.503 1.063 4.332l15.928-1.517c-.315-3.31-1.086-6.49-2.425-9.436l-14.566 6.62zm1.074 4.436c.243 2.242.366 4.555.366 6.94h16a80.35 80.35 0 0 0-.46-8.665l-15.906 1.725zm5.884 21.499c.2-.998.366-2.068.506-3.193l-15.876-1.984a28.72 28.72 0 0 1-.32 2.039l15.69 3.138zm.482-3.013c.157-1.06.282-2.247.383-3.526l-15.95-1.26a37.085 37.085 0 0 1-.26 2.441l15.827 2.345zm.384-3.542c.1-1.305.182-2.732.246-4.274l-15.986-.666c-.058 1.395-.13 2.631-.213 3.713l15.953 1.227zm-14.217-9.312c-.37.508-.688.903-.952 1.202l11.998 10.586a32.394 32.394 0 0 0 1.894-2.377l-12.94-9.411zm-.952 1.202c-.373.423-.686.757-.943 1.013l11.314 11.314a38.397 38.397 0 0 0 1.627-1.74L41.873 38.655zm-.943 1.013c-.398.398-.749.736-1.055 1.018l10.853 11.757c.49-.452.996-.94 1.516-1.461L40.93 39.669zm-.723.729a62.79 62.79 0 0 0-2.58 2.263l10.852 11.756a46.817 46.817 0 0 1 1.918-1.684l-10.19-12.335zm-2.455 2.15a29.81 29.81 0 0 0-3.01 3.072l12.215 10.336c.42-.497.883-.971 1.396-1.425l-10.6-11.984zm-3.126 3.213a23.877 23.877 0 0 0-2.48 3.728l14.103 7.555c.21-.393.48-.803.824-1.23L34.626 45.762zm-2.53 3.823c-.92 1.77-1.541 3.837-1.541 6.115h16c0 .688-.194 1.132-.256 1.25l-14.204-7.365zM30.554 55.7c0 2.83 1.01 5.345 2.6 7.353l12.544-9.932c.183.232.411.59.588 1.073.18.492.268 1.009.268 1.506h-16zm2.704 7.482c1.987 2.406 4.909 3.96 8.325 3.96v-16c.703 0 1.523.154 2.334.551.797.39 1.344.896 1.676 1.299L33.26 63.18zm8.325 3.96c2.217 0 4.183-.642 5.804-1.527l-7.661-14.046c.275-.15.925-.426 1.857-.426v16zm5.674-1.458c1.65-.86 3.039-2.002 4.193-3.271L39.61 51.649c-.07.077.003-.024.246-.15l7.401 14.184zm4.06-3.129a19.203 19.203 0 0 0 2.916-4l-14.01-7.73a3.245 3.245 0 0 1-.48.683l11.574 11.047zm2.916-4a19.214 19.214 0 0 0 1.896-5.02L40.532 49.97a3.253 3.253 0 0 1-.307.856l14.009 7.73zm38.332-35.856 7.99.397.425-8.548-8.557.152.142 8zm-.505 14.642 7.999.153v-.001l-7.999-.152zm-.138 23.04h-8v.044l.001.044 8-.087zm.184 8.538.201 7.997 8.052-.202-.257-8.05-7.996.255zm-9.134.23h-8v8.203l8.201-.206-.2-7.998zm0-5.738h8V35.022L76.15 59.232l6.823 4.178zm-6.334 5.14-2.462-7.61-.137.043-.135.05 2.734 7.518zm-2.616.597-.333-7.993-.166.007-.165.014.664 7.972zm-1.285.092-1.617 7.835.8.165h.817v-8zm-4.82-2.524-5.79 5.52.066.07.068.067 5.657-5.657zM64.89 61.85l-7.49 2.809.026.07.028.071 7.436-2.95zM63.834 33.3l7.944.942.001-.012-7.945-.93zm.918-6.792 7.905 1.225.002-.009v-.008l-7.907-1.208zm1.01-6.15.146-8-6.83-.125-1.194 6.727 7.877 1.397zm10.005.183 7.909 1.206 1.378-9.037-9.14-.168-.147 7.999zm-.872 5.875-7.917-1.147-.008.056-.008.056 7.933 1.035zm-.78 6.472-7.951-.884-.006.055-.006.055 7.963.774zm-.55 6.655-7.982-.547-.004.052-.003.051 7.988.444zm.045 11.429-7.963.765 7.963-.765zm.734 4.176-7.7 2.172.008.026.008.027 7.684-2.225zm1.285 2.754-6.33 4.892.124.16.132.155 6.074-5.207zm4.59-.918-7.049-3.782 7.05 3.782zm1.56-4.91-7.853-1.525-.009.047-.008.046 7.87 1.431zm.781-6.886-7.985-.48-.003.047-.002.048 7.99.386zm-.046-17.854 7.992-.355-.002-.053-.003-.053-7.987.461zm-.275-4.452-.142-7.999-8.4.15.56 8.381 7.982-.532zm2.337-.58c-.249 5.006-.42 9.968-.513 14.886l15.997.304c.09-4.752.255-9.55.496-14.397l-15.98-.794zm-.513 14.885a767.86 767.86 0 0 0-.14 14.657h16c0-4.815.046-9.599.137-14.351l-15.997-.306zm-.14 14.657V60.38h16V51.844h-16zm.001 8.624c.031 2.872.094 5.774.187 8.705l15.992-.51a398.47 398.47 0 0 1-.18-8.37l-15.999.175zm7.982.452-9.134.23.402 15.995 9.134-.23-.402-15.995zm-.933 8.227V63.41h-16v5.737h16zM76.15 59.233c-.495.81-.822 1.053-.852 1.074l9.2 13.091c2.234-1.57 3.958-3.621 5.298-5.81L76.15 59.232zm-.852 1.074c-.642.451-1.013.597-1.121.632l4.925 15.223c1.973-.638 3.774-1.624 5.396-2.764l-9.2-13.091zm-1.393.725c-.252.092-.4.131-.456.144-.025.005-.018.003.02-.003.036-.005.112-.014.221-.019l.666 15.986c1.838-.076 3.558-.54 5.017-1.07l-5.468-15.038zm-.546.143a70.754 70.754 0 0 1-.916.07l.048-.001c.023-.001.117-.005.247-.005v16c.548 0 1.424-.075 1.95-.12l-1.33-15.944zm.996.23c-.53-.11-.692-.259-.78-.347L62.263 72.372c2.482 2.482 5.534 4.016 8.86 4.702l3.233-15.67zm-.647-.21c-.453-.476-.944-1.19-1.383-2.296L57.453 64.8c1.091 2.75 2.62 5.28 4.676 7.435l11.58-11.04zM72.38 59.04c-.48-1.28-.871-2.858-1.113-4.793l-15.876 1.985c.37 2.96 1.019 5.788 2.008 8.426l14.98-5.618zm-1.113-4.793a54.204 54.204 0 0 1-.397-6.719h-16c0 2.995.17 5.898.52 8.703l15.877-1.984zm-.397-6.719c0-2.115.083-4.284.252-6.508l-15.954-1.212c-.198 2.61-.298 5.184-.298 7.72h16zm.252-6.508c.176-2.31.394-4.57.656-6.78L55.89 32.36c-.289 2.44-.53 4.924-.72 7.45l15.953 1.21zm.657-6.791c.265-2.265.558-4.43.878-6.497l-15.811-2.45a191.732 191.732 0 0 0-.958 7.089L71.78 34.23zm.88-6.514c.33-2.15.655-4.136.98-5.961L57.883 18.96c-.349 1.969-.696 4.083-1.04 6.34l15.816 2.416zm-7.044.64 10.006.184.293-15.998-10.006-.183-.293 15.997zm2.244-9.021a811.959 811.959 0 0 0-.881 5.934l15.834 2.294c.304-2.094.592-4.033.864-5.816l-15.817-2.412zm-.897 6.046a349.989 349.989 0 0 0-.798 6.623l15.902 1.767c.24-2.155.493-4.261.762-6.32l-15.866-2.07zm-.81 6.733a242.06 242.06 0 0 0-.57 6.882l15.963 1.094c.148-2.16.326-4.302.532-6.428l-15.925-1.548zm-.576 6.985a121.59 121.59 0 0 0-.195 6.732h16c0-1.826.056-3.773.17-5.844l-15.975-.888zm-.195 6.732c0 2.055.085 4.027.266 5.906l15.926-1.531a45.88 45.88 0 0 1-.192-4.375h-16zm.266 5.906c.186 1.939.5 3.82.998 5.583l15.399-4.343c-.176-.624-.351-1.527-.47-2.771l-15.927 1.531zm1.013 5.636c.507 1.753 1.303 3.691 2.64 5.42l12.66-9.782c.082.107.137.191.168.244.032.053.043.079.04.07a4.298 4.298 0 0 1-.139-.402l-15.37 4.45zm2.895 5.736c1.96 2.287 4.799 3.757 8.094 3.757v-16c.714 0 1.534.153 2.344.54.798.38 1.358.878 1.71 1.29L69.556 63.109zm8.094 3.757c5.05 0 8.14-3.341 9.62-6.1L73.17 53.203c.045-.085.37-.67 1.176-1.261a5.65 5.65 0 0 1 3.303-1.075v16zm9.62-6.1c1.2-2.236 1.925-4.75 2.382-7.262l-15.742-2.862c-.278 1.528-.593 2.288-.739 2.56l14.099 7.565zm2.364-7.169c.485-2.496.78-5.18.918-8.023l-15.981-.77c-.108 2.236-.332 4.142-.644 5.745l15.707 3.048zm.913-7.928c.162-2.701.244-5.416.244-8.146h-16c0 2.412-.072 4.806-.215 7.184l15.97.962zm.244-8.146c0-2.011-.032-3.941-.097-5.788l-15.99.561c.057 1.642.087 3.384.087 5.227h16zm-.097-5.788a514.41 514.41 0 0 0-.187-4.756l-15.984.71c.06 1.347.12 2.882.18 4.607l15.991-.56zm-.192-4.862c-.093-1.611-.186-3.12-.28-4.523l-15.964 1.064c.09 1.35.18 2.81.27 4.38l15.974-.92zm-8.12 4.008 10.327-.184-.284-15.997-10.327.183.284 15.998zm36.428 23.395h8v-.11l-.003-.109-7.997.22zm-1.377 6.84-7.155-3.578-.013.024-.012.024 7.18 3.53zm-3.396 4.36-4.998-6.247-.034.027-.034.028 5.066 6.192zm-4.453 2.386 2.179 7.698.067-.019.066-.02-2.312-7.659zm-4.589.689-.229 7.996.114.004h.115v-8zm-3.122-.367 1.66-7.826-.019-.004-.02-.005-1.621 7.835zm-2.845-.827-3.011 7.412.137.056.14.05 2.734-7.518zm-2.662-1.698-7.995-.28-.13 3.668 2.698 2.49 5.427-5.878zm.367-10.465 5.018-6.23-12.453-10.031-.56 15.98 7.995.281zm6.471 3.167-1.999 7.747.03.007.029.008 1.94-7.762zm3.213.505-.469 7.986 2.255.133 1.992-1.067-3.778-7.052zm1.974-1.928-6.946-3.969-.024.042-.023.042 6.993 3.886zm.092-5.645-7.443 2.932.054.138.06.136 7.329-3.206zm-1.882-2.846 5.755-5.556-.049-.051-.049-.05-5.657 5.657zm-3.075-3.075-5.8 5.51.07.074.073.073 5.657-5.657zm-3.397-4.13-6.554 4.587.03.044.032.043 6.492-4.675zm-2.754-5.095-7.444 2.928.02.053.022.052 7.402-3.033zm-.23-12.026-7.576-2.568-.013.039-.013.039 7.603 2.49zm2.525-4.636-6.074-5.206-.036.042-.035.043 6.145 5.121zm3.902-2.983-3.344-7.268-.028.013-.028.013 3.4 7.242zm9.776-.367-2.07 7.727.065.018.065.016 1.94-7.761zm5.462 2.065 7.981.548.368-5.356-4.817-2.37-3.532 7.178zm-.734 10.695-5.301 5.991 12.169 10.765 1.113-16.208-7.981-.549zm-2.525-1.699-3.675 7.106.098.05.099.049 3.478-7.205zm-2.478-1.055 2.438-7.62-.034-.01-.033-.01-2.371 7.64zm-2.617-.551.853-7.955-1.157-.124-1.145.211 1.449 7.868zm-2.983 1.836 6.114 5.159.039-.047.039-.046-6.192-5.066zm-.367 7.665-7.075 3.734.062.118.067.117 6.946-3.97zm2.249 3.075-5.928 5.372.088.097.091.094 5.749-5.563zm2.983 2.892-5.398 5.904.047.042.047.042 5.304-5.988zm2.984 3.258-6.4 4.8.038.051.038.05 6.324-4.9zm2.386 4.223-7.418 2.996.025.06.026.061 7.367-3.117zm-6.898 5.737c0 1.87-.321 2.838-.532 3.261l14.31 7.156c1.625-3.249 2.222-6.84 2.222-10.417h-16zm-.557 3.31c-.441.899-.877 1.373-1.214 1.643l9.995 12.493c2.416-1.933 4.246-4.366 5.579-7.078l-14.36-7.058zm-1.282 1.698a4.84 4.84 0 0 1-1.699.92l4.624 15.317a20.816 20.816 0 0 0 7.206-3.854L108.97 59.284zm-1.565.88c-1.032.292-1.824.387-2.411.387v16c2.288 0 4.556-.365 6.768-.991l-4.357-15.395zm-2.183.39a9.413 9.413 0 0 1-1.69-.196l-3.32 15.652c1.499.317 3.019.494 4.553.537l.457-15.993zm-1.729-.205a12.648 12.648 0 0 1-1.732-.51l-5.468 15.037c1.308.475 2.631.867 3.959 1.142l3.241-15.669zm-1.455-.403a.772.772 0 0 1-.247-.165L90.938 71.538a16.762 16.762 0 0 0 5.078 3.231l6.022-14.823zm2.322 5.994.367-10.465-15.99-.561-.367 10.465 15.99.56zm-12.647-4.516c1.583 1.275 3.312 2.364 5.194 3.179l6.351-14.686c-.382-.165-.887-.453-1.508-.953l-10.037 12.46zm5.194 3.179c1.42.614 2.86 1.134 4.297 1.505l3.998-15.493c-.459-.118-1.1-.333-1.944-.698l-6.35 14.686zm4.356 1.52a25.46 25.46 0 0 0 4.684.73l.939-15.973a9.493 9.493 0 0 1-1.742-.28l-3.881 15.523zm8.931-.205a12.792 12.792 0 0 0 5.189-5.094l-13.986-7.77c.136-.246.325-.502.565-.737a3.03 3.03 0 0 1 .677-.503l7.555 14.104zm5.142-5.01c1.218-2.132 1.788-4.461 1.788-6.815h-16c0-.113.014-.29.071-.508.056-.22.143-.43.249-.616l13.892 7.939zm1.788-6.815c0-2.193-.531-4.219-1.313-6.007L101.153 54.5c.074.171-.029.012-.029-.406h16zm-1.199-5.732c-.832-2.112-2.083-3.93-3.57-5.47l-11.51 11.113c.116.12.173.2.195.233.021.031.014.026-.001-.012l14.886-5.864zm-3.668-5.57-.674-.675-.006-.005-.005-.006a.3.3 0 0 1-.011-.01l-.006-.006-.005-.006-.006-.005a.3.3 0 0 0-.006-.006l-.022-.022-.005-.006-.006-.005a.023.023 0 0 1-.005-.006l-.006-.005a9.483 9.483 0 0 1-.045-.045l-.005-.006a.307.307 0 0 1-.012-.011l-.005-.006-.006-.005a.028.028 0 0 1-.005-.006l-.006-.005-.006-.006-.005-.006a.307.307 0 0 1-.006-.005l-.011-.012-.012-.011a.026.026 0 0 0-.005-.006l-.006-.005-.045-.046-.006-.005a4924468219.703 4924468219.703 0 0 1-.011-.012l-.006-.006-.012-.011-.005-.006-.006-.006-.023-.022-.023-.024-.046-.046-.047-.046-.006-.006-.005-.006-.012-.011-.012-.012-.006-.006-.005-.006-.012-.011-.006-.006-.006-.006-.006-.006-.006-.006-.005-.006-.006-.006-.095-.094-.048-.048-.048-.048-.392-.392-.202-.202-.102-.103-.104-.103-.863-.864L97.868 51.03l.44.44.423.423.206.206.102.102.05.05.025.025.025.026c.012.01.089.088.1.099l.099.099.194.194.737.737.674.674 11.314-11.314zm-2.932-2.929a31.433 31.433 0 0 1-2.704-3.295l-12.985 9.349a47.468 47.468 0 0 0 4.089 4.966l11.6-11.02zm-2.643-3.209a18.146 18.146 0 0 1-1.905-3.54L89.972 39.18a34.113 34.113 0 0 0 3.602 6.649l13.108-9.175zm-1.863-3.435c-.333-.846-.546-1.877-.546-3.176h-16c0 3.107.52 6.146 1.657 9.033l14.889-5.858zm-.546-3.176c0-1.462.195-2.579.474-3.43L89.542 21.63c-.883 2.697-1.27 5.528-1.27 8.411h16.001zm.448-3.353c.34-1.002.734-1.65 1.094-2.082L93.524 14.364c-1.783 2.139-3.071 4.58-3.956 7.189l15.153 5.136zm1.022-1.997a3.568 3.568 0 0 1 1.227-.948L100.171 9.26a19.563 19.563 0 0 0-6.576 5.019l12.148 10.413zm1.171-.922c.407-.187.924-.324 1.66-.324v-16c-2.875 0-5.694.568-8.347 1.788l6.687 14.536zm1.66-.324c.642 0 1.53.102 2.703.416l4.14-15.455c-2.254-.604-4.549-.96-6.843-.96v16zm2.833.45c1.061.265 2.346.732 3.87 1.482l7.064-14.356c-2.331-1.147-4.687-2.057-7.054-2.648l-3.88 15.522zm-.579-6.244-.735 10.694 15.963 1.097.734-10.695-15.962-1.096zm12.547 5.25a19.067 19.067 0 0 0-4.347-2.91L112.072 34.4c.178.086.413.23.702.485l10.601-11.983zm-4.149-2.812a24.202 24.202 0 0 0-3.716-1.569l-4.877 15.239c.251.08.66.241 1.242.542l7.351-14.212zm-3.783-1.59a21.771 21.771 0 0 0-4.135-.865l-1.705 15.91c.303.032.667.102 1.097.236l4.743-15.28zm-6.437-.778c-3.222.594-5.833 2.325-7.726 4.638l12.384 10.132a2.562 2.562 0 0 1-.634.53 3.32 3.32 0 0 1-1.125.436l-2.899-15.736zm-7.648 4.545c-2.294 2.719-3.125 5.947-3.125 8.968h16c0-.078.01.066-.083.352a3.02 3.02 0 0 1-.564.998l-12.228-10.318zm-3.125 8.968c0 2.538.508 5.148 1.797 7.59l14.15-7.468c.026.05.045.094.057.128.013.033.017.052.017.05a1.462 1.462 0 0 1-.021-.3h-16zm1.926 7.825a25.538 25.538 0 0 0 3.267 4.478l11.856-10.744a9.556 9.556 0 0 1-1.231-1.672l-13.892 7.938zm3.446 4.67a75.904 75.904 0 0 0 3.334 3.232l10.796-11.809a60.13 60.13 0 0 1-2.632-2.55l-11.498 11.126zm3.428 3.316a13.82 13.82 0 0 1 1.888 2.07l12.8-9.6a29.842 29.842 0 0 0-4.079-4.447l-10.609 11.977zm1.964 2.171c.452.583.896 1.336 1.292 2.318l14.836-5.992c-.888-2.2-2.036-4.263-3.481-6.127l-12.647 9.801zm1.343 2.44c.189.446.43 1.323.472 2.839l15.994-.439c-.081-2.952-.574-5.9-1.731-8.635l-14.735 6.234zm38.521 15.104 2.603 7.565 6.257-2.153-.941-6.55-7.919 1.138zm-7.802 1.928-1.031-7.934-.013.002 1.044 7.932zm-10.649-.643-3.7 7.093 3.7-7.093zm-3.672-2.938-6.171 5.091.038.046.038.045 6.095-5.182zm-2.524-4.222-7.389 3.067.011.025.01.025 7.368-3.117zm-1.606-5.095-7.807 1.75 7.807-1.75zm-.873-5.37-7.972.664.006.073.007.072 7.959-.81zm.735-16.34 7.86 1.487.003-.013-7.863-1.474zm2.8-8.858 7.173 3.542-7.173-3.542zm4.544-5.784 4.851 6.361.034-.025.033-.026-4.918-6.31zm17.854 11.154-7.857 1.508.009.046.01.046 7.838-1.6zm.826 14.228-7.989-.41-.006.103-.002.102 7.997.205zm-.229 3.718 1.053 7.93 6.307-.837.604-6.334-7.964-.759zm-16.248 2.157-1.053-7.93-7.74 1.028.839 7.762 7.954-.86zm.55 3.213-7.774 1.885.026.11.03.11 7.718-2.105zm1.056 2.708-7.044 3.793.089.164.095.16 6.86-4.117zm8.813 2.25.883 7.95.073-.008.072-.01-1.028-7.933zm5.186-.735 7.919-1.137-1.147-7.989-7.978 1.217 1.206 7.909zm-15.881-15.238h-8v9.632l9.469-1.768-1.469-7.864zm7.619-1.423 1.469 7.864 6.531-1.22v-6.644h-8zm-.596-7.757-7.711 2.133.006.021.006.021 7.699-2.175zm-1.285-3.167 6.609-4.507-.016-.023-.016-.024-6.577 4.554zm-1.882-1.377 1.37-7.882-1.091-.19-1.102.114.823 7.958zm-3.305 4.085-7.785-1.844-.018.076-.016.077 7.819 1.69zm13.966 25.941c-2.463.848-4.528 1.338-6.23 1.56l2.061 15.866c3.011-.391 6.147-1.186 9.375-2.296l-5.206-15.13zm-6.243 1.56c-2.149.284-3.68.392-4.694.392v16c1.986 0 4.279-.199 6.781-.528l-2.087-15.863zm-4.694.392c-.804 0-1.13-.153-1.21-.195L126.71 75.14c2.735 1.427 5.682 2.008 8.611 2.008v-16zm-1.21-.195a4.163 4.163 0 0 1-1.277-1.026L120.643 70.29c1.7 2 3.734 3.632 6.067 4.849l7.401-14.186zm-1.202-.936c-.476-.577-.929-1.307-1.327-2.248l-14.736 6.234c.948 2.24 2.178 4.325 3.721 6.197l12.342-10.183zm-1.306-2.198a22.836 22.836 0 0 1-1.189-3.778l-15.613 3.5a38.893 38.893 0 0 0 2.024 6.412l14.778-6.134zm-1.189-3.778a37.664 37.664 0 0 1-.72-4.43l-15.918 1.62a53.714 53.714 0 0 0 1.025 6.31l15.613-3.5zm-.706-4.284a54.657 54.657 0 0 1-.202-4.523h-16c0 1.871.088 3.823.257 5.851l15.945-1.328zm-.202-4.523c0-3.62.288-6.833.824-9.666l-15.721-2.974c-.749 3.96-1.103 8.183-1.103 12.64h16zm.827-9.679c.541-2.887 1.28-5.11 2.11-6.79l-14.346-7.085c-1.619 3.278-2.746 6.96-3.49 10.927l15.726 2.948zm2.11-6.79c.794-1.61 1.588-2.48 2.222-2.965l-9.703-12.722c-2.977 2.27-5.212 5.255-6.865 8.602l14.346 7.085zm2.289-3.017c.396-.308.714-.42 1.232-.42v-16c-4.072 0-7.855 1.296-11.069 3.802l9.837 12.618zm1.232-.42c.491 0 .773.102 1.031.26l8.311-13.673c-2.863-1.74-6.039-2.587-9.342-2.587v16zm1.031.26c.145.087.594.41 1.176 1.445l13.945-7.844c-1.621-2.882-3.834-5.465-6.81-7.274l-8.311 13.672zm1.176 1.445c.554.985 1.165 2.593 1.64 5.068l15.714-3.016c-.688-3.584-1.759-6.964-3.409-9.896l-13.945 7.844zm1.659 5.16c.474 2.326.756 5.327.756 9.094h16c0-4.495-.33-8.623-1.08-12.294l-15.676 3.2zm.756 9.094c0 1.023-.027 2.064-.081 3.125l15.979.819c.068-1.326.102-2.64.102-3.944h-16zm-.089 3.33c-.026.994-.09 2.048-.196 3.164l15.928 1.517c.138-1.455.227-2.88.263-4.272l-15.995-.41zm6.715-4.008-16.248 2.157 2.106 15.86 16.248-2.157-2.106-15.86zm-23.149 10.947c.156 1.445.396 2.86.73 4.238l15.549-3.77a17.284 17.284 0 0 1-.372-2.188l-15.907 1.72zm.786 4.458a20.833 20.833 0 0 0 1.73 4.396l14.088-7.586c-.099-.184-.241-.506-.381-1.02l-15.437 4.21zm1.914 4.72c.904 1.506 2.101 2.945 3.667 4.12l9.6-12.8c.341.255.467.47.453.447l-13.72 8.232zm3.667 4.12c2.21 1.657 4.718 2.288 7.049 2.288v-16c.247 0 .637.032 1.114.178.488.15.983.393 1.437.733l-9.6 12.8zm7.049 2.288c1.949 0 3.896-.109 5.84-.325l-1.767-15.902a36.852 36.852 0 0 1-4.073.227v16zm5.985-.342c1.717-.223 3.506-.476 5.365-.76l-2.413-15.817c-1.752.267-3.421.504-5.009.71l2.057 15.867zm-3.761-7.53 1.24 8.628 15.837-2.274-1.239-8.63-15.838 2.275zm-6.493-8.512 7.619-1.423-2.937-15.728-7.619 1.422 2.937 15.729zm14.15-9.287v-1.744h-16v1.744h16zm0-1.744c0-2.86-.202-5.728-.898-8.189l-15.397 4.351c.1.354.295 1.496.295 3.838h16zm-.886-8.146c-.471-1.703-1.179-3.771-2.386-5.54l-13.219 9.013a2.485 2.485 0 0 1-.169-.277c-.014-.027-.002-.006.031.075.069.17.182.488.322.995l15.421-4.266zm-2.418-5.588c-1.325-1.914-3.61-4.1-7.089-4.705l-2.741 15.764c-2.07-.36-3.101-1.628-3.325-1.951l13.155-9.108zm-9.282-4.78c-3.204.33-5.977 1.975-7.817 4.572l13.057 9.248a5.05 5.05 0 0 1-1.561 1.415 5.084 5.084 0 0 1-2.033.68l-1.646-15.916zm-7.817 4.572c-1.273 1.797-2.011 3.774-2.45 5.626l15.57 3.688a3.012 3.012 0 0 1 .098-.334c.004-.01-.039.096-.161.268l-13.057-9.248zm-2.484 5.78c-.361 1.667-.557 3.417-.633 5.205l15.986.68c.046-1.088.156-1.908.285-2.505l-15.638-3.38zm-.633 5.205c-.066 1.554-.099 3.12-.099 4.7h16c0-1.357.029-2.697.085-4.02l-15.986-.68zm-.099 4.7v1.424h16V41.47h-16zm57.56-38.875 7.998.139.148-8.483-8.477.35.331 7.994zm-1.148 65.956v8h7.862l.137-7.861-7.999-.14zm-8.812 0h-8v8h8v-8zm0-4.682h8V37.7l-14.633 21.697 6.633 4.473zm-2.571 3.075 5.188 6.09.064-.054.063-.056-5.315-5.98zm-2.203 1.56 3.691 7.099.011-.006.01-.005-3.712-7.087zm-2.111.735v8h.568l.563-.08-1.131-7.92zm-4.636-1.377-4.215 6.8.049.03.05.03 4.116-6.86zm-4.131-4.681-7.012 3.851.021.038.021.037 6.97-3.926zm-2.937-8.537-7.821 1.685.002.007.001.007 7.818-1.7zm-.184-23.73-7.813-1.719-.006.03-.007.029 7.826 1.66zm10.97-13.861.591-7.978-.295-.022h-.296v8zm2.478.642 3.452-7.217-.101-.048-.101-.045-3.25 7.31zm4.774 4.36-6.784 4.24 15.71 25.137-.93-29.627-7.996.25zm-.597-19.001-.33-7.993-7.915.327.249 7.917 7.996-.251zm1.423 42.777h8v-.118l-.003-.117-7.997.235zm-.229-6.38-7.997.225.001.057.003.056 7.993-.338zm-.597-5.92-7.865 1.465.003.013.002.012 7.86-1.49zm-1.561-4.407-6.923 4.008.063.109.066.106 6.794-4.223zm-5.645-.321-6.524-4.63-.051.07-.049.073 6.624 4.487zm-1.469 3.672-7.806-1.753-.017.076-.015.077 7.838 1.6zm-.597 13.999-7.997.186.002.093.004.092 7.991-.371zm.276 3.947-7.966.74.001.01.001.008 7.964-.758zm1.468 6.793-7.427 2.971.017.044.018.044 7.392-3.06zm1.332 2.111-5.657 5.657.08.08.084.08 5.493-5.817zm4.268-.321 6.021 5.268.053-.06.052-.063-6.126-5.145zm1.561-3.075-7.59-2.53-.027.082-.026.082 7.643 2.366zm.918-4.498 7.954.852.001-.008.001-.007-7.956-.837zm1.961-48.975-1.148 65.956 15.998.278 1.147-65.956-15.997-.278zm6.851 58.095h-8.812v16h8.812v-16zm-.812 8v-4.682h-16v4.682h16zm-14.633-9.155c-.661.98-1.092 1.426-1.253 1.57l10.63 11.958c1.492-1.326 2.774-2.93 3.888-4.582l-13.265-8.946zm-1.125 1.458a9.107 9.107 0 0 1-.607.48c-.142.1-.18.115-.121.084l7.424 14.173c1.361-.712 2.6-1.637 3.679-2.557l-10.375-12.18zm-.707.553c-.091.048-.103.046-.039.024.065-.023.231-.075.487-.111l2.263 15.839c1.775-.254 3.352-.87 4.671-1.556l-7.382-14.196zm1.58-.168c.016 0 .006.004-.052-.013a2.123 2.123 0 0 1-.468-.224l-8.232 13.72c2.592 1.555 5.543 2.517 8.752 2.517v-16zm-.42-.176c-.028-.017-.572-.381-1.377-1.81l-13.94 7.854c1.644 2.918 3.854 5.675 6.886 7.555l8.431-13.599zm-1.335-1.734c-.696-1.268-1.463-3.31-2.132-6.385l-15.635 3.399c.862 3.963 2.053 7.612 3.743 10.69l14.024-7.704zm-2.129-6.37c-.606-2.813-.968-6.597-.968-11.488h-16c0 5.574.403 10.571 1.327 14.858l15.641-3.37zm-.968-11.488c0-3.604.291-6.545.79-8.897l-15.652-3.32c-.786 3.707-1.138 7.804-1.138 12.217h16zm.777-8.838c.566-2.57 1.241-4.378 1.896-5.598l-14.094-7.573c-1.548 2.881-2.647 6.184-3.428 9.733l15.626 3.438zm1.896-5.598c.701-1.302 1.249-1.793 1.452-1.94l-9.378-12.963c-2.674 1.933-4.665 4.533-6.168 7.33l14.094 7.573zm1.452-1.94c.16-.116.206-.118.136-.094a1.097 1.097 0 0 1-.327.052v-16c-3.47 0-6.58 1.192-9.187 3.079l9.378 12.963zm-.782-.064a1.043 1.043 0 0 1-.178-.028c-.036-.01-.037-.013-.002.003l6.499-14.621a15.431 15.431 0 0 0-5.137-1.31l-1.182 15.956zm-.382-.119c-.009-.004.063.03.218.131.154.1.364.247.632.457l9.885-12.58c-1.152-.905-2.437-1.774-3.832-2.442l-6.903 14.434zm.85.588c-.065-.05.167.117.591.796l13.568-8.48c-1.106-1.77-2.496-3.5-4.274-4.897L163.415 25.5zm15.371-3.695-.597-19.002-15.992.502.597 19.002 15.992-.502zm-8.263-10.758 11.108-.46-.661-15.985-11.107.459.66 15.986zm9.09 34.549c-.063-2.116-.14-4.277-.234-6.483l-15.985.676c.09 2.14.165 4.232.225 6.277l15.994-.47zm-.23-6.37c-.071-2.515-.304-4.92-.733-7.186l-15.72 2.98c.243 1.284.408 2.826.46 4.656l15.993-.45zm-.729-7.162c-.454-2.439-1.244-4.933-2.63-7.163l-13.589 8.446.013.023c.008.016.021.04.036.073.031.066.073.165.122.303.099.28.214.687.319 1.25l15.729-2.932zm-2.501-6.948c-1.98-3.42-5.467-5.736-9.815-5.736v16a4.855 4.855 0 0 1-2.468-.714c-.878-.53-1.355-1.173-1.564-1.534l13.847-8.016zm-9.815-5.736c-3.756 0-7.105 1.731-9.278 4.793l13.048 9.26a4.67 4.67 0 0 1-1.659 1.41 4.667 4.667 0 0 1-2.111.537v-16zm-9.378 4.936c-1.36 2.008-2.165 4.243-2.651 6.406l15.612 3.505c.09-.4.178-.666.241-.824.063-.157.089-.179.045-.114l-13.247-8.973zm-2.683 6.559c-.41 2.007-.634 4.111-.708 6.286l15.991.542c.048-1.437.191-2.637.393-3.629l-15.676-3.2zm-.708 6.286c-.064 1.89-.097 3.74-.097 5.549h16c0-1.618.029-3.288.088-5.007l-15.991-.542zm-.097 5.549c0 1.261.017 2.578.049 3.95l15.995-.372c-.029-1.26-.044-2.453-.044-3.578h-16zm.055 4.135c.067 1.44.167 2.879.301 4.317l15.931-1.482a76.882 76.882 0 0 1-.249-3.578l-15.983.743zm.303 4.334a40.84 40.84 0 0 0 .686 4.562l15.657-3.296a24.939 24.939 0 0 1-.415-2.783L153.83 51.18zm.686 4.562a26.9 26.9 0 0 0 1.319 4.444l14.855-5.942c-.165-.414-.349-1-.517-1.798l-15.657 3.296zm1.354 4.532c.653 1.576 1.614 3.256 3.067 4.709l11.313-11.314c.212.212.333.386.388.473.054.085.053.1.017.014l-14.785 6.118zm3.231 4.868c1.983 1.874 4.573 2.965 7.42 2.965v-16c.6 0 1.281.11 1.969.389a5.138 5.138 0 0 1 1.597 1.014l-10.986 11.632zm7.42 2.965c3.385 0 6.309-1.488 8.362-3.834l-12.042-10.536c.31-.354.817-.8 1.548-1.144a5.048 5.048 0 0 1 2.132-.486v16zm8.467-3.957c1.521-1.811 2.467-3.884 3.077-5.855l-15.285-4.73c-.087.28-.155.429-.18.477-.024.047.011-.033.136-.183l12.252 10.291zm3.024-5.69c.651-1.954 1.054-4.038 1.283-6.176l-15.909-1.705c-.138 1.29-.347 2.204-.553 2.82l15.179 5.06zm1.285-6.19c.216-2.057.319-4.206.319-6.438h-16c0 1.746-.081 3.33-.231 4.762l15.912 1.675z" fill="#243041" mask="url(#b)"/><defs><linearGradient id="a" x1="91" y1="-4.448" x2="91" y2="90" gradientUnits="userSpaceOnUse"><stop stop-color="#67B6FF"/><stop offset="1" stop-color="#fff"/></linearGradient></defs></svg>