<svg width="224" height="69" fill="none" xmlns="http://www.w3.org/2000/svg"><mask id="b" maskUnits="userSpaceOnUse" x="-10" y="-8" width="242" height="85" fill="#000"><path fill="#fff" d="M-10-8h242v85H-10z"/><path d="M33.685 1.182A595.974 595.974 0 0 0 26.8 24.727a2485.119 2485.119 0 0 0-6.012 22.904v2.846c0 1.53.015 2.983.046 4.36l.183 4.039c.061 1.316.138 2.677.23 4.085.122 1.377.26 2.846.413 4.406H10.644c.245-1.897.459-3.656.643-5.278.183-1.652.32-3.274.413-4.865.122-1.591.214-3.229.275-4.911.061-1.683.092-3.52.092-5.508-.857-3.52-1.76-7.176-2.708-10.97a889.153 889.153 0 0 0-2.846-11.429c-.979-3.825-1.958-7.619-2.937-11.383-.98-3.794-1.943-7.45-2.892-10.97L12.16 1.09c.122 2.509.321 5.171.596 7.986a324.143 324.143 0 0 0 2.387 17.35c.49 2.968.995 5.875 1.515 8.72.581-2.906 1.147-5.86 1.698-8.858a372.244 372.244 0 0 0 2.938-17.533c.428-2.785.795-5.4 1.101-7.849l11.291.276zM60.662 40.7c0 3.733-.168 7.007-.505 9.822-.336 2.816-.826 5.264-1.468 7.344-.612 2.05-1.362 3.764-2.25 5.14-.856 1.347-1.82 2.433-2.891 3.26a9.452 9.452 0 0 1-3.396 1.744 14.13 14.13 0 0 1-3.764.505c-1.285 0-2.524-.138-3.718-.413a9.044 9.044 0 0 1-3.259-1.515c-1.01-.734-1.943-1.729-2.8-2.984-.826-1.254-1.53-2.86-2.11-4.819-.582-1.958-1.041-4.299-1.378-7.022-.306-2.724-.459-5.921-.459-9.593 0-5.508.398-10.021 1.194-13.54.826-3.519 1.897-6.288 3.213-8.308 1.315-2.05 2.815-3.457 4.498-4.222 1.682-.796 3.411-1.194 5.186-1.194 1.132 0 2.264.123 3.397.368a8.645 8.645 0 0 1 3.258 1.33c1.04.674 2.005 1.607 2.892 2.8.887 1.194 1.652 2.754 2.295 4.682.642 1.897 1.147 4.207 1.514 6.93.368 2.724.551 5.952.551 9.685zm-9.868.367c0-2.937-.107-5.34-.321-7.206-.214-1.897-.505-3.396-.872-4.498-.367-1.101-.811-1.851-1.331-2.249-.52-.428-1.087-.642-1.699-.642-.703 0-1.315.306-1.835.918-.52.581-.964 1.53-1.331 2.845-.337 1.316-.597 3.014-.78 5.095-.184 2.05-.276 4.56-.276 7.527 0 3 .107 5.493.321 7.482.245 1.958.566 3.534.964 4.727.428 1.163.918 1.99 1.469 2.479.581.49 1.193.734 1.836.734 1.346 0 2.325-1.392 2.937-4.177.612-2.784.918-7.129.918-13.035zm42.767-19.369a477.797 477.797 0 0 0-.505 14.642 759.165 759.165 0 0 0-.138 14.504v8.537c.03 2.815.092 5.66.183 8.537l-9.133.23V62.41c-.918 1.5-1.943 2.647-3.076 3.443-1.132.795-2.218 1.361-3.258 1.698-1.01.367-1.882.566-2.617.596a27.67 27.67 0 0 1-1.285.092c-1.927-.398-3.534-1.239-4.819-2.524-1.255-1.316-2.264-2.938-3.03-4.865-.734-1.959-1.254-4.162-1.56-6.61a62.184 62.184 0 0 1-.459-7.71c0-2.326.092-4.698.276-7.115.183-2.417.413-4.789.688-7.114.275-2.356.581-4.62.918-6.793.337-2.203.673-4.253 1.01-6.15l10.006.183a801.821 801.821 0 0 0-.872 5.875 342.355 342.355 0 0 0-.78 6.472 234.025 234.025 0 0 0-.552 6.655c-.122 2.203-.183 4.3-.183 6.288 0 1.836.076 3.55.23 5.14.152 1.592.397 2.984.734 4.177.336 1.163.765 2.081 1.285 2.754.55.643 1.224.964 2.02.964 1.04 0 1.897-.627 2.57-1.882.673-1.254 1.193-2.891 1.56-4.91.398-2.05.658-4.346.78-6.886.154-2.54.23-5.094.23-7.665 0-1.927-.03-3.763-.092-5.507a506.744 506.744 0 0 0-.183-4.682 500.896 500.896 0 0 0-.276-4.452l10.328-.184zm44.132 45.394a297.542 297.542 0 0 0-5.003-.138c-1.591-.03-3.182-.046-4.774-.046-2.386 0-4.742.03-7.068.092-2.326.092-4.728.214-7.206.367a812.2 812.2 0 0 0 .643-16.89c.183-5.6.275-11.246.275-16.937 0-5.447-.077-10.847-.23-16.202a415.447 415.447 0 0 0-.688-16.248c.306.03.658.046 1.056.046.336.03.749.046 1.239.046h1.652c.979 0 2.035-.016 3.167-.046 1.163-.061 2.326-.138 3.488-.23a268.115 268.115 0 0 0-.872 13.907c-.153 4.866-.26 9.792-.321 14.78l-.092 14.87c0 4.927-.046 9.685-.137 14.275 2.509-.06 4.941-.183 7.297-.367a106.79 106.79 0 0 0 7.574-.872v9.593zM167.562 40.7c0 3.733-.169 7.007-.505 9.822-.337 2.816-.826 5.264-1.469 7.344-.612 2.05-1.362 3.764-2.249 5.14-.857 1.347-1.821 2.433-2.892 3.26a9.447 9.447 0 0 1-3.396 1.744 14.132 14.132 0 0 1-3.764.505 16.49 16.49 0 0 1-3.718-.413 9.04 9.04 0 0 1-3.258-1.515c-1.01-.734-1.943-1.729-2.8-2.984-.826-1.254-1.53-2.86-2.112-4.819-.581-1.958-1.04-4.299-1.376-7.022-.306-2.724-.459-5.921-.459-9.593 0-5.508.397-10.021 1.193-13.54.826-3.519 1.897-6.288 3.213-8.308 1.316-2.05 2.815-3.457 4.498-4.222 1.683-.796 3.412-1.194 5.186-1.194 1.133 0 2.265.123 3.397.368a8.647 8.647 0 0 1 3.259 1.33c1.04.674 2.004 1.607 2.891 2.8.888 1.194 1.653 2.754 2.295 4.682.643 1.897 1.148 4.207 1.515 6.93.367 2.724.551 5.952.551 9.685zm-9.869.367c0-2.937-.107-5.34-.321-7.206-.214-1.897-.505-3.396-.872-4.498-.367-1.101-.811-1.851-1.331-2.249-.52-.428-1.086-.642-1.698-.642-.704 0-1.316.306-1.836.918-.52.581-.964 1.53-1.331 2.845-.337 1.316-.597 3.014-.781 5.095-.183 2.05-.275 4.56-.275 7.527 0 3 .107 5.493.321 7.482.245 1.958.566 3.534.964 4.727.429 1.163.918 1.99 1.469 2.479.581.49 1.193.734 1.836.734 1.346 0 2.325-1.392 2.937-4.177.612-2.784.918-7.129.918-13.035zm35.331 12.21c0 2.723-.459 5.002-1.377 6.838-.887 1.806-2.019 3.259-3.396 4.36a12.843 12.843 0 0 1-4.452 2.387c-1.622.46-3.152.689-4.59.689a17.397 17.397 0 0 1-3.121-.367 20.56 20.56 0 0 1-2.846-.827 8.755 8.755 0 0 1-2.662-1.698l.367-10.465c1.102.888 2.218 1.576 3.351 2.066 1.132.49 2.172.857 3.121 1.101 1.101.276 2.172.444 3.213.505a4.798 4.798 0 0 0 1.973-1.928c.49-.856.735-1.805.735-2.845 0-.888-.215-1.82-.643-2.8-.398-1.01-1.025-1.958-1.882-2.846l-3.075-3.075a39.37 39.37 0 0 1-3.396-4.13 26.116 26.116 0 0 1-2.754-5.095c-.735-1.867-1.102-3.902-1.102-6.105 0-2.173.291-4.146.872-5.92.612-1.806 1.454-3.352 2.525-4.637a11.556 11.556 0 0 1 3.901-2.983c1.53-.704 3.198-1.056 5.003-1.056 1.469 0 3.06.23 4.773.689 1.714.428 3.534 1.117 5.462 2.065l-.734 10.695a11.08 11.08 0 0 0-2.525-1.699 16.184 16.184 0 0 0-2.478-1.055 13.776 13.776 0 0 0-2.616-.551c-1.163.214-2.158.826-2.984 1.836-.826.979-1.239 2.249-1.239 3.81 0 1.468.291 2.753.872 3.855a17.566 17.566 0 0 0 2.249 3.075 68.03 68.03 0 0 0 2.984 2.892 21.877 21.877 0 0 1 2.983 3.258c.948 1.224 1.744 2.632 2.387 4.223.673 1.591 1.04 3.504 1.101 5.737zm30.053 12.484c-2.846.979-5.447 1.621-7.803 1.928-2.326.306-4.238.459-5.737.459-1.867 0-3.504-.368-4.911-1.102a12.155 12.155 0 0 1-3.672-2.938c-1.01-1.224-1.852-2.631-2.525-4.222a30.907 30.907 0 0 1-1.606-5.095 45.48 45.48 0 0 1-.872-5.37 62.632 62.632 0 0 1-.23-5.187c0-4.039.322-7.757.964-11.153.643-3.427 1.576-6.38 2.8-8.858 1.224-2.479 2.739-4.407 4.544-5.784 1.805-1.407 3.855-2.11 6.15-2.11 1.897 0 3.626.473 5.187 1.422 1.56.948 2.891 2.402 3.993 4.36 1.101 1.959 1.943 4.453 2.524 7.482.612 2.999.918 6.563.918 10.694 0 1.163-.03 2.34-.091 3.534a54.31 54.31 0 0 1-.23 3.718l-16.248 2.157c.122 1.133.306 2.203.551 3.213.275 1.01.627 1.913 1.055 2.708.459.765.995 1.377 1.607 1.836.612.46 1.362.689 2.249.689 1.652 0 3.305-.092 4.957-.276 1.652-.214 3.381-.459 5.186-.734l1.24 8.629zm-17.12-23.867 7.619-1.423v-1.744c0-2.601-.199-4.606-.597-6.013-.398-1.438-.826-2.494-1.285-3.167-.551-.796-1.178-1.255-1.882-1.377-.887.092-1.591.505-2.111 1.24-.52.734-.918 1.682-1.194 2.845-.244 1.132-.397 2.417-.459 3.855a102.892 102.892 0 0 0-.091 4.36v1.424z"/></mask><path d="M33.685 1.182A595.974 595.974 0 0 0 26.8 24.727a2485.119 2485.119 0 0 0-6.012 22.904v2.846c0 1.53.015 2.983.046 4.36l.183 4.039c.061 1.316.138 2.677.23 4.085.122 1.377.26 2.846.413 4.406H10.644c.245-1.897.459-3.656.643-5.278.183-1.652.32-3.274.413-4.865.122-1.591.214-3.229.275-4.911.061-1.683.092-3.52.092-5.508-.857-3.52-1.76-7.176-2.708-10.97a889.153 889.153 0 0 0-2.846-11.429c-.979-3.825-1.958-7.619-2.937-11.383-.98-3.794-1.943-7.45-2.892-10.97L12.16 1.09c.122 2.509.321 5.171.596 7.986a324.143 324.143 0 0 0 2.387 17.35c.49 2.968.995 5.875 1.515 8.72.581-2.906 1.147-5.86 1.698-8.858a372.244 372.244 0 0 0 2.938-17.533c.428-2.785.795-5.4 1.101-7.849l11.291.276zM60.662 40.7c0 3.733-.168 7.007-.505 9.822-.336 2.816-.826 5.264-1.468 7.344-.612 2.05-1.362 3.764-2.25 5.14-.856 1.347-1.82 2.433-2.891 3.26a9.452 9.452 0 0 1-3.396 1.744 14.13 14.13 0 0 1-3.764.505c-1.285 0-2.524-.138-3.718-.413a9.044 9.044 0 0 1-3.259-1.515c-1.01-.734-1.943-1.729-2.8-2.984-.826-1.254-1.53-2.86-2.11-4.819-.582-1.958-1.041-4.299-1.378-7.022-.306-2.724-.459-5.921-.459-9.593 0-5.508.398-10.021 1.194-13.54.826-3.519 1.897-6.288 3.213-8.308 1.315-2.05 2.815-3.457 4.498-4.222 1.682-.796 3.411-1.194 5.186-1.194 1.132 0 2.264.123 3.397.368a8.645 8.645 0 0 1 3.258 1.33c1.04.674 2.005 1.607 2.892 2.8.887 1.194 1.652 2.754 2.295 4.682.642 1.897 1.147 4.207 1.514 6.93.368 2.724.551 5.952.551 9.685zm-9.868.367c0-2.937-.107-5.34-.321-7.206-.214-1.897-.505-3.396-.872-4.498-.367-1.101-.811-1.851-1.331-2.249-.52-.428-1.087-.642-1.699-.642-.703 0-1.315.306-1.835.918-.52.581-.964 1.53-1.331 2.845-.337 1.316-.597 3.014-.78 5.095-.184 2.05-.276 4.56-.276 7.527 0 3 .107 5.493.321 7.482.245 1.958.566 3.534.964 4.727.428 1.163.918 1.99 1.469 2.479.581.49 1.193.734 1.836.734 1.346 0 2.325-1.392 2.937-4.177.612-2.784.918-7.129.918-13.035zm42.767-19.369a477.797 477.797 0 0 0-.505 14.642 759.165 759.165 0 0 0-.138 14.504v8.537c.03 2.815.092 5.66.183 8.537l-9.133.23V62.41c-.918 1.5-1.943 2.647-3.076 3.443-1.132.795-2.218 1.361-3.258 1.698-1.01.367-1.882.566-2.617.596a27.67 27.67 0 0 1-1.285.092c-1.927-.398-3.534-1.239-4.819-2.524-1.255-1.316-2.264-2.938-3.03-4.865-.734-1.959-1.254-4.162-1.56-6.61a62.184 62.184 0 0 1-.459-7.71c0-2.326.092-4.698.276-7.115.183-2.417.413-4.789.688-7.114.275-2.356.581-4.62.918-6.793.337-2.203.673-4.253 1.01-6.15l10.006.183a801.821 801.821 0 0 0-.872 5.875 342.355 342.355 0 0 0-.78 6.472 234.025 234.025 0 0 0-.552 6.655c-.122 2.203-.183 4.3-.183 6.288 0 1.836.076 3.55.23 5.14.152 1.592.397 2.984.734 4.177.336 1.163.765 2.081 1.285 2.754.55.643 1.224.964 2.02.964 1.04 0 1.897-.627 2.57-1.882.673-1.254 1.193-2.891 1.56-4.91.398-2.05.658-4.346.78-6.886.154-2.54.23-5.094.23-7.665 0-1.927-.03-3.763-.092-5.507a506.744 506.744 0 0 0-.183-4.682 500.896 500.896 0 0 0-.276-4.452l10.328-.184zm44.132 45.394a297.542 297.542 0 0 0-5.003-.138c-1.591-.03-3.182-.046-4.774-.046-2.386 0-4.742.03-7.068.092-2.326.092-4.728.214-7.206.367a812.2 812.2 0 0 0 .643-16.89c.183-5.6.275-11.246.275-16.937 0-5.447-.077-10.847-.23-16.202a415.447 415.447 0 0 0-.688-16.248c.306.03.658.046 1.056.046.336.03.749.046 1.239.046h1.652c.979 0 2.035-.016 3.167-.046 1.163-.061 2.326-.138 3.488-.23a268.115 268.115 0 0 0-.872 13.907c-.153 4.866-.26 9.792-.321 14.78l-.092 14.87c0 4.927-.046 9.685-.137 14.275 2.509-.06 4.941-.183 7.297-.367a106.79 106.79 0 0 0 7.574-.872v9.593zM167.562 40.7c0 3.733-.169 7.007-.505 9.822-.337 2.816-.826 5.264-1.469 7.344-.612 2.05-1.362 3.764-2.249 5.14-.857 1.347-1.821 2.433-2.892 3.26a9.447 9.447 0 0 1-3.396 1.744 14.132 14.132 0 0 1-3.764.505 16.49 16.49 0 0 1-3.718-.413 9.04 9.04 0 0 1-3.258-1.515c-1.01-.734-1.943-1.729-2.8-2.984-.826-1.254-1.53-2.86-2.112-4.819-.581-1.958-1.04-4.299-1.376-7.022-.306-2.724-.459-5.921-.459-9.593 0-5.508.397-10.021 1.193-13.54.826-3.519 1.897-6.288 3.213-8.308 1.316-2.05 2.815-3.457 4.498-4.222 1.683-.796 3.412-1.194 5.186-1.194 1.133 0 2.265.123 3.397.368a8.647 8.647 0 0 1 3.259 1.33c1.04.674 2.004 1.607 2.891 2.8.888 1.194 1.653 2.754 2.295 4.682.643 1.897 1.148 4.207 1.515 6.93.367 2.724.551 5.952.551 9.685zm-9.869.367c0-2.937-.107-5.34-.321-7.206-.214-1.897-.505-3.396-.872-4.498-.367-1.101-.811-1.851-1.331-2.249-.52-.428-1.086-.642-1.698-.642-.704 0-1.316.306-1.836.918-.52.581-.964 1.53-1.331 2.845-.337 1.316-.597 3.014-.781 5.095-.183 2.05-.275 4.56-.275 7.527 0 3 .107 5.493.321 7.482.245 1.958.566 3.534.964 4.727.429 1.163.918 1.99 1.469 2.479.581.49 1.193.734 1.836.734 1.346 0 2.325-1.392 2.937-4.177.612-2.784.918-7.129.918-13.035zm35.331 12.21c0 2.723-.459 5.002-1.377 6.838-.887 1.806-2.019 3.259-3.396 4.36a12.843 12.843 0 0 1-4.452 2.387c-1.622.46-3.152.689-4.59.689a17.397 17.397 0 0 1-3.121-.367 20.56 20.56 0 0 1-2.846-.827 8.755 8.755 0 0 1-2.662-1.698l.367-10.465c1.102.888 2.218 1.576 3.351 2.066 1.132.49 2.172.857 3.121 1.101 1.101.276 2.172.444 3.213.505a4.798 4.798 0 0 0 1.973-1.928c.49-.856.735-1.805.735-2.845 0-.888-.215-1.82-.643-2.8-.398-1.01-1.025-1.958-1.882-2.846l-3.075-3.075a39.37 39.37 0 0 1-3.396-4.13 26.116 26.116 0 0 1-2.754-5.095c-.735-1.867-1.102-3.902-1.102-6.105 0-2.173.291-4.146.872-5.92.612-1.806 1.454-3.352 2.525-4.637a11.556 11.556 0 0 1 3.901-2.983c1.53-.704 3.198-1.056 5.003-1.056 1.469 0 3.06.23 4.773.689 1.714.428 3.534 1.117 5.462 2.065l-.734 10.695a11.08 11.08 0 0 0-2.525-1.699 16.184 16.184 0 0 0-2.478-1.055 13.776 13.776 0 0 0-2.616-.551c-1.163.214-2.158.826-2.984 1.836-.826.979-1.239 2.249-1.239 3.81 0 1.468.291 2.753.872 3.855a17.566 17.566 0 0 0 2.249 3.075 68.03 68.03 0 0 0 2.984 2.892 21.877 21.877 0 0 1 2.983 3.258c.948 1.224 1.744 2.632 2.387 4.223.673 1.591 1.04 3.504 1.101 5.737zm30.053 12.484c-2.846.979-5.447 1.621-7.803 1.928-2.326.306-4.238.459-5.737.459-1.867 0-3.504-.368-4.911-1.102a12.155 12.155 0 0 1-3.672-2.938c-1.01-1.224-1.852-2.631-2.525-4.222a30.907 30.907 0 0 1-1.606-5.095 45.48 45.48 0 0 1-.872-5.37 62.632 62.632 0 0 1-.23-5.187c0-4.039.322-7.757.964-11.153.643-3.427 1.576-6.38 2.8-8.858 1.224-2.479 2.739-4.407 4.544-5.784 1.805-1.407 3.855-2.11 6.15-2.11 1.897 0 3.626.473 5.187 1.422 1.56.948 2.891 2.402 3.993 4.36 1.101 1.959 1.943 4.453 2.524 7.482.612 2.999.918 6.563.918 10.694 0 1.163-.03 2.34-.091 3.534a54.31 54.31 0 0 1-.23 3.718l-16.248 2.157c.122 1.133.306 2.203.551 3.213.275 1.01.627 1.913 1.055 2.708.459.765.995 1.377 1.607 1.836.612.46 1.362.689 2.249.689 1.652 0 3.305-.092 4.957-.276 1.652-.214 3.381-.459 5.186-.734l1.24 8.629zm-17.12-23.867 7.619-1.423v-1.744c0-2.601-.199-4.606-.597-6.013-.398-1.438-.826-2.494-1.285-3.167-.551-.796-1.178-1.255-1.882-1.377-.887.092-1.591.505-2.111 1.24-.52.734-.918 1.682-1.194 2.845-.244 1.132-.397 2.417-.459 3.855a102.892 102.892 0 0 0-.091 4.36v1.424z" fill="url(#a)"/><path d="m33.685 1.182 7.63 2.403L44.51-6.557l-10.63-.259-.195 7.998zM26.8 24.727l-7.723-2.087-.002.01-.003.01 7.728 2.067zm-6.012 22.904-7.748-1.993-.252.98v1.013h8zm.046 7.206-7.999.178.002.092.005.093 7.992-.363zm.183 4.039-7.992.363v.009l7.992-.372zm.23 4.085-7.983.52.006.094.008.094 7.969-.708zm.413 4.406v8h8.822l-.86-8.78-7.962.78zm-11.016 0L2.71 66.343l-1.165 9.024h9.099v-8zm.643-5.278 7.949.9v-.008l.002-.009-7.951-.883zm.413-4.865-7.977-.614-.006.076-.004.077 7.987.46zm.367-10.42h8v-.96l-.227-.932-7.773 1.893zM9.359 35.836l-7.776 1.881.007.03.008.03 7.76-1.941zM6.513 24.406l-7.75 1.984 7.75-1.984zM3.576 13.023l-7.747 2 .002.007.002.008 7.743-2.015zM.684 2.053l-.67-7.971-9.548.802 2.494 9.252L.684 2.054zM12.16 1.09l7.99-.39-.404-8.276-8.256.694.67 7.972zm.596 7.986-7.962.78.005.047.005.047 7.952-.874zm3.902 26.07-7.87 1.439 15.714.13-7.844-1.569zm1.698-8.858-7.857-1.508-.006.031-.005.032 7.868 1.445zm2.938-17.533-7.907-1.217-.007.043-.006.043 7.92 1.13zM22.393.906l.195-7.997-7.235-.177-.898 7.182 7.938.992zm3.66-2.128a603.785 603.785 0 0 0-6.977 23.862l15.446 4.175a587.995 587.995 0 0 1 6.792-23.23l-15.26-4.807zm-6.982 23.883a2496.455 2496.455 0 0 0-6.032 22.977l15.495 3.986c1.89-7.348 3.888-14.958 5.994-22.83l-15.457-4.133zm-6.284 24.97v2.846h16V47.63h-16zm0 2.846c0 1.582.015 3.095.047 4.538l15.996-.356c-.029-1.312-.043-2.705-.043-4.182h-16zm.054 4.723.091 2.02c.002.02.005.105.006.126a50.95 50.95 0 0 0 .012.252l.005.127a53.25 53.25 0 0 0 .012.252l.006.126.005.127.006.126a53.25 53.25 0 0 0 .012.252l.005.126a55.77 55.77 0 0 0 .012.253c0 .022.005.104.006.126l.005.126 15.984-.726-.092-2.02-.023-.505-.023-.505-.023-.505-.023-.504-15.983.726zm.184 4.048a228 228 0 0 0 .238 4.234L29.23 62.44a212.11 212.11 0 0 1-.222-3.936l-15.982.744zm.252 4.421c.125 1.404.265 2.897.42 4.479l15.924-1.561c-.151-1.54-.287-2.985-.407-4.334l-15.937 1.416zm8.382-4.302H10.644v16H21.66v-16zm-3.082 9.024c.25-1.932.469-3.733.658-5.402l-15.899-1.8a334.697 334.697 0 0 1-.627 5.154l15.868 2.048zm.66-5.419c.198-1.787.348-3.55.448-5.288l-15.973-.921a84.112 84.112 0 0 1-.377 4.442l15.902 1.767zm.438-5.135c.131-1.704.229-3.449.294-5.234l-15.99-.581a113.76 113.76 0 0 1-.257 4.588l15.953 1.227zm.294-5.234c.065-1.795.097-3.73.097-5.798h-16c0 1.909-.03 3.646-.087 5.217l15.99.581zm-.13-7.69a1846.98 1846.98 0 0 0-2.72-11.018l-15.522 3.88c.945 3.78 1.843 7.42 2.696 10.922l15.546-3.785zm-2.706-10.96a894.966 894.966 0 0 0-2.87-11.53l-15.5 3.967c.97 3.791 1.91 7.567 2.82 11.326l15.55-3.762zm-2.87-11.53c-.982-3.836-1.964-7.64-2.946-11.414l-15.485 4.029c.977 3.753 1.953 7.537 2.93 11.352l15.5-3.968zm-2.942-11.399C10.336 7.204 9.365 3.52 8.408-.028L-7.04 4.136c.94 3.49 1.897 7.118 2.87 10.887l15.492-3.999zm-9.968-.998 11.474-.964L11.49-6.882.014-5.918l1.34 15.944zM4.168 1.48c.13 2.654.339 5.446.625 8.375l15.924-1.558A156.696 156.696 0 0 1 20.15.7l-15.98.78zm.635 8.47c.314 2.858.675 5.774 1.082 8.748l15.852-2.17c-.388-2.84-.732-5.615-1.03-8.326L4.803 9.95zm1.082 8.748a332.39 332.39 0 0 0 1.364 9.03l15.786-2.604c-.478-2.898-.91-5.763-1.298-8.595L5.885 18.698zm1.364 9.03a519 519 0 0 0 1.538 8.857l15.74-2.877a504.041 504.041 0 0 1-1.492-8.584L7.25 27.728zM24.5 36.715c.59-2.949 1.164-5.943 1.722-8.982l-15.736-2.89a565.268 565.268 0 0 1-1.675 8.735l15.69 3.137zm1.71-8.92c.594-3.09 1.14-6.138 1.642-9.142l-15.783-2.63c-.478 2.87-1.002 5.79-1.572 8.757l15.714 3.016zm1.642-9.142c.499-2.995.952-5.917 1.36-8.767l-15.84-2.262c-.389 2.72-.823 5.519-1.303 8.399l15.783 2.63zm1.346-8.682c.439-2.849.817-5.54 1.133-8.072L14.456-.086a272.886 272.886 0 0 1-1.07 7.624l15.813 2.433zm-7-1.067 11.291.275.39-15.995-11.29-.275-.391 15.995zm36.49 48.962-7.644-2.36-.011.036-.011.036 7.666 2.288zm-2.25 5.14-6.724-4.333-.012.02-.013.019 6.75 4.295zm-2.891 3.26-4.886-6.335-.045.035-.044.035 4.975 6.265zM42.67 68.102l-1.844 7.784.023.005.022.006 1.8-7.795zm-6.059-4.499-6.68 4.4.036.057.038.055 6.607-4.511zm-2.11-4.819-7.67 2.277 7.67-2.277zm-1.378-7.022-7.95.893.005.044.006.044 7.94-.981zm.735-23.133L26.069 26.8l-.007.032-.007.033 7.803 1.764zm3.213-8.308 6.702 4.367.015-.023.015-.023-6.732-4.32zm4.498-4.222 3.31 7.283.055-.025.054-.026-3.42-7.232zm8.583-.826-1.691 7.819.12.026.121.022 1.45-7.867zm3.258 1.33-4.437 6.657.045.03.046.03 4.346-6.716zm5.187 7.482-7.59 2.53.007.018.006.018 7.577-2.566zm-8.124 9.776-7.95.898.001.007.001.007 7.948-.912zm-2.203-6.747-5.086 6.176.111.092.115.087 4.86-6.355zm-3.535.276 5.962 5.334.068-.076.066-.077-6.096-5.181zm-1.33 2.845-7.706-2.15-.023.084-.022.084 7.75 1.982zm-.78 5.095 7.967.714.001-.01-7.969-.704zm.045 15.009-7.954.856.007.068.009.068 7.938-.992zm.964 4.727-7.59 2.53.04.119.043.117 7.507-2.766zm1.469 2.479-5.315 5.98.08.07.082.07 5.153-6.12zm7.56-16.845c0 3.509-.16 6.453-.449 8.873l15.887 1.9c.384-3.212.561-6.815.561-10.773h-16zm-.449 8.873c-.295 2.471-.704 4.426-1.17 5.933l15.288 4.72c.82-2.654 1.391-5.595 1.769-8.754l-15.887-1.9zm-1.191 6.005c-.458 1.535-.932 2.512-1.308 3.095l13.45 8.667c1.398-2.17 2.424-4.62 3.19-7.186l-15.332-4.576zm-1.333 3.134c-.446.701-.81 1.051-1.028 1.22L58.435 72.6c1.924-1.485 3.487-3.307 4.754-5.298l-13.499-8.59zM48.573 60c-.236.188-.406.258-.543.295l4.243 15.427a17.45 17.45 0 0 0 6.25-3.192L48.573 60zm-.543.295a6.13 6.13 0 0 1-1.642.219v16c1.993 0 3.961-.263 5.885-.792L48.03 60.296zm-1.642.219a8.49 8.49 0 0 1-1.919-.209l-3.598 15.59a24.48 24.48 0 0 0 5.517.619v-16zm-1.874-.198a1.065 1.065 0 0 1-.397-.2l-9.411 12.94a17.04 17.04 0 0 0 6.12 2.83l3.688-15.57zm-.397-.2c-.128-.093-.45-.369-.9-1.025l-13.212 9.023c1.265 1.853 2.81 3.566 4.701 4.942l9.41-12.94zm-.824-.913c-.271-.412-.691-1.24-1.124-2.697l-15.338 4.554c.73 2.46 1.718 4.845 3.1 6.942l13.362-8.8zm-1.124-2.697c-.42-1.419-.807-3.303-1.106-5.727l-15.88 1.963c.374 3.023.907 5.82 1.648 8.318l15.338-4.554zm-1.096-5.639c-.264-2.346-.409-5.232-.409-8.7h-16c0 3.878.161 7.387.51 10.487l15.9-1.787zm-.409-8.7c0-5.189.381-9.053.997-11.775l-15.606-3.528c-.976 4.316-1.39 9.478-1.39 15.304h16zm.982-11.71c.71-3.022 1.504-4.813 2.127-5.77l-13.405-8.734c-2.008 3.082-3.356 6.83-4.299 10.846l15.577 3.657zm2.157-5.816c.743-1.158 1.176-1.306 1.076-1.26l-6.62-14.566c-3.467 1.575-6.033 4.242-7.921 7.184l13.465 8.642zm1.185-1.31c.667-.316 1.233-.427 1.767-.427v-16c-3.015 0-5.907.685-8.605 1.961l6.838 14.465zm1.767-.427c.55 0 1.116.06 1.706.187l3.381-15.639a24.029 24.029 0 0 0-5.087-.548v16zm1.947.235c.067.012.14.033.27.12l8.876-13.313A16.645 16.645 0 0 0 51.6 7.405L48.702 23.14zm.362.18c.096.062.39.28.818.857l12.84-9.547c-1.346-1.81-2.981-3.459-4.966-4.743L49.064 23.32zm.818.857c.234.314.66 1.042 1.125 2.438l15.18-5.06c-.82-2.46-1.924-4.852-3.465-6.925l-12.84 9.547zm1.138 2.474c.43 1.27.841 3.046 1.163 5.434l15.857-2.138c-.413-3.06-1.01-5.903-1.866-8.428L51.02 26.65zm1.163 5.434c.306 2.269.48 5.122.48 8.615h16c0-3.973-.195-7.576-.623-10.753l-15.857 2.138zm6.611 8.982c0-3.093-.11-5.83-.373-8.118l-15.896 1.824c.166 1.445.27 3.513.27 6.294h16zm-.372-8.103c-.242-2.147-.612-4.27-1.232-6.13l-15.179 5.06c.115.342.326 1.217.512 2.865l15.9-1.795zm-1.232-6.13c-.53-1.592-1.617-4.206-4.06-6.075l-9.72 12.71c-.775-.593-1.164-1.187-1.302-1.42-.144-.244-.156-.334-.097-.156l15.18-5.06zm-3.835-5.895c-1.797-1.48-4.125-2.467-6.783-2.467v16c-.65 0-1.316-.118-1.948-.357a5.116 5.116 0 0 1-1.44-.825l10.171-12.351zm-6.783-2.467c-3.398 0-6.132 1.618-7.932 3.736l12.191 10.363c-.318.374-.858.88-1.669 1.286a5.826 5.826 0 0 1-2.59.615v-16zm-7.798 3.583c-1.738 1.943-2.59 4.294-3.075 6.03l15.411 4.3a5.46 5.46 0 0 1 .116-.37c.03-.082.042-.108.033-.088a2.219 2.219 0 0 1-.13.232c-.082.13-.22.33-.431.565L38.773 22.055zm-3.12 6.198c-.485 1.895-.795 4.065-.999 6.374l15.938 1.406c.164-1.852.374-3.079.562-3.815l-15.5-3.965zm-.998 6.364c-.212 2.365-.307 5.128-.307 8.24h16c0-2.824.088-5.079.243-6.813l-15.936-1.427zm-.307 8.24c0 3.16.111 5.962.367 8.338l15.908-1.713c-.172-1.602-.275-3.786-.275-6.625h-16zm.383 8.474c.278 2.222.682 4.374 1.313 6.265l15.178-5.06c-.165-.495-.403-1.495-.615-3.19l-15.876 1.985zm1.395 6.501c.611 1.659 1.67 3.923 3.66 5.692l10.63-11.958c.497.441.732.819.788.914.062.104.028.07-.064-.18l-15.014 5.532zm3.823 5.832c1.747 1.472 4.128 2.615 6.989 2.615v-16c1.575 0 2.732.654 3.317 1.147L39.95 63.664zm6.989 2.615c3.962 0 6.742-2.245 8.288-4.442 1.377-1.958 2.062-4.195 2.463-6.017l-15.627-3.435c-.212.962-.322.814.076.248.24-.341.749-.95 1.631-1.479a6.201 6.201 0 0 1 3.169-.875v16zm10.75-10.46c.809-3.675 1.105-8.745 1.105-14.752h-16c0 5.806-.315 9.425-.731 11.318L57.69 55.82zM93.562 21.7l7.99.396.424-8.548-8.557.152.142 8zm-.505 14.64 7.998.154v-.001l-7.998-.152zm-.138 23.042h-8v.087l8-.087zm.183 8.537.201 7.997 8.052-.202-.257-8.05-7.995.255zm-9.133.23h-8v8.203l8.2-.206-.2-7.998zm0-5.738h8V34.022l-14.823 24.21 6.823 4.178zm-6.334 5.14-2.463-7.61-.136.043-.135.05 2.734 7.518zm-2.617.597-.332-7.993-.166.007-.166.014.665 7.972zm-1.285.092-1.616 7.835.8.165h.816v-8zm-4.819-2.524-5.79 5.52.066.07.067.067 5.657-5.657zm-3.03-4.865-7.49 2.809.027.07.028.071 7.436-2.95zM64.829 32.3l7.944.942.002-.012-7.946-.93zm.918-6.792 7.906 1.225.001-.009.001-.008-7.908-1.208zm1.01-6.15.147-8-6.83-.125-1.194 6.727 7.877 1.397zm10.006.183 7.908 1.206 1.379-9.037-9.14-.168-.147 7.999zm-.872 5.875-7.918-1.147-.008.056-.007.056 7.933 1.035zm-.78 6.472-7.952-.884-.006.055-.005.055 7.962.774zm-.552 6.655-7.98-.547-.004.052-.003.051 7.987.444zm.046 11.429-7.963.765 7.963-.765zm.735 4.176-7.7 2.172.008.026.007.027 7.685-2.225zm1.285 2.754-6.33 4.892.124.16.132.155 6.074-5.207zm4.59-.918-7.05-3.782 7.05 3.782zm1.56-4.91-7.853-1.525-.01.047-.008.046 7.871 1.431zm.78-6.886-7.985-.48-.003.047-.002.048 7.99.386zm-.045-17.854 7.992-.355-.002-.053-.004-.053-7.986.461zm-.276-4.452-.142-7.999-8.399.15.559 8.381 7.982-.532zm2.337-.58c-.248 5.006-.42 9.968-.513 14.886l15.997.304c.09-4.751.256-9.55.497-14.397l-15.98-.794zm-.513 14.885a767.86 767.86 0 0 0-.14 14.657h16.001c0-4.815.045-9.599.136-14.351l-15.997-.306zm-.14 14.657V59.38h16.001V50.844h-16zm.001 8.624c.032 2.872.094 5.774.188 8.705l15.991-.51a398.47 398.47 0 0 1-.18-8.37l-15.999.175zm7.982.452-9.133.23.402 15.995 9.133-.23L92.9 59.92zm-.932 8.227V62.41h-16v5.737h16zm-14.823-9.914c-.496.81-.822 1.053-.852 1.074l9.2 13.091c2.234-1.57 3.957-3.621 5.297-5.81l-13.645-8.355zm-.852 1.074c-.643.451-1.014.597-1.122.632l4.925 15.223c1.973-.638 3.774-1.624 5.396-2.764l-9.2-13.091zm-1.393.725c-.253.092-.401.131-.457.144-.025.005-.017.003.02-.003.037-.005.112-.014.222-.019l.665 15.986c1.839-.076 3.559-.54 5.018-1.07L74.9 60.031zm-.547.143a70.982 70.982 0 0 1-.915.07l.047-.001c.023-.001.117-.005.247-.005v16c.548 0 1.424-.075 1.95-.12l-1.329-15.944zm.996.23c-.53-.11-.691-.259-.78-.347L63.257 71.372c2.482 2.482 5.534 4.016 8.86 4.702l3.233-15.67zm-.646-.21c-.454-.476-.944-1.19-1.383-2.296L58.448 63.8c1.09 2.75 2.62 5.28 4.675 7.435l11.58-11.04zm-1.329-2.154c-.48-1.28-.87-2.858-1.113-4.793l-15.876 1.985c.37 2.96 1.019 5.788 2.008 8.426l14.981-5.618zm-1.113-4.793a54.204 54.204 0 0 1-.397-6.719h-16c0 2.995.17 5.898.52 8.703l15.877-1.984zm-.397-6.719c0-2.115.084-4.284.253-6.508l-15.955-1.212c-.198 2.61-.298 5.184-.298 7.72h16zm.253-6.508c.175-2.31.394-4.57.655-6.78L56.884 31.36c-.29 2.44-.53 4.924-.721 7.45l15.954 1.21zm.657-6.791c.265-2.265.558-4.43.878-6.497l-15.812-2.45a191.945 191.945 0 0 0-.958 7.089l15.892 1.858zm.88-6.514c.329-2.15.655-4.136.979-5.961L58.879 17.96c-.35 1.969-.696 4.083-1.041 6.34l15.816 2.416zm-7.045.64 10.006.184.293-15.998-10.005-.183-.294 15.997zm2.244-9.021a811.959 811.959 0 0 0-.88 5.934l15.834 2.294c.303-2.094.591-4.033.863-5.816l-15.817-2.412zm-.896 6.046a349.989 349.989 0 0 0-.799 6.623l15.902 1.767c.24-2.155.494-4.261.762-6.32l-15.865-2.07zm-.81 6.733a242.06 242.06 0 0 0-.57 6.882L82.54 39.09c.148-2.16.325-4.302.532-6.428l-15.925-1.548zm-.576 6.985a121.59 121.59 0 0 0-.196 6.732h16c0-1.826.056-3.773.171-5.844l-15.975-.888zm-.196 6.732c0 2.055.085 4.027.266 5.906l15.927-1.531a45.88 45.88 0 0 1-.193-4.375h-16zm.266 5.906c.186 1.939.501 3.82.998 5.583l15.4-4.343c-.177-.624-.352-1.527-.471-2.771L66.64 50.737zm1.013 5.636c.508 1.753 1.303 3.691 2.64 5.42l12.66-9.782c.083.107.137.191.169.244.031.053.043.079.039.07a4.357 4.357 0 0 1-.139-.402l-15.369 4.45zm2.896 5.736c1.96 2.287 4.798 3.757 8.094 3.757v-16c.713 0 1.533.153 2.344.54.797.38 1.357.878 1.71 1.29L70.55 62.109zm8.094 3.757c5.05 0 8.14-3.341 9.62-6.1l-14.1-7.564c.046-.085.37-.67 1.176-1.261a5.65 5.65 0 0 1 3.303-1.075v16zm9.62-6.1c1.2-2.236 1.925-4.75 2.381-7.262l-15.742-2.862c-.277 1.528-.593 2.288-.739 2.56l14.1 7.565zm2.364-7.169c.484-2.496.78-5.18.917-8.023l-15.981-.77c-.108 2.236-.332 4.142-.643 5.745l15.707 3.048zm.912-7.928c.163-2.701.244-5.416.244-8.146h-16c0 2.412-.072 4.806-.215 7.184l15.971.962zm.244-8.146c0-2.011-.032-3.941-.097-5.788l-15.99.561c.058 1.642.087 3.384.087 5.227h16zm-.097-5.788a514.41 514.41 0 0 0-.186-4.756l-15.984.71c.06 1.347.12 2.882.18 4.607l15.99-.56zm-.192-4.862c-.093-1.611-.186-3.12-.28-4.523l-15.964 1.064c.09 1.35.18 2.81.271 4.38l15.973-.92zm-8.12 4.008 10.328-.184-.285-15.997-10.327.183.285 15.998zm54.318 37.21-.286 7.996 8.286.296v-8.291h-8zm-5.003-.137-.154 7.999h.003l.151-7.999zM120.848 67l-.21-7.997-.053.001-.053.002.316 7.994zm-7.206.367-7.991-.386-.431 8.921 8.915-.55-.493-7.985zm.643-16.89-7.996-.263-.001.022v.02l7.997.22zm.045-33.14-7.998.183.001.023.001.023 7.996-.228zm-.688-16.247.796-7.96-9.361-.937.58 9.39 7.985-.493zm1.056.046.724-7.967-.361-.033h-.363v8zm6.058 0 .216 7.997.103-.003.102-.005-.421-7.99zm3.488-.23 7.968.72.852-9.441-9.449.746.629 7.975zm-.872 13.907-7.994-.301-.001.025-.001.025 7.996.252zm-.321 14.78-7.999-.098-.001.024v.024l8 .05zm-.092 14.87-8-.049v.05h8zm-.137 14.275-7.999-.16-.167 8.362 8.361-.204-.195-7.998zm7.297-.367-.613-7.976h-.008l.621 7.976zm7.574-.872h8v-9.284l-9.183 1.372 1.183 7.912zm.285 1.598c-1.756-.063-3.468-.11-5.137-.142l-.302 15.998c1.574.03 3.197.074 4.868.134l.571-15.99zm-5.134-.141a256.214 256.214 0 0 0-4.928-.048v16c1.54 0 3.08.015 4.62.045l.308-15.997zm-4.928-.048c-2.455 0-4.881.032-7.278.095l.42 15.994c2.254-.06 4.54-.089 6.858-.089v-16zm-7.384.098c-2.388.094-4.849.22-7.383.376l.986 15.97c2.423-.15 4.766-.269 7.029-.358l-.632-15.988zm1.101 8.748c.278-5.746.494-11.432.649-17.058l-15.994-.44a803.738 803.738 0 0 1-.637 16.725l15.982.773zm.647-17.015c.187-5.689.28-11.421.28-17.199h-16c0 5.605-.09 11.163-.271 16.674l15.991.525zm.28-17.199c0-5.521-.078-10.998-.233-16.43l-15.993.456a562.2 562.2 0 0 1 .226 15.974h16zm-.232-16.384c-.124-5.49-.358-11.01-.701-16.56l-15.97.987c.33 5.344.555 10.657.675 15.937l15.996-.364zm-9.482-8.106c.634.064 1.261.086 1.852.086v-16c-.098 0-.169-.002-.215-.004-.047-.002-.061-.004-.045-.002l-1.592 15.92zm1.127.053c.658.06 1.329.079 1.964.079v-16c-.164 0-.289-.003-.381-.006l-.134-.007-1.449 15.934zm1.964.079H117.589v-16H115.937v16zm1.652 0c1.062 0 2.19-.017 3.383-.05L120.54-6.86c-1.071.029-2.054.043-2.951.043v16zm3.588-.057c1.232-.065 2.465-.146 3.697-.244l-1.259-15.95a125.3 125.3 0 0 1-3.279.216l.841 15.978zm-4.9-8.938a273.864 273.864 0 0 0-.899 14.325l15.989.603c.179-4.74.461-9.235.845-13.49L116.277.188zm-.901 14.375a786.235 786.235 0 0 0-.324 14.933l15.999.196c.06-4.938.166-9.813.317-14.626l-15.992-.503zm-.325 14.981V29.66l-.001.029v.116l-.001.029V29.98l-.001.028v.146l-.001.028V30.3l-.001.029V30.473l-.001.029v.117l-.001.028v.146l-.001.028V30.938l-.001.029V31.112l-.001.029V31.286l-.001.03V31.431l-.001.028v.146l-.001.029v.116l-.001.029V31.926l-.001.028v.146l-.001.028V32.245l-.001.029V32.419l-.001.029v.117l-.001.028v.146l-.001.028V32.884l-.001.029V33.058l-.001.029V33.232l-.001.03V33.377l-.001.028v.146l-.001.029v.116l-.001.029V33.87l-.001.03V34.016l-.001.028v.146l-.001.029V34.365l-.001.029V34.51l-.001.03v.144l-.001.03v.116l-.001.029V35.004l-.001.029v.146l-.001.028V35.323l-.001.03V35.497l-.001.029v.116l-.001.029V35.817l-.001.03V35.962l-.001.028v.146l-.001.029V36.31l-.001.029V36.456l-.001.03v.144l-.001.03v.116l-.001.029V36.95l-.001.029-.011 1.859-.012 1.859-.011 1.859-.012 1.858 16 .1v-.03l.001-.029V44.31l.001-.028V44.165l.001-.03v-.145l.001-.029V43.816l.001-.029v-.117l.001-.028v-.146l.001-.028V43.35l.001-.029V43.177l.001-.029v-.116l.001-.03v-.144l.001-.03v-.145l.001-.029v-.116l.001-.029V42.363l.001-.028V42.219l.001-.03v-.145l.001-.029V41.87l.001-.029v-.117l.001-.028v-.146l.001-.028V41.405l.001-.029V41.231l.001-.029v-.117l.001-.028v-.146l.001-.028v-.146l.001-.029v-.116l.001-.029V40.418l.001-.03V40.273l.001-.028v-.146l.001-.029v-.116l.001-.029V39.78l.001-.03v-.144l.001-.03v-.116l.001-.029V39.285l.001-.029V39.14l.001-.03v-.144l.001-.03V38.82l.001-.029V38.646l.001-.029V38.472l.001-.03V38.327l.001-.028v-.146l.001-.029v-.116l.001-.029V37.833l.001-.03v-.144l.001-.03v-.116l.001-.029V37.34l.001-.029V37.194l.001-.03v-.086l.006-.93.006-.93.005-.929.006-.93.006-.928.006-.93.005-.93.006-.929-16-.099zm-.092 14.92c0 4.878-.045 9.582-.136 14.115l15.997.32c.093-4.647.139-9.458.139-14.434h-16zm8.058 22.273c2.642-.065 5.218-.194 7.724-.39l-1.243-15.95c-2.206.171-4.496.287-6.871.345l.39 15.995zm7.716-.389c2.599-.2 5.314-.513 8.142-.936l-2.365-15.824c-2.496.373-4.829.64-7.004.808l1.227 15.952zm-1.04-8.848v9.593h16v-9.593h-16zm35.895.367-7.644-2.36-.011.036-.011.036 7.666 2.288zm-2.249 5.14-6.725-4.333-.012.02-.012.019 6.749 4.295zm-2.892 3.26-4.886-6.335-.045.035-.044.035 4.975 6.265zm-10.878 1.836-1.843 7.784.022.005.023.006 1.798-7.795zm-6.058-4.499-6.682 4.4.037.057.038.055 6.607-4.511zm-2.112-4.819-7.669 2.277 7.669-2.277zm-1.376-7.022-7.95.893.004.044.006.044 7.94-.981zm.734-23.133-7.788-1.829-.008.032-.007.033 7.803 1.764zm3.213-8.308 6.703 4.367.015-.023.014-.023-6.732-4.32zm4.498-4.222 3.31 7.283.055-.025.054-.026-3.419-7.232zm8.583-.826-1.691 7.819.12.026.122.022 1.449-7.867zm3.259 1.33-4.438 6.657.046.03.046.03 4.346-6.716zm5.186 7.482-7.589 2.53.006.018.006.018 7.577-2.566zm-8.124 9.776-7.949.898v.007l.001.007 7.948-.912zm-2.203-6.747-5.086 6.176.112.092.114.087 4.86-6.355zm-3.534.276 5.962 5.334.068-.076.065-.077-6.095-5.181zm-1.331 2.845-7.706-2.15-.023.084-.022.084 7.751 1.982zm-.781 5.095 7.969.714.001-.01-7.97-.704zm.046 15.009-7.954.856.008.068.008.068 7.938-.992zm.964 4.727-7.589 2.53.039.119.044.117 7.506-2.766zm1.469 2.479-5.315 5.98.08.07.082.07 5.153-6.12zm7.56-16.845c0 3.509-.159 6.453-.449 8.873l15.887 1.9c.384-3.212.562-6.815.562-10.773h-16zm-.449 8.873c-.295 2.471-.703 4.426-1.169 5.933l15.288 4.72c.82-2.654 1.39-5.595 1.768-8.754l-15.887-1.9zm-1.191 6.005c-.458 1.535-.932 2.512-1.308 3.095l13.449 8.667c1.399-2.17 2.425-4.62 3.191-7.186l-15.332-4.576zm-1.332 3.134c-.447.701-.811 1.051-1.029 1.22l9.773 12.668c1.924-1.485 3.487-3.307 4.754-5.298l-13.498-8.59zM155.472 60a1.47 1.47 0 0 1-.542.295l4.242 15.427a17.448 17.448 0 0 0 6.25-3.192L155.472 60zm-.542.295a6.135 6.135 0 0 1-1.643.219v16c1.993 0 3.961-.263 5.885-.792l-4.242-15.427zm-1.643.219a8.494 8.494 0 0 1-1.919-.209l-3.597 15.59c1.811.419 3.655.619 5.516.619v-16zm-1.874-.198a1.068 1.068 0 0 1-.397-.2l-9.411 12.94a17.04 17.04 0 0 0 6.121 2.83l3.687-15.57zm-.397-.2c-.128-.093-.45-.369-.899-1.025l-13.213 9.023c1.266 1.853 2.809 3.566 4.701 4.942l9.411-12.94zm-.824-.913c-.271-.412-.691-1.24-1.123-2.697l-15.339 4.554c.731 2.46 1.718 4.845 3.099 6.942l13.363-8.8zm-1.123-2.697c-.422-1.419-.807-3.303-1.107-5.727l-15.879 1.963c.374 3.023.906 5.82 1.647 8.318l15.339-4.554zm-1.096-5.639c-.264-2.346-.409-5.232-.409-8.7h-16c0 3.878.16 7.387.509 10.487l15.9-1.787zm-.409-8.7c0-5.189.381-9.053.996-11.775l-15.606-3.528c-.976 4.316-1.39 9.478-1.39 15.304h16zm.981-11.71c.71-3.022 1.504-4.813 2.128-5.77l-13.406-8.734c-2.008 3.082-3.355 6.83-4.298 10.846l15.576 3.657zm2.157-5.816c.744-1.158 1.176-1.306 1.076-1.26l-6.621-14.566c-3.466 1.575-6.032 4.242-7.92 7.184l13.465 8.642zm1.185-1.31c.667-.316 1.233-.427 1.767-.427v-16c-3.015 0-5.907.685-8.605 1.961l6.838 14.465zm1.767-.427c.551 0 1.117.06 1.706.187l3.382-15.639a24.035 24.035 0 0 0-5.088-.548v16zm1.948.235a.664.664 0 0 1 .27.12l8.875-13.313a16.648 16.648 0 0 0-6.247-2.542l-2.898 15.735zm.362.18c.096.062.389.28.818.857l12.839-9.547c-1.346-1.81-2.981-3.459-4.965-4.743l-8.692 13.433zm.818.857c.233.314.659 1.042 1.125 2.438l15.179-5.06c-.82-2.46-1.924-4.852-3.465-6.925l-12.839 9.547zm1.137 2.474c.43 1.27.842 3.046 1.164 5.434l15.856-2.138c-.412-3.06-1.01-5.903-1.866-8.428l-15.154 5.132zm1.164 5.434c.305 2.269.479 5.122.479 8.615h16c0-3.973-.195-7.576-.623-10.753l-15.856 2.138zm6.61 8.982c0-3.093-.11-5.83-.373-8.118l-15.896 1.824c.166 1.445.269 3.513.269 6.294h16zm-.371-8.103c-.243-2.147-.612-4.27-1.232-6.13l-15.179 5.06c.114.342.326 1.217.512 2.865l15.899-1.795zm-1.232-6.13c-.531-1.592-1.618-4.206-4.061-6.075l-9.72 12.71c-.775-.593-1.164-1.187-1.302-1.42-.144-.244-.156-.334-.096-.156l15.179-5.06zm-3.835-5.895c-1.798-1.48-4.126-2.467-6.784-2.467v16a5.524 5.524 0 0 1-1.948-.357 5.117 5.117 0 0 1-1.44-.825l10.172-12.351zm-6.784-2.467c-3.397 0-6.131 1.618-7.932 3.736l12.191 10.363a5.3 5.3 0 0 1-1.668 1.286 5.83 5.83 0 0 1-2.591.615v-16zm-7.798 3.583c-1.738 1.943-2.59 4.294-3.075 6.03l15.411 4.3c.047-.168.087-.29.116-.37.029-.082.042-.108.033-.088a2.037 2.037 0 0 1-.13.232c-.082.13-.22.33-.431.565l-11.924-10.669zm-3.12 6.198c-.485 1.895-.795 4.065-.999 6.374l15.939 1.406c.163-1.852.373-3.079.561-3.815l-15.501-3.965zm-.998 6.364c-.211 2.365-.307 5.128-.307 8.24h16c0-2.824.088-5.079.244-6.813l-15.937-1.427zm-.307 8.24c0 3.16.112 5.962.367 8.338l15.908-1.713c-.172-1.602-.275-3.786-.275-6.625h-16zm.383 8.474c.278 2.222.682 4.374 1.313 6.265l15.179-5.06c-.165-.495-.404-1.495-.615-3.19l-15.877 1.985zm1.396 6.501c.611 1.659 1.669 3.923 3.66 5.692l10.63-11.958c.497.441.731.819.787.914.062.104.028.07-.064-.18l-15.013 5.532zm3.822 5.832c1.747 1.472 4.128 2.615 6.989 2.615v-16c1.575 0 2.733.654 3.317 1.147l-10.306 12.238zm6.989 2.615c3.962 0 6.743-2.245 8.288-4.442 1.377-1.958 2.062-4.195 2.463-6.017l-15.627-3.435c-.211.962-.321.814.076.248.24-.341.749-.95 1.632-1.479a6.198 6.198 0 0 1 3.168-.875v16zm10.751-10.46c.808-3.675 1.104-8.745 1.104-14.752h-16c0 5.806-.315 9.425-.731 11.318l15.627 3.435zm28.435-2.543h8v-.11l-.003-.109-7.997.22zm-1.377 6.84-7.155-3.578-.012.024-.012.024 7.179 3.53zm-3.396 4.36-4.998-6.247-.034.027-.034.028 5.066 6.192zm-4.452 2.386 2.178 7.698.067-.019.067-.02-2.312-7.659zm-4.59.689-.229 7.996.115.004h.114v-8zm-3.121-.367 1.66-7.826-.02-.004-.019-.005-1.621 7.835zm-2.846-.827-3.011 7.412.137.056.14.05 2.734-7.518zm-2.662-1.698-7.995-.28-.129 3.668 2.698 2.49 5.426-5.878zm.367-10.465 5.019-6.23-12.453-10.031-.561 15.98 7.995.281zm6.472 3.167-1.999 7.747.029.007.029.008 1.941-7.762zm3.213.505-.47 7.986 2.256.133 1.991-1.067-3.777-7.052zm1.973-1.928-6.946-3.969-.024.042-.023.042 6.993 3.886zm.092-5.645-7.443 2.932.054.138.06.136 7.329-3.206zm-1.882-2.846 5.755-5.556-.048-.051-.05-.05-5.657 5.657zm-3.075-3.075-5.8 5.51.071.074.072.073 5.657-5.657zm-3.396-4.13-6.554 4.587.03.044.031.043 6.493-4.675zm-2.754-5.095-7.445 2.928.021.053.021.052 7.403-3.033zm-.23-12.026-7.576-2.568-.014.039-.012.039 7.602 2.49zm2.525-4.636-6.074-5.206-.037.042-.035.043 6.146 5.121zm3.901-2.983-3.343-7.268-.028.013-.028.013 3.399 7.242zm9.776-.367-2.07 7.727.065.018.065.016 1.94-7.761zm5.462 2.065 7.981.548.368-5.356-4.817-2.37-3.532 7.178zm-.734 10.695-5.301 5.991 12.169 10.765 1.113-16.208-7.981-.549zm-2.525-1.699-3.675 7.106.098.05.099.049 3.478-7.205zm-2.478-1.055 2.438-7.62-.033-.01-.034-.01-2.371 7.64zm-2.616-.551.852-7.955-1.157-.124-1.145.211 1.45 7.868zm-2.984 1.836 6.115 5.159.039-.047.038-.046-6.192-5.066zm-.367 7.665-7.075 3.734.063.118.066.117 6.946-3.97zm2.249 3.075-5.928 5.372.088.097.091.094 5.749-5.563zm2.984 2.892-5.399 5.904.047.042.047.042 5.305-5.988zm2.983 3.258-6.4 4.8.038.051.039.05 6.323-4.9zm2.387 4.223-7.418 2.996.024.06.026.061 7.368-3.117zm-6.899 5.737c0 1.87-.321 2.838-.532 3.261l14.311 7.156c1.624-3.249 2.221-6.84 2.221-10.417h-16zm-.556 3.31c-.442.899-.877 1.373-1.215 1.643l9.995 12.493c2.417-1.933 4.246-4.366 5.579-7.078l-14.359-7.058zm-1.283 1.698a4.835 4.835 0 0 1-1.698.92l4.624 15.317a20.834 20.834 0 0 0 7.206-3.854l-10.132-12.383zm-1.565.88c-1.031.292-1.823.387-2.411.387v16c2.288 0 4.556-.365 6.768-.991l-4.357-15.395zm-2.183.39a9.391 9.391 0 0 1-1.689-.196l-3.32 15.652c1.498.317 3.018.494 4.552.537l.457-15.993zm-1.728-.205a12.614 12.614 0 0 1-1.733-.51l-5.468 15.037c1.308.475 2.632.867 3.959 1.142l3.242-15.669zm-1.456-.403a.772.772 0 0 1-.247-.165l-10.852 11.757a16.752 16.752 0 0 0 5.077 3.231l6.022-14.823zm2.322 5.994.367-10.465-15.99-.561-.367 10.465 15.99.56zm-12.647-4.516c1.583 1.275 3.312 2.364 5.194 3.179l6.351-14.686c-.382-.165-.887-.453-1.507-.953l-10.038 12.46zm5.194 3.179c1.421.614 2.86 1.134 4.298 1.505l3.998-15.493c-.46-.118-1.101-.333-1.945-.698l-6.351 14.686zm4.356 1.52c1.542.385 3.106.637 4.684.73l.939-15.973a9.493 9.493 0 0 1-1.742-.28l-3.881 15.523zm8.931-.205a12.794 12.794 0 0 0 5.19-5.094l-13.987-7.77a3.224 3.224 0 0 1 1.242-1.24l7.555 14.104zm5.142-5.01c1.218-2.132 1.789-4.461 1.789-6.815h-16c0-.113.014-.29.07-.508.057-.22.143-.43.249-.616l13.892 7.939zm1.789-6.815c0-2.193-.532-4.219-1.314-6.007L175.368 53.5c.074.171-.028.012-.028-.406h16zm-1.2-5.732c-.831-2.112-2.082-3.93-3.57-5.47l-11.51 11.113c.116.12.174.2.195.233.021.031.014.026-.001-.012l14.886-5.864zm-3.668-5.57-.674-.675a.3.3 0 0 0-.006-.005l-.005-.006-.006-.005a.025.025 0 0 0-.005-.006l-.006-.005-.005-.006-.006-.005-.005-.006-.022-.022-.006-.006-.006-.005a.028.028 0 0 0-.005-.006l-.006-.005a1.54 1.54 0 0 1-.05-.05l-.006-.006-.005-.006-.006-.006-.006-.005a.023.023 0 0 0-.005-.006l-.006-.005-.005-.006-.006-.006-.006-.005-.011-.012-.011-.011-.006-.006-.006-.005-.045-.046-.006-.005-.006-.006a.026.026 0 0 0-.005-.006l-.006-.006-.011-.011a.323.323 0 0 0-.006-.006l-.006-.006-.023-.022-.023-.024-.046-.046a1.823 1.823 0 0 1-.046-.046l-.006-.006-.006-.006-.012-.011-.011-.012-.006-.006-.006-.006-.012-.011-.006-.006-.006-.006-.005-.006-.006-.006a.331.331 0 0 1-.006-.006l-.006-.006-.095-.094-.047-.048-.048-.048-.393-.392-.202-.202-.102-.103-.104-.103-.863-.864-11.314 11.314a598.482 598.482 0 0 0 1.07 1.07l.101.1.051.051a.537.537 0 0 0 .05.05 31.036 31.036 0 0 0 .392.393l.737.737.674.674 11.314-11.314zm-2.932-2.929a31.56 31.56 0 0 1-2.704-3.295l-12.985 9.349a47.456 47.456 0 0 0 4.089 4.966l11.6-11.02zm-2.643-3.209a18.146 18.146 0 0 1-1.905-3.54l-14.805 6.067c.972 2.371 2.166 4.597 3.603 6.649l13.107-9.175zm-1.863-3.435c-.333-.846-.546-1.877-.546-3.176h-16c0 3.107.521 6.146 1.657 9.033l14.889-5.858zm-.546-3.176c0-1.462.196-2.579.475-3.43l-15.205-4.981c-.884 2.697-1.27 5.528-1.27 8.411h16zm.449-3.353c.339-1.002.734-1.65 1.093-2.082l-12.291-10.243c-1.783 2.139-3.071 4.58-3.955 7.189l15.153 5.136zm1.022-1.997c.38-.445.775-.737 1.226-.948L174.387 8.26a19.556 19.556 0 0 0-6.576 5.019l12.148 10.413zm1.17-.922c.407-.187.924-.324 1.66-.324v-16c-2.875 0-5.694.568-8.346 1.788l6.686 14.536zm1.66-.324c.643 0 1.53.102 2.703.416l4.14-15.455c-2.254-.604-4.549-.96-6.843-.96v16zm2.833.45c1.061.265 2.346.732 3.87 1.482l7.064-14.356c-2.331-1.147-4.687-2.057-7.053-2.648l-3.881 15.522zm-.579-6.244-.734 10.694 15.962 1.097.734-10.695-15.962-1.096zm12.547 5.25a19.067 19.067 0 0 0-4.347-2.91L186.287 33.4c.178.086.413.23.702.485l10.601-11.983zm-4.149-2.812a24.16 24.16 0 0 0-3.716-1.569l-4.876 15.239c.251.08.659.241 1.241.542l7.351-14.212zm-3.783-1.59a21.771 21.771 0 0 0-4.135-.865l-1.705 15.91c.304.032.667.102 1.098.236l4.742-15.28zm-6.437-.778c-3.222.594-5.833 2.325-7.725 4.638l12.383 10.132a2.57 2.57 0 0 1-.633.53 3.326 3.326 0 0 1-1.126.436l-2.899-15.736zm-7.648 4.545c-2.294 2.719-3.125 5.947-3.125 8.968h16c0-.078.01.066-.083.352a3.033 3.033 0 0 1-.563.998l-12.229-10.318zm-3.125 8.968c0 2.538.508 5.148 1.797 7.59l14.15-7.468c.027.05.045.094.058.128.012.033.016.052.016.05 0 0-.021-.092-.021-.3h-16zm1.926 7.825a25.538 25.538 0 0 0 3.267 4.478l11.856-10.744a9.556 9.556 0 0 1-1.231-1.672l-13.892 7.938zm3.446 4.67a76.466 76.466 0 0 0 3.334 3.232l10.797-11.809a59.62 59.62 0 0 1-2.633-2.55L177.82 42.729zm3.428 3.316a13.82 13.82 0 0 1 1.888 2.07l12.8-9.6a29.842 29.842 0 0 0-4.079-4.447l-10.609 11.977zm1.965 2.171c.452.583.895 1.336 1.292 2.318l14.836-5.992c-.889-2.2-2.037-4.263-3.482-6.127l-12.646 9.801zm1.342 2.44c.189.446.431 1.323.472 2.839l15.994-.439c-.081-2.952-.573-5.9-1.731-8.635l-14.735 6.234zm38.522 15.104 2.603 7.565 6.256-2.153-.941-6.55-7.918 1.138zm-7.803 1.928-1.03-7.934-.014.002 1.044 7.932zm-10.648-.643-3.701 7.093 3.701-7.093zm-3.672-2.938-6.171 5.091.037.046.038.045 6.096-5.182zm-2.525-4.222-7.389 3.067.011.025.01.025 7.368-3.117zm-1.606-5.095-7.807 1.75 7.807-1.75zm-.872-5.37-7.973.664.006.073.008.072 7.959-.81zm.734-16.34 7.861 1.487.002-.013-7.863-1.474zm2.8-8.858 7.173 3.542-7.173-3.542zm4.544-5.784 4.851 6.361.034-.025.034-.026-4.919-6.31zm17.854 11.154-7.856 1.508.009.046.009.046 7.838-1.6zm.827 14.228-7.99-.41-.005.103-.003.102 7.998.205zm-.23 3.718 1.053 7.93 6.308-.837.603-6.334-7.964-.759zm-16.248 2.157-1.053-7.93-7.74 1.028.839 7.762 7.954-.86zm.551 3.213-7.775 1.885.027.11.03.11 7.718-2.105zm1.055 2.708-7.043 3.793.088.164.095.16 6.86-4.117zm8.813 2.25.883 7.95.073-.008.072-.01-1.028-7.933zm5.186-.735 7.919-1.137-1.147-7.989-7.978 1.217 1.206 7.909zm-15.88-15.238h-8v9.632l9.468-1.768-1.468-7.864zm7.619-1.423 1.468 7.864 6.532-1.22v-6.644h-8zm-.597-7.757-7.71 2.133.005.021.007.021 7.698-2.175zm-1.285-3.167 6.61-4.507-.016-.023-.017-.024-6.577 4.554zm-1.882-1.377 1.371-7.882-1.092-.19-1.102.114.823 7.958zm-3.305 4.085-7.784-1.844-.018.076-.017.077 7.819 1.69zm13.967 25.941c-2.464.848-4.529 1.338-6.23 1.56l2.06 15.866c3.011-.391 6.148-1.186 9.376-2.296l-5.206-15.13zm-6.244 1.56c-2.149.284-3.68.392-4.693.392v16c1.985 0 4.279-.199 6.781-.528l-2.088-15.863zm-4.693.392c-.804 0-1.131-.153-1.211-.195l-7.401 14.186c2.735 1.427 5.683 2.008 8.612 2.008v-16zm-1.211-.195a4.174 4.174 0 0 1-1.277-1.026L194.858 69.29c1.7 2 3.734 3.632 6.067 4.849l7.401-14.186zm-1.201-.936c-.476-.577-.93-1.307-1.328-2.248l-14.736 6.234c.948 2.24 2.178 4.325 3.722 6.197l12.342-10.183zm-1.307-2.198a22.93 22.93 0 0 1-1.189-3.778l-15.613 3.5a38.989 38.989 0 0 0 2.024 6.412l14.778-6.134zm-1.189-3.778a37.661 37.661 0 0 1-.719-4.43l-15.918 1.62a53.712 53.712 0 0 0 1.024 6.31l15.613-3.5zm-.706-4.284a54.657 54.657 0 0 1-.202-4.523h-16c0 1.871.088 3.823.257 5.851l15.945-1.328zm-.202-4.523c0-3.62.289-6.833.825-9.666l-15.721-2.974c-.75 3.96-1.104 8.183-1.104 12.64h16zm.827-9.679c.541-2.887 1.281-5.11 2.11-6.79l-14.346-7.085c-1.619 3.278-2.746 6.96-3.49 10.927l15.726 2.948zm2.11-6.79c.795-1.61 1.588-2.48 2.222-2.965l-9.703-12.722c-2.976 2.27-5.212 5.255-6.865 8.602l14.346 7.085zm2.29-3.017c.396-.308.714-.42 1.231-.42v-16c-4.072 0-7.854 1.296-11.069 3.802l9.838 12.618zm1.231-.42c.491 0 .773.102 1.031.26l8.311-13.673c-2.863-1.74-6.039-2.587-9.342-2.587v16zm1.031.26c.146.087.594.41 1.176 1.445l13.946-7.844c-1.622-2.882-3.835-5.465-6.811-7.274l-8.311 13.672zm1.176 1.445c.554.985 1.166 2.593 1.641 5.068l15.713-3.016c-.688-3.584-1.759-6.964-3.408-9.896l-13.946 7.844zm1.659 5.16c.475 2.326.756 5.327.756 9.094h16c0-4.495-.33-8.623-1.079-12.294l-15.677 3.2zm.756 9.094c0 1.023-.027 2.064-.081 3.125l15.979.819c.068-1.326.102-2.64.102-3.944h-16zm-.089 3.33a45.66 45.66 0 0 1-.196 3.164l15.928 1.517c.139-1.455.227-2.88.263-4.272l-15.995-.41zm6.715-4.008-16.248 2.157 2.106 15.86 16.248-2.157-2.106-15.86zm-23.149 10.947c.157 1.445.396 2.86.73 4.238l15.55-3.77a16.933 16.933 0 0 1-.372-2.188l-15.908 1.72zm.787 4.458c.41 1.506.972 2.989 1.73 4.396l14.087-7.586c-.099-.184-.241-.506-.381-1.02l-15.436 4.21zm1.913 4.72c.905 1.506 2.101 2.945 3.667 4.12l9.6-12.8c.341.255.467.47.453.447l-13.72 8.232zm3.667 4.12c2.21 1.657 4.718 2.288 7.049 2.288v-16c.247 0 .637.032 1.114.178.488.15.983.393 1.437.733l-9.6 12.8zm7.049 2.288c1.949 0 3.896-.109 5.84-.325l-1.767-15.902c-1.36.151-2.718.227-4.073.227v16zm5.985-.342c1.717-.223 3.506-.476 5.365-.76l-2.413-15.817c-1.752.267-3.421.504-5.009.71l2.057 15.867zm-3.76-7.53 1.239 8.628 15.837-2.274-1.239-8.63-15.837 2.275zm-6.494-8.512 7.619-1.423-2.937-15.728-7.619 1.422 2.937 15.729zm14.151-9.287v-1.744h-16v1.744h16zm0-1.744c0-2.86-.203-5.728-.898-8.189l-15.397 4.351c.1.354.295 1.496.295 3.838h16zm-.886-8.146c-.472-1.703-1.18-3.771-2.386-5.54l-13.22 9.013c-.103-.152-.156-.253-.169-.277-.013-.027-.001-.006.032.075.069.17.181.488.322.995l15.421-4.266zm-2.419-5.588c-1.325-1.914-3.61-4.1-7.088-4.705l-2.742 15.764c-2.07-.36-3.101-1.628-3.325-1.951l13.155-9.108zm-9.282-4.78c-3.204.33-5.977 1.975-7.816 4.572l13.056 9.248a5.05 5.05 0 0 1-1.561 1.415 5.084 5.084 0 0 1-2.033.68l-1.646-15.916zm-7.816 4.572c-1.274 1.797-2.012 3.774-2.45 5.626l15.569 3.688a3.492 3.492 0 0 1 .098-.334c.004-.01-.039.096-.161.268l-13.056-9.248zm-2.485 5.78c-.361 1.667-.556 3.417-.632 5.205l15.985.68c.046-1.088.157-1.908.286-2.505l-15.639-3.38zm-.632 5.205c-.067 1.554-.099 3.12-.099 4.7h16c0-1.357.028-2.697.084-4.02l-15.985-.68zm-.099 4.7v1.424h16V40.47h-16z" fill="#243041" mask="url(#b)"/><defs><linearGradient id="a" x1="112.5" y1="-5.448" x2="112.5" y2="89" gradientUnits="userSpaceOnUse"><stop stop-color="#67B6FF"/><stop offset="1" stop-color="#fff"/></linearGradient></defs></svg>